%TF.GenerationSoftware,KiCad,Pcbnew,10.0.2*%
%TF.CreationDate,2026-09-28T15:33:19+00:00*%
%TF.ProjectId,PoE-Speaker-RevE,506f452d-5370-4656-916b-65722d526576,rev?*%
%TF.SameCoordinates,Original*%
%TF.FileFunction,Copper,L3,Inr*%
%TF.FilePolarity,Positive*%
%FSLAX46Y46*%
G04 Gerber Fmt 4.6, Leading zero omitted, Abs format (unit mm)*
G04 Created by KiCad (PCBNEW 10.0.2) date 2026-09-28 15:33:19*
%MOMM*%
%LPD*%
G01*
G04 APERTURE LIST*
G04 Aperture macros list*
%AMRoundRect*
0 Rectangle with rounded corners*
0 $1 Rounding radius*
0 $2 $3 $4 $5 $6 $7 $8 $9 X,Y pos of 4 corners*
0 Add a 4 corners polygon primitive as box body*
4,1,4,$2,$3,$4,$5,$6,$7,$8,$9,$2,$3,0*
0 Add four circle primitives for the rounded corners*
1,1,$1+$1,$2,$3*
1,1,$1+$1,$4,$5*
1,1,$1+$1,$6,$7*
1,1,$1+$1,$8,$9*
0 Add four rect primitives between the rounded corners*
20,1,$1+$1,$2,$3,$4,$5,0*
20,1,$1+$1,$4,$5,$6,$7,0*
20,1,$1+$1,$6,$7,$8,$9,0*
20,1,$1+$1,$8,$9,$2,$3,0*%
G04 Aperture macros list end*
%TA.AperFunction,ComponentPad*%
%ADD10RoundRect,0.250001X-0.949999X-0.949999X0.949999X-0.949999X0.949999X0.949999X-0.949999X0.949999X0*%
%TD*%
%TA.AperFunction,ComponentPad*%
%ADD11C,2.400000*%
%TD*%
%TA.AperFunction,ComponentPad*%
%ADD12C,2.500000*%
%TD*%
%TA.AperFunction,ComponentPad*%
%ADD13RoundRect,0.250000X-0.550000X0.550000X-0.550000X-0.550000X0.550000X-0.550000X0.550000X0.550000X0*%
%TD*%
%TA.AperFunction,ComponentPad*%
%ADD14C,1.600000*%
%TD*%
%TA.AperFunction,HeatsinkPad*%
%ADD15C,0.600000*%
%TD*%
%TA.AperFunction,ComponentPad*%
%ADD16R,1.650000X1.650000*%
%TD*%
%TA.AperFunction,ComponentPad*%
%ADD17C,1.650000*%
%TD*%
%TA.AperFunction,ComponentPad*%
%ADD18RoundRect,0.250000X0.750000X-0.750000X0.750000X0.750000X-0.750000X0.750000X-0.750000X-0.750000X0*%
%TD*%
%TA.AperFunction,ComponentPad*%
%ADD19C,2.000000*%
%TD*%
%TA.AperFunction,ComponentPad*%
%ADD20R,1.800000X1.800000*%
%TD*%
%TA.AperFunction,ComponentPad*%
%ADD21C,1.800000*%
%TD*%
%TA.AperFunction,ComponentPad*%
%ADD22R,1.700000X1.700000*%
%TD*%
%TA.AperFunction,ComponentPad*%
%ADD23O,1.700000X1.700000*%
%TD*%
%TA.AperFunction,ComponentPad*%
%ADD24RoundRect,0.250000X-0.750000X-0.750000X0.750000X-0.750000X0.750000X0.750000X-0.750000X0.750000X0*%
%TD*%
%TA.AperFunction,ComponentPad*%
%ADD25RoundRect,0.250000X-0.550000X-0.550000X0.550000X-0.550000X0.550000X0.550000X-0.550000X0.550000X0*%
%TD*%
%TA.AperFunction,ComponentPad*%
%ADD26R,1.530000X1.530000*%
%TD*%
%TA.AperFunction,ComponentPad*%
%ADD27C,1.530000*%
%TD*%
%TA.AperFunction,ComponentPad*%
%ADD28C,1.290000*%
%TD*%
%TA.AperFunction,ComponentPad*%
%ADD29C,2.475000*%
%TD*%
%TA.AperFunction,HeatsinkPad*%
%ADD30C,0.500000*%
%TD*%
%TA.AperFunction,ViaPad*%
%ADD31C,0.600000*%
%TD*%
%TA.AperFunction,ViaPad*%
%ADD32C,0.800000*%
%TD*%
%TA.AperFunction,Conductor*%
%ADD33C,1.000000*%
%TD*%
%TA.AperFunction,Conductor*%
%ADD34C,0.900000*%
%TD*%
%TA.AperFunction,Conductor*%
%ADD35C,1.500000*%
%TD*%
%TA.AperFunction,Conductor*%
%ADD36C,0.800000*%
%TD*%
%TA.AperFunction,Conductor*%
%ADD37C,0.600000*%
%TD*%
%TA.AperFunction,Conductor*%
%ADD38C,0.700000*%
%TD*%
%TA.AperFunction,Conductor*%
%ADD39C,0.500000*%
%TD*%
%TA.AperFunction,Conductor*%
%ADD40C,2.000000*%
%TD*%
G04 APERTURE END LIST*
D10*
%TO.N,24V_AMP*%
%TO.C,C4*%
X242576041Y-138770000D03*
D11*
%TO.N,GND*%
X247576041Y-138770000D03*
%TD*%
D12*
%TO.N,24V_BENCH_RAW*%
%TO.C,J2*%
X262520000Y-147960000D03*
%TO.N,GND*%
X257440000Y-147960000D03*
%TD*%
D13*
%TO.N,24V_AMP*%
%TO.C,C5*%
X231220000Y-129110000D03*
D14*
%TO.N,GND*%
X231220000Y-132610000D03*
%TD*%
D15*
%TO.N,GND*%
%TO.C,U2*%
X153065000Y-91850000D03*
X153065000Y-93250000D03*
X153765000Y-91150000D03*
X153765000Y-92550000D03*
X153765000Y-93950000D03*
X154465000Y-91850000D03*
X154465000Y-93250000D03*
X155165000Y-91150000D03*
X155165000Y-92550000D03*
X155165000Y-93950000D03*
X155865000Y-91850000D03*
X155865000Y-93250000D03*
%TD*%
D16*
%TO.N,N/C*%
%TO.C,U1*%
X114500000Y-120890000D03*
D17*
X114500000Y-123430000D03*
%TO.N,AT_DET_PRIMARY*%
X114500000Y-125970000D03*
%TO.N,BT3_DET_PRIMARY*%
X114500000Y-128510000D03*
%TO.N,BT4_DET_PRIMARY*%
X114500000Y-131050000D03*
%TO.N,N/C*%
X114500000Y-133590000D03*
%TO.N,POE_RECT_NEG*%
X114500000Y-136130000D03*
%TO.N,POE_RECT_POS*%
X114500000Y-138670000D03*
%TO.N,24V_POE*%
X180540000Y-141210000D03*
X180540000Y-138670000D03*
%TO.N,POE_12V_MID*%
X180540000Y-136130000D03*
X180540000Y-133590000D03*
X180540000Y-131050000D03*
X180540000Y-128510000D03*
%TO.N,GND*%
X180540000Y-125970000D03*
X180540000Y-123430000D03*
%TO.N,N/C*%
X180540000Y-120890000D03*
%TD*%
D18*
%TO.N,24V_POE*%
%TO.C,C2*%
X190190000Y-143680000D03*
D19*
%TO.N,POE_12V_MID*%
X190190000Y-138680000D03*
%TD*%
D20*
%TO.N,BT4_LED_A*%
%TO.C,U14*%
X136790000Y-107230000D03*
D21*
%TO.N,BT4_DET_PRIMARY*%
X136790000Y-109770000D03*
%TO.N,GND*%
X144410000Y-109750000D03*
%TO.N,POE_BT4_DET*%
X144410000Y-107210000D03*
%TD*%
D22*
%TO.N,3V3*%
%TO.C,J6*%
X200040000Y-72520000D03*
D23*
%TO.N,GND*%
X197500000Y-72520000D03*
%TO.N,I2C_SDA*%
X194960000Y-72520000D03*
%TO.N,I2C_SCL*%
X192420000Y-72520000D03*
%TO.N,EXP_GPIO0*%
X189880000Y-72520000D03*
%TO.N,EXP_GPIO1*%
X187340000Y-72520000D03*
%TD*%
D22*
%TO.N,3V3*%
%TO.C,J4*%
X146930000Y-75030000D03*
D23*
%TO.N,GND*%
X146930000Y-72490000D03*
%TO.N,PDM_CLK*%
X149470000Y-75030000D03*
%TO.N,GND*%
X149470000Y-72490000D03*
%TO.N,PDM_DATA0_CONN*%
X152010000Y-75030000D03*
%TO.N,GND*%
X152010000Y-72490000D03*
%TO.N,PDM_DATA1_CONN*%
X154550000Y-75030000D03*
%TO.N,GND*%
X154550000Y-72490000D03*
%TO.N,PDM_DATA2_CONN*%
X157090000Y-75030000D03*
%TO.N,GND*%
X157090000Y-72490000D03*
%TO.N,PDM_DATA3_CONN*%
X159630000Y-75030000D03*
%TO.N,I2C_SDA*%
X159630000Y-72490000D03*
%TO.N,I2C_SCL*%
X162170000Y-75030000D03*
%TO.N,RING_GPIO_SPARE*%
X162170000Y-72490000D03*
%TD*%
D24*
%TO.N,POE_12V_MID*%
%TO.C,C1*%
X187972323Y-129200000D03*
D19*
%TO.N,GND*%
X192972323Y-129200000D03*
%TD*%
D25*
%TO.N,24V_AMP*%
%TO.C,C6*%
X230060000Y-120092651D03*
D14*
%TO.N,GND*%
X233560000Y-120092651D03*
%TD*%
D20*
%TO.N,BT3_LED_A*%
%TO.C,U13*%
X121220000Y-102980000D03*
D21*
%TO.N,BT3_DET_PRIMARY*%
X121220000Y-105520000D03*
%TO.N,GND*%
X128840000Y-105500000D03*
%TO.N,POE_BT3_DET*%
X128840000Y-102960000D03*
%TD*%
D12*
%TO.N,SPK_POS*%
%TO.C,J3*%
X213060000Y-147640000D03*
%TO.N,SPK_NEG*%
X207980000Y-147640000D03*
%TD*%
D20*
%TO.N,AT_LED_A*%
%TO.C,U12*%
X108050000Y-104100000D03*
D21*
%TO.N,AT_DET_PRIMARY*%
X108050000Y-106640000D03*
%TO.N,GND*%
X115670000Y-106620000D03*
%TO.N,POE_AT_DET*%
X115670000Y-104080000D03*
%TD*%
D26*
%TO.N,N/C*%
%TO.C,J1*%
X106860000Y-92130000D03*
D27*
X106860000Y-90098000D03*
X106860000Y-88066000D03*
%TO.N,ETH_RX_P*%
X106860000Y-86034000D03*
%TO.N,ETH_RX_N*%
X106860000Y-84002000D03*
%TO.N,ETH_RX_CT*%
X106860000Y-81970000D03*
%TO.N,N/C*%
X109400000Y-93146000D03*
X109400000Y-91114000D03*
X109400000Y-89082000D03*
%TO.N,ETH_TX_N*%
X109400000Y-85018000D03*
%TO.N,ETH_TX_P*%
X109400000Y-82986000D03*
%TO.N,ETH_TX_CT*%
X109400000Y-80954000D03*
D28*
%TO.N,POE_MODE_A_AC1*%
X99750000Y-92640000D03*
%TO.N,POE_MODE_A_AC2*%
X99750000Y-81460000D03*
%TO.N,POE_MODE_B_AC1*%
X98210000Y-92640000D03*
%TO.N,POE_MODE_B_AC2*%
X98210000Y-81460000D03*
D27*
%TO.N,N/C*%
X111940000Y-93146000D03*
X111940000Y-90606000D03*
X111940000Y-83494000D03*
X111940000Y-80954000D03*
D29*
X88440000Y-95115000D03*
X88440000Y-78985000D03*
%TD*%
D10*
%TO.N,24V_AMP*%
%TO.C,C3*%
X241930000Y-124870000D03*
D11*
%TO.N,GND*%
X246930000Y-124870000D03*
%TD*%
D22*
%TO.N,3V3*%
%TO.C,J5*%
X168650000Y-72830000D03*
D23*
%TO.N,GND*%
X171190000Y-72830000D03*
%TO.N,UART0_TX*%
X173730000Y-72830000D03*
%TO.N,ESP_EN*%
X176270000Y-72830000D03*
%TO.N,UART0_RX*%
X178810000Y-72830000D03*
%TO.N,BOOT_GPIO0*%
X181350000Y-72830000D03*
%TD*%
D30*
%TO.N,GND*%
%TO.C,U16*%
X243467500Y-82140000D03*
X243467500Y-81040000D03*
X243467500Y-79940000D03*
X242367500Y-82140000D03*
X242367500Y-81040000D03*
X242367500Y-79940000D03*
X241267500Y-82140000D03*
X241267500Y-81040000D03*
X241267500Y-79940000D03*
%TD*%
D31*
%TO.N,GND*%
X193580000Y-114780000D03*
X221210000Y-80960000D03*
X126860000Y-93870000D03*
X241210000Y-72790000D03*
X131750000Y-95200000D03*
X201320000Y-112180000D03*
X171280000Y-82540000D03*
X119970000Y-81590000D03*
X243313064Y-88396936D03*
X178890000Y-98650000D03*
X211270000Y-92850000D03*
X188110000Y-104680000D03*
X188640000Y-112470000D03*
X130440000Y-87910000D03*
X217840000Y-74700000D03*
X128724406Y-88831405D03*
X207960000Y-105450000D03*
X242950764Y-79921457D03*
X166970000Y-97380000D03*
X196860000Y-77150000D03*
X242480000Y-92380000D03*
X184290000Y-77960000D03*
X175220493Y-97099619D03*
X128640000Y-95480000D03*
X142700000Y-86200000D03*
X174103884Y-91230001D03*
X256610000Y-72230000D03*
X191940000Y-87920000D03*
X175950000Y-85910000D03*
X234430000Y-84580000D03*
X208480000Y-115640000D03*
X177780000Y-88090000D03*
X140314951Y-85156421D03*
X199850000Y-82470000D03*
X218850000Y-88725000D03*
X244070000Y-71810000D03*
X104610000Y-76720000D03*
X209450000Y-103070000D03*
X242320000Y-96990000D03*
X230630001Y-92256513D03*
X132180000Y-89010000D03*
X193660000Y-114060000D03*
X132880000Y-86780000D03*
X197370000Y-78150000D03*
X172910000Y-88300000D03*
X234390000Y-93700000D03*
X187310000Y-99350000D03*
X214040218Y-87336989D03*
X196625000Y-110740000D03*
X256430000Y-123630000D03*
X195375001Y-105194238D03*
X142940000Y-80640000D03*
X128750000Y-76610000D03*
X166440000Y-93760000D03*
X134860000Y-76710000D03*
X122910000Y-94780000D03*
X133070000Y-94810000D03*
X268710000Y-73450000D03*
X174200000Y-103480000D03*
X193660000Y-113420000D03*
X148500000Y-84720000D03*
X190870000Y-78490000D03*
X171377006Y-86016743D03*
X268680000Y-74440000D03*
X230560000Y-95090000D03*
X201390000Y-110190000D03*
X130800000Y-84170000D03*
X130170000Y-88940000D03*
X214330000Y-94140000D03*
X260840000Y-94270000D03*
X211900000Y-88000000D03*
X232070000Y-88910000D03*
X194640000Y-122970000D03*
X126340000Y-76130000D03*
X164460000Y-84200000D03*
X250230000Y-76810000D03*
X181200000Y-98090000D03*
X234570000Y-80830000D03*
X214930000Y-75990000D03*
X235630000Y-88500000D03*
X166900000Y-91610000D03*
X201300000Y-108280000D03*
X178498058Y-88078058D03*
X210790000Y-87770000D03*
X139160000Y-92860000D03*
X229010000Y-88725000D03*
X188620000Y-108800000D03*
X178260000Y-82540000D03*
X130560000Y-86320000D03*
X211320000Y-84040000D03*
X170950000Y-101570000D03*
X223270000Y-87650000D03*
X240400000Y-87150000D03*
X121830000Y-88620000D03*
X124360000Y-84540000D03*
X211000000Y-74860000D03*
X250630000Y-81480000D03*
X126650000Y-81850000D03*
X188700000Y-110660000D03*
X115890000Y-92930000D03*
X251290000Y-97580000D03*
X186230000Y-92680000D03*
X179500000Y-112090000D03*
X176010000Y-90550000D03*
X167620000Y-86090000D03*
X193400000Y-112290000D03*
X167260000Y-77620000D03*
X124370000Y-86890000D03*
X221200000Y-85330000D03*
X142440000Y-81940000D03*
%TO.N,ETH_SPI_MOSI*%
X155900000Y-103990000D03*
X136530000Y-83270000D03*
D32*
%TO.N,24V_AMP*%
X232380000Y-86060000D03*
X230340000Y-87670000D03*
X232350000Y-87600000D03*
X240140000Y-85490000D03*
X228800000Y-87240000D03*
X226730000Y-85710000D03*
X238717972Y-85846773D03*
X231010000Y-86810000D03*
X203650000Y-101620000D03*
X204320000Y-103310000D03*
X203060000Y-103100000D03*
X238630000Y-84210000D03*
X226290000Y-88620000D03*
D31*
%TO.N,3V3*%
X127400000Y-79830000D03*
X212420000Y-83185000D03*
D32*
X255780000Y-103500000D03*
D31*
X168630000Y-80710000D03*
X130095000Y-94439140D03*
X188690000Y-80550000D03*
X216875000Y-90325000D03*
D32*
X204350000Y-82950000D03*
D31*
X189260000Y-80620000D03*
X143790000Y-83850000D03*
X177230000Y-85920000D03*
X120608725Y-82096626D03*
D32*
X169707298Y-102087298D03*
D31*
X136060000Y-88280000D03*
D32*
X199790000Y-79570000D03*
X198730000Y-79520000D03*
D31*
X148310000Y-86330000D03*
D32*
X170190000Y-86890000D03*
D31*
X128460000Y-80020000D03*
D32*
X206170000Y-82770000D03*
D31*
X234207500Y-78160000D03*
D32*
X192070000Y-103800000D03*
%TO.N,5V*%
X216160000Y-86490000D03*
X189250000Y-100270000D03*
X189190000Y-99280000D03*
D31*
%TO.N,PHY_nRESET*%
X134010000Y-79910000D03*
X190820000Y-83165000D03*
%TO.N,ETH_SPI_CS_N*%
X135620000Y-85760000D03*
X143605735Y-93434265D03*
%TO.N,BOOT_GPIO0*%
X176890000Y-90570000D03*
X167275000Y-100185000D03*
%TO.N,ESP_EN*%
X171570000Y-78240000D03*
X150050000Y-82360000D03*
%TO.N,ETH_INT_N*%
X148465002Y-94030000D03*
X135230000Y-82850000D03*
%TO.N,I2C_SDA*%
X190060000Y-76870000D03*
%TO.N,I2S_BCLK*%
X171810380Y-89580380D03*
X153510000Y-99530000D03*
%TO.N,I2S_LRCLK*%
X173915478Y-88262778D03*
X154360000Y-99780000D03*
%TO.N,I2S_DATA*%
X174550000Y-88750000D03*
X155520000Y-100410000D03*
%TO.N,ETH_SPI_MISO*%
X136490000Y-84120000D03*
X157520000Y-103860000D03*
%TO.N,I2C_SCL*%
X189740000Y-78240000D03*
X192670000Y-75320000D03*
%TO.N,IOX_nRESET*%
X165900000Y-96270000D03*
X188000000Y-84415000D03*
%TO.N,IOX_INT_N*%
X191840000Y-80320000D03*
X166880000Y-81510000D03*
%TO.N,ETH_3V3A*%
X126978000Y-88330288D03*
X126980550Y-84834015D03*
X116040000Y-81810000D03*
X126977564Y-86829657D03*
X130922399Y-92191889D03*
X117640000Y-84830000D03*
X129172131Y-91406763D03*
X128110000Y-91500000D03*
%TO.N,POE_MODE_A_AC2*%
X101120000Y-96070000D03*
D32*
%TO.N,24V_POE*%
X273464000Y-84602000D03*
X272314000Y-86012000D03*
X275854000Y-86572000D03*
X277074000Y-87792000D03*
X274344000Y-88052000D03*
X276479000Y-87197000D03*
X277214000Y-84422000D03*
D31*
%TO.N,POE_AT_DET*%
X191975213Y-85695000D03*
%TO.N,BENCH_PASS_GATE*%
X246240000Y-99390000D03*
X261560000Y-99760000D03*
%TO.N,POE_BT4_DET*%
X192005412Y-87067930D03*
%TO.N,ETH_SPI_SCLK*%
X135910000Y-84900000D03*
X153870000Y-105380000D03*
%TO.N,EXP_GPIO1*%
X190495000Y-75135000D03*
%TO.N,AMP_ENABLE_CMD*%
X194400000Y-82360000D03*
X234540000Y-82950000D03*
%TO.N,AMP_MUTE*%
X194070000Y-83110000D03*
X196000000Y-112789999D03*
%TO.N,DAC_XSMT*%
X172692500Y-85800000D03*
X191830000Y-83790000D03*
%TO.N,AMP_FAULTZ*%
X193210000Y-106440000D03*
X194260000Y-85060000D03*
%TO.N,POE_BT3_DET*%
X191220000Y-86330000D03*
%TO.N,5V_PG*%
X232430000Y-90785000D03*
X200130000Y-88000000D03*
%TO.N,3V3_PG*%
X199981982Y-86903603D03*
X208880000Y-87770000D03*
%TO.N,ETH_TX_P*%
X123038580Y-82475563D03*
%TO.N,ETH_TX_N*%
X123790000Y-82160707D03*
%TO.N,ETH_RX_P*%
X122420000Y-86590000D03*
%TO.N,ETH_RX_N*%
X121980000Y-85660000D03*
D32*
%TO.N,BENCH_COMMON_SOURCE*%
X259670000Y-113060000D03*
D31*
X241040000Y-114540000D03*
%TO.N,POE_MODE_B_AC1*%
X98390000Y-100250000D03*
%TO.N,ETH_RX_TERM*%
X117280000Y-86600000D03*
X116110000Y-89710000D03*
%TD*%
%TO.N,24V_AMP*%
D33*
X232380000Y-86060000D02*
X238504745Y-86060000D01*
D34*
X238717972Y-85846773D02*
X239210000Y-85846773D01*
X238630000Y-84210000D02*
X238860000Y-84210000D01*
X239210000Y-84790000D02*
X239210000Y-85846773D01*
X232380000Y-86060000D02*
X231760000Y-86060000D01*
D35*
X203650000Y-101620000D02*
X213290000Y-101620000D01*
D34*
X238504745Y-84335255D02*
X238630000Y-84210000D01*
X239210000Y-85846773D02*
X239783227Y-85846773D01*
X238860000Y-84210000D02*
X240140000Y-85490000D01*
X231010000Y-86810000D02*
X229230000Y-86810000D01*
D36*
X238504745Y-86060000D02*
X238717972Y-85846773D01*
D34*
X231760000Y-86060000D02*
X231010000Y-86810000D01*
X238504745Y-86060000D02*
X238504745Y-84335255D01*
D35*
X213290000Y-101620000D02*
X226290000Y-88620000D01*
D34*
X229230000Y-86810000D02*
X228800000Y-87240000D01*
X238630000Y-84210000D02*
X239210000Y-84790000D01*
X239783227Y-85846773D02*
X240140000Y-85490000D01*
%TO.N,3V3*%
D37*
X168630000Y-85330000D02*
X168630000Y-80710000D01*
X136060000Y-87760000D02*
X134430000Y-86130000D01*
D38*
X205990000Y-82950000D02*
X206170000Y-82770000D01*
D37*
X189260000Y-80620000D02*
X188760000Y-80620000D01*
D38*
X204585000Y-83185000D02*
X204350000Y-82950000D01*
D37*
X140490000Y-83850000D02*
X143790000Y-83850000D01*
D38*
X173740000Y-101810000D02*
X177760000Y-101810000D01*
X234207500Y-78160000D02*
X219390000Y-78160000D01*
X235840000Y-78160000D02*
X234207500Y-78160000D01*
X190960000Y-102690000D02*
X192070000Y-103800000D01*
D39*
X127400000Y-79830000D02*
X128270000Y-79830000D01*
D38*
X178640000Y-102690000D02*
X190960000Y-102690000D01*
X214365000Y-83185000D02*
X213795000Y-83185000D01*
X169707298Y-102087298D02*
X170310000Y-102690000D01*
D37*
X176260000Y-86890000D02*
X170700000Y-86890000D01*
X189720000Y-79520000D02*
X188690000Y-80550000D01*
X168630000Y-80710000D02*
X153930000Y-80710000D01*
D38*
X219390000Y-78160000D02*
X214365000Y-83185000D01*
X244660000Y-92380000D02*
X244660000Y-86980000D01*
X217225000Y-84965000D02*
X217205000Y-84965000D01*
D37*
X170150000Y-79190000D02*
X170150000Y-74290000D01*
X136060000Y-88280000D02*
X136060000Y-87760000D01*
X170190000Y-86890000D02*
X168630000Y-85330000D01*
X134430000Y-84940000D02*
X129510000Y-80020000D01*
D38*
X217650000Y-89550000D02*
X217650000Y-85390000D01*
X204350000Y-82950000D02*
X205990000Y-82950000D01*
D37*
X153930000Y-80710000D02*
X148310000Y-86330000D01*
D39*
X128270000Y-79830000D02*
X128460000Y-80020000D01*
X120608725Y-82096626D02*
X120673374Y-82096626D01*
D37*
X134430000Y-86130000D02*
X134430000Y-84940000D01*
D38*
X244660000Y-86980000D02*
X235840000Y-78160000D01*
D37*
X198730000Y-79520000D02*
X199740000Y-79520000D01*
D38*
X214370000Y-83180000D02*
X214365000Y-83185000D01*
D37*
X169000000Y-73140000D02*
X168960000Y-73140000D01*
D38*
X212420000Y-83185000D02*
X204585000Y-83185000D01*
D37*
X188760000Y-80620000D02*
X188690000Y-80550000D01*
D38*
X213795000Y-83185000D02*
X212420000Y-83185000D01*
X217205000Y-84965000D02*
X215420000Y-83180000D01*
X172860000Y-102690000D02*
X173740000Y-101810000D01*
X177760000Y-101810000D02*
X178640000Y-102690000D01*
D37*
X129510000Y-80020000D02*
X128460000Y-80020000D01*
D39*
X122940000Y-79830000D02*
X127400000Y-79830000D01*
D38*
X170310000Y-102690000D02*
X170687918Y-102690000D01*
D37*
X177230000Y-85920000D02*
X176260000Y-86890000D01*
D38*
X215420000Y-83180000D02*
X214370000Y-83180000D01*
X255780000Y-103500000D02*
X244660000Y-92380000D01*
D37*
X177230000Y-85920000D02*
X183320000Y-85920000D01*
D38*
X170687918Y-102690000D02*
X172860000Y-102690000D01*
D37*
X183320000Y-85920000D02*
X188690000Y-80550000D01*
X170150000Y-74290000D02*
X169000000Y-73140000D01*
X199740000Y-79520000D02*
X199790000Y-79570000D01*
D38*
X217650000Y-85390000D02*
X217225000Y-84965000D01*
D37*
X136060000Y-88280000D02*
X140490000Y-83850000D01*
D39*
X120673374Y-82096626D02*
X122940000Y-79830000D01*
D38*
X216875000Y-90325000D02*
X217650000Y-89550000D01*
D37*
X168960000Y-73140000D02*
X168650000Y-72830000D01*
X198730000Y-79520000D02*
X189720000Y-79520000D01*
X168630000Y-80710000D02*
X170150000Y-79190000D01*
%TO.N,5V*%
D36*
X189190000Y-99280000D02*
X189190000Y-100210000D01*
X216160000Y-86490000D02*
X203370000Y-99280000D01*
X189190000Y-100210000D02*
X189250000Y-100270000D01*
X203370000Y-99280000D02*
X189190000Y-99280000D01*
%TO.N,24V_POE*%
D40*
X277074000Y-87792000D02*
X278280000Y-88998000D01*
X185750000Y-143670000D02*
X190180000Y-143670000D01*
X232810000Y-143680000D02*
X190190000Y-143680000D01*
X190180000Y-143670000D02*
X190190000Y-143680000D01*
X180540000Y-141210000D02*
X183290000Y-141210000D01*
X180540000Y-141210000D02*
X180540000Y-138670000D01*
X278280000Y-98210000D02*
X232810000Y-143680000D01*
X277074000Y-87792000D02*
X276479000Y-87197000D01*
X278280000Y-88998000D02*
X278280000Y-98210000D01*
X183290000Y-141210000D02*
X185750000Y-143670000D01*
X276479000Y-87197000D02*
X275854000Y-86572000D01*
%TO.N,3V3_PG*%
D38*
X208880000Y-87770000D02*
X208013603Y-86903603D01*
X208013603Y-86903603D02*
X199981982Y-86903603D01*
%TD*%
%TA.AperFunction,Conductor*%
%TO.N,24V_AMP*%
G36*
X226320321Y-85200002D02*
G01*
X234226135Y-85249228D01*
X234293049Y-85269330D01*
X234338474Y-85322418D01*
X234349359Y-85373867D01*
X234330447Y-89033346D01*
X234310417Y-89100283D01*
X234257377Y-89145764D01*
X234248472Y-89149367D01*
X232470006Y-89789996D01*
X230911964Y-90717722D01*
X230844292Y-90735107D01*
X230781434Y-90715462D01*
X230259998Y-90379999D01*
X225971568Y-89948573D01*
X225906836Y-89922277D01*
X225866596Y-89865158D01*
X225859981Y-89825735D01*
X225854942Y-88659108D01*
X228509500Y-88659108D01*
X228509500Y-88790892D01*
X228512982Y-88803886D01*
X228543608Y-88918187D01*
X228571440Y-88966392D01*
X228609500Y-89032314D01*
X228702686Y-89125500D01*
X228816814Y-89191392D01*
X228944108Y-89225500D01*
X228944110Y-89225500D01*
X229075890Y-89225500D01*
X229075892Y-89225500D01*
X229203186Y-89191392D01*
X229317314Y-89125500D01*
X229410500Y-89032314D01*
X229476392Y-88918186D01*
X229496241Y-88844108D01*
X231569500Y-88844108D01*
X231569500Y-88975891D01*
X231603608Y-89103187D01*
X231616489Y-89125497D01*
X231669500Y-89217314D01*
X231762686Y-89310500D01*
X231876814Y-89376392D01*
X232004108Y-89410500D01*
X232004110Y-89410500D01*
X232135890Y-89410500D01*
X232135892Y-89410500D01*
X232263186Y-89376392D01*
X232377314Y-89310500D01*
X232470500Y-89217314D01*
X232536392Y-89103186D01*
X232570500Y-88975892D01*
X232570500Y-88844108D01*
X232536392Y-88716814D01*
X232470500Y-88602686D01*
X232377314Y-88509500D01*
X232320250Y-88476554D01*
X232263187Y-88443608D01*
X232199539Y-88426554D01*
X232135892Y-88409500D01*
X232004108Y-88409500D01*
X231876812Y-88443608D01*
X231762686Y-88509500D01*
X231762683Y-88509502D01*
X231669502Y-88602683D01*
X231669500Y-88602686D01*
X231603608Y-88716812D01*
X231569500Y-88844108D01*
X229496241Y-88844108D01*
X229510500Y-88790892D01*
X229510500Y-88659108D01*
X229476392Y-88531814D01*
X229410500Y-88417686D01*
X229317314Y-88324500D01*
X229260250Y-88291554D01*
X229203187Y-88258608D01*
X229139539Y-88241554D01*
X229075892Y-88224500D01*
X228944108Y-88224500D01*
X228816812Y-88258608D01*
X228702686Y-88324500D01*
X228702683Y-88324502D01*
X228609502Y-88417683D01*
X228609500Y-88417686D01*
X228543608Y-88531812D01*
X228534477Y-88565892D01*
X228509500Y-88659108D01*
X225854942Y-88659108D01*
X225840538Y-85324536D01*
X225859933Y-85257412D01*
X225912539Y-85211429D01*
X225964537Y-85200000D01*
X226319549Y-85200000D01*
X226320321Y-85200002D01*
G37*
%TD.AperFunction*%
%TD*%
%TA.AperFunction,Conductor*%
%TO.N,24V_POE*%
G36*
X277717928Y-83234732D02*
G01*
X277767876Y-83283589D01*
X277779872Y-83313618D01*
X278568281Y-86410261D01*
X278565746Y-86480085D01*
X278542964Y-86520729D01*
X276537245Y-88902521D01*
X276479006Y-88941121D01*
X276452562Y-88946231D01*
X272706317Y-89254405D01*
X272637890Y-89240283D01*
X272587960Y-89191408D01*
X272580529Y-89175628D01*
X270592295Y-84045016D01*
X270590878Y-84028211D01*
X270584536Y-84012585D01*
X270588004Y-83994116D01*
X270586426Y-83975394D01*
X270594404Y-83960037D01*
X270597432Y-83943916D01*
X270617763Y-83915073D01*
X270701392Y-83826525D01*
X270761732Y-83791304D01*
X270781323Y-83788090D01*
X277649496Y-83220634D01*
X277717928Y-83234732D01*
G37*
%TD.AperFunction*%
%TD*%
%TA.AperFunction,Conductor*%
%TO.N,24V_AMP*%
G36*
X206754174Y-100283782D02*
G01*
X206804534Y-100332214D01*
X206820715Y-100400184D01*
X206820341Y-100405323D01*
X206295985Y-106000500D01*
X206270131Y-106065410D01*
X206213288Y-106106039D01*
X206191468Y-106111475D01*
X204734268Y-106336714D01*
X204396049Y-106556099D01*
X204329093Y-106576067D01*
X204326394Y-106576049D01*
X201672880Y-106529496D01*
X201606196Y-106508638D01*
X201561374Y-106455040D01*
X201552646Y-106385718D01*
X201555268Y-106373467D01*
X201625361Y-106111475D01*
X202859639Y-101498014D01*
X202869853Y-101472017D01*
X203313845Y-100634128D01*
X203362627Y-100584109D01*
X203412151Y-100568701D01*
X206685626Y-100270265D01*
X206754174Y-100283782D01*
G37*
%TD.AperFunction*%
%TD*%
%TA.AperFunction,Conductor*%
%TO.N,POE_12V_MID*%
G36*
X188632952Y-126662419D02*
G01*
X190355385Y-126984192D01*
X190417669Y-127015852D01*
X190452949Y-127076161D01*
X190454773Y-127084801D01*
X192683947Y-139880458D01*
X192676060Y-139949881D01*
X192631893Y-140004020D01*
X192565467Y-140025685D01*
X192558267Y-140025690D01*
X184293803Y-139790960D01*
X184231363Y-139772011D01*
X182060734Y-138408457D01*
X182014437Y-138356128D01*
X182004220Y-138322849D01*
X182003553Y-138318632D01*
X181930568Y-138094008D01*
X181930566Y-138094005D01*
X181930566Y-138094003D01*
X181823342Y-137883566D01*
X181684517Y-137692490D01*
X181517510Y-137525483D01*
X181326433Y-137386657D01*
X181115996Y-137279433D01*
X180891368Y-137206446D01*
X180658097Y-137169500D01*
X180658092Y-137169500D01*
X180421908Y-137169500D01*
X180421903Y-137169500D01*
X180201549Y-137204400D01*
X180132255Y-137195445D01*
X180116191Y-137186928D01*
X178412650Y-136116792D01*
X178366353Y-136064463D01*
X178358113Y-136041055D01*
X176198153Y-127147102D01*
X176201460Y-127077312D01*
X176241974Y-127020388D01*
X176306833Y-126994404D01*
X176315275Y-126993886D01*
X179546889Y-126906197D01*
X179614433Y-126924054D01*
X179637929Y-126942469D01*
X179676495Y-126981035D01*
X179845286Y-127103670D01*
X179930527Y-127147102D01*
X180031179Y-127198387D01*
X180031181Y-127198387D01*
X180031184Y-127198389D01*
X180137545Y-127232948D01*
X180229610Y-127262862D01*
X180435676Y-127295500D01*
X180435681Y-127295500D01*
X180644324Y-127295500D01*
X180850389Y-127262862D01*
X181048816Y-127198389D01*
X181234714Y-127103670D01*
X181403505Y-126981035D01*
X181497283Y-126887256D01*
X181558604Y-126853772D01*
X181581580Y-126850986D01*
X188606828Y-126660357D01*
X188632952Y-126662419D01*
G37*
%TD.AperFunction*%
%TD*%
M02*
