%TF.GenerationSoftware,KiCad,Pcbnew,10.0.2*%
%TF.CreationDate,2026-09-28T15:33:19+00:00*%
%TF.ProjectId,PoE-Speaker-RevE,506f452d-5370-4656-916b-65722d526576,rev?*%
%TF.SameCoordinates,Original*%
%TF.FileFunction,Soldermask,Top*%
%TF.FilePolarity,Negative*%
%FSLAX46Y46*%
G04 Gerber Fmt 4.6, Leading zero omitted, Abs format (unit mm)*
G04 Created by KiCad (PCBNEW 10.0.2) date 2026-09-28 15:33:19*
%MOMM*%
%LPD*%
G01*
G04 APERTURE LIST*
G04 Aperture macros list*
%AMRoundRect*
0 Rectangle with rounded corners*
0 $1 Rounding radius*
0 $2 $3 $4 $5 $6 $7 $8 $9 X,Y pos of 4 corners*
0 Add a 4 corners polygon primitive as box body*
4,1,4,$2,$3,$4,$5,$6,$7,$8,$9,$2,$3,0*
0 Add four circle primitives for the rounded corners*
1,1,$1+$1,$2,$3*
1,1,$1+$1,$4,$5*
1,1,$1+$1,$6,$7*
1,1,$1+$1,$8,$9*
0 Add four rect primitives between the rounded corners*
20,1,$1+$1,$2,$3,$4,$5,0*
20,1,$1+$1,$4,$5,$6,$7,0*
20,1,$1+$1,$6,$7,$8,$9,0*
20,1,$1+$1,$8,$9,$2,$3,0*%
G04 Aperture macros list end*
%ADD10RoundRect,0.225000X-0.225000X-0.250000X0.225000X-0.250000X0.225000X0.250000X-0.225000X0.250000X0*%
%ADD11RoundRect,0.200000X0.200000X0.275000X-0.200000X0.275000X-0.200000X-0.275000X0.200000X-0.275000X0*%
%ADD12RoundRect,0.225000X-0.250000X0.225000X-0.250000X-0.225000X0.250000X-0.225000X0.250000X0.225000X0*%
%ADD13RoundRect,0.150000X-0.150000X0.512500X-0.150000X-0.512500X0.150000X-0.512500X0.150000X0.512500X0*%
%ADD14RoundRect,0.200000X-0.275000X0.200000X-0.275000X-0.200000X0.275000X-0.200000X0.275000X0.200000X0*%
%ADD15RoundRect,0.250000X-0.250000X-0.475000X0.250000X-0.475000X0.250000X0.475000X-0.250000X0.475000X0*%
%ADD16RoundRect,0.250001X-0.949999X-0.949999X0.949999X-0.949999X0.949999X0.949999X-0.949999X0.949999X0*%
%ADD17C,2.400000*%
%ADD18C,2.500000*%
%ADD19RoundRect,0.250000X-1.100000X0.325000X-1.100000X-0.325000X1.100000X-0.325000X1.100000X0.325000X0*%
%ADD20RoundRect,0.225000X0.250000X-0.225000X0.250000X0.225000X-0.250000X0.225000X-0.250000X-0.225000X0*%
%ADD21RoundRect,0.218750X0.218750X0.256250X-0.218750X0.256250X-0.218750X-0.256250X0.218750X-0.256250X0*%
%ADD22RoundRect,0.250000X-0.475000X0.250000X-0.475000X-0.250000X0.475000X-0.250000X0.475000X0.250000X0*%
%ADD23R,0.393700X0.812800*%
%ADD24RoundRect,0.250000X0.475000X-0.250000X0.475000X0.250000X-0.475000X0.250000X-0.475000X-0.250000X0*%
%ADD25RoundRect,0.250000X-0.550000X0.550000X-0.550000X-0.550000X0.550000X-0.550000X0.550000X0.550000X0*%
%ADD26C,1.600000*%
%ADD27RoundRect,0.250000X-0.325000X-1.100000X0.325000X-1.100000X0.325000X1.100000X-0.325000X1.100000X0*%
%ADD28RoundRect,0.200000X-0.200000X-0.275000X0.200000X-0.275000X0.200000X0.275000X-0.200000X0.275000X0*%
%ADD29R,1.500000X0.900000*%
%ADD30R,0.900000X1.500000*%
%ADD31C,0.600000*%
%ADD32R,3.900000X3.900000*%
%ADD33RoundRect,0.225000X0.225000X0.250000X-0.225000X0.250000X-0.225000X-0.250000X0.225000X-0.250000X0*%
%ADD34C,0.500000*%
%ADD35RoundRect,0.250000X0.250000X0.475000X-0.250000X0.475000X-0.250000X-0.475000X0.250000X-0.475000X0*%
%ADD36R,2.160000X3.240000*%
%ADD37RoundRect,0.250000X0.300000X-0.400000X0.300000X0.400000X-0.300000X0.400000X-0.300000X-0.400000X0*%
%ADD38C,3.200000*%
%ADD39R,1.650000X1.650000*%
%ADD40C,1.650000*%
%ADD41RoundRect,0.200000X0.275000X-0.200000X0.275000X0.200000X-0.275000X0.200000X-0.275000X-0.200000X0*%
%ADD42RoundRect,0.250000X-0.262500X-0.450000X0.262500X-0.450000X0.262500X0.450000X-0.262500X0.450000X0*%
%ADD43RoundRect,0.250000X0.750000X-0.750000X0.750000X0.750000X-0.750000X0.750000X-0.750000X-0.750000X0*%
%ADD44C,2.000000*%
%ADD45RoundRect,0.250000X0.262500X0.450000X-0.262500X0.450000X-0.262500X-0.450000X0.262500X-0.450000X0*%
%ADD46R,1.800000X1.800000*%
%ADD47C,1.800000*%
%ADD48R,3.500000X4.100000*%
%ADD49R,1.700000X1.700000*%
%ADD50O,1.700000X1.700000*%
%ADD51R,4.700000X1.180000*%
%ADD52RoundRect,0.100000X-0.637500X-0.100000X0.637500X-0.100000X0.637500X0.100000X-0.637500X0.100000X0*%
%ADD53R,3.240000X2.160000*%
%ADD54R,0.500000X1.250000*%
%ADD55RoundRect,0.250000X0.450000X-0.262500X0.450000X0.262500X-0.450000X0.262500X-0.450000X-0.262500X0*%
%ADD56C,1.000000*%
%ADD57R,0.812800X0.393700*%
%ADD58RoundRect,0.250000X-0.750000X-0.750000X0.750000X-0.750000X0.750000X0.750000X-0.750000X0.750000X0*%
%ADD59RoundRect,0.250000X-0.550000X-0.550000X0.550000X-0.550000X0.550000X0.550000X-0.550000X0.550000X0*%
%ADD60R,1.230000X1.360000*%
%ADD61RoundRect,0.250000X1.100000X-0.325000X1.100000X0.325000X-1.100000X0.325000X-1.100000X-0.325000X0*%
%ADD62C,2.200000*%
%ADD63RoundRect,0.250000X-2.050000X-0.300000X2.050000X-0.300000X2.050000X0.300000X-2.050000X0.300000X0*%
%ADD64RoundRect,0.250002X-4.449998X-5.149998X4.449998X-5.149998X4.449998X5.149998X-4.449998X5.149998X0*%
%ADD65R,2.500000X2.300000*%
%ADD66RoundRect,0.250000X0.312500X0.625000X-0.312500X0.625000X-0.312500X-0.625000X0.312500X-0.625000X0*%
%ADD67RoundRect,0.250000X-0.312500X-0.625000X0.312500X-0.625000X0.312500X0.625000X-0.312500X0.625000X0*%
%ADD68C,3.300000*%
%ADD69RoundRect,0.102000X-0.765000X0.765000X-0.765000X-0.765000X0.765000X-0.765000X0.765000X0.765000X0*%
%ADD70C,1.734000*%
%ADD71C,1.494000*%
%ADD72C,2.679000*%
%ADD73R,1.620000X2.050000*%
%ADD74RoundRect,0.100000X-0.510000X-0.100000X0.510000X-0.100000X0.510000X0.100000X-0.510000X0.100000X0*%
%ADD75R,0.300000X1.600000*%
%ADD76RoundRect,0.075000X-0.662500X-0.075000X0.662500X-0.075000X0.662500X0.075000X-0.662500X0.075000X0*%
%ADD77RoundRect,0.075000X-0.075000X-0.662500X0.075000X-0.662500X0.075000X0.662500X-0.075000X0.662500X0*%
%ADD78RoundRect,0.250000X-0.450000X0.262500X-0.450000X-0.262500X0.450000X-0.262500X0.450000X0.262500X0*%
%ADD79R,0.650000X1.060000*%
%ADD80RoundRect,0.150000X-0.512500X-0.150000X0.512500X-0.150000X0.512500X0.150000X-0.512500X0.150000X0*%
%ADD81R,0.800000X0.300000*%
%ADD82R,0.300000X0.800000*%
%ADD83R,1.750000X1.750000*%
%ADD84R,1.060000X2.600000*%
%ADD85R,5.632000X5.700000*%
%ADD86RoundRect,0.250000X0.325000X1.100000X-0.325000X1.100000X-0.325000X-1.100000X0.325000X-1.100000X0*%
%ADD87R,2.910000X2.910000*%
%ADD88R,1.409700X0.355600*%
%ADD89R,0.599999X0.249999*%
%ADD90R,0.249999X0.599999*%
%ADD91R,0.249999X1.825000*%
%ADD92R,1.180000X4.700000*%
%ADD93RoundRect,0.062500X0.350000X0.062500X-0.350000X0.062500X-0.350000X-0.062500X0.350000X-0.062500X0*%
%ADD94RoundRect,0.062500X0.062500X0.350000X-0.062500X0.350000X-0.062500X-0.350000X0.062500X-0.350000X0*%
%ADD95R,2.700000X2.700000*%
G04 APERTURE END LIST*
D10*
%TO.C,C53*%
X216375000Y-88220000D03*
X217925000Y-88220000D03*
%TD*%
D11*
%TO.C,R100*%
X123590000Y-89370000D03*
X121940000Y-89370000D03*
%TD*%
D12*
%TO.C,C8*%
X205300000Y-110455000D03*
X205300000Y-112005000D03*
%TD*%
D13*
%TO.C,U10*%
X259096000Y-72204500D03*
X258146000Y-72204500D03*
X257196000Y-72204500D03*
X257196000Y-74479500D03*
X258146000Y-74479500D03*
X259096000Y-74479500D03*
%TD*%
D14*
%TO.C,R32*%
X159330000Y-77805000D03*
X159330000Y-79455000D03*
%TD*%
%TO.C,R109*%
X156850000Y-105000000D03*
X156850000Y-106650000D03*
%TD*%
D15*
%TO.C,C20*%
X170562500Y-96430000D03*
X172462500Y-96430000D03*
%TD*%
D16*
%TO.C,C4*%
X242576041Y-138770000D03*
D17*
X247576041Y-138770000D03*
%TD*%
D18*
%TO.C,J2*%
X262520000Y-147960000D03*
X257440000Y-147960000D03*
%TD*%
D19*
%TO.C,C15*%
X194870000Y-119025000D03*
X194870000Y-121975000D03*
%TD*%
D20*
%TO.C,C115*%
X128790000Y-78890000D03*
X128790000Y-77340000D03*
%TD*%
D21*
%TO.C,FB1*%
X184520000Y-95550000D03*
X182945000Y-95550000D03*
%TD*%
D22*
%TO.C,C103*%
X128870000Y-92790000D03*
X128870000Y-94690000D03*
%TD*%
D23*
%TO.C,LED3*%
X202446750Y-84740000D03*
X203653250Y-84740000D03*
%TD*%
D22*
%TO.C,C51*%
X188110000Y-101960000D03*
X188110000Y-103860000D03*
%TD*%
D14*
%TO.C,R106*%
X132940000Y-77665000D03*
X132940000Y-79315000D03*
%TD*%
D24*
%TO.C,C113*%
X126580000Y-78930000D03*
X126580000Y-77030000D03*
%TD*%
D25*
%TO.C,C5*%
X231220000Y-129110000D03*
D26*
X231220000Y-132610000D03*
%TD*%
D27*
%TO.C,C40*%
X205530000Y-102460000D03*
X208480000Y-102460000D03*
%TD*%
D28*
%TO.C,R107*%
X142475000Y-94010000D03*
X144125000Y-94010000D03*
%TD*%
D11*
%TO.C,R23*%
X234880000Y-92620000D03*
X233230000Y-92620000D03*
%TD*%
%TO.C,R110*%
X168525000Y-101050000D03*
X166875000Y-101050000D03*
%TD*%
D29*
%TO.C,U2*%
X147215000Y-84830000D03*
X147215000Y-86100000D03*
X147215000Y-87370000D03*
X147215000Y-88640000D03*
X147215000Y-89910000D03*
X147215000Y-91180000D03*
X147215000Y-92450000D03*
X147215000Y-93720000D03*
X147215000Y-94990000D03*
X147215000Y-96260000D03*
X147215000Y-97530000D03*
X147215000Y-98800000D03*
X147215000Y-100070000D03*
X147215000Y-101340000D03*
D30*
X148980000Y-102590000D03*
X150250000Y-102590000D03*
X151520000Y-102590000D03*
X152790000Y-102590000D03*
X154060000Y-102590000D03*
X155330000Y-102590000D03*
X156600000Y-102590000D03*
X157870000Y-102590000D03*
X159140000Y-102590000D03*
X160410000Y-102590000D03*
X161680000Y-102590000D03*
X162950000Y-102590000D03*
D29*
X164715000Y-101340000D03*
X164715000Y-100070000D03*
X164715000Y-98800000D03*
X164715000Y-97530000D03*
X164715000Y-96260000D03*
X164715000Y-94990000D03*
X164715000Y-93720000D03*
X164715000Y-92450000D03*
X164715000Y-91180000D03*
X164715000Y-89910000D03*
X164715000Y-88640000D03*
X164715000Y-87370000D03*
X164715000Y-86100000D03*
X164715000Y-84830000D03*
D31*
X153065000Y-91850000D03*
X153065000Y-93250000D03*
X153765000Y-91150000D03*
X153765000Y-92550000D03*
X153765000Y-93950000D03*
X154465000Y-91850000D03*
D32*
X154465000Y-92550000D03*
D31*
X154465000Y-93250000D03*
X155165000Y-91150000D03*
X155165000Y-92550000D03*
X155165000Y-93950000D03*
X155865000Y-91850000D03*
X155865000Y-93250000D03*
%TD*%
D10*
%TO.C,C41*%
X205435000Y-105400000D03*
X206985000Y-105400000D03*
%TD*%
D33*
%TO.C,C26*%
X168687500Y-94650000D03*
X167137500Y-94650000D03*
%TD*%
D34*
%TO.C,TP17*%
X145040000Y-91190000D03*
%TD*%
D11*
%TO.C,R103*%
X123555000Y-91300000D03*
X121905000Y-91300000D03*
%TD*%
D35*
%TO.C,C23*%
X168832500Y-92680000D03*
X166932500Y-92680000D03*
%TD*%
D36*
%TO.C,D5*%
X105590000Y-137650000D03*
X98210000Y-137650000D03*
%TD*%
D22*
%TO.C,C49*%
X211305000Y-90050000D03*
X211305000Y-91950000D03*
%TD*%
D37*
%TO.C,X2*%
X138850000Y-88510000D03*
X138850000Y-86410000D03*
X137200000Y-86410000D03*
X137200000Y-88510000D03*
%TD*%
D27*
%TO.C,C46*%
X217300000Y-81540000D03*
X220250000Y-81540000D03*
%TD*%
D36*
%TO.C,D4*%
X98360000Y-144990000D03*
X105740000Y-144990000D03*
%TD*%
D35*
%TO.C,C31*%
X144320000Y-82850000D03*
X142420000Y-82850000D03*
%TD*%
D11*
%TO.C,R16*%
X190855000Y-108810000D03*
X189205000Y-108810000D03*
%TD*%
D38*
%TO.C,U1*%
X115000000Y-116085000D03*
X115000000Y-146085000D03*
X180000000Y-116085000D03*
X180000000Y-146085000D03*
D39*
X114500000Y-120890000D03*
D40*
X114500000Y-123430000D03*
X114500000Y-125970000D03*
X114500000Y-128510000D03*
X114500000Y-131050000D03*
X114500000Y-133590000D03*
X114500000Y-136130000D03*
X114500000Y-138670000D03*
X180540000Y-141210000D03*
X180540000Y-138670000D03*
X180540000Y-136130000D03*
X180540000Y-133590000D03*
X180540000Y-131050000D03*
X180540000Y-128510000D03*
X180540000Y-125970000D03*
X180540000Y-123430000D03*
X180540000Y-120890000D03*
%TD*%
D41*
%TO.C,R6*%
X115620000Y-98675000D03*
X115620000Y-97025000D03*
%TD*%
D42*
%TO.C,R127*%
X262897500Y-97290000D03*
X264722500Y-97290000D03*
%TD*%
D12*
%TO.C,C10*%
X205360000Y-107145000D03*
X205360000Y-108695000D03*
%TD*%
D41*
%TO.C,R27*%
X205361750Y-84625000D03*
X205361750Y-82975000D03*
%TD*%
D43*
%TO.C,C2*%
X190190000Y-143680000D03*
D44*
X190190000Y-138680000D03*
%TD*%
D14*
%TO.C,R25*%
X136200000Y-95390000D03*
X136200000Y-97040000D03*
%TD*%
D45*
%TO.C,R125*%
X245232500Y-99460000D03*
X243407500Y-99460000D03*
%TD*%
D34*
%TO.C,TP8*%
X173160000Y-80240000D03*
%TD*%
D46*
%TO.C,U14*%
X136790000Y-107230000D03*
D47*
X136790000Y-109770000D03*
X144410000Y-109750000D03*
X144410000Y-107210000D03*
%TD*%
D48*
%TO.C,L2*%
X203790000Y-121290000D03*
X203790000Y-130790000D03*
%TD*%
D33*
%TO.C,C11*%
X190870000Y-110650000D03*
X189320000Y-110650000D03*
%TD*%
D22*
%TO.C,C25*%
X179022500Y-95900000D03*
X179022500Y-97800000D03*
%TD*%
D14*
%TO.C,R108*%
X154890000Y-104985000D03*
X154890000Y-106635000D03*
%TD*%
D34*
%TO.C,TP6*%
X223640000Y-80600000D03*
%TD*%
D49*
%TO.C,J6*%
X200040000Y-72520000D03*
D50*
X197500000Y-72520000D03*
X194960000Y-72520000D03*
X192420000Y-72520000D03*
X189880000Y-72520000D03*
X187340000Y-72520000D03*
%TD*%
D51*
%TO.C,L4*%
X204255000Y-88690000D03*
X204255000Y-92000000D03*
%TD*%
D49*
%TO.C,J4*%
X146930000Y-75030000D03*
D50*
X146930000Y-72490000D03*
X149470000Y-75030000D03*
X149470000Y-72490000D03*
X152010000Y-75030000D03*
X152010000Y-72490000D03*
X154550000Y-75030000D03*
X154550000Y-72490000D03*
X157090000Y-75030000D03*
X157090000Y-72490000D03*
X159630000Y-75030000D03*
X159630000Y-72490000D03*
X162170000Y-75030000D03*
X162170000Y-72490000D03*
%TD*%
D52*
%TO.C,U11*%
X193040000Y-80470000D03*
X193040000Y-81120000D03*
X193040000Y-81770000D03*
X193040000Y-82420000D03*
X193040000Y-83070000D03*
X193040000Y-83720000D03*
X193040000Y-84370000D03*
X193040000Y-85020000D03*
X193040000Y-85670000D03*
X193040000Y-86320000D03*
X193040000Y-86970000D03*
X193040000Y-87620000D03*
X198765000Y-87620000D03*
X198765000Y-86970000D03*
X198765000Y-86320000D03*
X198765000Y-85670000D03*
X198765000Y-85020000D03*
X198765000Y-84370000D03*
X198765000Y-83720000D03*
X198765000Y-83070000D03*
X198765000Y-82420000D03*
X198765000Y-81770000D03*
X198765000Y-81120000D03*
X198765000Y-80470000D03*
%TD*%
D34*
%TO.C,TP14*%
X197147300Y-103689998D03*
%TD*%
D53*
%TO.C,D8*%
X90780000Y-122260000D03*
X90780000Y-129640000D03*
%TD*%
D42*
%TO.C,R126*%
X262987500Y-99730000D03*
X264812500Y-99730000D03*
%TD*%
D33*
%TO.C,C29*%
X168717500Y-96340000D03*
X167167500Y-96340000D03*
%TD*%
D54*
%TO.C,D1*%
X121080000Y-80670000D03*
X120130000Y-80670000D03*
X119180000Y-80670000D03*
X119180000Y-83170000D03*
X120130000Y-83170000D03*
X121080000Y-83170000D03*
%TD*%
D20*
%TO.C,C9*%
X208870000Y-109725000D03*
X208870000Y-108175000D03*
%TD*%
D33*
%TO.C,C55*%
X199005000Y-78740000D03*
X197455000Y-78740000D03*
%TD*%
D55*
%TO.C,R130*%
X241287500Y-75592500D03*
X241287500Y-73767500D03*
%TD*%
D56*
%TO.C,TP25*%
X256140000Y-99480000D03*
%TD*%
D34*
%TO.C,TP22*%
X264480000Y-90580000D03*
%TD*%
D57*
%TO.C,LED2*%
X133930000Y-97386750D03*
X133930000Y-98593250D03*
%TD*%
D58*
%TO.C,C1*%
X187972323Y-129200000D03*
D44*
X192972323Y-129200000D03*
%TD*%
D48*
%TO.C,L1*%
X215510000Y-121290000D03*
X215510000Y-130790000D03*
%TD*%
D28*
%TO.C,R24*%
X233235000Y-94480000D03*
X234885000Y-94480000D03*
%TD*%
D34*
%TO.C,TP2*%
X109180000Y-131500000D03*
%TD*%
D59*
%TO.C,C6*%
X230060000Y-120092651D03*
D26*
X233560000Y-120092651D03*
%TD*%
D60*
%TO.C,SW2*%
X183400000Y-77830000D03*
X179040000Y-77830000D03*
%TD*%
D22*
%TO.C,C17*%
X178572500Y-100760000D03*
X178572500Y-102660000D03*
%TD*%
D34*
%TO.C,TP16*%
X145150000Y-89840000D03*
%TD*%
%TO.C,TP21*%
X266540000Y-134020000D03*
%TD*%
D46*
%TO.C,U13*%
X121220000Y-102980000D03*
D47*
X121220000Y-105520000D03*
X128840000Y-105500000D03*
X128840000Y-102960000D03*
%TD*%
D22*
%TO.C,C123*%
X239307500Y-85040000D03*
X239307500Y-86940000D03*
%TD*%
D11*
%TO.C,R14*%
X190980000Y-112470000D03*
X189330000Y-112470000D03*
%TD*%
D61*
%TO.C,C45*%
X211755000Y-78845000D03*
X211755000Y-75895000D03*
%TD*%
D36*
%TO.C,D6*%
X105620000Y-130110000D03*
X98240000Y-130110000D03*
%TD*%
D42*
%TO.C,R132*%
X247475000Y-76860000D03*
X249300000Y-76860000D03*
%TD*%
D20*
%TO.C,C56*%
X190840000Y-80840000D03*
X190840000Y-79290000D03*
%TD*%
D18*
%TO.C,J3*%
X213060000Y-147640000D03*
X207980000Y-147640000D03*
%TD*%
D14*
%TO.C,R36*%
X209145000Y-88290000D03*
X209145000Y-89940000D03*
%TD*%
D62*
%TO.C,H4*%
X275000000Y-145000000D03*
%TD*%
D63*
%TO.C,Q3*%
X241860000Y-107700000D03*
D64*
X251010000Y-110240000D03*
D63*
X241860000Y-112780000D03*
%TD*%
D34*
%TO.C,TP12*%
X133600000Y-74790000D03*
%TD*%
D46*
%TO.C,U12*%
X108050000Y-104100000D03*
D47*
X108050000Y-106640000D03*
X115670000Y-106620000D03*
X115670000Y-104080000D03*
%TD*%
D27*
%TO.C,C13*%
X233615000Y-88200000D03*
X236565000Y-88200000D03*
%TD*%
D62*
%TO.C,H1*%
X90330000Y-146910000D03*
%TD*%
D65*
%TO.C,D11*%
X262180000Y-123480000D03*
X257880000Y-123480000D03*
%TD*%
D20*
%TO.C,C114*%
X134780000Y-79035000D03*
X134780000Y-77485000D03*
%TD*%
D34*
%TO.C,TP13*%
X199497300Y-103729998D03*
%TD*%
D45*
%TO.C,R137*%
X237270000Y-80710000D03*
X235445000Y-80710000D03*
%TD*%
D66*
%TO.C,R4*%
X124062500Y-110830000D03*
X121137500Y-110830000D03*
%TD*%
D67*
%TO.C,R5*%
X126977500Y-110580000D03*
X129902500Y-110580000D03*
%TD*%
D12*
%TO.C,C112*%
X139110000Y-90580000D03*
X139110000Y-92130000D03*
%TD*%
D61*
%TO.C,C44*%
X217975000Y-78725000D03*
X217975000Y-75775000D03*
%TD*%
D68*
%TO.C,J1*%
X91620000Y-80700000D03*
X91620000Y-93400000D03*
D69*
X106860000Y-92130000D03*
D70*
X106860000Y-90098000D03*
X106860000Y-88066000D03*
X106860000Y-86034000D03*
X106860000Y-84002000D03*
X106860000Y-81970000D03*
X109400000Y-93146000D03*
X109400000Y-91114000D03*
X109400000Y-89082000D03*
X109400000Y-85018000D03*
X109400000Y-82986000D03*
X109400000Y-80954000D03*
D71*
X99750000Y-92640000D03*
X99750000Y-81460000D03*
X98210000Y-92640000D03*
X98210000Y-81460000D03*
D70*
X111940000Y-93146000D03*
X111940000Y-90606000D03*
X111940000Y-83494000D03*
X111940000Y-80954000D03*
D72*
X88440000Y-95115000D03*
X88440000Y-78985000D03*
%TD*%
D62*
%TO.C,H3*%
X277870000Y-72510000D03*
%TD*%
D34*
%TO.C,TP3*%
X238580000Y-119020000D03*
%TD*%
D24*
%TO.C,C52*%
X186362500Y-95500000D03*
X186362500Y-93600000D03*
%TD*%
D57*
%TO.C,LED1*%
X136670000Y-92486750D03*
X136670000Y-93693250D03*
%TD*%
D45*
%TO.C,R121*%
X245132500Y-97120000D03*
X243307500Y-97120000D03*
%TD*%
D14*
%TO.C,R13*%
X174282500Y-95885000D03*
X174282500Y-97535000D03*
%TD*%
D41*
%TO.C,R15*%
X182590000Y-111380000D03*
X182590000Y-109730000D03*
%TD*%
D73*
%TO.C,D2*%
X108850000Y-141150000D03*
X108850000Y-136010000D03*
%TD*%
D53*
%TO.C,D7*%
X90070000Y-111180000D03*
X90070000Y-118560000D03*
%TD*%
D16*
%TO.C,C3*%
X241930000Y-124870000D03*
D17*
X246930000Y-124870000D03*
%TD*%
D63*
%TO.C,Q4*%
X262860000Y-107700000D03*
D64*
X272010000Y-110240000D03*
D63*
X262860000Y-112780000D03*
%TD*%
D12*
%TO.C,C58*%
X179530000Y-109915000D03*
X179530000Y-111465000D03*
%TD*%
D74*
%TO.C,U15*%
X252250000Y-95595000D03*
X252250000Y-96245000D03*
X252250000Y-96895000D03*
X252250000Y-97545000D03*
X254870000Y-97545000D03*
X254870000Y-96895000D03*
X254870000Y-96245000D03*
X254870000Y-95595000D03*
%TD*%
D34*
%TO.C,TP5*%
X191970000Y-103090000D03*
%TD*%
%TO.C,TP11*%
X137330000Y-82060000D03*
%TD*%
D75*
%TO.C,U4*%
X170740000Y-92530000D03*
X171390000Y-92530000D03*
X172040000Y-92530000D03*
X172690000Y-92530000D03*
X173340000Y-92530000D03*
X173990000Y-92530000D03*
X174640000Y-92530000D03*
X175280000Y-92530000D03*
X175930000Y-92530000D03*
X176580000Y-92530000D03*
X177230000Y-92530000D03*
X177880000Y-92530000D03*
X178530000Y-92530000D03*
X179180000Y-92530000D03*
X179180000Y-86930000D03*
X178530000Y-86930000D03*
X177880000Y-86930000D03*
X177230000Y-86930000D03*
X176580000Y-86930000D03*
X175930000Y-86930000D03*
X175280000Y-86930000D03*
X174640000Y-86930000D03*
X173990000Y-86930000D03*
X173340000Y-86930000D03*
X172690000Y-86930000D03*
X172040000Y-86930000D03*
X171390000Y-86930000D03*
X170740000Y-86930000D03*
%TD*%
D34*
%TO.C,TP15*%
X141740000Y-88910000D03*
%TD*%
D42*
%TO.C,R124*%
X251457500Y-92400000D03*
X253282500Y-92400000D03*
%TD*%
D34*
%TO.C,TP19*%
X145390000Y-98790000D03*
%TD*%
D12*
%TO.C,C100*%
X122070000Y-93145000D03*
X122070000Y-94695000D03*
%TD*%
D14*
%TO.C,R29*%
X151220000Y-78485000D03*
X151220000Y-80135000D03*
%TD*%
D12*
%TO.C,C27*%
X181192500Y-95725000D03*
X181192500Y-97275000D03*
%TD*%
D76*
%TO.C,U3*%
X125767500Y-83300000D03*
X125767500Y-83800000D03*
X125767500Y-84300000D03*
X125767500Y-84800000D03*
X125767500Y-85300000D03*
X125767500Y-85800000D03*
X125767500Y-86300000D03*
X125767500Y-86800000D03*
X125767500Y-87300000D03*
X125767500Y-87800000D03*
X125767500Y-88300000D03*
X125767500Y-88800000D03*
D77*
X127180000Y-90212500D03*
X127680000Y-90212500D03*
X128180000Y-90212500D03*
X128680000Y-90212500D03*
X129180000Y-90212500D03*
X129680000Y-90212500D03*
X130180000Y-90212500D03*
X130680000Y-90212500D03*
X131180000Y-90212500D03*
X131680000Y-90212500D03*
X132180000Y-90212500D03*
X132680000Y-90212500D03*
D76*
X134092500Y-88800000D03*
X134092500Y-88300000D03*
X134092500Y-87800000D03*
X134092500Y-87300000D03*
X134092500Y-86800000D03*
X134092500Y-86300000D03*
X134092500Y-85800000D03*
X134092500Y-85300000D03*
X134092500Y-84800000D03*
X134092500Y-84300000D03*
X134092500Y-83800000D03*
X134092500Y-83300000D03*
D77*
X132680000Y-81887500D03*
X132180000Y-81887500D03*
X131680000Y-81887500D03*
X131180000Y-81887500D03*
X130680000Y-81887500D03*
X130180000Y-81887500D03*
X129680000Y-81887500D03*
X129180000Y-81887500D03*
X128680000Y-81887500D03*
X128180000Y-81887500D03*
X127680000Y-81887500D03*
X127180000Y-81887500D03*
%TD*%
D78*
%TO.C,R128*%
X257080000Y-102007500D03*
X257080000Y-103832500D03*
%TD*%
D42*
%TO.C,R136*%
X231325000Y-79320000D03*
X233150000Y-79320000D03*
%TD*%
D33*
%TO.C,C32*%
X145195000Y-80670000D03*
X143645000Y-80670000D03*
%TD*%
D45*
%TO.C,R138*%
X237240000Y-78180000D03*
X235415000Y-78180000D03*
%TD*%
D56*
%TO.C,TP27*%
X234457500Y-74920000D03*
%TD*%
D33*
%TO.C,C33*%
X144900000Y-86770000D03*
X143350000Y-86770000D03*
%TD*%
D27*
%TO.C,C14*%
X204615000Y-116400000D03*
X207565000Y-116400000D03*
%TD*%
D49*
%TO.C,J5*%
X168650000Y-72830000D03*
D50*
X171190000Y-72830000D03*
X173730000Y-72830000D03*
X176270000Y-72830000D03*
X178810000Y-72830000D03*
X181350000Y-72830000D03*
%TD*%
D14*
%TO.C,R31*%
X156200000Y-77935000D03*
X156200000Y-79585000D03*
%TD*%
D12*
%TO.C,C19*%
X174182500Y-100985000D03*
X174182500Y-102535000D03*
%TD*%
D14*
%TO.C,R38*%
X188940000Y-81205000D03*
X188940000Y-82855000D03*
%TD*%
D33*
%TO.C,C28*%
X169235000Y-86890000D03*
X167685000Y-86890000D03*
%TD*%
D11*
%TO.C,R33*%
X203405000Y-80735000D03*
X201755000Y-80735000D03*
%TD*%
D45*
%TO.C,R123*%
X245102500Y-92480000D03*
X243277500Y-92480000D03*
%TD*%
D14*
%TO.C,R26*%
X133960000Y-92530000D03*
X133960000Y-94180000D03*
%TD*%
D61*
%TO.C,C121*%
X244137500Y-75705000D03*
X244137500Y-72755000D03*
%TD*%
D79*
%TO.C,U8*%
X186350000Y-100110000D03*
X187300000Y-100110000D03*
X188250000Y-100110000D03*
X188250000Y-97910000D03*
X186350000Y-97910000D03*
%TD*%
D11*
%TO.C,R28*%
X144990000Y-88550000D03*
X143340000Y-88550000D03*
%TD*%
D42*
%TO.C,R134*%
X247685000Y-81540000D03*
X249510000Y-81540000D03*
%TD*%
D36*
%TO.C,D9*%
X105090000Y-114410000D03*
X97710000Y-114410000D03*
%TD*%
D11*
%TO.C,R34*%
X203445000Y-82515000D03*
X201795000Y-82515000D03*
%TD*%
D19*
%TO.C,C50*%
X214495000Y-90155000D03*
X214495000Y-93105000D03*
%TD*%
D22*
%TO.C,C21*%
X172142500Y-101070000D03*
X172142500Y-102970000D03*
%TD*%
D12*
%TO.C,C104*%
X131920000Y-92775000D03*
X131920000Y-94325000D03*
%TD*%
D80*
%TO.C,U9*%
X269680000Y-72550000D03*
X269680000Y-73500000D03*
X269680000Y-74450000D03*
X271955000Y-74450000D03*
X271955000Y-73500000D03*
X271955000Y-72550000D03*
%TD*%
D81*
%TO.C,U7*%
X211495000Y-85190000D03*
X211495000Y-85690000D03*
X211495000Y-86190000D03*
X211495000Y-86690000D03*
D82*
X212245000Y-87440000D03*
X212745000Y-87440000D03*
X213245000Y-87440000D03*
X213745000Y-87440000D03*
D81*
X214495000Y-86690000D03*
X214495000Y-86190000D03*
X214495000Y-85690000D03*
X214495000Y-85190000D03*
D82*
X213745000Y-84440000D03*
X213245000Y-84440000D03*
X212745000Y-84440000D03*
X212245000Y-84440000D03*
D83*
X212995000Y-85940000D03*
%TD*%
D11*
%TO.C,R9*%
X144345000Y-84910000D03*
X142695000Y-84910000D03*
%TD*%
%TO.C,R111*%
X168037500Y-81270000D03*
X166387500Y-81270000D03*
%TD*%
D12*
%TO.C,C43*%
X229650000Y-93540000D03*
X229650000Y-95090000D03*
%TD*%
D27*
%TO.C,C47*%
X217395000Y-85320000D03*
X220345000Y-85320000D03*
%TD*%
D84*
%TO.C,Q1*%
X268834000Y-86502000D03*
D85*
X271120000Y-79953000D03*
D84*
X273406000Y-86502000D03*
%TD*%
D56*
%TO.C,TP26*%
X237797500Y-74730000D03*
%TD*%
D24*
%TO.C,C48*%
X214995000Y-78770000D03*
X214995000Y-76870000D03*
%TD*%
D86*
%TO.C,C16*%
X212175000Y-135280000D03*
X209225000Y-135280000D03*
%TD*%
D28*
%TO.C,R35*%
X233195000Y-90870000D03*
X234845000Y-90870000D03*
%TD*%
D24*
%TO.C,C24*%
X177330000Y-84580000D03*
X177330000Y-82680000D03*
%TD*%
D62*
%TO.C,H2*%
X82170000Y-73350000D03*
%TD*%
D87*
%TO.C,F1*%
X261970000Y-134090000D03*
X261970000Y-129430000D03*
%TD*%
D45*
%TO.C,R131*%
X249370000Y-79170000D03*
X247545000Y-79170000D03*
%TD*%
D42*
%TO.C,R120*%
X243297500Y-94850000D03*
X245122500Y-94850000D03*
%TD*%
D33*
%TO.C,C57*%
X199050000Y-77000000D03*
X197500000Y-77000000D03*
%TD*%
D34*
%TO.C,TP7*%
X175860000Y-80150000D03*
%TD*%
%TO.C,TP9*%
X174510000Y-80250000D03*
%TD*%
D42*
%TO.C,R135*%
X235535000Y-82980000D03*
X237360000Y-82980000D03*
%TD*%
D22*
%TO.C,C18*%
X176232500Y-100820000D03*
X176232500Y-102720000D03*
%TD*%
D34*
%TO.C,TP20*%
X168870000Y-98150000D03*
%TD*%
D88*
%TO.C,U5*%
X194850000Y-105640001D03*
X194850000Y-106290002D03*
X194850000Y-106940001D03*
X194850000Y-107590002D03*
X194850000Y-108240001D03*
X194850000Y-108890002D03*
X194850000Y-109540001D03*
X194850000Y-110190002D03*
X194850000Y-110840001D03*
X194850000Y-111489999D03*
X194850000Y-112140001D03*
X194850000Y-112789999D03*
X194850000Y-113440000D03*
X194850000Y-114089999D03*
X194850000Y-114740000D03*
X194850000Y-115389999D03*
X202457300Y-115389999D03*
X202457300Y-114739998D03*
X202457300Y-114089999D03*
X202457300Y-113439998D03*
X202457300Y-112789999D03*
X202457300Y-112139998D03*
X202457300Y-111489999D03*
X202457300Y-110839998D03*
X202457300Y-110189999D03*
X202457300Y-109539998D03*
X202457300Y-108889999D03*
X202457300Y-108239998D03*
X202457300Y-107590000D03*
X202457300Y-106939998D03*
X202457300Y-106290000D03*
X202457300Y-105640001D03*
%TD*%
D20*
%TO.C,C42*%
X227870000Y-92110000D03*
X227870000Y-90560000D03*
%TD*%
D19*
%TO.C,C122*%
X245127500Y-85305000D03*
X245127500Y-88255000D03*
%TD*%
D22*
%TO.C,C22*%
X176692500Y-96000000D03*
X176692500Y-97900000D03*
%TD*%
D34*
%TO.C,TP23*%
X276274000Y-85212000D03*
%TD*%
%TO.C,TP4*%
X185630000Y-101970000D03*
%TD*%
D14*
%TO.C,R17*%
X192070000Y-104495000D03*
X192070000Y-106145000D03*
%TD*%
D86*
%TO.C,C120*%
X264625000Y-94160000D03*
X261675000Y-94160000D03*
%TD*%
D53*
%TO.C,D3*%
X90680000Y-133540000D03*
X90680000Y-140920000D03*
%TD*%
D89*
%TO.C,U6*%
X229579999Y-88985001D03*
X229579999Y-89635000D03*
X229579999Y-90285001D03*
X229579999Y-90785000D03*
D90*
X229980001Y-91510000D03*
X230480000Y-91510000D03*
X230979999Y-91510000D03*
D89*
X231380001Y-90785000D03*
X231380001Y-90285001D03*
X231380001Y-89635000D03*
X231380001Y-88985001D03*
D91*
X230480000Y-89322001D03*
%TD*%
D60*
%TO.C,SW1*%
X168100000Y-77730000D03*
X172460000Y-77730000D03*
%TD*%
D28*
%TO.C,R7*%
X130280000Y-101500000D03*
X131930000Y-101500000D03*
%TD*%
D45*
%TO.C,R133*%
X249420000Y-83490000D03*
X247595000Y-83490000D03*
%TD*%
D92*
%TO.C,L3*%
X225245000Y-92930000D03*
X221935000Y-92930000D03*
%TD*%
D86*
%TO.C,C12*%
X227180000Y-87790000D03*
X224230000Y-87790000D03*
%TD*%
D14*
%TO.C,R30*%
X154300000Y-78095000D03*
X154300000Y-79745000D03*
%TD*%
D93*
%TO.C,U16*%
X244330000Y-82290000D03*
X244330000Y-81790000D03*
X244330000Y-81290000D03*
X244330000Y-80790000D03*
X244330000Y-80290000D03*
X244330000Y-79790000D03*
D94*
X243617500Y-79077500D03*
X243117500Y-79077500D03*
X242617500Y-79077500D03*
X242117500Y-79077500D03*
X241617500Y-79077500D03*
X241117500Y-79077500D03*
D93*
X240405000Y-79790000D03*
X240405000Y-80290000D03*
X240405000Y-80790000D03*
X240405000Y-81290000D03*
X240405000Y-81790000D03*
X240405000Y-82290000D03*
D94*
X241117500Y-83002500D03*
X241617500Y-83002500D03*
X242117500Y-83002500D03*
X242617500Y-83002500D03*
X243117500Y-83002500D03*
X243617500Y-83002500D03*
D95*
X242367500Y-81040000D03*
%TD*%
D45*
%TO.C,R122*%
X249062500Y-92500000D03*
X247237500Y-92500000D03*
%TD*%
D66*
%TO.C,R3*%
X113582500Y-111220000D03*
X110657500Y-111220000D03*
%TD*%
D36*
%TO.C,D10*%
X105330000Y-122580000D03*
X97950000Y-122580000D03*
%TD*%
D34*
%TO.C,TP1*%
X109280000Y-143980000D03*
%TD*%
%TO.C,TP10*%
X134970000Y-81450000D03*
%TD*%
%TO.C,TP18*%
X145120000Y-92480000D03*
%TD*%
D45*
%TO.C,R129*%
X237240000Y-85320000D03*
X235415000Y-85320000D03*
%TD*%
D20*
%TO.C,C7*%
X208820000Y-113375000D03*
X208820000Y-111825000D03*
%TD*%
%TO.C,C30*%
X172042500Y-84445000D03*
X172042500Y-82895000D03*
%TD*%
D84*
%TO.C,Q2*%
X259304000Y-86652000D03*
D85*
X261590000Y-80103000D03*
D84*
X263876000Y-86652000D03*
%TD*%
D11*
%TO.C,R8*%
X143105000Y-101020000D03*
X141455000Y-101020000D03*
%TD*%
M02*
