%TF.GenerationSoftware,KiCad,Pcbnew,10.0.2*%
%TF.CreationDate,2026-09-28T15:33:19+00:00*%
%TF.ProjectId,PoE-Speaker-RevE,506f452d-5370-4656-916b-65722d526576,rev?*%
%TF.SameCoordinates,Original*%
%TF.FileFunction,Copper,L4,Bot*%
%TF.FilePolarity,Positive*%
%FSLAX46Y46*%
G04 Gerber Fmt 4.6, Leading zero omitted, Abs format (unit mm)*
G04 Created by KiCad (PCBNEW 10.0.2) date 2026-09-28 15:33:19*
%MOMM*%
%LPD*%
G01*
G04 APERTURE LIST*
G04 Aperture macros list*
%AMRoundRect*
0 Rectangle with rounded corners*
0 $1 Rounding radius*
0 $2 $3 $4 $5 $6 $7 $8 $9 X,Y pos of 4 corners*
0 Add a 4 corners polygon primitive as box body*
4,1,4,$2,$3,$4,$5,$6,$7,$8,$9,$2,$3,0*
0 Add four circle primitives for the rounded corners*
1,1,$1+$1,$2,$3*
1,1,$1+$1,$4,$5*
1,1,$1+$1,$6,$7*
1,1,$1+$1,$8,$9*
0 Add four rect primitives between the rounded corners*
20,1,$1+$1,$2,$3,$4,$5,0*
20,1,$1+$1,$4,$5,$6,$7,0*
20,1,$1+$1,$6,$7,$8,$9,0*
20,1,$1+$1,$8,$9,$2,$3,0*%
G04 Aperture macros list end*
%TA.AperFunction,ComponentPad*%
%ADD10RoundRect,0.250001X-0.949999X-0.949999X0.949999X-0.949999X0.949999X0.949999X-0.949999X0.949999X0*%
%TD*%
%TA.AperFunction,ComponentPad*%
%ADD11C,2.400000*%
%TD*%
%TA.AperFunction,ComponentPad*%
%ADD12C,2.500000*%
%TD*%
%TA.AperFunction,ComponentPad*%
%ADD13RoundRect,0.250000X-0.550000X0.550000X-0.550000X-0.550000X0.550000X-0.550000X0.550000X0.550000X0*%
%TD*%
%TA.AperFunction,ComponentPad*%
%ADD14C,1.600000*%
%TD*%
%TA.AperFunction,HeatsinkPad*%
%ADD15C,0.600000*%
%TD*%
%TA.AperFunction,ComponentPad*%
%ADD16R,1.650000X1.650000*%
%TD*%
%TA.AperFunction,ComponentPad*%
%ADD17C,1.650000*%
%TD*%
%TA.AperFunction,ComponentPad*%
%ADD18RoundRect,0.250000X0.750000X-0.750000X0.750000X0.750000X-0.750000X0.750000X-0.750000X-0.750000X0*%
%TD*%
%TA.AperFunction,ComponentPad*%
%ADD19C,2.000000*%
%TD*%
%TA.AperFunction,ComponentPad*%
%ADD20R,1.800000X1.800000*%
%TD*%
%TA.AperFunction,ComponentPad*%
%ADD21C,1.800000*%
%TD*%
%TA.AperFunction,ComponentPad*%
%ADD22R,1.700000X1.700000*%
%TD*%
%TA.AperFunction,ComponentPad*%
%ADD23O,1.700000X1.700000*%
%TD*%
%TA.AperFunction,ComponentPad*%
%ADD24RoundRect,0.250000X-0.750000X-0.750000X0.750000X-0.750000X0.750000X0.750000X-0.750000X0.750000X0*%
%TD*%
%TA.AperFunction,ComponentPad*%
%ADD25RoundRect,0.250000X-0.550000X-0.550000X0.550000X-0.550000X0.550000X0.550000X-0.550000X0.550000X0*%
%TD*%
%TA.AperFunction,ComponentPad*%
%ADD26R,1.530000X1.530000*%
%TD*%
%TA.AperFunction,ComponentPad*%
%ADD27C,1.530000*%
%TD*%
%TA.AperFunction,ComponentPad*%
%ADD28C,1.290000*%
%TD*%
%TA.AperFunction,ComponentPad*%
%ADD29C,2.475000*%
%TD*%
%TA.AperFunction,HeatsinkPad*%
%ADD30C,0.500000*%
%TD*%
%TA.AperFunction,HeatsinkPad*%
%ADD31R,2.700000X2.700000*%
%TD*%
%TA.AperFunction,SMDPad,CuDef*%
%ADD32RoundRect,0.200000X-0.275000X0.200000X-0.275000X-0.200000X0.275000X-0.200000X0.275000X0.200000X0*%
%TD*%
%TA.AperFunction,SMDPad,CuDef*%
%ADD33RoundRect,0.225000X-0.225000X-0.250000X0.225000X-0.250000X0.225000X0.250000X-0.225000X0.250000X0*%
%TD*%
%TA.AperFunction,SMDPad,CuDef*%
%ADD34RoundRect,0.200000X-0.200000X-0.275000X0.200000X-0.275000X0.200000X0.275000X-0.200000X0.275000X0*%
%TD*%
%TA.AperFunction,SMDPad,CuDef*%
%ADD35RoundRect,0.200000X0.275000X-0.200000X0.275000X0.200000X-0.275000X0.200000X-0.275000X-0.200000X0*%
%TD*%
%TA.AperFunction,SMDPad,CuDef*%
%ADD36RoundRect,0.225000X-0.250000X0.225000X-0.250000X-0.225000X0.250000X-0.225000X0.250000X0.225000X0*%
%TD*%
%TA.AperFunction,SMDPad,CuDef*%
%ADD37RoundRect,0.250000X-0.250000X-0.475000X0.250000X-0.475000X0.250000X0.475000X-0.250000X0.475000X0*%
%TD*%
%TA.AperFunction,SMDPad,CuDef*%
%ADD38RoundRect,0.225000X0.225000X0.250000X-0.225000X0.250000X-0.225000X-0.250000X0.225000X-0.250000X0*%
%TD*%
%TA.AperFunction,ViaPad*%
%ADD39C,0.600000*%
%TD*%
%TA.AperFunction,ViaPad*%
%ADD40C,0.800000*%
%TD*%
%TA.AperFunction,Conductor*%
%ADD41C,0.250000*%
%TD*%
%TA.AperFunction,Conductor*%
%ADD42C,0.300000*%
%TD*%
%TA.AperFunction,Conductor*%
%ADD43C,0.200000*%
%TD*%
%TA.AperFunction,Conductor*%
%ADD44C,0.600000*%
%TD*%
%TA.AperFunction,Conductor*%
%ADD45C,0.500000*%
%TD*%
%TA.AperFunction,Conductor*%
%ADD46C,0.350000*%
%TD*%
%TA.AperFunction,Conductor*%
%ADD47C,0.700000*%
%TD*%
%TA.AperFunction,Conductor*%
%ADD48C,0.276400*%
%TD*%
%TA.AperFunction,Conductor*%
%ADD49C,0.800000*%
%TD*%
G04 APERTURE END LIST*
D10*
%TO.P,C4,1*%
%TO.N,24V_AMP*%
X242576041Y-138770000D03*
D11*
%TO.P,C4,2*%
%TO.N,GND*%
X247576041Y-138770000D03*
%TD*%
D12*
%TO.P,J2,1*%
%TO.N,24V_BENCH_RAW*%
X262520000Y-147960000D03*
%TO.P,J2,2*%
%TO.N,GND*%
X257440000Y-147960000D03*
%TD*%
D13*
%TO.P,C5,1*%
%TO.N,24V_AMP*%
X231220000Y-129110000D03*
D14*
%TO.P,C5,2*%
%TO.N,GND*%
X231220000Y-132610000D03*
%TD*%
D15*
%TO.P,U2,41*%
%TO.N,GND*%
X153065000Y-91850000D03*
X153065000Y-93250000D03*
X153765000Y-91150000D03*
X153765000Y-92550000D03*
X153765000Y-93950000D03*
X154465000Y-91850000D03*
X154465000Y-93250000D03*
X155165000Y-91150000D03*
X155165000Y-92550000D03*
X155165000Y-93950000D03*
X155865000Y-91850000D03*
X155865000Y-93250000D03*
%TD*%
D16*
%TO.P,U1,1*%
%TO.N,N/C*%
X114500000Y-120890000D03*
D17*
%TO.P,U1,2*%
X114500000Y-123430000D03*
%TO.P,U1,3*%
%TO.N,AT_DET_PRIMARY*%
X114500000Y-125970000D03*
%TO.P,U1,4*%
%TO.N,BT3_DET_PRIMARY*%
X114500000Y-128510000D03*
%TO.P,U1,5*%
%TO.N,BT4_DET_PRIMARY*%
X114500000Y-131050000D03*
%TO.P,U1,6*%
%TO.N,N/C*%
X114500000Y-133590000D03*
%TO.P,U1,7*%
%TO.N,POE_RECT_NEG*%
X114500000Y-136130000D03*
%TO.P,U1,8*%
%TO.N,POE_RECT_POS*%
X114500000Y-138670000D03*
%TO.P,U1,9*%
%TO.N,24V_POE*%
X180540000Y-141210000D03*
%TO.P,U1,10*%
X180540000Y-138670000D03*
%TO.P,U1,11*%
%TO.N,POE_12V_MID*%
X180540000Y-136130000D03*
%TO.P,U1,12*%
X180540000Y-133590000D03*
%TO.P,U1,13*%
X180540000Y-131050000D03*
%TO.P,U1,14*%
X180540000Y-128510000D03*
%TO.P,U1,15*%
%TO.N,GND*%
X180540000Y-125970000D03*
%TO.P,U1,16*%
X180540000Y-123430000D03*
%TO.P,U1,17*%
%TO.N,N/C*%
X180540000Y-120890000D03*
%TD*%
D18*
%TO.P,C2,1*%
%TO.N,24V_POE*%
X190190000Y-143680000D03*
D19*
%TO.P,C2,2*%
%TO.N,POE_12V_MID*%
X190190000Y-138680000D03*
%TD*%
D20*
%TO.P,U14,1*%
%TO.N,BT4_LED_A*%
X136790000Y-107230000D03*
D21*
%TO.P,U14,2*%
%TO.N,BT4_DET_PRIMARY*%
X136790000Y-109770000D03*
%TO.P,U14,3*%
%TO.N,GND*%
X144410000Y-109750000D03*
%TO.P,U14,4*%
%TO.N,POE_BT4_DET*%
X144410000Y-107210000D03*
%TD*%
D22*
%TO.P,J6,1*%
%TO.N,3V3*%
X200040000Y-72520000D03*
D23*
%TO.P,J6,2*%
%TO.N,GND*%
X197500000Y-72520000D03*
%TO.P,J6,3*%
%TO.N,I2C_SDA*%
X194960000Y-72520000D03*
%TO.P,J6,4*%
%TO.N,I2C_SCL*%
X192420000Y-72520000D03*
%TO.P,J6,5*%
%TO.N,EXP_GPIO0*%
X189880000Y-72520000D03*
%TO.P,J6,6*%
%TO.N,EXP_GPIO1*%
X187340000Y-72520000D03*
%TD*%
D22*
%TO.P,J4,1*%
%TO.N,3V3*%
X146930000Y-75030000D03*
D23*
%TO.P,J4,2*%
%TO.N,GND*%
X146930000Y-72490000D03*
%TO.P,J4,3*%
%TO.N,PDM_CLK*%
X149470000Y-75030000D03*
%TO.P,J4,4*%
%TO.N,GND*%
X149470000Y-72490000D03*
%TO.P,J4,5*%
%TO.N,PDM_DATA0_CONN*%
X152010000Y-75030000D03*
%TO.P,J4,6*%
%TO.N,GND*%
X152010000Y-72490000D03*
%TO.P,J4,7*%
%TO.N,PDM_DATA1_CONN*%
X154550000Y-75030000D03*
%TO.P,J4,8*%
%TO.N,GND*%
X154550000Y-72490000D03*
%TO.P,J4,9*%
%TO.N,PDM_DATA2_CONN*%
X157090000Y-75030000D03*
%TO.P,J4,10*%
%TO.N,GND*%
X157090000Y-72490000D03*
%TO.P,J4,11*%
%TO.N,PDM_DATA3_CONN*%
X159630000Y-75030000D03*
%TO.P,J4,12*%
%TO.N,I2C_SDA*%
X159630000Y-72490000D03*
%TO.P,J4,13*%
%TO.N,I2C_SCL*%
X162170000Y-75030000D03*
%TO.P,J4,14*%
%TO.N,RING_GPIO_SPARE*%
X162170000Y-72490000D03*
%TD*%
D24*
%TO.P,C1,1*%
%TO.N,POE_12V_MID*%
X187972323Y-129200000D03*
D19*
%TO.P,C1,2*%
%TO.N,GND*%
X192972323Y-129200000D03*
%TD*%
D25*
%TO.P,C6,1*%
%TO.N,24V_AMP*%
X230060000Y-120092651D03*
D14*
%TO.P,C6,2*%
%TO.N,GND*%
X233560000Y-120092651D03*
%TD*%
D20*
%TO.P,U13,1*%
%TO.N,BT3_LED_A*%
X121220000Y-102980000D03*
D21*
%TO.P,U13,2*%
%TO.N,BT3_DET_PRIMARY*%
X121220000Y-105520000D03*
%TO.P,U13,3*%
%TO.N,GND*%
X128840000Y-105500000D03*
%TO.P,U13,4*%
%TO.N,POE_BT3_DET*%
X128840000Y-102960000D03*
%TD*%
D12*
%TO.P,J3,1*%
%TO.N,SPK_POS*%
X213060000Y-147640000D03*
%TO.P,J3,2*%
%TO.N,SPK_NEG*%
X207980000Y-147640000D03*
%TD*%
D20*
%TO.P,U12,1*%
%TO.N,AT_LED_A*%
X108050000Y-104100000D03*
D21*
%TO.P,U12,2*%
%TO.N,AT_DET_PRIMARY*%
X108050000Y-106640000D03*
%TO.P,U12,3*%
%TO.N,GND*%
X115670000Y-106620000D03*
%TO.P,U12,4*%
%TO.N,POE_AT_DET*%
X115670000Y-104080000D03*
%TD*%
D26*
%TO.P,J1,1*%
%TO.N,N/C*%
X106860000Y-92130000D03*
D27*
%TO.P,J1,2*%
X106860000Y-90098000D03*
%TO.P,J1,3*%
X106860000Y-88066000D03*
%TO.P,J1,4*%
%TO.N,ETH_RX_P*%
X106860000Y-86034000D03*
%TO.P,J1,5*%
%TO.N,ETH_RX_N*%
X106860000Y-84002000D03*
%TO.P,J1,6*%
%TO.N,ETH_RX_CT*%
X106860000Y-81970000D03*
%TO.P,J1,7*%
%TO.N,N/C*%
X109400000Y-93146000D03*
%TO.P,J1,8*%
X109400000Y-91114000D03*
%TO.P,J1,9*%
X109400000Y-89082000D03*
%TO.P,J1,10*%
%TO.N,ETH_TX_N*%
X109400000Y-85018000D03*
%TO.P,J1,11*%
%TO.N,ETH_TX_P*%
X109400000Y-82986000D03*
%TO.P,J1,12*%
%TO.N,ETH_TX_CT*%
X109400000Y-80954000D03*
D28*
%TO.P,J1,13*%
%TO.N,POE_MODE_A_AC1*%
X99750000Y-92640000D03*
%TO.P,J1,14*%
%TO.N,POE_MODE_A_AC2*%
X99750000Y-81460000D03*
%TO.P,J1,15*%
%TO.N,POE_MODE_B_AC1*%
X98210000Y-92640000D03*
%TO.P,J1,16*%
%TO.N,POE_MODE_B_AC2*%
X98210000Y-81460000D03*
D27*
%TO.P,J1,17*%
%TO.N,N/C*%
X111940000Y-93146000D03*
%TO.P,J1,18*%
X111940000Y-90606000D03*
%TO.P,J1,19*%
X111940000Y-83494000D03*
%TO.P,J1,20*%
X111940000Y-80954000D03*
D29*
%TO.P,J1,S1*%
X88440000Y-95115000D03*
%TO.P,J1,S2*%
X88440000Y-78985000D03*
%TD*%
D10*
%TO.P,C3,1*%
%TO.N,24V_AMP*%
X241930000Y-124870000D03*
D11*
%TO.P,C3,2*%
%TO.N,GND*%
X246930000Y-124870000D03*
%TD*%
D22*
%TO.P,J5,1*%
%TO.N,3V3*%
X168650000Y-72830000D03*
D23*
%TO.P,J5,2*%
%TO.N,GND*%
X171190000Y-72830000D03*
%TO.P,J5,3*%
%TO.N,UART0_TX*%
X173730000Y-72830000D03*
%TO.P,J5,4*%
%TO.N,ESP_EN*%
X176270000Y-72830000D03*
%TO.P,J5,5*%
%TO.N,UART0_RX*%
X178810000Y-72830000D03*
%TO.P,J5,6*%
%TO.N,BOOT_GPIO0*%
X181350000Y-72830000D03*
%TD*%
D30*
%TO.P,U16,25*%
%TO.N,GND*%
X243467500Y-82140000D03*
X243467500Y-81040000D03*
X243467500Y-79940000D03*
X242367500Y-82140000D03*
X242367500Y-81040000D03*
D31*
X242367500Y-81040000D03*
D30*
X242367500Y-79940000D03*
X241267500Y-82140000D03*
X241267500Y-81040000D03*
X241267500Y-79940000D03*
%TD*%
D32*
%TO.P,R104,1*%
%TO.N,ETH_RX_P*%
X115350000Y-88095000D03*
%TO.P,R104,2*%
%TO.N,ETH_RX_TERM*%
X115350000Y-89745000D03*
%TD*%
D33*
%TO.P,C106,1*%
%TO.N,ETH_3V3A*%
X128060000Y-87880000D03*
%TO.P,C106,2*%
%TO.N,GND*%
X129610000Y-87880000D03*
%TD*%
D34*
%TO.P,R105,1*%
%TO.N,ETH_RX_N*%
X115205000Y-86520000D03*
%TO.P,R105,2*%
%TO.N,ETH_RX_TERM*%
X116855000Y-86520000D03*
%TD*%
D35*
%TO.P,R101,1*%
%TO.N,ETH_TX_P*%
X115230000Y-83155000D03*
%TO.P,R101,2*%
%TO.N,ETH_3V3A*%
X115230000Y-81505000D03*
%TD*%
D36*
%TO.P,C105,1*%
%TO.N,ETH_3V3A*%
X131520000Y-92385000D03*
%TO.P,C105,2*%
%TO.N,GND*%
X131520000Y-93935000D03*
%TD*%
%TO.P,C102,1*%
%TO.N,ETH_RX_TERM*%
X115260000Y-91365000D03*
%TO.P,C102,2*%
%TO.N,GND*%
X115260000Y-92915000D03*
%TD*%
D35*
%TO.P,FB2,1*%
%TO.N,3V3*%
X129500000Y-94000000D03*
%TO.P,FB2,2*%
%TO.N,ETH_3V3A*%
X129500000Y-92350000D03*
%TD*%
D37*
%TO.P,C111,1*%
%TO.N,ETH_3V3A*%
X128095000Y-84200000D03*
%TO.P,C111,2*%
%TO.N,GND*%
X129995000Y-84200000D03*
%TD*%
D34*
%TO.P,R102,1*%
%TO.N,ETH_TX_N*%
X115255000Y-84820000D03*
%TO.P,R102,2*%
%TO.N,ETH_3V3A*%
X116905000Y-84820000D03*
%TD*%
D38*
%TO.P,C101,1*%
%TO.N,ETH_RX_CT*%
X106365000Y-77770000D03*
%TO.P,C101,2*%
%TO.N,GND*%
X104815000Y-77770000D03*
%TD*%
D36*
%TO.P,C108,1*%
%TO.N,ETH_3V3A*%
X133340000Y-92375000D03*
%TO.P,C108,2*%
%TO.N,GND*%
X133340000Y-93925000D03*
%TD*%
%TO.P,C110,1*%
%TO.N,ETH_3V3A*%
X127770000Y-92245000D03*
%TO.P,C110,2*%
%TO.N,GND*%
X127770000Y-93795000D03*
%TD*%
D33*
%TO.P,C107,1*%
%TO.N,ETH_3V3A*%
X128060000Y-86210000D03*
%TO.P,C107,2*%
%TO.N,GND*%
X129610000Y-86210000D03*
%TD*%
%TO.P,C109,1*%
%TO.N,ETH_3V3A*%
X128045000Y-89770000D03*
%TO.P,C109,2*%
%TO.N,GND*%
X129595000Y-89770000D03*
%TD*%
D39*
%TO.N,GND*%
X193580000Y-114780000D03*
X221210000Y-80960000D03*
X126860000Y-93870000D03*
X241210000Y-72790000D03*
X131750000Y-95200000D03*
X201320000Y-112180000D03*
X171280000Y-82540000D03*
X119970000Y-81590000D03*
X243313064Y-88396936D03*
X178890000Y-98650000D03*
X211270000Y-92850000D03*
X188110000Y-104680000D03*
X188640000Y-112470000D03*
X130440000Y-87910000D03*
X217840000Y-74700000D03*
X128724406Y-88831405D03*
X207960000Y-105450000D03*
X242950764Y-79921457D03*
X166970000Y-97380000D03*
X196860000Y-77150000D03*
X242480000Y-92380000D03*
X184290000Y-77960000D03*
X175220493Y-97099619D03*
X128640000Y-95480000D03*
X142700000Y-86200000D03*
X174103884Y-91230001D03*
X256610000Y-72230000D03*
X191940000Y-87920000D03*
X175950000Y-85910000D03*
X234430000Y-84580000D03*
X208480000Y-115640000D03*
X177780000Y-88090000D03*
X140314951Y-85156421D03*
X199850000Y-82470000D03*
X218850000Y-88725000D03*
X244070000Y-71810000D03*
X104610000Y-76720000D03*
X209450000Y-103070000D03*
X242320000Y-96990000D03*
X230630001Y-92256513D03*
X132180000Y-89010000D03*
X193660000Y-114060000D03*
X132880000Y-86780000D03*
X197370000Y-78150000D03*
X172910000Y-88300000D03*
X234390000Y-93700000D03*
X187310000Y-99350000D03*
X214040218Y-87336989D03*
X196625000Y-110740000D03*
X256430000Y-123630000D03*
X195375001Y-105194238D03*
X142940000Y-80640000D03*
X128750000Y-76610000D03*
X166440000Y-93760000D03*
X134860000Y-76710000D03*
X122910000Y-94780000D03*
X133070000Y-94810000D03*
X268710000Y-73450000D03*
X174200000Y-103480000D03*
X193660000Y-113420000D03*
X148500000Y-84720000D03*
X190870000Y-78490000D03*
X171377006Y-86016743D03*
X268680000Y-74440000D03*
X230560000Y-95090000D03*
X201390000Y-110190000D03*
X130800000Y-84170000D03*
X130170000Y-88940000D03*
X214330000Y-94140000D03*
X260840000Y-94270000D03*
X211900000Y-88000000D03*
X232070000Y-88910000D03*
X194640000Y-122970000D03*
X126340000Y-76130000D03*
X164460000Y-84200000D03*
X250230000Y-76810000D03*
X181200000Y-98090000D03*
X234570000Y-80830000D03*
X214930000Y-75990000D03*
X235630000Y-88500000D03*
X166900000Y-91610000D03*
X201300000Y-108280000D03*
X178498058Y-88078058D03*
X210790000Y-87770000D03*
X139160000Y-92860000D03*
X229010000Y-88725000D03*
X188620000Y-108800000D03*
X178260000Y-82540000D03*
X130560000Y-86320000D03*
X211320000Y-84040000D03*
X170950000Y-101570000D03*
X223270000Y-87650000D03*
X240400000Y-87150000D03*
X121830000Y-88620000D03*
X124360000Y-84540000D03*
X211000000Y-74860000D03*
X250630000Y-81480000D03*
X126650000Y-81850000D03*
X188700000Y-110660000D03*
X115890000Y-92930000D03*
X251290000Y-97580000D03*
X186230000Y-92680000D03*
X179500000Y-112090000D03*
X176010000Y-90550000D03*
X167620000Y-86090000D03*
X193400000Y-112290000D03*
X167260000Y-77620000D03*
X124370000Y-86890000D03*
X221200000Y-85330000D03*
X142440000Y-81940000D03*
%TO.N,ETH_SPI_MOSI*%
X155900000Y-103990000D03*
X136530000Y-83270000D03*
D40*
%TO.N,24V_AMP*%
X232380000Y-86060000D03*
X230340000Y-87670000D03*
X232350000Y-87600000D03*
X240140000Y-85490000D03*
X228800000Y-87240000D03*
X226730000Y-85710000D03*
X238717972Y-85846773D03*
X231010000Y-86810000D03*
X203650000Y-101620000D03*
X204320000Y-103310000D03*
X203060000Y-103100000D03*
X238630000Y-84210000D03*
X226290000Y-88620000D03*
D39*
%TO.N,3V3*%
X127400000Y-79830000D03*
X212420000Y-83185000D03*
D40*
X255780000Y-103500000D03*
D39*
X168630000Y-80710000D03*
X130095000Y-94439140D03*
X188690000Y-80550000D03*
X216875000Y-90325000D03*
D40*
X204350000Y-82950000D03*
D39*
X189260000Y-80620000D03*
X143790000Y-83850000D03*
X177230000Y-85920000D03*
X120608725Y-82096626D03*
D40*
X169707298Y-102087298D03*
D39*
X136060000Y-88280000D03*
D40*
X199790000Y-79570000D03*
X198730000Y-79520000D03*
D39*
X148310000Y-86330000D03*
D40*
X170190000Y-86890000D03*
D39*
X128460000Y-80020000D03*
D40*
X206170000Y-82770000D03*
D39*
X234207500Y-78160000D03*
D40*
X192070000Y-103800000D03*
%TO.N,5V*%
X216160000Y-86490000D03*
X189250000Y-100270000D03*
X189190000Y-99280000D03*
D39*
%TO.N,PHY_nRESET*%
X134010000Y-79910000D03*
X190820000Y-83165000D03*
%TO.N,ETH_SPI_CS_N*%
X135620000Y-85760000D03*
X143605735Y-93434265D03*
%TO.N,BOOT_GPIO0*%
X176890000Y-90570000D03*
X167275000Y-100185000D03*
%TO.N,ESP_EN*%
X171570000Y-78240000D03*
X150050000Y-82360000D03*
%TO.N,ETH_INT_N*%
X148465002Y-94030000D03*
X135230000Y-82850000D03*
%TO.N,I2C_SDA*%
X190060000Y-76870000D03*
%TO.N,I2S_BCLK*%
X171810380Y-89580380D03*
X153510000Y-99530000D03*
%TO.N,I2S_LRCLK*%
X173915478Y-88262778D03*
X154360000Y-99780000D03*
%TO.N,I2S_DATA*%
X174550000Y-88750000D03*
X155520000Y-100410000D03*
%TO.N,ETH_SPI_MISO*%
X136490000Y-84120000D03*
X157520000Y-103860000D03*
%TO.N,I2C_SCL*%
X189740000Y-78240000D03*
X192670000Y-75320000D03*
%TO.N,IOX_nRESET*%
X165900000Y-96270000D03*
X188000000Y-84415000D03*
%TO.N,IOX_INT_N*%
X191840000Y-80320000D03*
X166880000Y-81510000D03*
%TO.N,ETH_3V3A*%
X126978000Y-88330288D03*
X126980550Y-84834015D03*
X116040000Y-81810000D03*
X126977564Y-86829657D03*
X130922399Y-92191889D03*
X117640000Y-84830000D03*
X129172131Y-91406763D03*
X128110000Y-91500000D03*
%TO.N,POE_MODE_A_AC2*%
X101120000Y-96070000D03*
D40*
%TO.N,24V_POE*%
X273464000Y-84602000D03*
X272314000Y-86012000D03*
X275854000Y-86572000D03*
X277074000Y-87792000D03*
X274344000Y-88052000D03*
X276479000Y-87197000D03*
X277214000Y-84422000D03*
D39*
%TO.N,POE_AT_DET*%
X191975213Y-85695000D03*
%TO.N,BENCH_PASS_GATE*%
X246240000Y-99390000D03*
X261560000Y-99760000D03*
%TO.N,POE_BT4_DET*%
X192005412Y-87067930D03*
%TO.N,ETH_SPI_SCLK*%
X135910000Y-84900000D03*
X153870000Y-105380000D03*
%TO.N,EXP_GPIO1*%
X190495000Y-75135000D03*
%TO.N,AMP_ENABLE_CMD*%
X194400000Y-82360000D03*
X234540000Y-82950000D03*
%TO.N,AMP_MUTE*%
X194070000Y-83110000D03*
X196000000Y-112789999D03*
%TO.N,DAC_XSMT*%
X172692500Y-85800000D03*
X191830000Y-83790000D03*
%TO.N,AMP_FAULTZ*%
X193210000Y-106440000D03*
X194260000Y-85060000D03*
%TO.N,POE_BT3_DET*%
X191220000Y-86330000D03*
%TO.N,5V_PG*%
X232430000Y-90785000D03*
X200130000Y-88000000D03*
%TO.N,3V3_PG*%
X199981982Y-86903603D03*
X208880000Y-87770000D03*
%TO.N,ETH_TX_P*%
X123038580Y-82475563D03*
%TO.N,ETH_TX_N*%
X123790000Y-82160707D03*
%TO.N,ETH_RX_P*%
X122420000Y-86590000D03*
%TO.N,ETH_RX_N*%
X121980000Y-85660000D03*
D40*
%TO.N,BENCH_COMMON_SOURCE*%
X259670000Y-113060000D03*
D39*
X241040000Y-114540000D03*
%TO.N,POE_MODE_B_AC1*%
X98390000Y-100250000D03*
%TO.N,ETH_RX_TERM*%
X117280000Y-86600000D03*
X116110000Y-89710000D03*
%TD*%
%TO.N,GND*%
D41*
X133340000Y-94540000D02*
X133070000Y-94810000D01*
X104815000Y-76925000D02*
X104610000Y-76720000D01*
D42*
X129610000Y-86210000D02*
X130450000Y-86210000D01*
X129610000Y-87880000D02*
X130410000Y-87880000D01*
X130410000Y-87880000D02*
X130440000Y-87910000D01*
D41*
X126935000Y-93795000D02*
X126860000Y-93870000D01*
X104815000Y-77770000D02*
X104815000Y-76925000D01*
D42*
X130450000Y-86210000D02*
X130560000Y-86320000D01*
D41*
X115260000Y-92915000D02*
X115875000Y-92915000D01*
D42*
X128724406Y-88831405D02*
X128724406Y-88899406D01*
X130770000Y-84200000D02*
X130800000Y-84170000D01*
D41*
X127770000Y-93795000D02*
X126935000Y-93795000D01*
X131520000Y-93935000D02*
X131520000Y-94970000D01*
D42*
X129995000Y-84200000D02*
X130770000Y-84200000D01*
D41*
X131520000Y-94970000D02*
X131750000Y-95200000D01*
X115875000Y-92915000D02*
X115890000Y-92930000D01*
D42*
X128724406Y-88899406D02*
X129595000Y-89770000D01*
D41*
X133340000Y-93925000D02*
X133340000Y-94540000D01*
%TO.N,ETH_SPI_MOSI*%
D43*
X155900000Y-102768529D02*
X148333561Y-95202090D01*
X148333561Y-95202090D02*
X148333561Y-94793561D01*
X155900000Y-103990000D02*
X155900000Y-102768529D01*
X136810000Y-83270000D02*
X136530000Y-83270000D01*
X148333561Y-94793561D02*
X136810000Y-83270000D01*
%TO.N,3V3*%
D44*
X129500000Y-94000000D02*
X129655860Y-94000000D01*
X129655860Y-94000000D02*
X130095000Y-94439140D01*
%TO.N,PHY_nRESET*%
D41*
X135070000Y-79910000D02*
X134010000Y-79910000D01*
X138325000Y-83165000D02*
X135070000Y-79910000D01*
X190820000Y-83165000D02*
X138325000Y-83165000D01*
%TO.N,ETH_SPI_CS_N*%
D43*
X143360000Y-93170000D02*
X143360000Y-93188530D01*
X135620000Y-85760000D02*
X135950000Y-85760000D01*
X135950000Y-85760000D02*
X143360000Y-93170000D01*
X143360000Y-93188530D02*
X143605735Y-93434265D01*
%TO.N,BOOT_GPIO0*%
D42*
X176890000Y-90570000D02*
X176890000Y-90599239D01*
X167304239Y-100185000D02*
X167275000Y-100185000D01*
X176890000Y-90599239D02*
X167304239Y-100185000D01*
%TO.N,ESP_EN*%
X150050000Y-82360000D02*
X150970000Y-81440000D01*
X168630000Y-78220000D02*
X171530000Y-78220000D01*
X150970000Y-81440000D02*
X165410000Y-81440000D01*
X165410000Y-81440000D02*
X168630000Y-78220000D01*
%TO.N,ETH_INT_N*%
D43*
X136828529Y-82720000D02*
X136778529Y-82670000D01*
X136778529Y-82670000D02*
X136281471Y-82670000D01*
X148465002Y-94030000D02*
X148340000Y-94030000D01*
X136281471Y-82670000D02*
X136231471Y-82720000D01*
X135360000Y-82720000D02*
X135230000Y-82850000D01*
X136231471Y-82720000D02*
X135360000Y-82720000D01*
X148340000Y-94030000D02*
X137030000Y-82720000D01*
X137030000Y-82720000D02*
X136828529Y-82720000D01*
%TO.N,I2C_SDA*%
X194960000Y-72520000D02*
X194960000Y-71980000D01*
D42*
X190120000Y-76870000D02*
X194470000Y-72520000D01*
X190060000Y-76870000D02*
X190120000Y-76870000D01*
X194470000Y-72520000D02*
X194960000Y-72520000D01*
D43*
X161819150Y-70300850D02*
X159630000Y-72490000D01*
X194960000Y-71980000D02*
X193296558Y-70316558D01*
X193296558Y-70316558D02*
X161819150Y-70300850D01*
%TO.N,I2S_BCLK*%
D41*
X158600000Y-94440000D02*
X166990000Y-94440000D01*
X166990000Y-94440000D02*
X171810380Y-89619620D01*
X171810380Y-89619620D02*
X171810380Y-89580380D01*
X153510000Y-99530000D02*
X158600000Y-94440000D01*
%TO.N,I2S_LRCLK*%
D42*
X159030000Y-95110000D02*
X167200000Y-95110000D01*
X167200000Y-95110000D02*
X173915478Y-88394522D01*
X154360000Y-99780000D02*
X159030000Y-95110000D01*
X173915478Y-88394522D02*
X173915478Y-88262778D01*
%TO.N,I2S_DATA*%
D41*
X167780000Y-95520000D02*
X174550000Y-88750000D01*
X167461751Y-95520000D02*
X167780000Y-95520000D01*
X160345000Y-95585000D02*
X167396752Y-95585000D01*
X167396752Y-95585000D02*
X167461751Y-95520000D01*
X155520000Y-100410000D02*
X160345000Y-95585000D01*
%TO.N,ETH_SPI_MISO*%
D43*
X154850000Y-103960000D02*
X155700000Y-104810000D01*
X156570000Y-104810000D02*
X157520000Y-103860000D01*
X154850000Y-102460000D02*
X154850000Y-103960000D01*
X155700000Y-104810000D02*
X156570000Y-104810000D01*
X136510000Y-84120000D02*
X154850000Y-102460000D01*
X136490000Y-84120000D02*
X136510000Y-84120000D01*
%TO.N,I2C_SCL*%
X191250000Y-70810000D02*
X166390000Y-70810000D01*
X166390000Y-70810000D02*
X162170000Y-75030000D01*
X192420000Y-72520000D02*
X192420000Y-71980000D01*
X192420000Y-71980000D02*
X191250000Y-70810000D01*
D41*
X189740000Y-78230000D02*
X189740000Y-78240000D01*
X192650000Y-75320000D02*
X189740000Y-78230000D01*
X192670000Y-75320000D02*
X192650000Y-75320000D01*
%TO.N,IOX_nRESET*%
X168180000Y-96270000D02*
X180035000Y-84415000D01*
X165900000Y-96270000D02*
X168180000Y-96270000D01*
X180035000Y-84415000D02*
X188000000Y-84415000D01*
%TO.N,IOX_INT_N*%
D43*
X190940000Y-80320000D02*
X189750000Y-81510000D01*
X191840000Y-80320000D02*
X190940000Y-80320000D01*
X189750000Y-81510000D02*
X166880000Y-81510000D01*
%TO.N,ETH_3V3A*%
D42*
X115735000Y-81505000D02*
X116040000Y-81810000D01*
X116905000Y-84820000D02*
X117630000Y-84820000D01*
X115230000Y-81505000D02*
X115735000Y-81505000D01*
X117630000Y-84820000D02*
X117640000Y-84830000D01*
%TO.N,POE_MODE_A_AC2*%
D44*
X101120000Y-96070000D02*
X101360000Y-95830000D01*
X101360000Y-91250000D02*
X99750000Y-89640000D01*
X99750000Y-89640000D02*
X99750000Y-81460000D01*
X101360000Y-95830000D02*
X101360000Y-91250000D01*
%TO.N,BT3_DET_PRIMARY*%
D45*
X118940000Y-124070000D02*
X114500000Y-128510000D01*
X121220000Y-107750000D02*
X118940000Y-110030000D01*
X118940000Y-110030000D02*
X118940000Y-124070000D01*
X121220000Y-105520000D02*
X121220000Y-107750000D01*
%TO.N,BT4_DET_PRIMARY*%
D44*
X136770000Y-109790000D02*
X136790000Y-109770000D01*
X114500000Y-131050000D02*
X135760000Y-109790000D01*
X135760000Y-109790000D02*
X136770000Y-109790000D01*
%TO.N,POE_AT_DET*%
D46*
X188912182Y-85650000D02*
X168282182Y-106280000D01*
X115670000Y-100300000D02*
X115670000Y-104080000D01*
X139020000Y-98050000D02*
X117920000Y-98050000D01*
X191975213Y-85695000D02*
X191887011Y-85695000D01*
X168282182Y-106280000D02*
X147250000Y-106280000D01*
X191887011Y-85695000D02*
X191842011Y-85650000D01*
X191842011Y-85650000D02*
X188912182Y-85650000D01*
X147250000Y-106280000D02*
X139020000Y-98050000D01*
X117920000Y-98050000D02*
X115670000Y-100300000D01*
%TO.N,BENCH_PASS_GATE*%
D47*
X247870000Y-101090000D02*
X260230000Y-101090000D01*
D44*
X246240000Y-99460000D02*
X247870000Y-101090000D01*
X246240000Y-99390000D02*
X246240000Y-99460000D01*
D47*
X260230000Y-101090000D02*
X261560000Y-99760000D01*
%TO.N,POE_BT4_DET*%
D46*
X192005412Y-87067930D02*
X191923342Y-87150000D01*
X191923342Y-87150000D02*
X189210000Y-87150000D01*
X168980000Y-107380000D02*
X144670000Y-107380000D01*
X144500000Y-107210000D02*
X144410000Y-107210000D01*
X189210000Y-87150000D02*
X168980000Y-107380000D01*
X144670000Y-107380000D02*
X144500000Y-107210000D01*
%TO.N,ETH_SPI_SCLK*%
D43*
X153870000Y-102850000D02*
X135920000Y-84900000D01*
X153870000Y-105380000D02*
X153870000Y-102850000D01*
X135920000Y-84900000D02*
X135910000Y-84900000D01*
%TO.N,EXP_GPIO1*%
D42*
X187880000Y-72520000D02*
X187340000Y-72520000D01*
X190495000Y-75135000D02*
X187880000Y-72520000D01*
%TO.N,AMP_ENABLE_CMD*%
X234540000Y-82950000D02*
X233200000Y-81610000D01*
X195150000Y-81610000D02*
X194400000Y-82360000D01*
X233200000Y-81610000D02*
X195150000Y-81610000D01*
%TO.N,AMP_MUTE*%
X197280000Y-105760000D02*
X195740000Y-104220000D01*
X197275000Y-106365000D02*
X197280000Y-106360000D01*
X197275000Y-111514999D02*
X197275000Y-106365000D01*
X194170000Y-83060000D02*
X194120000Y-83060000D01*
X197280000Y-106360000D02*
X197280000Y-105760000D01*
X195740000Y-104220000D02*
X195740000Y-84630000D01*
X195740000Y-84630000D02*
X194170000Y-83060000D01*
X194120000Y-83060000D02*
X194070000Y-83110000D01*
X196000000Y-112789999D02*
X197275000Y-111514999D01*
%TO.N,DAC_XSMT*%
D41*
X174702500Y-83790000D02*
X191830000Y-83790000D01*
X172692500Y-85800000D02*
X174702500Y-83790000D01*
%TO.N,AMP_FAULTZ*%
D42*
X193210000Y-105780000D02*
X194940000Y-104050000D01*
X194940000Y-104050000D02*
X194940000Y-85740000D01*
X193210000Y-106440000D02*
X193210000Y-105780000D01*
X194940000Y-85740000D02*
X194260000Y-85060000D01*
%TO.N,POE_BT3_DET*%
D46*
X146580000Y-106830000D02*
X141390000Y-101640000D01*
X130220000Y-101640000D02*
X128900000Y-102960000D01*
X189010000Y-86330000D02*
X168510000Y-106830000D01*
X141390000Y-101640000D02*
X130220000Y-101640000D01*
X128900000Y-102960000D02*
X128840000Y-102960000D01*
X168510000Y-106830000D02*
X146580000Y-106830000D01*
X191220000Y-86330000D02*
X189010000Y-86330000D01*
%TO.N,5V_PG*%
D45*
X232430000Y-90785000D02*
X231120000Y-89475000D01*
X231120000Y-89475000D02*
X201605000Y-89475000D01*
X201605000Y-89475000D02*
X200130000Y-88000000D01*
%TO.N,ETH_TX_P*%
D48*
X123038580Y-82475563D02*
X123313600Y-82750583D01*
X113221334Y-84801800D02*
X111428666Y-84801800D01*
X114286334Y-83736800D02*
X113221334Y-84801800D01*
X123313600Y-83249534D02*
X123034714Y-83528420D01*
X110177800Y-83763800D02*
X109400000Y-82986000D01*
X115230000Y-83155000D02*
X114648200Y-83736800D01*
X116046976Y-83759820D02*
X115834820Y-83759820D01*
X111428666Y-84801800D02*
X110390666Y-83763800D01*
X115834820Y-83759820D02*
X115230000Y-83155000D01*
X114648200Y-83736800D02*
X114286334Y-83736800D01*
X123313600Y-82750583D02*
X123313600Y-83249534D01*
X116278377Y-83528420D02*
X116046976Y-83759820D01*
X110390666Y-83763800D02*
X110177800Y-83763800D01*
X123034714Y-83528420D02*
X116278377Y-83528420D01*
%TO.N,ETH_TX_N*%
X110193334Y-84240200D02*
X110177800Y-84240200D01*
X111231334Y-85278200D02*
X110193334Y-84240200D01*
X115836800Y-84238200D02*
X115255000Y-84820000D01*
X114648200Y-84213200D02*
X114483666Y-84213200D01*
X123790000Y-83446866D02*
X123230066Y-84006800D01*
X116245128Y-84238200D02*
X115836800Y-84238200D01*
X114483666Y-84213200D02*
X113418666Y-85278200D01*
X110177800Y-84240200D02*
X109400000Y-85018000D01*
X116476528Y-84006800D02*
X116245128Y-84238200D01*
X113418666Y-85278200D02*
X111231334Y-85278200D01*
X123230066Y-84006800D02*
X116476528Y-84006800D01*
X123790000Y-82160707D02*
X123790000Y-83446866D01*
X115255000Y-84820000D02*
X114648200Y-84213200D01*
%TO.N,ETH_RX_P*%
X109105488Y-86960180D02*
X108179307Y-86034000D01*
X115350000Y-88095000D02*
X114728200Y-87473200D01*
X108179307Y-86034000D02*
X106860000Y-86034000D01*
X121688387Y-86270939D02*
X121715648Y-86298200D01*
X116183134Y-87820000D02*
X120139326Y-87820000D01*
X114728200Y-87473200D02*
X113186334Y-87473200D01*
X115350000Y-88095000D02*
X115826800Y-87618200D01*
X115826800Y-87618200D02*
X115981334Y-87618200D01*
X112672324Y-86959190D02*
X111450000Y-86959190D01*
X122128200Y-86298200D02*
X122420000Y-86590000D01*
X111450000Y-86959190D02*
X111449010Y-86960180D01*
X121715648Y-86298200D02*
X122128200Y-86298200D01*
X113186334Y-87473200D02*
X112672324Y-86959190D01*
X120139326Y-87820000D02*
X121688387Y-86270939D01*
X111449010Y-86960180D02*
X109105488Y-86960180D01*
X115981334Y-87618200D02*
X116183134Y-87820000D01*
%TO.N,ETH_RX_N*%
X121618794Y-85666800D02*
X121973200Y-85666800D01*
X119941994Y-87343600D02*
X121618794Y-85666800D01*
X121973200Y-85666800D02*
X121980000Y-85660000D01*
X108296800Y-85474961D02*
X108296800Y-85438800D01*
X111450000Y-86482790D02*
X111449010Y-86481800D01*
X116178666Y-87141800D02*
X116380466Y-87343600D01*
X115205000Y-86520000D02*
X115826800Y-87141800D01*
X109303639Y-86481800D02*
X108296800Y-85474961D01*
X115205000Y-86520000D02*
X114728200Y-86996800D01*
X114728200Y-86996800D02*
X113383666Y-86996800D01*
X115826800Y-87141800D02*
X116178666Y-87141800D01*
X113383666Y-86996800D02*
X112869656Y-86482790D01*
X116380466Y-87343600D02*
X119941994Y-87343600D01*
X112869656Y-86482790D02*
X111450000Y-86482790D01*
X108296800Y-85438800D02*
X106860000Y-84002000D01*
X111449010Y-86481800D02*
X109303639Y-86481800D01*
%TO.N,BENCH_COMMON_SOURCE*%
D49*
X259670000Y-113060000D02*
X255890000Y-116840000D01*
X243340000Y-116840000D02*
X241040000Y-114540000D01*
X255890000Y-116840000D02*
X243340000Y-116840000D01*
%TO.N,ETH_RX_CT*%
D41*
X106365000Y-77770000D02*
X106365000Y-81475000D01*
X106365000Y-81475000D02*
X106860000Y-81970000D01*
%TO.N,POE_MODE_B_AC1*%
D44*
X98390000Y-100250000D02*
X98390000Y-92820000D01*
X98390000Y-92820000D02*
X98210000Y-92640000D01*
%TO.N,ETH_RX_TERM*%
D42*
X116075000Y-89745000D02*
X116110000Y-89710000D01*
X115350000Y-89745000D02*
X115350000Y-91275000D01*
X115350000Y-91275000D02*
X115260000Y-91365000D01*
X115350000Y-89745000D02*
X116075000Y-89745000D01*
X117200000Y-86520000D02*
X117280000Y-86600000D01*
X116855000Y-86520000D02*
X117200000Y-86520000D01*
%TD*%
%TA.AperFunction,Conductor*%
%TO.N,ETH_3V3A*%
G36*
X126292068Y-82944216D02*
G01*
X126380000Y-82944216D01*
X128926000Y-82944216D01*
X128993039Y-82963901D01*
X129038794Y-83016705D01*
X129050000Y-83068216D01*
X129050000Y-84197395D01*
X129049890Y-84202612D01*
X128983138Y-85787928D01*
X128977183Y-85821017D01*
X128975280Y-85826873D01*
X128959500Y-85926506D01*
X128959500Y-86346763D01*
X128959390Y-86351979D01*
X128881068Y-88212121D01*
X128858581Y-88278273D01*
X128803899Y-88321767D01*
X128757178Y-88330905D01*
X128658514Y-88330905D01*
X128531218Y-88365013D01*
X128417092Y-88430905D01*
X128417089Y-88430907D01*
X128323908Y-88524088D01*
X128323906Y-88524091D01*
X128258014Y-88638217D01*
X128223906Y-88765513D01*
X128223906Y-88897296D01*
X128258014Y-89024592D01*
X128273667Y-89051703D01*
X128323906Y-89138719D01*
X128417092Y-89231905D01*
X128531220Y-89297797D01*
X128630122Y-89324297D01*
X128685708Y-89356390D01*
X128908181Y-89578863D01*
X128941666Y-89640186D01*
X128944500Y-89666544D01*
X128944500Y-90053493D01*
X128960279Y-90153121D01*
X128960280Y-90153124D01*
X128960281Y-90153126D01*
X129021472Y-90273220D01*
X129021473Y-90273221D01*
X129021476Y-90273225D01*
X129116774Y-90368523D01*
X129116778Y-90368526D01*
X129116780Y-90368528D01*
X129236874Y-90429719D01*
X129236876Y-90429719D01*
X129236878Y-90429720D01*
X129336507Y-90445500D01*
X129336512Y-90445500D01*
X129853493Y-90445500D01*
X129953121Y-90429720D01*
X129953121Y-90429719D01*
X129953126Y-90429719D01*
X130073220Y-90368528D01*
X130168528Y-90273220D01*
X130229719Y-90153126D01*
X130229720Y-90153121D01*
X130245500Y-90053493D01*
X130245500Y-89533074D01*
X130265185Y-89466035D01*
X130317989Y-89420280D01*
X130337401Y-89413300D01*
X130363186Y-89406392D01*
X130477314Y-89340500D01*
X130570500Y-89247314D01*
X130636392Y-89133186D01*
X130670500Y-89005892D01*
X130670500Y-88874108D01*
X130636392Y-88746814D01*
X130636388Y-88746807D01*
X130635333Y-88744258D01*
X130635082Y-88741928D01*
X130634288Y-88738963D01*
X130634750Y-88738839D01*
X130627867Y-88674788D01*
X130659144Y-88612310D01*
X130719234Y-88576660D01*
X130765926Y-88573850D01*
X131604137Y-88683154D01*
X131668066Y-88711342D01*
X131706609Y-88769619D01*
X131707876Y-88838206D01*
X131692043Y-88897296D01*
X131679500Y-88944108D01*
X131679500Y-89075892D01*
X131682096Y-89085581D01*
X131713608Y-89203187D01*
X131746554Y-89260250D01*
X131779500Y-89317314D01*
X131872686Y-89410500D01*
X131960981Y-89461477D01*
X131986810Y-89476390D01*
X131986814Y-89476392D01*
X132114108Y-89510500D01*
X132114110Y-89510500D01*
X132245890Y-89510500D01*
X132245892Y-89510500D01*
X132373186Y-89476392D01*
X132373193Y-89476387D01*
X132380700Y-89473280D01*
X132381526Y-89475276D01*
X132438363Y-89461477D01*
X132504394Y-89484318D01*
X132524558Y-89502282D01*
X134640428Y-91848299D01*
X134667821Y-91898157D01*
X135066659Y-93333972D01*
X135065636Y-93403834D01*
X135027004Y-93462053D01*
X134963030Y-93490143D01*
X134948070Y-93491157D01*
X134039560Y-93497654D01*
X133972381Y-93478449D01*
X133945689Y-93453419D01*
X133945428Y-93453681D01*
X133938528Y-93446781D01*
X133938528Y-93446780D01*
X133843220Y-93351472D01*
X133723126Y-93290281D01*
X133723124Y-93290280D01*
X133723121Y-93290279D01*
X133623493Y-93274500D01*
X133623488Y-93274500D01*
X133056512Y-93274500D01*
X133056507Y-93274500D01*
X132956878Y-93290279D01*
X132836778Y-93351473D01*
X132836774Y-93351476D01*
X132741472Y-93446779D01*
X132735736Y-93454674D01*
X132732970Y-93452664D01*
X132696919Y-93490811D01*
X132635331Y-93507696D01*
X132221740Y-93510654D01*
X132154561Y-93491449D01*
X132120536Y-93459544D01*
X132118529Y-93456782D01*
X132118528Y-93456780D01*
X132023220Y-93361472D01*
X131903126Y-93300281D01*
X131903124Y-93300280D01*
X131903121Y-93300279D01*
X131803493Y-93284500D01*
X131803488Y-93284500D01*
X131236512Y-93284500D01*
X131236507Y-93284500D01*
X131136878Y-93300279D01*
X131016778Y-93361473D01*
X131016774Y-93361476D01*
X130921472Y-93456779D01*
X130915736Y-93464674D01*
X130913747Y-93463229D01*
X130875404Y-93503822D01*
X130813789Y-93520723D01*
X130119334Y-93525689D01*
X130052155Y-93506484D01*
X130030766Y-93489373D01*
X130013347Y-93471954D01*
X130013344Y-93471952D01*
X130013342Y-93471950D01*
X129936517Y-93432805D01*
X129900301Y-93414352D01*
X129806524Y-93399500D01*
X129193482Y-93399500D01*
X129112519Y-93412323D01*
X129099696Y-93414354D01*
X129043177Y-93443152D01*
X128986657Y-93471950D01*
X128960322Y-93498285D01*
X128898997Y-93531768D01*
X128873530Y-93534598D01*
X128552354Y-93536895D01*
X128485175Y-93517690D01*
X128439044Y-93465215D01*
X128433183Y-93446015D01*
X128432737Y-93446160D01*
X128429721Y-93436880D01*
X128429719Y-93436877D01*
X128429719Y-93436874D01*
X128368528Y-93316780D01*
X128368526Y-93316778D01*
X128368523Y-93316774D01*
X128273225Y-93221476D01*
X128273221Y-93221473D01*
X128273220Y-93221472D01*
X128153126Y-93160281D01*
X128153124Y-93160280D01*
X128153121Y-93160279D01*
X128053493Y-93144500D01*
X128053488Y-93144500D01*
X127486512Y-93144500D01*
X127486507Y-93144500D01*
X127386878Y-93160279D01*
X127266778Y-93221473D01*
X127266774Y-93221476D01*
X127171472Y-93316778D01*
X127163920Y-93331600D01*
X127115944Y-93382394D01*
X127048122Y-93399187D01*
X127021344Y-93395076D01*
X127008147Y-93391540D01*
X126925892Y-93369500D01*
X126794108Y-93369500D01*
X126794106Y-93369500D01*
X126782618Y-93372578D01*
X126712768Y-93370911D01*
X126654908Y-93331745D01*
X126633051Y-93292473D01*
X125415941Y-89687597D01*
X125409476Y-89651439D01*
X125223600Y-83067499D01*
X125241385Y-82999931D01*
X125292877Y-82952704D01*
X125347551Y-82940000D01*
X126277710Y-82940000D01*
X126292068Y-82944216D01*
G37*
%TD.AperFunction*%
%TD*%
M02*
