%TF.GenerationSoftware,KiCad,Pcbnew,10.0.2*%
%TF.CreationDate,2026-09-28T15:33:19+00:00*%
%TF.ProjectId,PoE-Speaker-RevE,506f452d-5370-4656-916b-65722d526576,rev?*%
%TF.SameCoordinates,Original*%
%TF.FileFunction,Copper,L1,Top*%
%TF.FilePolarity,Positive*%
%FSLAX46Y46*%
G04 Gerber Fmt 4.6, Leading zero omitted, Abs format (unit mm)*
G04 Created by KiCad (PCBNEW 10.0.2) date 2026-09-28 15:33:19*
%MOMM*%
%LPD*%
G01*
G04 APERTURE LIST*
G04 Aperture macros list*
%AMRoundRect*
0 Rectangle with rounded corners*
0 $1 Rounding radius*
0 $2 $3 $4 $5 $6 $7 $8 $9 X,Y pos of 4 corners*
0 Add a 4 corners polygon primitive as box body*
4,1,4,$2,$3,$4,$5,$6,$7,$8,$9,$2,$3,0*
0 Add four circle primitives for the rounded corners*
1,1,$1+$1,$2,$3*
1,1,$1+$1,$4,$5*
1,1,$1+$1,$6,$7*
1,1,$1+$1,$8,$9*
0 Add four rect primitives between the rounded corners*
20,1,$1+$1,$2,$3,$4,$5,0*
20,1,$1+$1,$4,$5,$6,$7,0*
20,1,$1+$1,$6,$7,$8,$9,0*
20,1,$1+$1,$8,$9,$2,$3,0*%
G04 Aperture macros list end*
%TA.AperFunction,SMDPad,CuDef*%
%ADD10RoundRect,0.225000X-0.225000X-0.250000X0.225000X-0.250000X0.225000X0.250000X-0.225000X0.250000X0*%
%TD*%
%TA.AperFunction,SMDPad,CuDef*%
%ADD11RoundRect,0.200000X0.200000X0.275000X-0.200000X0.275000X-0.200000X-0.275000X0.200000X-0.275000X0*%
%TD*%
%TA.AperFunction,SMDPad,CuDef*%
%ADD12RoundRect,0.225000X-0.250000X0.225000X-0.250000X-0.225000X0.250000X-0.225000X0.250000X0.225000X0*%
%TD*%
%TA.AperFunction,SMDPad,CuDef*%
%ADD13RoundRect,0.150000X-0.150000X0.512500X-0.150000X-0.512500X0.150000X-0.512500X0.150000X0.512500X0*%
%TD*%
%TA.AperFunction,SMDPad,CuDef*%
%ADD14RoundRect,0.200000X-0.275000X0.200000X-0.275000X-0.200000X0.275000X-0.200000X0.275000X0.200000X0*%
%TD*%
%TA.AperFunction,SMDPad,CuDef*%
%ADD15RoundRect,0.250000X-0.250000X-0.475000X0.250000X-0.475000X0.250000X0.475000X-0.250000X0.475000X0*%
%TD*%
%TA.AperFunction,ComponentPad*%
%ADD16RoundRect,0.250001X-0.949999X-0.949999X0.949999X-0.949999X0.949999X0.949999X-0.949999X0.949999X0*%
%TD*%
%TA.AperFunction,ComponentPad*%
%ADD17C,2.400000*%
%TD*%
%TA.AperFunction,ComponentPad*%
%ADD18C,2.500000*%
%TD*%
%TA.AperFunction,SMDPad,CuDef*%
%ADD19RoundRect,0.250000X-1.100000X0.325000X-1.100000X-0.325000X1.100000X-0.325000X1.100000X0.325000X0*%
%TD*%
%TA.AperFunction,SMDPad,CuDef*%
%ADD20RoundRect,0.225000X0.250000X-0.225000X0.250000X0.225000X-0.250000X0.225000X-0.250000X-0.225000X0*%
%TD*%
%TA.AperFunction,SMDPad,CuDef*%
%ADD21RoundRect,0.218750X0.218750X0.256250X-0.218750X0.256250X-0.218750X-0.256250X0.218750X-0.256250X0*%
%TD*%
%TA.AperFunction,SMDPad,CuDef*%
%ADD22RoundRect,0.250000X-0.475000X0.250000X-0.475000X-0.250000X0.475000X-0.250000X0.475000X0.250000X0*%
%TD*%
%TA.AperFunction,SMDPad,CuDef*%
%ADD23R,0.393700X0.812800*%
%TD*%
%TA.AperFunction,SMDPad,CuDef*%
%ADD24RoundRect,0.250000X0.475000X-0.250000X0.475000X0.250000X-0.475000X0.250000X-0.475000X-0.250000X0*%
%TD*%
%TA.AperFunction,ComponentPad*%
%ADD25RoundRect,0.250000X-0.550000X0.550000X-0.550000X-0.550000X0.550000X-0.550000X0.550000X0.550000X0*%
%TD*%
%TA.AperFunction,ComponentPad*%
%ADD26C,1.600000*%
%TD*%
%TA.AperFunction,SMDPad,CuDef*%
%ADD27RoundRect,0.250000X-0.325000X-1.100000X0.325000X-1.100000X0.325000X1.100000X-0.325000X1.100000X0*%
%TD*%
%TA.AperFunction,SMDPad,CuDef*%
%ADD28RoundRect,0.200000X-0.200000X-0.275000X0.200000X-0.275000X0.200000X0.275000X-0.200000X0.275000X0*%
%TD*%
%TA.AperFunction,SMDPad,CuDef*%
%ADD29R,1.500000X0.900000*%
%TD*%
%TA.AperFunction,SMDPad,CuDef*%
%ADD30R,0.900000X1.500000*%
%TD*%
%TA.AperFunction,HeatsinkPad*%
%ADD31C,0.600000*%
%TD*%
%TA.AperFunction,HeatsinkPad*%
%ADD32R,3.900000X3.900000*%
%TD*%
%TA.AperFunction,SMDPad,CuDef*%
%ADD33RoundRect,0.225000X0.225000X0.250000X-0.225000X0.250000X-0.225000X-0.250000X0.225000X-0.250000X0*%
%TD*%
%TA.AperFunction,SMDPad,CuDef*%
%ADD34C,0.500000*%
%TD*%
%TA.AperFunction,SMDPad,CuDef*%
%ADD35RoundRect,0.250000X0.250000X0.475000X-0.250000X0.475000X-0.250000X-0.475000X0.250000X-0.475000X0*%
%TD*%
%TA.AperFunction,SMDPad,CuDef*%
%ADD36R,2.160000X3.240000*%
%TD*%
%TA.AperFunction,SMDPad,CuDef*%
%ADD37RoundRect,0.250000X0.300000X-0.400000X0.300000X0.400000X-0.300000X0.400000X-0.300000X-0.400000X0*%
%TD*%
%TA.AperFunction,ComponentPad*%
%ADD38R,1.650000X1.650000*%
%TD*%
%TA.AperFunction,ComponentPad*%
%ADD39C,1.650000*%
%TD*%
%TA.AperFunction,SMDPad,CuDef*%
%ADD40RoundRect,0.200000X0.275000X-0.200000X0.275000X0.200000X-0.275000X0.200000X-0.275000X-0.200000X0*%
%TD*%
%TA.AperFunction,SMDPad,CuDef*%
%ADD41RoundRect,0.250000X-0.262500X-0.450000X0.262500X-0.450000X0.262500X0.450000X-0.262500X0.450000X0*%
%TD*%
%TA.AperFunction,ComponentPad*%
%ADD42RoundRect,0.250000X0.750000X-0.750000X0.750000X0.750000X-0.750000X0.750000X-0.750000X-0.750000X0*%
%TD*%
%TA.AperFunction,ComponentPad*%
%ADD43C,2.000000*%
%TD*%
%TA.AperFunction,SMDPad,CuDef*%
%ADD44RoundRect,0.250000X0.262500X0.450000X-0.262500X0.450000X-0.262500X-0.450000X0.262500X-0.450000X0*%
%TD*%
%TA.AperFunction,ComponentPad*%
%ADD45R,1.800000X1.800000*%
%TD*%
%TA.AperFunction,ComponentPad*%
%ADD46C,1.800000*%
%TD*%
%TA.AperFunction,SMDPad,CuDef*%
%ADD47R,3.500000X4.100000*%
%TD*%
%TA.AperFunction,ComponentPad*%
%ADD48R,1.700000X1.700000*%
%TD*%
%TA.AperFunction,ComponentPad*%
%ADD49O,1.700000X1.700000*%
%TD*%
%TA.AperFunction,SMDPad,CuDef*%
%ADD50R,4.700000X1.180000*%
%TD*%
%TA.AperFunction,SMDPad,CuDef*%
%ADD51RoundRect,0.100000X-0.637500X-0.100000X0.637500X-0.100000X0.637500X0.100000X-0.637500X0.100000X0*%
%TD*%
%TA.AperFunction,SMDPad,CuDef*%
%ADD52R,3.240000X2.160000*%
%TD*%
%TA.AperFunction,SMDPad,CuDef*%
%ADD53R,0.500000X1.250000*%
%TD*%
%TA.AperFunction,SMDPad,CuDef*%
%ADD54RoundRect,0.250000X0.450000X-0.262500X0.450000X0.262500X-0.450000X0.262500X-0.450000X-0.262500X0*%
%TD*%
%TA.AperFunction,SMDPad,CuDef*%
%ADD55C,1.000000*%
%TD*%
%TA.AperFunction,SMDPad,CuDef*%
%ADD56R,0.812800X0.393700*%
%TD*%
%TA.AperFunction,ComponentPad*%
%ADD57RoundRect,0.250000X-0.750000X-0.750000X0.750000X-0.750000X0.750000X0.750000X-0.750000X0.750000X0*%
%TD*%
%TA.AperFunction,ComponentPad*%
%ADD58RoundRect,0.250000X-0.550000X-0.550000X0.550000X-0.550000X0.550000X0.550000X-0.550000X0.550000X0*%
%TD*%
%TA.AperFunction,SMDPad,CuDef*%
%ADD59R,1.230000X1.360000*%
%TD*%
%TA.AperFunction,SMDPad,CuDef*%
%ADD60RoundRect,0.250000X1.100000X-0.325000X1.100000X0.325000X-1.100000X0.325000X-1.100000X-0.325000X0*%
%TD*%
%TA.AperFunction,SMDPad,CuDef*%
%ADD61RoundRect,0.250000X-2.050000X-0.300000X2.050000X-0.300000X2.050000X0.300000X-2.050000X0.300000X0*%
%TD*%
%TA.AperFunction,SMDPad,CuDef*%
%ADD62RoundRect,0.250002X-4.449998X-5.149998X4.449998X-5.149998X4.449998X5.149998X-4.449998X5.149998X0*%
%TD*%
%TA.AperFunction,SMDPad,CuDef*%
%ADD63R,2.500000X2.300000*%
%TD*%
%TA.AperFunction,SMDPad,CuDef*%
%ADD64RoundRect,0.250000X0.312500X0.625000X-0.312500X0.625000X-0.312500X-0.625000X0.312500X-0.625000X0*%
%TD*%
%TA.AperFunction,SMDPad,CuDef*%
%ADD65RoundRect,0.250000X-0.312500X-0.625000X0.312500X-0.625000X0.312500X0.625000X-0.312500X0.625000X0*%
%TD*%
%TA.AperFunction,ComponentPad*%
%ADD66R,1.530000X1.530000*%
%TD*%
%TA.AperFunction,ComponentPad*%
%ADD67C,1.530000*%
%TD*%
%TA.AperFunction,ComponentPad*%
%ADD68C,1.290000*%
%TD*%
%TA.AperFunction,ComponentPad*%
%ADD69C,2.475000*%
%TD*%
%TA.AperFunction,SMDPad,CuDef*%
%ADD70R,1.620000X2.050000*%
%TD*%
%TA.AperFunction,SMDPad,CuDef*%
%ADD71RoundRect,0.100000X-0.510000X-0.100000X0.510000X-0.100000X0.510000X0.100000X-0.510000X0.100000X0*%
%TD*%
%TA.AperFunction,SMDPad,CuDef*%
%ADD72R,0.300000X1.600000*%
%TD*%
%TA.AperFunction,SMDPad,CuDef*%
%ADD73RoundRect,0.075000X-0.662500X-0.075000X0.662500X-0.075000X0.662500X0.075000X-0.662500X0.075000X0*%
%TD*%
%TA.AperFunction,SMDPad,CuDef*%
%ADD74RoundRect,0.075000X-0.075000X-0.662500X0.075000X-0.662500X0.075000X0.662500X-0.075000X0.662500X0*%
%TD*%
%TA.AperFunction,SMDPad,CuDef*%
%ADD75RoundRect,0.250000X-0.450000X0.262500X-0.450000X-0.262500X0.450000X-0.262500X0.450000X0.262500X0*%
%TD*%
%TA.AperFunction,SMDPad,CuDef*%
%ADD76R,0.650000X1.060000*%
%TD*%
%TA.AperFunction,SMDPad,CuDef*%
%ADD77RoundRect,0.150000X-0.512500X-0.150000X0.512500X-0.150000X0.512500X0.150000X-0.512500X0.150000X0*%
%TD*%
%TA.AperFunction,SMDPad,CuDef*%
%ADD78R,0.800000X0.300000*%
%TD*%
%TA.AperFunction,SMDPad,CuDef*%
%ADD79R,0.300000X0.800000*%
%TD*%
%TA.AperFunction,SMDPad,CuDef*%
%ADD80R,1.750000X1.750000*%
%TD*%
%TA.AperFunction,SMDPad,CuDef*%
%ADD81R,1.060000X2.600000*%
%TD*%
%TA.AperFunction,SMDPad,CuDef*%
%ADD82R,5.632000X5.700000*%
%TD*%
%TA.AperFunction,SMDPad,CuDef*%
%ADD83RoundRect,0.250000X0.325000X1.100000X-0.325000X1.100000X-0.325000X-1.100000X0.325000X-1.100000X0*%
%TD*%
%TA.AperFunction,SMDPad,CuDef*%
%ADD84R,2.910000X2.910000*%
%TD*%
%TA.AperFunction,SMDPad,CuDef*%
%ADD85R,1.409700X0.355600*%
%TD*%
%TA.AperFunction,SMDPad,CuDef*%
%ADD86R,0.599999X0.249999*%
%TD*%
%TA.AperFunction,SMDPad,CuDef*%
%ADD87R,0.249999X0.599999*%
%TD*%
%TA.AperFunction,SMDPad,CuDef*%
%ADD88R,0.249999X1.825000*%
%TD*%
%TA.AperFunction,SMDPad,CuDef*%
%ADD89R,1.180000X4.700000*%
%TD*%
%TA.AperFunction,SMDPad,CuDef*%
%ADD90RoundRect,0.062500X0.350000X0.062500X-0.350000X0.062500X-0.350000X-0.062500X0.350000X-0.062500X0*%
%TD*%
%TA.AperFunction,SMDPad,CuDef*%
%ADD91RoundRect,0.062500X0.062500X0.350000X-0.062500X0.350000X-0.062500X-0.350000X0.062500X-0.350000X0*%
%TD*%
%TA.AperFunction,HeatsinkPad*%
%ADD92C,0.500000*%
%TD*%
%TA.AperFunction,HeatsinkPad*%
%ADD93R,2.700000X2.700000*%
%TD*%
%TA.AperFunction,ViaPad*%
%ADD94C,0.600000*%
%TD*%
%TA.AperFunction,ViaPad*%
%ADD95C,0.800000*%
%TD*%
%TA.AperFunction,Conductor*%
%ADD96C,0.300000*%
%TD*%
%TA.AperFunction,Conductor*%
%ADD97C,0.250000*%
%TD*%
%TA.AperFunction,Conductor*%
%ADD98C,0.400000*%
%TD*%
%TA.AperFunction,Conductor*%
%ADD99C,0.200000*%
%TD*%
%TA.AperFunction,Conductor*%
%ADD100C,0.900000*%
%TD*%
%TA.AperFunction,Conductor*%
%ADD101C,0.500000*%
%TD*%
%TA.AperFunction,Conductor*%
%ADD102C,0.800000*%
%TD*%
%TA.AperFunction,Conductor*%
%ADD103C,1.400000*%
%TD*%
%TA.AperFunction,Conductor*%
%ADD104C,0.700000*%
%TD*%
%TA.AperFunction,Conductor*%
%ADD105C,1.200000*%
%TD*%
%TA.AperFunction,Conductor*%
%ADD106C,2.000000*%
%TD*%
%TA.AperFunction,Conductor*%
%ADD107C,0.600000*%
%TD*%
%TA.AperFunction,Conductor*%
%ADD108C,1.000000*%
%TD*%
%TA.AperFunction,Conductor*%
%ADD109C,0.276400*%
%TD*%
%TA.AperFunction,Conductor*%
%ADD110C,0.225806*%
%TD*%
%TA.AperFunction,Conductor*%
%ADD111C,0.350000*%
%TD*%
G04 APERTURE END LIST*
D10*
%TO.P,C53,1*%
%TO.N,BUCK3V3_SS*%
X216375000Y-88220000D03*
%TO.P,C53,2*%
%TO.N,GND*%
X217925000Y-88220000D03*
%TD*%
D11*
%TO.P,R100,1*%
%TO.N,ETH_EXRES*%
X123590000Y-89370000D03*
%TO.P,R100,2*%
%TO.N,GND*%
X121940000Y-89370000D03*
%TD*%
D12*
%TO.P,C8,1*%
%TO.N,AMP_BSPL*%
X205300000Y-110455000D03*
%TO.P,C8,2*%
%TO.N,AMP_SW_NEG*%
X205300000Y-112005000D03*
%TD*%
D13*
%TO.P,U10,1*%
%TO.N,N/C*%
X259096000Y-72204500D03*
%TO.P,U10,2*%
%TO.N,GND*%
X258146000Y-72204500D03*
%TO.P,U10,3*%
X257196000Y-72204500D03*
%TO.P,U10,4*%
%TO.N,24V_BENCH_PROTECTED*%
X257196000Y-74479500D03*
%TO.P,U10,5*%
%TO.N,BENCH_OR_GATE*%
X258146000Y-74479500D03*
%TO.P,U10,6*%
%TO.N,24V_OR*%
X259096000Y-74479500D03*
%TD*%
D14*
%TO.P,R32,1*%
%TO.N,PDM_DATA3_CONN*%
X159330000Y-77805000D03*
%TO.P,R32,2*%
%TO.N,PDM_DATA3*%
X159330000Y-79455000D03*
%TD*%
%TO.P,R109,1*%
%TO.N,ETH_SPI_MOSI_MCU*%
X156850000Y-105000000D03*
%TO.P,R109,2*%
%TO.N,ETH_SPI_MOSI*%
X156850000Y-106650000D03*
%TD*%
D15*
%TO.P,C20,1*%
%TO.N,DAC_CP_P*%
X170562500Y-96430000D03*
%TO.P,C20,2*%
%TO.N,DAC_CP_M*%
X172462500Y-96430000D03*
%TD*%
D16*
%TO.P,C4,1*%
%TO.N,24V_AMP*%
X242576041Y-138770000D03*
D17*
%TO.P,C4,2*%
%TO.N,GND*%
X247576041Y-138770000D03*
%TD*%
D18*
%TO.P,J2,1*%
%TO.N,24V_BENCH_RAW*%
X262520000Y-147960000D03*
%TO.P,J2,2*%
%TO.N,GND*%
X257440000Y-147960000D03*
%TD*%
D19*
%TO.P,C15,1*%
%TO.N,24V_AMP*%
X194870000Y-119025000D03*
%TO.P,C15,2*%
%TO.N,GND*%
X194870000Y-121975000D03*
%TD*%
D20*
%TO.P,C115,1*%
%TO.N,3V3*%
X128790000Y-78890000D03*
%TO.P,C115,2*%
%TO.N,GND*%
X128790000Y-77340000D03*
%TD*%
D21*
%TO.P,FB1,1*%
%TO.N,3V3A_LDO*%
X184520000Y-95550000D03*
%TO.P,FB1,2*%
%TO.N,3V3A*%
X182945000Y-95550000D03*
%TD*%
D22*
%TO.P,C103,1*%
%TO.N,ETH_TOCAP*%
X128870000Y-92790000D03*
%TO.P,C103,2*%
%TO.N,GND*%
X128870000Y-94690000D03*
%TD*%
D23*
%TO.P,LED3,1*%
%TO.N,STATUS_LED_K*%
X202446750Y-84740000D03*
%TO.P,LED3,2*%
%TO.N,STATUS_LED_A*%
X203653250Y-84740000D03*
%TD*%
D22*
%TO.P,C51,1*%
%TO.N,5V*%
X188110000Y-101960000D03*
%TO.P,C51,2*%
%TO.N,GND*%
X188110000Y-103860000D03*
%TD*%
D14*
%TO.P,R106,1*%
%TO.N,3V3*%
X132940000Y-77665000D03*
%TO.P,R106,2*%
%TO.N,PHY_nRESET*%
X132940000Y-79315000D03*
%TD*%
D24*
%TO.P,C113,1*%
%TO.N,3V3*%
X126580000Y-78930000D03*
%TO.P,C113,2*%
%TO.N,GND*%
X126580000Y-77030000D03*
%TD*%
D25*
%TO.P,C5,1*%
%TO.N,24V_AMP*%
X231220000Y-129110000D03*
D26*
%TO.P,C5,2*%
%TO.N,GND*%
X231220000Y-132610000D03*
%TD*%
D27*
%TO.P,C40,1*%
%TO.N,24V_AMP*%
X205530000Y-102460000D03*
%TO.P,C40,2*%
%TO.N,GND*%
X208480000Y-102460000D03*
%TD*%
D28*
%TO.P,R107,1*%
%TO.N,3V3*%
X142475000Y-94010000D03*
%TO.P,R107,2*%
%TO.N,ETH_SPI_CS_N*%
X144125000Y-94010000D03*
%TD*%
D11*
%TO.P,R23,1*%
%TO.N,5V*%
X234880000Y-92620000D03*
%TO.P,R23,2*%
%TO.N,BUCK5_FB*%
X233230000Y-92620000D03*
%TD*%
%TO.P,R110,1*%
%TO.N,3V3*%
X168525000Y-101050000D03*
%TO.P,R110,2*%
%TO.N,BOOT_GPIO0*%
X166875000Y-101050000D03*
%TD*%
D29*
%TO.P,U2,1*%
%TO.N,GND*%
X147215000Y-84830000D03*
%TO.P,U2,2*%
%TO.N,3V3*%
X147215000Y-86100000D03*
%TO.P,U2,3*%
%TO.N,ESP_EN*%
X147215000Y-87370000D03*
%TO.P,U2,4*%
%TO.N,PDM_CLK_MCU*%
X147215000Y-88640000D03*
%TO.P,U2,5*%
%TO.N,PDM_DATA0*%
X147215000Y-89910000D03*
%TO.P,U2,6*%
%TO.N,PDM_DATA1*%
X147215000Y-91180000D03*
%TO.P,U2,7*%
%TO.N,PDM_DATA2*%
X147215000Y-92450000D03*
%TO.P,U2,8*%
%TO.N,ETH_SPI_CS_N*%
X147215000Y-93720000D03*
%TO.P,U2,9*%
%TO.N,ETH_INT_N*%
X147215000Y-94990000D03*
%TO.P,U2,10*%
%TO.N,N/C*%
X147215000Y-96260000D03*
%TO.P,U2,11*%
%TO.N,I2C_SDA*%
X147215000Y-97530000D03*
%TO.P,U2,12*%
%TO.N,PDM_DATA3*%
X147215000Y-98800000D03*
%TO.P,U2,13*%
%TO.N,N/C*%
X147215000Y-100070000D03*
%TO.P,U2,14*%
X147215000Y-101340000D03*
D30*
%TO.P,U2,15*%
X148980000Y-102590000D03*
%TO.P,U2,16*%
X150250000Y-102590000D03*
%TO.P,U2,17*%
%TO.N,I2S_BCLK*%
X151520000Y-102590000D03*
%TO.P,U2,18*%
%TO.N,I2S_LRCLK*%
X152790000Y-102590000D03*
%TO.P,U2,19*%
%TO.N,I2S_DATA*%
X154060000Y-102590000D03*
%TO.P,U2,20*%
%TO.N,ETH_SPI_SCLK_MCU*%
X155330000Y-102590000D03*
%TO.P,U2,21*%
%TO.N,ETH_SPI_MOSI_MCU*%
X156600000Y-102590000D03*
%TO.P,U2,22*%
%TO.N,ETH_SPI_MISO*%
X157870000Y-102590000D03*
%TO.P,U2,23*%
%TO.N,I2C_SCL*%
X159140000Y-102590000D03*
%TO.P,U2,24*%
%TO.N,N/C*%
X160410000Y-102590000D03*
%TO.P,U2,25*%
X161680000Y-102590000D03*
%TO.P,U2,26*%
X162950000Y-102590000D03*
D29*
%TO.P,U2,27*%
%TO.N,BOOT_GPIO0*%
X164715000Y-101340000D03*
%TO.P,U2,28*%
%TO.N,N/C*%
X164715000Y-100070000D03*
%TO.P,U2,29*%
X164715000Y-98800000D03*
%TO.P,U2,30*%
X164715000Y-97530000D03*
%TO.P,U2,31*%
%TO.N,IOX_nRESET*%
X164715000Y-96260000D03*
%TO.P,U2,32*%
%TO.N,N/C*%
X164715000Y-94990000D03*
%TO.P,U2,33*%
X164715000Y-93720000D03*
%TO.P,U2,34*%
X164715000Y-92450000D03*
%TO.P,U2,35*%
X164715000Y-91180000D03*
%TO.P,U2,36*%
%TO.N,UART0_RX*%
X164715000Y-89910000D03*
%TO.P,U2,37*%
%TO.N,UART0_TX*%
X164715000Y-88640000D03*
%TO.P,U2,38*%
%TO.N,IOX_INT_N*%
X164715000Y-87370000D03*
%TO.P,U2,39*%
%TO.N,RING_GPIO_SPARE*%
X164715000Y-86100000D03*
%TO.P,U2,40*%
%TO.N,GND*%
X164715000Y-84830000D03*
D31*
%TO.P,U2,41*%
X153065000Y-91850000D03*
X153065000Y-93250000D03*
X153765000Y-91150000D03*
X153765000Y-92550000D03*
X153765000Y-93950000D03*
X154465000Y-91850000D03*
D32*
X154465000Y-92550000D03*
D31*
X154465000Y-93250000D03*
X155165000Y-91150000D03*
X155165000Y-92550000D03*
X155165000Y-93950000D03*
X155865000Y-91850000D03*
X155865000Y-93250000D03*
%TD*%
D10*
%TO.P,C41,1*%
%TO.N,24V_AMP*%
X205435000Y-105400000D03*
%TO.P,C41,2*%
%TO.N,GND*%
X206985000Y-105400000D03*
%TD*%
D33*
%TO.P,C26,1*%
%TO.N,3V3A*%
X168687500Y-94650000D03*
%TO.P,C26,2*%
%TO.N,GND*%
X167137500Y-94650000D03*
%TD*%
D34*
%TO.P,TP17,1*%
%TO.N,PDM_DATA1*%
X145040000Y-91190000D03*
%TD*%
D11*
%TO.P,R103,1*%
%TO.N,ETH_3V3A*%
X123555000Y-91300000D03*
%TO.P,R103,2*%
%TO.N,ETH_TX_CT*%
X121905000Y-91300000D03*
%TD*%
D35*
%TO.P,C23,1*%
%TO.N,3V3A*%
X168832500Y-92680000D03*
%TO.P,C23,2*%
%TO.N,GND*%
X166932500Y-92680000D03*
%TD*%
D36*
%TO.P,D5,1*%
%TO.N,POE_RECT_NEG*%
X105590000Y-137650000D03*
%TO.P,D5,2*%
%TO.N,POE_MODE_A_AC1*%
X98210000Y-137650000D03*
%TD*%
D22*
%TO.P,C49,1*%
%TO.N,3V3*%
X211305000Y-90050000D03*
%TO.P,C49,2*%
%TO.N,GND*%
X211305000Y-91950000D03*
%TD*%
D37*
%TO.P,X2,1*%
%TO.N,3V3*%
X138850000Y-88510000D03*
%TO.P,X2,2*%
%TO.N,GND*%
X138850000Y-86410000D03*
%TO.P,X2,3*%
%TO.N,ETH_25MHZ*%
X137200000Y-86410000D03*
%TO.P,X2,4*%
%TO.N,3V3*%
X137200000Y-88510000D03*
%TD*%
D27*
%TO.P,C46,1*%
%TO.N,5V*%
X217300000Y-81540000D03*
%TO.P,C46,2*%
%TO.N,GND*%
X220250000Y-81540000D03*
%TD*%
D36*
%TO.P,D4,1*%
%TO.N,POE_MODE_A_AC2*%
X98360000Y-144990000D03*
%TO.P,D4,2*%
%TO.N,POE_RECT_POS*%
X105740000Y-144990000D03*
%TD*%
D35*
%TO.P,C31,1*%
%TO.N,3V3*%
X144320000Y-82850000D03*
%TO.P,C31,2*%
%TO.N,GND*%
X142420000Y-82850000D03*
%TD*%
D11*
%TO.P,R16,1*%
%TO.N,AMP_PLIMIT*%
X190855000Y-108810000D03*
%TO.P,R16,2*%
%TO.N,GND*%
X189205000Y-108810000D03*
%TD*%
D38*
%TO.P,U1,1*%
%TO.N,N/C*%
X114500000Y-120890000D03*
D39*
%TO.P,U1,2*%
X114500000Y-123430000D03*
%TO.P,U1,3*%
%TO.N,AT_DET_PRIMARY*%
X114500000Y-125970000D03*
%TO.P,U1,4*%
%TO.N,BT3_DET_PRIMARY*%
X114500000Y-128510000D03*
%TO.P,U1,5*%
%TO.N,BT4_DET_PRIMARY*%
X114500000Y-131050000D03*
%TO.P,U1,6*%
%TO.N,N/C*%
X114500000Y-133590000D03*
%TO.P,U1,7*%
%TO.N,POE_RECT_NEG*%
X114500000Y-136130000D03*
%TO.P,U1,8*%
%TO.N,POE_RECT_POS*%
X114500000Y-138670000D03*
%TO.P,U1,9*%
%TO.N,24V_POE*%
X180540000Y-141210000D03*
%TO.P,U1,10*%
X180540000Y-138670000D03*
%TO.P,U1,11*%
%TO.N,POE_12V_MID*%
X180540000Y-136130000D03*
%TO.P,U1,12*%
X180540000Y-133590000D03*
%TO.P,U1,13*%
X180540000Y-131050000D03*
%TO.P,U1,14*%
X180540000Y-128510000D03*
%TO.P,U1,15*%
%TO.N,GND*%
X180540000Y-125970000D03*
%TO.P,U1,16*%
X180540000Y-123430000D03*
%TO.P,U1,17*%
%TO.N,N/C*%
X180540000Y-120890000D03*
%TD*%
D40*
%TO.P,R6,1*%
%TO.N,POE_AT_DET*%
X115620000Y-98675000D03*
%TO.P,R6,2*%
%TO.N,3V3*%
X115620000Y-97025000D03*
%TD*%
D41*
%TO.P,R127,1*%
%TO.N,BENCH_PASS_GATE*%
X262897500Y-97290000D03*
%TO.P,R127,2*%
%TO.N,BENCH_RAMP*%
X264722500Y-97290000D03*
%TD*%
D12*
%TO.P,C10,1*%
%TO.N,AMP_BSPR*%
X205360000Y-107145000D03*
%TO.P,C10,2*%
%TO.N,AMP_SW_POS*%
X205360000Y-108695000D03*
%TD*%
D40*
%TO.P,R27,1*%
%TO.N,STATUS_LED_A*%
X205361750Y-84625000D03*
%TO.P,R27,2*%
%TO.N,3V3*%
X205361750Y-82975000D03*
%TD*%
D42*
%TO.P,C2,1*%
%TO.N,24V_POE*%
X190190000Y-143680000D03*
D43*
%TO.P,C2,2*%
%TO.N,POE_12V_MID*%
X190190000Y-138680000D03*
%TD*%
D14*
%TO.P,R25,1*%
%TO.N,PHY_LED_A*%
X136200000Y-95390000D03*
%TO.P,R25,2*%
%TO.N,3V3*%
X136200000Y-97040000D03*
%TD*%
D44*
%TO.P,R125,1*%
%TO.N,BENCH_PASS_GATE*%
X245232500Y-99460000D03*
%TO.P,R125,2*%
%TO.N,BENCH_GATE_A*%
X243407500Y-99460000D03*
%TD*%
D34*
%TO.P,TP8,1*%
%TO.N,I2S_LRCLK*%
X173160000Y-80240000D03*
%TD*%
D45*
%TO.P,U14,1*%
%TO.N,BT4_LED_A*%
X136790000Y-107230000D03*
D46*
%TO.P,U14,2*%
%TO.N,BT4_DET_PRIMARY*%
X136790000Y-109770000D03*
%TO.P,U14,3*%
%TO.N,GND*%
X144410000Y-109750000D03*
%TO.P,U14,4*%
%TO.N,POE_BT4_DET*%
X144410000Y-107210000D03*
%TD*%
D47*
%TO.P,L2,1*%
%TO.N,AMP_SW_NEG*%
X203790000Y-121290000D03*
%TO.P,L2,2*%
%TO.N,SPK_NEG*%
X203790000Y-130790000D03*
%TD*%
D33*
%TO.P,C11,1*%
%TO.N,AMP_GVDD*%
X190870000Y-110650000D03*
%TO.P,C11,2*%
%TO.N,GND*%
X189320000Y-110650000D03*
%TD*%
D22*
%TO.P,C25,1*%
%TO.N,3V3A*%
X179022500Y-95900000D03*
%TO.P,C25,2*%
%TO.N,GND*%
X179022500Y-97800000D03*
%TD*%
D14*
%TO.P,R108,1*%
%TO.N,ETH_SPI_SCLK_MCU*%
X154890000Y-104985000D03*
%TO.P,R108,2*%
%TO.N,ETH_SPI_SCLK*%
X154890000Y-106635000D03*
%TD*%
D34*
%TO.P,TP6,1*%
%TO.N,GND*%
X223640000Y-80600000D03*
%TD*%
D48*
%TO.P,J6,1*%
%TO.N,3V3*%
X200040000Y-72520000D03*
D49*
%TO.P,J6,2*%
%TO.N,GND*%
X197500000Y-72520000D03*
%TO.P,J6,3*%
%TO.N,I2C_SDA*%
X194960000Y-72520000D03*
%TO.P,J6,4*%
%TO.N,I2C_SCL*%
X192420000Y-72520000D03*
%TO.P,J6,5*%
%TO.N,EXP_GPIO0*%
X189880000Y-72520000D03*
%TO.P,J6,6*%
%TO.N,EXP_GPIO1*%
X187340000Y-72520000D03*
%TD*%
D50*
%TO.P,L4,1*%
%TO.N,BUCK3V3_SW*%
X204255000Y-88690000D03*
%TO.P,L4,2*%
%TO.N,3V3*%
X204255000Y-92000000D03*
%TD*%
D48*
%TO.P,J4,1*%
%TO.N,3V3*%
X146930000Y-75030000D03*
D49*
%TO.P,J4,2*%
%TO.N,GND*%
X146930000Y-72490000D03*
%TO.P,J4,3*%
%TO.N,PDM_CLK*%
X149470000Y-75030000D03*
%TO.P,J4,4*%
%TO.N,GND*%
X149470000Y-72490000D03*
%TO.P,J4,5*%
%TO.N,PDM_DATA0_CONN*%
X152010000Y-75030000D03*
%TO.P,J4,6*%
%TO.N,GND*%
X152010000Y-72490000D03*
%TO.P,J4,7*%
%TO.N,PDM_DATA1_CONN*%
X154550000Y-75030000D03*
%TO.P,J4,8*%
%TO.N,GND*%
X154550000Y-72490000D03*
%TO.P,J4,9*%
%TO.N,PDM_DATA2_CONN*%
X157090000Y-75030000D03*
%TO.P,J4,10*%
%TO.N,GND*%
X157090000Y-72490000D03*
%TO.P,J4,11*%
%TO.N,PDM_DATA3_CONN*%
X159630000Y-75030000D03*
%TO.P,J4,12*%
%TO.N,I2C_SDA*%
X159630000Y-72490000D03*
%TO.P,J4,13*%
%TO.N,I2C_SCL*%
X162170000Y-75030000D03*
%TO.P,J4,14*%
%TO.N,RING_GPIO_SPARE*%
X162170000Y-72490000D03*
%TD*%
D51*
%TO.P,U11,1*%
%TO.N,IOX_INT_N*%
X193040000Y-80470000D03*
%TO.P,U11,2*%
%TO.N,3V3*%
X193040000Y-81120000D03*
%TO.P,U11,3*%
%TO.N,IOX_nRESET*%
X193040000Y-81770000D03*
%TO.P,U11,4*%
%TO.N,AMP_ENABLE_CMD*%
X193040000Y-82420000D03*
%TO.P,U11,5*%
%TO.N,AMP_MUTE*%
X193040000Y-83070000D03*
%TO.P,U11,6*%
%TO.N,DAC_XSMT*%
X193040000Y-83720000D03*
%TO.P,U11,7*%
%TO.N,PHY_nRESET*%
X193040000Y-84370000D03*
%TO.P,U11,8*%
%TO.N,AMP_FAULTZ*%
X193040000Y-85020000D03*
%TO.P,U11,9*%
%TO.N,POE_AT_DET*%
X193040000Y-85670000D03*
%TO.P,U11,10*%
%TO.N,POE_BT3_DET*%
X193040000Y-86320000D03*
%TO.P,U11,11*%
%TO.N,POE_BT4_DET*%
X193040000Y-86970000D03*
%TO.P,U11,12*%
%TO.N,GND*%
X193040000Y-87620000D03*
%TO.P,U11,13*%
%TO.N,5V_PG*%
X198765000Y-87620000D03*
%TO.P,U11,14*%
%TO.N,3V3_PG*%
X198765000Y-86970000D03*
%TO.P,U11,15*%
%TO.N,EXP_GPIO0*%
X198765000Y-86320000D03*
%TO.P,U11,16*%
%TO.N,EXP_GPIO1*%
X198765000Y-85670000D03*
%TO.P,U11,17*%
%TO.N,STATUS_LED_K*%
X198765000Y-85020000D03*
%TO.P,U11,18*%
%TO.N,N/C*%
X198765000Y-84370000D03*
%TO.P,U11,19*%
X198765000Y-83720000D03*
%TO.P,U11,20*%
X198765000Y-83070000D03*
%TO.P,U11,21*%
%TO.N,GND*%
X198765000Y-82420000D03*
%TO.P,U11,22*%
%TO.N,I2C_SCL*%
X198765000Y-81770000D03*
%TO.P,U11,23*%
%TO.N,I2C_SDA*%
X198765000Y-81120000D03*
%TO.P,U11,24*%
%TO.N,3V3*%
X198765000Y-80470000D03*
%TD*%
D34*
%TO.P,TP14,1*%
%TO.N,AMP_FAULTZ*%
X197147300Y-103689998D03*
%TD*%
D52*
%TO.P,D8,1*%
%TO.N,POE_MODE_B_AC2*%
X90780000Y-122260000D03*
%TO.P,D8,2*%
%TO.N,POE_RECT_POS*%
X90780000Y-129640000D03*
%TD*%
D41*
%TO.P,R126,1*%
%TO.N,BENCH_PASS_GATE*%
X262987500Y-99730000D03*
%TO.P,R126,2*%
%TO.N,BENCH_GATE_B*%
X264812500Y-99730000D03*
%TD*%
D33*
%TO.P,C29,1*%
%TO.N,3V3A*%
X168717500Y-96340000D03*
%TO.P,C29,2*%
%TO.N,GND*%
X167167500Y-96340000D03*
%TD*%
D53*
%TO.P,D1,1*%
%TO.N,ETH_TX_P*%
X121080000Y-80670000D03*
%TO.P,D1,2*%
%TO.N,GND*%
X120130000Y-80670000D03*
%TO.P,D1,3*%
%TO.N,ETH_TX_N*%
X119180000Y-80670000D03*
%TO.P,D1,4*%
%TO.N,ETH_RX_P*%
X119180000Y-83170000D03*
%TO.P,D1,5*%
%TO.N,3V3*%
X120130000Y-83170000D03*
%TO.P,D1,6*%
%TO.N,ETH_RX_N*%
X121080000Y-83170000D03*
%TD*%
D20*
%TO.P,C9,1*%
%TO.N,AMP_BSNR*%
X208870000Y-109725000D03*
%TO.P,C9,2*%
%TO.N,AMP_SW_POS*%
X208870000Y-108175000D03*
%TD*%
D33*
%TO.P,C55,1*%
%TO.N,3V3*%
X199005000Y-78740000D03*
%TO.P,C55,2*%
%TO.N,GND*%
X197455000Y-78740000D03*
%TD*%
D54*
%TO.P,R130,1*%
%TO.N,EFUSE_ILIM*%
X241287500Y-75592500D03*
%TO.P,R130,2*%
%TO.N,GND*%
X241287500Y-73767500D03*
%TD*%
D55*
%TO.P,TP25,1*%
%TO.N,BENCH_FAULT_N*%
X256140000Y-99480000D03*
%TD*%
D34*
%TO.P,TP22,1*%
%TO.N,24V_BENCH_PROTECTED*%
X264480000Y-90580000D03*
%TD*%
D56*
%TO.P,LED2,1*%
%TO.N,PHY_SPEED_LED_A*%
X133930000Y-97386750D03*
%TO.P,LED2,2*%
%TO.N,3V3*%
X133930000Y-98593250D03*
%TD*%
D57*
%TO.P,C1,1*%
%TO.N,POE_12V_MID*%
X187972323Y-129200000D03*
D43*
%TO.P,C1,2*%
%TO.N,GND*%
X192972323Y-129200000D03*
%TD*%
D47*
%TO.P,L1,1*%
%TO.N,AMP_SW_POS*%
X215510000Y-121290000D03*
%TO.P,L1,2*%
%TO.N,SPK_POS*%
X215510000Y-130790000D03*
%TD*%
D28*
%TO.P,R24,1*%
%TO.N,BUCK5_FB*%
X233235000Y-94480000D03*
%TO.P,R24,2*%
%TO.N,GND*%
X234885000Y-94480000D03*
%TD*%
D34*
%TO.P,TP2,1*%
%TO.N,POE_RECT_NEG*%
X109180000Y-131500000D03*
%TD*%
D58*
%TO.P,C6,1*%
%TO.N,24V_AMP*%
X230060000Y-120092651D03*
D26*
%TO.P,C6,2*%
%TO.N,GND*%
X233560000Y-120092651D03*
%TD*%
D59*
%TO.P,SW2,1*%
%TO.N,GND*%
X183400000Y-77830000D03*
%TO.P,SW2,2*%
%TO.N,BOOT_GPIO0*%
X179040000Y-77830000D03*
%TD*%
D22*
%TO.P,C17,1*%
%TO.N,DAC_OUT_FILTERED*%
X178572500Y-100760000D03*
%TO.P,C17,2*%
%TO.N,AMP_IN_P*%
X178572500Y-102660000D03*
%TD*%
D34*
%TO.P,TP16,1*%
%TO.N,PDM_DATA0*%
X145150000Y-89840000D03*
%TD*%
%TO.P,TP21,1*%
%TO.N,24V_BENCH_RAW*%
X266540000Y-134020000D03*
%TD*%
D45*
%TO.P,U13,1*%
%TO.N,BT3_LED_A*%
X121220000Y-102980000D03*
D46*
%TO.P,U13,2*%
%TO.N,BT3_DET_PRIMARY*%
X121220000Y-105520000D03*
%TO.P,U13,3*%
%TO.N,GND*%
X128840000Y-105500000D03*
%TO.P,U13,4*%
%TO.N,POE_BT3_DET*%
X128840000Y-102960000D03*
%TD*%
D22*
%TO.P,C123,1*%
%TO.N,24V_AMP*%
X239307500Y-85040000D03*
%TO.P,C123,2*%
%TO.N,GND*%
X239307500Y-86940000D03*
%TD*%
D11*
%TO.P,R14,1*%
%TO.N,AMP_GAIN*%
X190980000Y-112470000D03*
%TO.P,R14,2*%
%TO.N,GND*%
X189330000Y-112470000D03*
%TD*%
D60*
%TO.P,C45,1*%
%TO.N,5V*%
X211755000Y-78845000D03*
%TO.P,C45,2*%
%TO.N,GND*%
X211755000Y-75895000D03*
%TD*%
D36*
%TO.P,D6,1*%
%TO.N,POE_RECT_NEG*%
X105620000Y-130110000D03*
%TO.P,D6,2*%
%TO.N,POE_MODE_A_AC2*%
X98240000Y-130110000D03*
%TD*%
D41*
%TO.P,R132,1*%
%TO.N,EFUSE_OV*%
X247475000Y-76860000D03*
%TO.P,R132,2*%
%TO.N,GND*%
X249300000Y-76860000D03*
%TD*%
D20*
%TO.P,C56,1*%
%TO.N,3V3*%
X190840000Y-80840000D03*
%TO.P,C56,2*%
%TO.N,GND*%
X190840000Y-79290000D03*
%TD*%
D18*
%TO.P,J3,1*%
%TO.N,SPK_POS*%
X213060000Y-147640000D03*
%TO.P,J3,2*%
%TO.N,SPK_NEG*%
X207980000Y-147640000D03*
%TD*%
D14*
%TO.P,R36,1*%
%TO.N,3V3_PG*%
X209145000Y-88290000D03*
%TO.P,R36,2*%
%TO.N,3V3*%
X209145000Y-89940000D03*
%TD*%
D61*
%TO.P,Q3,1*%
%TO.N,BENCH_GATE_A*%
X241860000Y-107700000D03*
D62*
%TO.P,Q3,2*%
%TO.N,BENCH_FUSED*%
X251010000Y-110240000D03*
D61*
%TO.P,Q3,3*%
%TO.N,BENCH_COMMON_SOURCE*%
X241860000Y-112780000D03*
%TD*%
D34*
%TO.P,TP12,1*%
%TO.N,PHY_nRESET*%
X133600000Y-74790000D03*
%TD*%
D45*
%TO.P,U12,1*%
%TO.N,AT_LED_A*%
X108050000Y-104100000D03*
D46*
%TO.P,U12,2*%
%TO.N,AT_DET_PRIMARY*%
X108050000Y-106640000D03*
%TO.P,U12,3*%
%TO.N,GND*%
X115670000Y-106620000D03*
%TO.P,U12,4*%
%TO.N,POE_AT_DET*%
X115670000Y-104080000D03*
%TD*%
D27*
%TO.P,C13,1*%
%TO.N,24V_AMP*%
X233615000Y-88200000D03*
%TO.P,C13,2*%
%TO.N,GND*%
X236565000Y-88200000D03*
%TD*%
D63*
%TO.P,D11,1*%
%TO.N,BENCH_FUSED*%
X262180000Y-123480000D03*
%TO.P,D11,2*%
%TO.N,GND*%
X257880000Y-123480000D03*
%TD*%
D20*
%TO.P,C114,1*%
%TO.N,PHY_nRESET*%
X134780000Y-79035000D03*
%TO.P,C114,2*%
%TO.N,GND*%
X134780000Y-77485000D03*
%TD*%
D34*
%TO.P,TP13,1*%
%TO.N,AMP_SDZ*%
X199497300Y-103729998D03*
%TD*%
D44*
%TO.P,R137,1*%
%TO.N,EFUSE_PGTH*%
X237270000Y-80710000D03*
%TO.P,R137,2*%
%TO.N,GND*%
X235445000Y-80710000D03*
%TD*%
D64*
%TO.P,R4,1*%
%TO.N,POE_RECT_POS*%
X124062500Y-110830000D03*
%TO.P,R4,2*%
%TO.N,BT3_LED_A*%
X121137500Y-110830000D03*
%TD*%
D65*
%TO.P,R5,1*%
%TO.N,POE_RECT_POS*%
X126977500Y-110580000D03*
%TO.P,R5,2*%
%TO.N,BT4_LED_A*%
X129902500Y-110580000D03*
%TD*%
D12*
%TO.P,C112,1*%
%TO.N,3V3*%
X139110000Y-90580000D03*
%TO.P,C112,2*%
%TO.N,GND*%
X139110000Y-92130000D03*
%TD*%
D60*
%TO.P,C44,1*%
%TO.N,5V*%
X217975000Y-78725000D03*
%TO.P,C44,2*%
%TO.N,GND*%
X217975000Y-75775000D03*
%TD*%
D66*
%TO.P,J1,1*%
%TO.N,N/C*%
X106860000Y-92130000D03*
D67*
%TO.P,J1,2*%
X106860000Y-90098000D03*
%TO.P,J1,3*%
X106860000Y-88066000D03*
%TO.P,J1,4*%
%TO.N,ETH_RX_P*%
X106860000Y-86034000D03*
%TO.P,J1,5*%
%TO.N,ETH_RX_N*%
X106860000Y-84002000D03*
%TO.P,J1,6*%
%TO.N,ETH_RX_CT*%
X106860000Y-81970000D03*
%TO.P,J1,7*%
%TO.N,N/C*%
X109400000Y-93146000D03*
%TO.P,J1,8*%
X109400000Y-91114000D03*
%TO.P,J1,9*%
X109400000Y-89082000D03*
%TO.P,J1,10*%
%TO.N,ETH_TX_N*%
X109400000Y-85018000D03*
%TO.P,J1,11*%
%TO.N,ETH_TX_P*%
X109400000Y-82986000D03*
%TO.P,J1,12*%
%TO.N,ETH_TX_CT*%
X109400000Y-80954000D03*
D68*
%TO.P,J1,13*%
%TO.N,POE_MODE_A_AC1*%
X99750000Y-92640000D03*
%TO.P,J1,14*%
%TO.N,POE_MODE_A_AC2*%
X99750000Y-81460000D03*
%TO.P,J1,15*%
%TO.N,POE_MODE_B_AC1*%
X98210000Y-92640000D03*
%TO.P,J1,16*%
%TO.N,POE_MODE_B_AC2*%
X98210000Y-81460000D03*
D67*
%TO.P,J1,17*%
%TO.N,N/C*%
X111940000Y-93146000D03*
%TO.P,J1,18*%
X111940000Y-90606000D03*
%TO.P,J1,19*%
X111940000Y-83494000D03*
%TO.P,J1,20*%
X111940000Y-80954000D03*
D69*
%TO.P,J1,S1*%
X88440000Y-95115000D03*
%TO.P,J1,S2*%
X88440000Y-78985000D03*
%TD*%
D34*
%TO.P,TP3,1*%
%TO.N,24V_AMP*%
X238580000Y-119020000D03*
%TD*%
D24*
%TO.P,C52,1*%
%TO.N,3V3A_LDO*%
X186362500Y-95500000D03*
%TO.P,C52,2*%
%TO.N,GND*%
X186362500Y-93600000D03*
%TD*%
D56*
%TO.P,LED1,1*%
%TO.N,PHY_LINK_LED*%
X136670000Y-92486750D03*
%TO.P,LED1,2*%
%TO.N,PHY_LED_A*%
X136670000Y-93693250D03*
%TD*%
D44*
%TO.P,R121,1*%
%TO.N,BENCH_OV*%
X245132500Y-97120000D03*
%TO.P,R121,2*%
%TO.N,GND*%
X243307500Y-97120000D03*
%TD*%
D14*
%TO.P,R13,1*%
%TO.N,DAC_OUT_L*%
X174282500Y-95885000D03*
%TO.P,R13,2*%
%TO.N,DAC_OUT_FILTERED*%
X174282500Y-97535000D03*
%TD*%
D40*
%TO.P,R15,1*%
%TO.N,AMP_GVDD*%
X182590000Y-111380000D03*
%TO.P,R15,2*%
%TO.N,AMP_PLIMIT*%
X182590000Y-109730000D03*
%TD*%
D70*
%TO.P,D2,1*%
%TO.N,POE_RECT_POS*%
X108850000Y-141150000D03*
%TO.P,D2,2*%
%TO.N,POE_RECT_NEG*%
X108850000Y-136010000D03*
%TD*%
D52*
%TO.P,D7,1*%
%TO.N,POE_MODE_B_AC1*%
X90070000Y-111180000D03*
%TO.P,D7,2*%
%TO.N,POE_RECT_POS*%
X90070000Y-118560000D03*
%TD*%
D16*
%TO.P,C3,1*%
%TO.N,24V_AMP*%
X241930000Y-124870000D03*
D17*
%TO.P,C3,2*%
%TO.N,GND*%
X246930000Y-124870000D03*
%TD*%
D61*
%TO.P,Q4,1*%
%TO.N,BENCH_GATE_B*%
X262860000Y-107700000D03*
D62*
%TO.P,Q4,2*%
%TO.N,24V_BENCH_PROTECTED*%
X272010000Y-110240000D03*
D61*
%TO.P,Q4,3*%
%TO.N,BENCH_COMMON_SOURCE*%
X262860000Y-112780000D03*
%TD*%
D12*
%TO.P,C58,1*%
%TO.N,AMP_PLIMIT*%
X179530000Y-109915000D03*
%TO.P,C58,2*%
%TO.N,GND*%
X179530000Y-111465000D03*
%TD*%
D71*
%TO.P,U15,1*%
%TO.N,BENCH_FUSED*%
X252250000Y-95595000D03*
%TO.P,U15,2*%
%TO.N,BENCH_UV*%
X252250000Y-96245000D03*
%TO.P,U15,3*%
%TO.N,BENCH_OV*%
X252250000Y-96895000D03*
%TO.P,U15,4*%
%TO.N,GND*%
X252250000Y-97545000D03*
%TO.P,U15,5*%
%TO.N,BENCH_SHDN*%
X254870000Y-97545000D03*
%TO.P,U15,6*%
%TO.N,BENCH_FAULT_N*%
X254870000Y-96895000D03*
%TO.P,U15,7*%
%TO.N,24V_BENCH_PROTECTED*%
X254870000Y-96245000D03*
%TO.P,U15,8*%
%TO.N,BENCH_PASS_GATE*%
X254870000Y-95595000D03*
%TD*%
D34*
%TO.P,TP5,1*%
%TO.N,3V3*%
X191970000Y-103090000D03*
%TD*%
%TO.P,TP11,1*%
%TO.N,ETH_SPI_MOSI*%
X137330000Y-82060000D03*
%TD*%
D72*
%TO.P,U4,1*%
%TO.N,3V3A*%
X170740000Y-92530000D03*
%TO.P,U4,2*%
%TO.N,DAC_CP_P*%
X171390000Y-92530000D03*
%TO.P,U4,3*%
%TO.N,GND*%
X172040000Y-92530000D03*
%TO.P,U4,4*%
%TO.N,DAC_CP_M*%
X172690000Y-92530000D03*
%TO.P,U4,5*%
%TO.N,DAC_VNEG*%
X173340000Y-92530000D03*
%TO.P,U4,6*%
%TO.N,DAC_OUT_L*%
X173990000Y-92530000D03*
%TO.P,U4,7*%
%TO.N,N/C*%
X174640000Y-92530000D03*
%TO.P,U4,8*%
%TO.N,3V3A*%
X175280000Y-92530000D03*
%TO.P,U4,9*%
%TO.N,GND*%
X175930000Y-92530000D03*
%TO.P,U4,10*%
X176580000Y-92530000D03*
%TO.P,U4,11*%
%TO.N,I2C_SDA*%
X177230000Y-92530000D03*
%TO.P,U4,12*%
%TO.N,I2C_SCL*%
X177880000Y-92530000D03*
%TO.P,U4,13*%
%TO.N,N/C*%
X178530000Y-92530000D03*
%TO.P,U4,14*%
X179180000Y-92530000D03*
%TO.P,U4,15*%
X179180000Y-86930000D03*
%TO.P,U4,16*%
%TO.N,GND*%
X178530000Y-86930000D03*
%TO.P,U4,17*%
X177880000Y-86930000D03*
%TO.P,U4,18*%
%TO.N,3V3*%
X177230000Y-86930000D03*
%TO.P,U4,19*%
%TO.N,N/C*%
X176580000Y-86930000D03*
%TO.P,U4,20*%
%TO.N,GND*%
X175930000Y-86930000D03*
%TO.P,U4,21*%
%TO.N,I2S_BCLK*%
X175280000Y-86930000D03*
%TO.P,U4,22*%
%TO.N,I2S_DATA*%
X174640000Y-86930000D03*
%TO.P,U4,23*%
%TO.N,I2S_LRCLK*%
X173990000Y-86930000D03*
%TO.P,U4,24*%
%TO.N,GND*%
X173340000Y-86930000D03*
%TO.P,U4,25*%
%TO.N,DAC_XSMT*%
X172690000Y-86930000D03*
%TO.P,U4,26*%
%TO.N,DAC_1V8*%
X172040000Y-86930000D03*
%TO.P,U4,27*%
%TO.N,GND*%
X171390000Y-86930000D03*
%TO.P,U4,28*%
%TO.N,3V3*%
X170740000Y-86930000D03*
%TD*%
D34*
%TO.P,TP15,1*%
%TO.N,PDM_CLK*%
X141740000Y-88910000D03*
%TD*%
D41*
%TO.P,R124,1*%
%TO.N,BENCH_FUSED*%
X251457500Y-92400000D03*
%TO.P,R124,2*%
%TO.N,BENCH_SHDN*%
X253282500Y-92400000D03*
%TD*%
D34*
%TO.P,TP19,1*%
%TO.N,PDM_DATA3*%
X145390000Y-98790000D03*
%TD*%
D12*
%TO.P,C100,1*%
%TO.N,ETH_TX_CT*%
X122070000Y-93145000D03*
%TO.P,C100,2*%
%TO.N,GND*%
X122070000Y-94695000D03*
%TD*%
D14*
%TO.P,R29,1*%
%TO.N,PDM_DATA0_CONN*%
X151220000Y-78485000D03*
%TO.P,R29,2*%
%TO.N,PDM_DATA0*%
X151220000Y-80135000D03*
%TD*%
D12*
%TO.P,C27,1*%
%TO.N,3V3A*%
X181192500Y-95725000D03*
%TO.P,C27,2*%
%TO.N,GND*%
X181192500Y-97275000D03*
%TD*%
D73*
%TO.P,U3,1*%
%TO.N,ETH_TX_N*%
X125767500Y-83300000D03*
%TO.P,U3,2*%
%TO.N,ETH_TX_P*%
X125767500Y-83800000D03*
%TO.P,U3,3*%
%TO.N,GND*%
X125767500Y-84300000D03*
%TO.P,U3,4*%
%TO.N,ETH_3V3A*%
X125767500Y-84800000D03*
%TO.P,U3,5*%
%TO.N,ETH_RX_N*%
X125767500Y-85300000D03*
%TO.P,U3,6*%
%TO.N,ETH_RX_P*%
X125767500Y-85800000D03*
%TO.P,U3,7*%
%TO.N,N/C*%
X125767500Y-86300000D03*
%TO.P,U3,8*%
%TO.N,ETH_3V3A*%
X125767500Y-86800000D03*
%TO.P,U3,9*%
%TO.N,GND*%
X125767500Y-87300000D03*
%TO.P,U3,10*%
%TO.N,ETH_EXRES*%
X125767500Y-87800000D03*
%TO.P,U3,11*%
%TO.N,ETH_3V3A*%
X125767500Y-88300000D03*
%TO.P,U3,12*%
%TO.N,N/C*%
X125767500Y-88800000D03*
D74*
%TO.P,U3,13*%
X127180000Y-90212500D03*
%TO.P,U3,14*%
%TO.N,GND*%
X127680000Y-90212500D03*
%TO.P,U3,15*%
%TO.N,ETH_3V3A*%
X128180000Y-90212500D03*
%TO.P,U3,16*%
%TO.N,GND*%
X128680000Y-90212500D03*
%TO.P,U3,17*%
%TO.N,ETH_3V3A*%
X129180000Y-90212500D03*
%TO.P,U3,18*%
%TO.N,N/C*%
X129680000Y-90212500D03*
%TO.P,U3,19*%
%TO.N,GND*%
X130180000Y-90212500D03*
%TO.P,U3,20*%
%TO.N,ETH_TOCAP*%
X130680000Y-90212500D03*
%TO.P,U3,21*%
%TO.N,ETH_3V3A*%
X131180000Y-90212500D03*
%TO.P,U3,22*%
%TO.N,ETH_1V2*%
X131680000Y-90212500D03*
%TO.P,U3,23*%
%TO.N,GND*%
X132180000Y-90212500D03*
%TO.P,U3,24*%
%TO.N,PHY_SPEED_LED*%
X132680000Y-90212500D03*
D73*
%TO.P,U3,25*%
%TO.N,PHY_LINK_LED*%
X134092500Y-88800000D03*
%TO.P,U3,26*%
%TO.N,N/C*%
X134092500Y-88300000D03*
%TO.P,U3,27*%
X134092500Y-87800000D03*
%TO.P,U3,28*%
%TO.N,3V3*%
X134092500Y-87300000D03*
%TO.P,U3,29*%
%TO.N,GND*%
X134092500Y-86800000D03*
%TO.P,U3,30*%
%TO.N,ETH_25MHZ*%
X134092500Y-86300000D03*
%TO.P,U3,31*%
%TO.N,N/C*%
X134092500Y-85800000D03*
%TO.P,U3,32*%
%TO.N,ETH_SPI_CS_N*%
X134092500Y-85300000D03*
%TO.P,U3,33*%
%TO.N,ETH_SPI_SCLK*%
X134092500Y-84800000D03*
%TO.P,U3,34*%
%TO.N,ETH_SPI_MISO*%
X134092500Y-84300000D03*
%TO.P,U3,35*%
%TO.N,ETH_SPI_MOSI*%
X134092500Y-83800000D03*
%TO.P,U3,36*%
%TO.N,ETH_INT_N*%
X134092500Y-83300000D03*
D74*
%TO.P,U3,37*%
%TO.N,PHY_nRESET*%
X132680000Y-81887500D03*
%TO.P,U3,38*%
%TO.N,N/C*%
X132180000Y-81887500D03*
%TO.P,U3,39*%
X131680000Y-81887500D03*
%TO.P,U3,40*%
X131180000Y-81887500D03*
%TO.P,U3,41*%
X130680000Y-81887500D03*
%TO.P,U3,42*%
X130180000Y-81887500D03*
%TO.P,U3,43*%
%TO.N,3V3*%
X129680000Y-81887500D03*
%TO.P,U3,44*%
X129180000Y-81887500D03*
%TO.P,U3,45*%
X128680000Y-81887500D03*
%TO.P,U3,46*%
%TO.N,N/C*%
X128180000Y-81887500D03*
%TO.P,U3,47*%
X127680000Y-81887500D03*
%TO.P,U3,48*%
%TO.N,GND*%
X127180000Y-81887500D03*
%TD*%
D75*
%TO.P,R128,1*%
%TO.N,BENCH_FAULT_N*%
X257080000Y-102007500D03*
%TO.P,R128,2*%
%TO.N,3V3*%
X257080000Y-103832500D03*
%TD*%
D41*
%TO.P,R136,1*%
%TO.N,24V_AMP*%
X231325000Y-79320000D03*
%TO.P,R136,2*%
%TO.N,EFUSE_PGTH*%
X233150000Y-79320000D03*
%TD*%
D33*
%TO.P,C32,1*%
%TO.N,3V3*%
X145195000Y-80670000D03*
%TO.P,C32,2*%
%TO.N,GND*%
X143645000Y-80670000D03*
%TD*%
D44*
%TO.P,R138,1*%
%TO.N,EFUSE_FAULT_N*%
X237240000Y-78180000D03*
%TO.P,R138,2*%
%TO.N,3V3*%
X235415000Y-78180000D03*
%TD*%
D55*
%TO.P,TP27,1*%
%TO.N,EFUSE_FAULT_N*%
X234457500Y-74920000D03*
%TD*%
D33*
%TO.P,C33,1*%
%TO.N,ESP_EN*%
X144900000Y-86770000D03*
%TO.P,C33,2*%
%TO.N,GND*%
X143350000Y-86770000D03*
%TD*%
D27*
%TO.P,C14,1*%
%TO.N,24V_AMP*%
X204615000Y-116400000D03*
%TO.P,C14,2*%
%TO.N,GND*%
X207565000Y-116400000D03*
%TD*%
D48*
%TO.P,J5,1*%
%TO.N,3V3*%
X168650000Y-72830000D03*
D49*
%TO.P,J5,2*%
%TO.N,GND*%
X171190000Y-72830000D03*
%TO.P,J5,3*%
%TO.N,UART0_TX*%
X173730000Y-72830000D03*
%TO.P,J5,4*%
%TO.N,ESP_EN*%
X176270000Y-72830000D03*
%TO.P,J5,5*%
%TO.N,UART0_RX*%
X178810000Y-72830000D03*
%TO.P,J5,6*%
%TO.N,BOOT_GPIO0*%
X181350000Y-72830000D03*
%TD*%
D14*
%TO.P,R31,1*%
%TO.N,PDM_DATA2_CONN*%
X156200000Y-77935000D03*
%TO.P,R31,2*%
%TO.N,PDM_DATA2*%
X156200000Y-79585000D03*
%TD*%
D12*
%TO.P,C19,1*%
%TO.N,DAC_OUT_FILTERED*%
X174182500Y-100985000D03*
%TO.P,C19,2*%
%TO.N,GND*%
X174182500Y-102535000D03*
%TD*%
D14*
%TO.P,R38,1*%
%TO.N,3V3*%
X188940000Y-81205000D03*
%TO.P,R38,2*%
%TO.N,IOX_nRESET*%
X188940000Y-82855000D03*
%TD*%
D33*
%TO.P,C28,1*%
%TO.N,3V3*%
X169235000Y-86890000D03*
%TO.P,C28,2*%
%TO.N,GND*%
X167685000Y-86890000D03*
%TD*%
D11*
%TO.P,R33,1*%
%TO.N,3V3*%
X203405000Y-80735000D03*
%TO.P,R33,2*%
%TO.N,I2C_SDA*%
X201755000Y-80735000D03*
%TD*%
D44*
%TO.P,R123,1*%
%TO.N,BENCH_UV*%
X245102500Y-92480000D03*
%TO.P,R123,2*%
%TO.N,GND*%
X243277500Y-92480000D03*
%TD*%
D14*
%TO.P,R26,1*%
%TO.N,PHY_SPEED_LED*%
X133960000Y-92530000D03*
%TO.P,R26,2*%
%TO.N,PHY_SPEED_LED_A*%
X133960000Y-94180000D03*
%TD*%
D60*
%TO.P,C121,1*%
%TO.N,EFUSE_DVDT*%
X244137500Y-75705000D03*
%TO.P,C121,2*%
%TO.N,GND*%
X244137500Y-72755000D03*
%TD*%
D76*
%TO.P,U8,1*%
%TO.N,5V*%
X186350000Y-100110000D03*
%TO.P,U8,2*%
%TO.N,GND*%
X187300000Y-100110000D03*
%TO.P,U8,3*%
%TO.N,5V*%
X188250000Y-100110000D03*
%TO.P,U8,4*%
%TO.N,N/C*%
X188250000Y-97910000D03*
%TO.P,U8,5*%
%TO.N,3V3A_LDO*%
X186350000Y-97910000D03*
%TD*%
D11*
%TO.P,R28,1*%
%TO.N,PDM_CLK_MCU*%
X144990000Y-88550000D03*
%TO.P,R28,2*%
%TO.N,PDM_CLK*%
X143340000Y-88550000D03*
%TD*%
D41*
%TO.P,R134,1*%
%TO.N,EFUSE_UV*%
X247685000Y-81540000D03*
%TO.P,R134,2*%
%TO.N,GND*%
X249510000Y-81540000D03*
%TD*%
D36*
%TO.P,D9,1*%
%TO.N,POE_RECT_NEG*%
X105090000Y-114410000D03*
%TO.P,D9,2*%
%TO.N,POE_MODE_B_AC1*%
X97710000Y-114410000D03*
%TD*%
D11*
%TO.P,R34,1*%
%TO.N,3V3*%
X203445000Y-82515000D03*
%TO.P,R34,2*%
%TO.N,I2C_SCL*%
X201795000Y-82515000D03*
%TD*%
D19*
%TO.P,C50,1*%
%TO.N,3V3*%
X214495000Y-90155000D03*
%TO.P,C50,2*%
%TO.N,GND*%
X214495000Y-93105000D03*
%TD*%
D22*
%TO.P,C21,1*%
%TO.N,DAC_VNEG*%
X172142500Y-101070000D03*
%TO.P,C21,2*%
%TO.N,GND*%
X172142500Y-102970000D03*
%TD*%
D12*
%TO.P,C104,1*%
%TO.N,ETH_1V2*%
X131920000Y-92775000D03*
%TO.P,C104,2*%
%TO.N,GND*%
X131920000Y-94325000D03*
%TD*%
D77*
%TO.P,U9,1*%
%TO.N,N/C*%
X269680000Y-72550000D03*
%TO.P,U9,2*%
%TO.N,GND*%
X269680000Y-73500000D03*
%TO.P,U9,3*%
X269680000Y-74450000D03*
%TO.P,U9,4*%
%TO.N,24V_POE*%
X271955000Y-74450000D03*
%TO.P,U9,5*%
%TO.N,POE_OR_GATE*%
X271955000Y-73500000D03*
%TO.P,U9,6*%
%TO.N,24V_OR*%
X271955000Y-72550000D03*
%TD*%
D78*
%TO.P,U7,1*%
%TO.N,BUCK3V3_SW*%
X211495000Y-85190000D03*
%TO.P,U7,2*%
X211495000Y-85690000D03*
%TO.P,U7,3*%
X211495000Y-86190000D03*
%TO.P,U7,4*%
%TO.N,3V3_PG*%
X211495000Y-86690000D03*
D79*
%TO.P,U7,5*%
%TO.N,GND*%
X212245000Y-87440000D03*
%TO.P,U7,6*%
X212745000Y-87440000D03*
%TO.P,U7,7*%
%TO.N,3V3*%
X213245000Y-87440000D03*
%TO.P,U7,8*%
%TO.N,GND*%
X213745000Y-87440000D03*
D78*
%TO.P,U7,9*%
%TO.N,BUCK3V3_SS*%
X214495000Y-86690000D03*
%TO.P,U7,10*%
%TO.N,5V*%
X214495000Y-86190000D03*
%TO.P,U7,11*%
X214495000Y-85690000D03*
%TO.P,U7,12*%
X214495000Y-85190000D03*
D79*
%TO.P,U7,13*%
X213745000Y-84440000D03*
%TO.P,U7,14*%
%TO.N,3V3*%
X213245000Y-84440000D03*
%TO.P,U7,15*%
%TO.N,GND*%
X212745000Y-84440000D03*
%TO.P,U7,16*%
X212245000Y-84440000D03*
D80*
%TO.P,U7,17*%
X212995000Y-85940000D03*
%TD*%
D11*
%TO.P,R9,1*%
%TO.N,3V3*%
X144345000Y-84910000D03*
%TO.P,R9,2*%
%TO.N,ESP_EN*%
X142695000Y-84910000D03*
%TD*%
%TO.P,R111,1*%
%TO.N,3V3*%
X168037500Y-81270000D03*
%TO.P,R111,2*%
%TO.N,IOX_INT_N*%
X166387500Y-81270000D03*
%TD*%
D12*
%TO.P,C43,1*%
%TO.N,BUCK5_VCC*%
X229650000Y-93540000D03*
%TO.P,C43,2*%
%TO.N,GND*%
X229650000Y-95090000D03*
%TD*%
D27*
%TO.P,C47,1*%
%TO.N,5V*%
X217395000Y-85320000D03*
%TO.P,C47,2*%
%TO.N,GND*%
X220345000Y-85320000D03*
%TD*%
D81*
%TO.P,Q1,1*%
%TO.N,POE_OR_GATE*%
X268834000Y-86502000D03*
D82*
%TO.P,Q1,2*%
%TO.N,24V_OR*%
X271120000Y-79953000D03*
D81*
%TO.P,Q1,3*%
%TO.N,24V_POE*%
X273406000Y-86502000D03*
%TD*%
D55*
%TO.P,TP26,1*%
%TO.N,EFUSE_SHDN*%
X237797500Y-74730000D03*
%TD*%
D24*
%TO.P,C48,1*%
%TO.N,5V*%
X214995000Y-78770000D03*
%TO.P,C48,2*%
%TO.N,GND*%
X214995000Y-76870000D03*
%TD*%
D83*
%TO.P,C16,1*%
%TO.N,SPK_POS*%
X212175000Y-135280000D03*
%TO.P,C16,2*%
%TO.N,SPK_NEG*%
X209225000Y-135280000D03*
%TD*%
D28*
%TO.P,R35,1*%
%TO.N,5V_PG*%
X233195000Y-90870000D03*
%TO.P,R35,2*%
%TO.N,5V*%
X234845000Y-90870000D03*
%TD*%
D24*
%TO.P,C24,1*%
%TO.N,3V3*%
X177330000Y-84580000D03*
%TO.P,C24,2*%
%TO.N,GND*%
X177330000Y-82680000D03*
%TD*%
D84*
%TO.P,F1,1*%
%TO.N,24V_BENCH_RAW*%
X261970000Y-134090000D03*
%TO.P,F1,2*%
%TO.N,BENCH_FUSED*%
X261970000Y-129430000D03*
%TD*%
D44*
%TO.P,R131,1*%
%TO.N,24V_OR*%
X249370000Y-79170000D03*
%TO.P,R131,2*%
%TO.N,EFUSE_OV*%
X247545000Y-79170000D03*
%TD*%
D41*
%TO.P,R120,1*%
%TO.N,BENCH_FUSED*%
X243297500Y-94850000D03*
%TO.P,R120,2*%
%TO.N,BENCH_OV*%
X245122500Y-94850000D03*
%TD*%
D33*
%TO.P,C57,1*%
%TO.N,3V3*%
X199050000Y-77000000D03*
%TO.P,C57,2*%
%TO.N,GND*%
X197500000Y-77000000D03*
%TD*%
D34*
%TO.P,TP7,1*%
%TO.N,I2S_BCLK*%
X175860000Y-80150000D03*
%TD*%
%TO.P,TP9,1*%
%TO.N,I2S_DATA*%
X174510000Y-80250000D03*
%TD*%
D41*
%TO.P,R135,1*%
%TO.N,AMP_ENABLE_CMD*%
X235535000Y-82980000D03*
%TO.P,R135,2*%
%TO.N,AMP_SDZ*%
X237360000Y-82980000D03*
%TD*%
D22*
%TO.P,C18,1*%
%TO.N,GND*%
X176232500Y-100820000D03*
%TO.P,C18,2*%
%TO.N,AMP_IN_N*%
X176232500Y-102720000D03*
%TD*%
D34*
%TO.P,TP20,1*%
%TO.N,3V3A*%
X168870000Y-98150000D03*
%TD*%
D85*
%TO.P,U5,1*%
%TO.N,GND*%
X194850000Y-105640001D03*
%TO.P,U5,2*%
%TO.N,AMP_SDZ*%
X194850000Y-106290002D03*
%TO.P,U5,3*%
%TO.N,AMP_FAULTZ*%
X194850000Y-106940001D03*
%TO.P,U5,4*%
%TO.N,AMP_IN_P*%
X194850000Y-107590002D03*
%TO.P,U5,5*%
%TO.N,AMP_IN_N*%
X194850000Y-108240001D03*
%TO.P,U5,6*%
%TO.N,AMP_PLIMIT*%
X194850000Y-108890002D03*
%TO.P,U5,7*%
%TO.N,AMP_GVDD*%
X194850000Y-109540001D03*
%TO.P,U5,8*%
%TO.N,AMP_GAIN*%
X194850000Y-110190002D03*
%TO.P,U5,9*%
%TO.N,GND*%
X194850000Y-110840001D03*
%TO.P,U5,10*%
X194850000Y-111489999D03*
%TO.P,U5,11*%
X194850000Y-112140001D03*
%TO.P,U5,12*%
%TO.N,AMP_MUTE*%
X194850000Y-112789999D03*
%TO.P,U5,13*%
%TO.N,GND*%
X194850000Y-113440000D03*
%TO.P,U5,14*%
X194850000Y-114089999D03*
%TO.P,U5,15*%
X194850000Y-114740000D03*
%TO.P,U5,16*%
%TO.N,N/C*%
X194850000Y-115389999D03*
%TO.P,U5,17*%
%TO.N,24V_AMP*%
X202457300Y-115389999D03*
%TO.P,U5,18*%
X202457300Y-114739998D03*
%TO.P,U5,19*%
X202457300Y-114089999D03*
%TO.P,U5,20*%
%TO.N,AMP_BSNL*%
X202457300Y-113439998D03*
%TO.P,U5,21*%
%TO.N,AMP_SW_NEG*%
X202457300Y-112789999D03*
%TO.P,U5,22*%
%TO.N,GND*%
X202457300Y-112139998D03*
%TO.P,U5,23*%
%TO.N,AMP_SW_NEG*%
X202457300Y-111489999D03*
%TO.P,U5,24*%
%TO.N,AMP_BSPL*%
X202457300Y-110839998D03*
%TO.P,U5,25*%
%TO.N,GND*%
X202457300Y-110189999D03*
%TO.P,U5,26*%
%TO.N,AMP_BSNR*%
X202457300Y-109539998D03*
%TO.P,U5,27*%
%TO.N,AMP_SW_POS*%
X202457300Y-108889999D03*
%TO.P,U5,28*%
%TO.N,GND*%
X202457300Y-108239998D03*
%TO.P,U5,29*%
%TO.N,AMP_SW_POS*%
X202457300Y-107590000D03*
%TO.P,U5,30*%
%TO.N,AMP_BSPR*%
X202457300Y-106939998D03*
%TO.P,U5,31*%
%TO.N,24V_AMP*%
X202457300Y-106290000D03*
%TO.P,U5,32*%
X202457300Y-105640001D03*
%TD*%
D20*
%TO.P,C42,1*%
%TO.N,BUCK5_BOOT*%
X227870000Y-92110000D03*
%TO.P,C42,2*%
%TO.N,BUCK5_SW*%
X227870000Y-90560000D03*
%TD*%
D19*
%TO.P,C122,1*%
%TO.N,24V_OR*%
X245127500Y-85305000D03*
%TO.P,C122,2*%
%TO.N,GND*%
X245127500Y-88255000D03*
%TD*%
D22*
%TO.P,C22,1*%
%TO.N,3V3A*%
X176692500Y-96000000D03*
%TO.P,C22,2*%
%TO.N,GND*%
X176692500Y-97900000D03*
%TD*%
D34*
%TO.P,TP23,1*%
%TO.N,24V_POE*%
X276274000Y-85212000D03*
%TD*%
%TO.P,TP4,1*%
%TO.N,5V*%
X185630000Y-101970000D03*
%TD*%
D14*
%TO.P,R17,1*%
%TO.N,3V3*%
X192070000Y-104495000D03*
%TO.P,R17,2*%
%TO.N,AMP_FAULTZ*%
X192070000Y-106145000D03*
%TD*%
D83*
%TO.P,C120,1*%
%TO.N,BENCH_RAMP*%
X264625000Y-94160000D03*
%TO.P,C120,2*%
%TO.N,GND*%
X261675000Y-94160000D03*
%TD*%
D52*
%TO.P,D3,1*%
%TO.N,POE_MODE_A_AC1*%
X90680000Y-133540000D03*
%TO.P,D3,2*%
%TO.N,POE_RECT_POS*%
X90680000Y-140920000D03*
%TD*%
D86*
%TO.P,U6,1*%
%TO.N,GND*%
X229579999Y-88985001D03*
%TO.P,U6,2*%
%TO.N,24V_AMP*%
X229579999Y-89635000D03*
%TO.P,U6,3*%
%TO.N,BUCK5_SW*%
X229579999Y-90285001D03*
%TO.P,U6,4*%
%TO.N,BUCK5_BOOT*%
X229579999Y-90785000D03*
D87*
%TO.P,U6,5*%
%TO.N,BUCK5_VCC*%
X229980001Y-91510000D03*
%TO.P,U6,6*%
%TO.N,GND*%
X230480000Y-91510000D03*
%TO.P,U6,7*%
%TO.N,BUCK5_FB*%
X230979999Y-91510000D03*
D86*
%TO.P,U6,8*%
%TO.N,5V_PG*%
X231380001Y-90785000D03*
%TO.P,U6,9*%
%TO.N,24V_AMP*%
X231380001Y-90285001D03*
%TO.P,U6,10*%
X231380001Y-89635000D03*
%TO.P,U6,11*%
%TO.N,GND*%
X231380001Y-88985001D03*
D88*
%TO.P,U6,12*%
%TO.N,BUCK5_SW*%
X230480000Y-89322001D03*
%TD*%
D59*
%TO.P,SW1,1*%
%TO.N,GND*%
X168100000Y-77730000D03*
%TO.P,SW1,2*%
%TO.N,ESP_EN*%
X172460000Y-77730000D03*
%TD*%
D28*
%TO.P,R7,1*%
%TO.N,POE_BT3_DET*%
X130280000Y-101500000D03*
%TO.P,R7,2*%
%TO.N,3V3*%
X131930000Y-101500000D03*
%TD*%
D44*
%TO.P,R133,1*%
%TO.N,24V_OR*%
X249420000Y-83490000D03*
%TO.P,R133,2*%
%TO.N,EFUSE_UV*%
X247595000Y-83490000D03*
%TD*%
D89*
%TO.P,L3,1*%
%TO.N,BUCK5_SW*%
X225245000Y-92930000D03*
%TO.P,L3,2*%
%TO.N,5V*%
X221935000Y-92930000D03*
%TD*%
D83*
%TO.P,C12,1*%
%TO.N,24V_AMP*%
X227180000Y-87790000D03*
%TO.P,C12,2*%
%TO.N,GND*%
X224230000Y-87790000D03*
%TD*%
D14*
%TO.P,R30,1*%
%TO.N,PDM_DATA1_CONN*%
X154300000Y-78095000D03*
%TO.P,R30,2*%
%TO.N,PDM_DATA1*%
X154300000Y-79745000D03*
%TD*%
D90*
%TO.P,U16,1*%
%TO.N,24V_OR*%
X244330000Y-82290000D03*
%TO.P,U16,2*%
X244330000Y-81790000D03*
%TO.P,U16,3*%
%TO.N,N/C*%
X244330000Y-81290000D03*
%TO.P,U16,4*%
X244330000Y-80790000D03*
%TO.P,U16,5*%
%TO.N,24V_OR*%
X244330000Y-80290000D03*
%TO.P,U16,6*%
%TO.N,EFUSE_UV*%
X244330000Y-79790000D03*
D91*
%TO.P,U16,7*%
%TO.N,EFUSE_OV*%
X243617500Y-79077500D03*
%TO.P,U16,8*%
%TO.N,GND*%
X243117500Y-79077500D03*
%TO.P,U16,9*%
%TO.N,EFUSE_DVDT*%
X242617500Y-79077500D03*
%TO.P,U16,10*%
%TO.N,EFUSE_ILIM*%
X242117500Y-79077500D03*
%TO.P,U16,11*%
%TO.N,N/C*%
X241617500Y-79077500D03*
%TO.P,U16,12*%
%TO.N,EFUSE_SHDN*%
X241117500Y-79077500D03*
D90*
%TO.P,U16,13*%
%TO.N,N/C*%
X240405000Y-79790000D03*
%TO.P,U16,14*%
%TO.N,EFUSE_FAULT_N*%
X240405000Y-80290000D03*
%TO.P,U16,15*%
%TO.N,EFUSE_PGTH*%
X240405000Y-80790000D03*
%TO.P,U16,16*%
%TO.N,AMP_SDZ*%
X240405000Y-81290000D03*
%TO.P,U16,17*%
%TO.N,24V_AMP*%
X240405000Y-81790000D03*
%TO.P,U16,18*%
X240405000Y-82290000D03*
D91*
%TO.P,U16,19*%
%TO.N,N/C*%
X241117500Y-83002500D03*
%TO.P,U16,20*%
X241617500Y-83002500D03*
%TO.P,U16,21*%
X242117500Y-83002500D03*
%TO.P,U16,22*%
X242617500Y-83002500D03*
%TO.P,U16,23*%
X243117500Y-83002500D03*
%TO.P,U16,24*%
X243617500Y-83002500D03*
D92*
%TO.P,U16,25*%
%TO.N,GND*%
X243467500Y-82140000D03*
X243467500Y-81040000D03*
X243467500Y-79940000D03*
X242367500Y-82140000D03*
X242367500Y-81040000D03*
D93*
X242367500Y-81040000D03*
D92*
X242367500Y-79940000D03*
X241267500Y-82140000D03*
X241267500Y-81040000D03*
X241267500Y-79940000D03*
%TD*%
D44*
%TO.P,R122,1*%
%TO.N,BENCH_FUSED*%
X249062500Y-92500000D03*
%TO.P,R122,2*%
%TO.N,BENCH_UV*%
X247237500Y-92500000D03*
%TD*%
D64*
%TO.P,R3,1*%
%TO.N,POE_RECT_POS*%
X113582500Y-111220000D03*
%TO.P,R3,2*%
%TO.N,AT_LED_A*%
X110657500Y-111220000D03*
%TD*%
D36*
%TO.P,D10,1*%
%TO.N,POE_RECT_NEG*%
X105330000Y-122580000D03*
%TO.P,D10,2*%
%TO.N,POE_MODE_B_AC2*%
X97950000Y-122580000D03*
%TD*%
D34*
%TO.P,TP1,1*%
%TO.N,POE_RECT_POS*%
X109280000Y-143980000D03*
%TD*%
%TO.P,TP10,1*%
%TO.N,ETH_SPI_SCLK*%
X134970000Y-81450000D03*
%TD*%
%TO.P,TP18,1*%
%TO.N,PDM_DATA2*%
X145120000Y-92480000D03*
%TD*%
D44*
%TO.P,R129,1*%
%TO.N,AMP_SDZ*%
X237240000Y-85320000D03*
%TO.P,R129,2*%
%TO.N,GND*%
X235415000Y-85320000D03*
%TD*%
D20*
%TO.P,C7,1*%
%TO.N,AMP_BSNL*%
X208820000Y-113375000D03*
%TO.P,C7,2*%
%TO.N,AMP_SW_NEG*%
X208820000Y-111825000D03*
%TD*%
%TO.P,C30,1*%
%TO.N,DAC_1V8*%
X172042500Y-84445000D03*
%TO.P,C30,2*%
%TO.N,GND*%
X172042500Y-82895000D03*
%TD*%
D81*
%TO.P,Q2,1*%
%TO.N,BENCH_OR_GATE*%
X259304000Y-86652000D03*
D82*
%TO.P,Q2,2*%
%TO.N,24V_OR*%
X261590000Y-80103000D03*
D81*
%TO.P,Q2,3*%
%TO.N,24V_BENCH_PROTECTED*%
X263876000Y-86652000D03*
%TD*%
D11*
%TO.P,R8,1*%
%TO.N,POE_BT4_DET*%
X143105000Y-101020000D03*
%TO.P,R8,2*%
%TO.N,3V3*%
X141455000Y-101020000D03*
%TD*%
D94*
%TO.N,GND*%
X193580000Y-114780000D03*
X221210000Y-80960000D03*
X126860000Y-93870000D03*
X241210000Y-72790000D03*
X131750000Y-95200000D03*
X201320000Y-112180000D03*
X171280000Y-82540000D03*
X119970000Y-81590000D03*
X243313064Y-88396936D03*
X178890000Y-98650000D03*
X211270000Y-92850000D03*
X188110000Y-104680000D03*
X188640000Y-112470000D03*
X130440000Y-87910000D03*
X217840000Y-74700000D03*
X128724406Y-88831405D03*
X207960000Y-105450000D03*
X242950764Y-79921457D03*
X166970000Y-97380000D03*
X196860000Y-77150000D03*
X242480000Y-92380000D03*
X184290000Y-77960000D03*
X175220493Y-97099619D03*
X128640000Y-95480000D03*
X142700000Y-86200000D03*
X174103884Y-91230001D03*
X256610000Y-72230000D03*
X191940000Y-87920000D03*
X175950000Y-85910000D03*
X234430000Y-84580000D03*
X208480000Y-115640000D03*
X177780000Y-88090000D03*
X140314951Y-85156421D03*
X199850000Y-82470000D03*
X218850000Y-88725000D03*
X244070000Y-71810000D03*
X104610000Y-76720000D03*
X209450000Y-103070000D03*
X242320000Y-96990000D03*
X230630001Y-92256513D03*
X132180000Y-89010000D03*
X193660000Y-114060000D03*
X132880000Y-86780000D03*
X197370000Y-78150000D03*
X172910000Y-88300000D03*
X234390000Y-93700000D03*
X187310000Y-99350000D03*
X214040218Y-87336989D03*
X196625000Y-110740000D03*
X256430000Y-123630000D03*
X195375001Y-105194238D03*
X142940000Y-80640000D03*
X128750000Y-76610000D03*
X166440000Y-93760000D03*
X134860000Y-76710000D03*
X122910000Y-94780000D03*
X133070000Y-94810000D03*
X268710000Y-73450000D03*
X174200000Y-103480000D03*
X193660000Y-113420000D03*
X148500000Y-84720000D03*
X190870000Y-78490000D03*
X171377006Y-86016743D03*
X268680000Y-74440000D03*
X230560000Y-95090000D03*
X201390000Y-110190000D03*
X130800000Y-84170000D03*
X130170000Y-88940000D03*
X214330000Y-94140000D03*
X260840000Y-94270000D03*
X211900000Y-88000000D03*
X232070000Y-88910000D03*
X194640000Y-122970000D03*
X126340000Y-76130000D03*
X164460000Y-84200000D03*
X250230000Y-76810000D03*
X181200000Y-98090000D03*
X234570000Y-80830000D03*
X214930000Y-75990000D03*
X235630000Y-88500000D03*
X166900000Y-91610000D03*
X201300000Y-108280000D03*
X178498058Y-88078058D03*
X210790000Y-87770000D03*
X139160000Y-92860000D03*
X229010000Y-88725000D03*
X188620000Y-108800000D03*
X178260000Y-82540000D03*
X130560000Y-86320000D03*
X211320000Y-84040000D03*
X170950000Y-101570000D03*
X223270000Y-87650000D03*
X240400000Y-87150000D03*
X121830000Y-88620000D03*
X124360000Y-84540000D03*
X211000000Y-74860000D03*
X250630000Y-81480000D03*
X126650000Y-81850000D03*
X188700000Y-110660000D03*
X115890000Y-92930000D03*
X251290000Y-97580000D03*
X186230000Y-92680000D03*
X179500000Y-112090000D03*
X176010000Y-90550000D03*
X167620000Y-86090000D03*
X193400000Y-112290000D03*
X167260000Y-77620000D03*
X124370000Y-86890000D03*
X221200000Y-85330000D03*
X142440000Y-81940000D03*
%TO.N,ETH_SPI_MOSI*%
X155900000Y-103990000D03*
X136530000Y-83270000D03*
D95*
%TO.N,24V_AMP*%
X232380000Y-86060000D03*
X230340000Y-87670000D03*
X232350000Y-87600000D03*
X240140000Y-85490000D03*
X228800000Y-87240000D03*
X226730000Y-85710000D03*
X238717972Y-85846773D03*
X231010000Y-86810000D03*
X203650000Y-101620000D03*
X204320000Y-103310000D03*
X203060000Y-103100000D03*
X238630000Y-84210000D03*
X226290000Y-88620000D03*
D94*
%TO.N,3V3*%
X127400000Y-79830000D03*
X212420000Y-83185000D03*
D95*
X255780000Y-103500000D03*
D94*
X168630000Y-80710000D03*
X130095000Y-94439140D03*
X188690000Y-80550000D03*
X216875000Y-90325000D03*
D95*
X204350000Y-82950000D03*
D94*
X189260000Y-80620000D03*
X143790000Y-83850000D03*
X177230000Y-85920000D03*
X120608725Y-82096626D03*
D95*
X169707298Y-102087298D03*
D94*
X136060000Y-88280000D03*
D95*
X199790000Y-79570000D03*
X198730000Y-79520000D03*
D94*
X148310000Y-86330000D03*
D95*
X170190000Y-86890000D03*
D94*
X128460000Y-80020000D03*
D95*
X206170000Y-82770000D03*
D94*
X234207500Y-78160000D03*
D95*
X192070000Y-103800000D03*
%TO.N,5V*%
X216160000Y-86490000D03*
X189250000Y-100270000D03*
X189190000Y-99280000D03*
D94*
%TO.N,PHY_nRESET*%
X134010000Y-79910000D03*
X190820000Y-83165000D03*
%TO.N,ETH_SPI_CS_N*%
X135620000Y-85760000D03*
X143605735Y-93434265D03*
%TO.N,BOOT_GPIO0*%
X176890000Y-90570000D03*
X167275000Y-100185000D03*
%TO.N,ESP_EN*%
X171570000Y-78240000D03*
X150050000Y-82360000D03*
%TO.N,ETH_INT_N*%
X148465002Y-94030000D03*
X135230000Y-82850000D03*
%TO.N,I2C_SDA*%
X190060000Y-76870000D03*
%TO.N,I2S_BCLK*%
X171810380Y-89580380D03*
X153510000Y-99530000D03*
%TO.N,I2S_LRCLK*%
X173915478Y-88262778D03*
X154360000Y-99780000D03*
%TO.N,I2S_DATA*%
X174550000Y-88750000D03*
X155520000Y-100410000D03*
%TO.N,ETH_SPI_MISO*%
X136490000Y-84120000D03*
X157520000Y-103860000D03*
%TO.N,I2C_SCL*%
X189740000Y-78240000D03*
X192670000Y-75320000D03*
%TO.N,IOX_nRESET*%
X165900000Y-96270000D03*
X188000000Y-84415000D03*
%TO.N,IOX_INT_N*%
X191840000Y-80320000D03*
X166880000Y-81510000D03*
%TO.N,ETH_3V3A*%
X126978000Y-88330288D03*
X126980550Y-84834015D03*
X116040000Y-81810000D03*
X126977564Y-86829657D03*
X130922399Y-92191889D03*
X117640000Y-84830000D03*
X129172131Y-91406763D03*
X128110000Y-91500000D03*
%TO.N,POE_MODE_A_AC2*%
X101120000Y-96070000D03*
D95*
%TO.N,24V_POE*%
X273464000Y-84602000D03*
X272314000Y-86012000D03*
X275854000Y-86572000D03*
X277074000Y-87792000D03*
X274344000Y-88052000D03*
X276479000Y-87197000D03*
X277214000Y-84422000D03*
D94*
%TO.N,POE_AT_DET*%
X191975213Y-85695000D03*
%TO.N,BENCH_PASS_GATE*%
X246240000Y-99390000D03*
X261560000Y-99760000D03*
%TO.N,POE_BT4_DET*%
X192005412Y-87067930D03*
%TO.N,ETH_SPI_SCLK*%
X135910000Y-84900000D03*
X153870000Y-105380000D03*
%TO.N,EXP_GPIO1*%
X190495000Y-75135000D03*
%TO.N,AMP_ENABLE_CMD*%
X194400000Y-82360000D03*
X234540000Y-82950000D03*
%TO.N,AMP_MUTE*%
X194070000Y-83110000D03*
X196000000Y-112789999D03*
%TO.N,DAC_XSMT*%
X172692500Y-85800000D03*
X191830000Y-83790000D03*
%TO.N,AMP_FAULTZ*%
X193210000Y-106440000D03*
X194260000Y-85060000D03*
%TO.N,POE_BT3_DET*%
X191220000Y-86330000D03*
%TO.N,5V_PG*%
X232430000Y-90785000D03*
X200130000Y-88000000D03*
%TO.N,3V3_PG*%
X199981982Y-86903603D03*
X208880000Y-87770000D03*
%TO.N,ETH_TX_P*%
X123038580Y-82475563D03*
%TO.N,ETH_TX_N*%
X123790000Y-82160707D03*
%TO.N,ETH_RX_P*%
X122420000Y-86590000D03*
%TO.N,ETH_RX_N*%
X121980000Y-85660000D03*
D95*
%TO.N,BENCH_COMMON_SOURCE*%
X259670000Y-113060000D03*
D94*
X241040000Y-114540000D03*
%TO.N,POE_MODE_B_AC1*%
X98390000Y-100250000D03*
%TO.N,ETH_RX_TERM*%
X117280000Y-86600000D03*
X116110000Y-89710000D03*
%TD*%
%TO.N,BUCK3V3_SS*%
D96*
X214495000Y-86690000D02*
X214660000Y-86690000D01*
X216000000Y-88030000D02*
X216185000Y-88030000D01*
X216185000Y-88030000D02*
X216375000Y-88220000D01*
X214660000Y-86690000D02*
X216000000Y-88030000D01*
%TO.N,GND*%
D97*
X171390000Y-86930000D02*
X171390000Y-86029737D01*
D96*
X124370000Y-87010000D02*
X124660000Y-87300000D01*
D97*
X242450000Y-97120000D02*
X242320000Y-96990000D01*
X193680000Y-113440000D02*
X193660000Y-113420000D01*
D96*
X120130000Y-81430000D02*
X119970000Y-81590000D01*
D97*
X213745000Y-87440000D02*
X213937207Y-87440000D01*
X193689999Y-114089999D02*
X193660000Y-114060000D01*
X234690000Y-80710000D02*
X234570000Y-80830000D01*
X167137500Y-94650000D02*
X167137500Y-94457500D01*
D96*
X132900000Y-86800000D02*
X132880000Y-86780000D01*
D97*
X171390000Y-86029737D02*
X171377006Y-86016743D01*
D98*
X241287500Y-73767500D02*
X241287500Y-72867500D01*
D97*
X194850000Y-114089999D02*
X193689999Y-114089999D01*
D96*
X124617406Y-84300000D02*
X125767500Y-84300000D01*
D97*
X194850000Y-114740000D02*
X193620000Y-114740000D01*
X126687500Y-81887500D02*
X126650000Y-81850000D01*
X213937207Y-87440000D02*
X214040218Y-87336989D01*
X142420000Y-81960000D02*
X142440000Y-81940000D01*
X167167500Y-97182500D02*
X166970000Y-97380000D01*
X223410000Y-87790000D02*
X223270000Y-87650000D01*
X198765000Y-82420000D02*
X199800000Y-82420000D01*
X171090000Y-101710000D02*
X171090000Y-101917500D01*
X212995000Y-85940000D02*
X212995000Y-86390000D01*
D99*
X197455000Y-78235000D02*
X197370000Y-78150000D01*
D98*
X257196000Y-72204500D02*
X258146000Y-72204500D01*
D97*
X179022500Y-98517500D02*
X178890000Y-98650000D01*
X194850000Y-105640001D02*
X194929238Y-105640001D01*
X127180000Y-81887500D02*
X126687500Y-81887500D01*
X186362500Y-93600000D02*
X186362500Y-92812500D01*
D96*
X128680000Y-88875811D02*
X128724406Y-88831405D01*
D97*
X242580000Y-92480000D02*
X242480000Y-92380000D01*
X257880000Y-123480000D02*
X256580000Y-123480000D01*
X268760000Y-73500000D02*
X268710000Y-73450000D01*
X171635000Y-82895000D02*
X171280000Y-82540000D01*
X206985000Y-105400000D02*
X207910000Y-105400000D01*
D99*
X187300000Y-99360000D02*
X187310000Y-99350000D01*
D97*
X128255831Y-88831405D02*
X128724406Y-88831405D01*
X218345000Y-88220000D02*
X218850000Y-88725000D01*
X234885000Y-94480000D02*
X234885000Y-94195000D01*
X186362500Y-92812500D02*
X186230000Y-92680000D01*
X139061372Y-86410000D02*
X140314951Y-85156421D01*
X256635500Y-72204500D02*
X256610000Y-72230000D01*
D98*
X250570000Y-81540000D02*
X250630000Y-81480000D01*
D99*
X197500000Y-77000000D02*
X197010000Y-77000000D01*
D97*
X193549999Y-112140001D02*
X193400000Y-112290000D01*
X176232500Y-100820000D02*
X174517500Y-102535000D01*
X176020874Y-97900000D02*
X176692500Y-97900000D01*
X190840000Y-78520000D02*
X190870000Y-78490000D01*
D96*
X120130000Y-80670000D02*
X120130000Y-81430000D01*
D97*
X194870000Y-121975000D02*
X194870000Y-122740000D01*
X174517500Y-102535000D02*
X174182500Y-102535000D01*
X181192500Y-97275000D02*
X181192500Y-98082500D01*
D98*
X249300000Y-76860000D02*
X250180000Y-76860000D01*
D97*
X178530000Y-86930000D02*
X178530000Y-88046116D01*
D99*
X197455000Y-78740000D02*
X197455000Y-78235000D01*
D97*
X194870000Y-122740000D02*
X194640000Y-122970000D01*
D99*
X188110000Y-103860000D02*
X188110000Y-104680000D01*
D97*
X207565000Y-116400000D02*
X207720000Y-116400000D01*
X243307500Y-97120000D02*
X242450000Y-97120000D01*
X261675000Y-94160000D02*
X260950000Y-94160000D01*
X175930000Y-85930000D02*
X175950000Y-85910000D01*
X174182500Y-103462500D02*
X174200000Y-103480000D01*
X167370000Y-77730000D02*
X167260000Y-77620000D01*
X235415000Y-85320000D02*
X235170000Y-85320000D01*
D99*
X189320000Y-110650000D02*
X188710000Y-110650000D01*
D97*
X194929238Y-105640001D02*
X195375001Y-105194238D01*
X214495000Y-93975000D02*
X214330000Y-94140000D01*
X199800000Y-82420000D02*
X199850000Y-82470000D01*
D98*
X244137500Y-72755000D02*
X244137500Y-71877500D01*
D97*
X207720000Y-116400000D02*
X208480000Y-115640000D01*
X230480000Y-92106512D02*
X230630001Y-92256513D01*
X243117500Y-79077500D02*
X243117500Y-79754721D01*
X131920000Y-95030000D02*
X131750000Y-95200000D01*
X256580000Y-123480000D02*
X256430000Y-123630000D01*
X211720000Y-84440000D02*
X211320000Y-84040000D01*
X178120000Y-82680000D02*
X178260000Y-82540000D01*
X167685000Y-86155000D02*
X167620000Y-86090000D01*
X177880000Y-87990000D02*
X177780000Y-88090000D01*
X176010000Y-91420000D02*
X175930000Y-91500000D01*
X143645000Y-80670000D02*
X142970000Y-80670000D01*
X128870000Y-94690000D02*
X128870000Y-95250000D01*
X175220493Y-97099619D02*
X176020874Y-97900000D01*
X201300000Y-108280000D02*
X202417298Y-108280000D01*
X201390000Y-110190000D02*
X202457299Y-110190000D01*
X207910000Y-105400000D02*
X207960000Y-105450000D01*
X164715000Y-84455000D02*
X164460000Y-84200000D01*
D98*
X250180000Y-76860000D02*
X250230000Y-76810000D01*
D96*
X132180000Y-89010000D02*
X132180000Y-90212500D01*
D97*
X173340000Y-87870000D02*
X172910000Y-88300000D01*
X230480000Y-91510000D02*
X230480000Y-92106512D01*
X260950000Y-94160000D02*
X260840000Y-94270000D01*
D99*
X197010000Y-77000000D02*
X196860000Y-77150000D01*
D97*
X214995000Y-76055000D02*
X214930000Y-75990000D01*
X179022500Y-97800000D02*
X179022500Y-98517500D01*
X194850000Y-110840001D02*
X196524999Y-110840001D01*
X167137500Y-94457500D02*
X166440000Y-93760000D01*
X164715000Y-84830000D02*
X164715000Y-84455000D01*
X201320000Y-112180000D02*
X202417298Y-112180000D01*
X243277500Y-92480000D02*
X242580000Y-92480000D01*
X240190000Y-86940000D02*
X240400000Y-87150000D01*
X193040000Y-87620000D02*
X192740000Y-87920000D01*
X167167500Y-96340000D02*
X167167500Y-97182500D01*
X217975000Y-75775000D02*
X217975000Y-74835000D01*
X143270000Y-86770000D02*
X142700000Y-86200000D01*
X214495000Y-93105000D02*
X214495000Y-93975000D01*
X211755000Y-75895000D02*
X211755000Y-75615000D01*
D96*
X124377406Y-84540000D02*
X124617406Y-84300000D01*
D97*
X208480000Y-102460000D02*
X208840000Y-102460000D01*
X212245000Y-87440000D02*
X212245000Y-87655000D01*
X194850000Y-111489999D02*
X194850000Y-110840001D01*
X252250000Y-97545000D02*
X251325000Y-97545000D01*
X166932500Y-92680000D02*
X166932500Y-91642500D01*
X211755000Y-75615000D02*
X211000000Y-74860000D01*
D96*
X124660000Y-87300000D02*
X125767500Y-87300000D01*
D97*
X231994999Y-88985001D02*
X232070000Y-88910000D01*
D96*
X124360000Y-84540000D02*
X124377406Y-84540000D01*
D97*
X245127500Y-88255000D02*
X243455000Y-88255000D01*
X257196000Y-72204500D02*
X256635500Y-72204500D01*
D99*
X189330000Y-112470000D02*
X188640000Y-112470000D01*
D97*
X168100000Y-77730000D02*
X167370000Y-77730000D01*
X175930000Y-86930000D02*
X175930000Y-85930000D01*
X172579999Y-91230001D02*
X174103884Y-91230001D01*
X194850000Y-113440000D02*
X193680000Y-113440000D01*
X269680000Y-74450000D02*
X268690000Y-74450000D01*
X167685000Y-86890000D02*
X167685000Y-86155000D01*
X174182500Y-102535000D02*
X174182500Y-103462500D01*
X202417298Y-108280000D02*
X202457300Y-108239998D01*
X223640000Y-80600000D02*
X221570000Y-80600000D01*
X217925000Y-88220000D02*
X218345000Y-88220000D01*
X127680000Y-89407236D02*
X128255831Y-88831405D01*
D96*
X134092500Y-86800000D02*
X132900000Y-86800000D01*
D97*
X142970000Y-80670000D02*
X142940000Y-80640000D01*
D98*
X244137500Y-71877500D02*
X244070000Y-71810000D01*
D97*
X234885000Y-94195000D02*
X234390000Y-93700000D01*
X212245000Y-84440000D02*
X211720000Y-84440000D01*
D99*
X179530000Y-111465000D02*
X179530000Y-112060000D01*
D97*
X214995000Y-76870000D02*
X214995000Y-76055000D01*
X211305000Y-92815000D02*
X211270000Y-92850000D01*
X221190000Y-85320000D02*
X221200000Y-85330000D01*
X176580000Y-92530000D02*
X175930000Y-92530000D01*
D99*
X188630000Y-108810000D02*
X188620000Y-108800000D01*
X187300000Y-100110000D02*
X187300000Y-99360000D01*
D97*
X235930000Y-88200000D02*
X235630000Y-88500000D01*
X229650000Y-95090000D02*
X230560000Y-95090000D01*
X193620000Y-114740000D02*
X193580000Y-114780000D01*
X126580000Y-77030000D02*
X126580000Y-76370000D01*
X128870000Y-95250000D02*
X128640000Y-95480000D01*
X138850000Y-86410000D02*
X139061372Y-86410000D01*
X166932500Y-91642500D02*
X166900000Y-91610000D01*
X231380001Y-88985001D02*
X231994999Y-88985001D01*
X190840000Y-79290000D02*
X190840000Y-78520000D01*
X224230000Y-87790000D02*
X223410000Y-87790000D01*
X235170000Y-85320000D02*
X234430000Y-84580000D01*
X142420000Y-82850000D02*
X142420000Y-81960000D01*
X171090000Y-101917500D02*
X172142500Y-102970000D01*
X269680000Y-73500000D02*
X268760000Y-73500000D01*
X134780000Y-77485000D02*
X134780000Y-76790000D01*
D96*
X130170000Y-89265473D02*
X130180000Y-89275473D01*
X130180000Y-89275473D02*
X130180000Y-90212500D01*
D97*
X212245000Y-85190000D02*
X212995000Y-85940000D01*
D96*
X128680000Y-90212500D02*
X128680000Y-88875811D01*
D99*
X189205000Y-108810000D02*
X188630000Y-108810000D01*
D97*
X268690000Y-74450000D02*
X268680000Y-74440000D01*
X172040000Y-92530000D02*
X172040000Y-91770000D01*
X181192500Y-98082500D02*
X181200000Y-98090000D01*
X127680000Y-90212500D02*
X127680000Y-89407236D01*
D96*
X130170000Y-88940000D02*
X130170000Y-89265473D01*
D97*
X172040000Y-91770000D02*
X172579999Y-91230001D01*
X173340000Y-86930000D02*
X173340000Y-87870000D01*
X220630000Y-81540000D02*
X221210000Y-80960000D01*
D96*
X121940000Y-88730000D02*
X121830000Y-88620000D01*
X121940000Y-89370000D02*
X121940000Y-88730000D01*
D97*
X221570000Y-80600000D02*
X221210000Y-80960000D01*
X212745000Y-87440000D02*
X212245000Y-87440000D01*
D99*
X179530000Y-112060000D02*
X179500000Y-112090000D01*
D97*
X236565000Y-88200000D02*
X235930000Y-88200000D01*
X139110000Y-92130000D02*
X139110000Y-92810000D01*
X235445000Y-80710000D02*
X234690000Y-80710000D01*
X147215000Y-84830000D02*
X148390000Y-84830000D01*
X251325000Y-97545000D02*
X251290000Y-97580000D01*
X211305000Y-91950000D02*
X211305000Y-92815000D01*
X202417298Y-112180000D02*
X202457300Y-112139998D01*
X192740000Y-87920000D02*
X191940000Y-87920000D01*
X183400000Y-77830000D02*
X184160000Y-77830000D01*
X196524999Y-110840001D02*
X196625000Y-110740000D01*
X202457299Y-110190000D02*
X202457300Y-110189999D01*
X122825000Y-94695000D02*
X122910000Y-94780000D01*
X128790000Y-77340000D02*
X128790000Y-76650000D01*
X134780000Y-76790000D02*
X134860000Y-76710000D01*
X243455000Y-88255000D02*
X243313064Y-88396936D01*
X148390000Y-84830000D02*
X148500000Y-84720000D01*
D99*
X188710000Y-110650000D02*
X188700000Y-110660000D01*
D97*
X177330000Y-82680000D02*
X178120000Y-82680000D01*
X184160000Y-77830000D02*
X184290000Y-77960000D01*
X128790000Y-76650000D02*
X128750000Y-76610000D01*
X217975000Y-74835000D02*
X217840000Y-74700000D01*
X220345000Y-85320000D02*
X221190000Y-85320000D01*
X143350000Y-86770000D02*
X143270000Y-86770000D01*
X122070000Y-94695000D02*
X122825000Y-94695000D01*
X175930000Y-91500000D02*
X175930000Y-92530000D01*
X212245000Y-87655000D02*
X211900000Y-88000000D01*
X176010000Y-90550000D02*
X176010000Y-91420000D01*
X208840000Y-102460000D02*
X209450000Y-103070000D01*
X229579999Y-88985001D02*
X229270001Y-88985001D01*
X243117500Y-79754721D02*
X242950764Y-79921457D01*
X212995000Y-86390000D02*
X211615000Y-87770000D01*
X239307500Y-86940000D02*
X240190000Y-86940000D01*
X131920000Y-94325000D02*
X131920000Y-95030000D01*
D98*
X249510000Y-81540000D02*
X250570000Y-81540000D01*
D97*
X212245000Y-84440000D02*
X212245000Y-85190000D01*
X211615000Y-87770000D02*
X210790000Y-87770000D01*
D96*
X124370000Y-86890000D02*
X124370000Y-87010000D01*
D97*
X194850000Y-112140001D02*
X193549999Y-112140001D01*
X220250000Y-81540000D02*
X220630000Y-81540000D01*
X229270001Y-88985001D02*
X229010000Y-88725000D01*
D98*
X241287500Y-72867500D02*
X241210000Y-72790000D01*
D97*
X170950000Y-101570000D02*
X171090000Y-101710000D01*
X139110000Y-92810000D02*
X139160000Y-92860000D01*
X212745000Y-84440000D02*
X212245000Y-84440000D01*
X126580000Y-76370000D02*
X126340000Y-76130000D01*
X177880000Y-86930000D02*
X177880000Y-87990000D01*
X172042500Y-82895000D02*
X171635000Y-82895000D01*
%TO.N,ETH_EXRES*%
D96*
X123590000Y-88420000D02*
X124210000Y-87800000D01*
X124210000Y-87800000D02*
X125767500Y-87800000D01*
X123590000Y-89370000D02*
X123590000Y-88420000D01*
%TO.N,AMP_BSPL*%
X204890002Y-110864998D02*
X205300000Y-110455000D01*
X203400761Y-110864998D02*
X204890002Y-110864998D01*
X202457300Y-110839998D02*
X202477298Y-110820000D01*
X203355763Y-110820000D02*
X203400761Y-110864998D01*
X202477298Y-110820000D02*
X203355763Y-110820000D01*
%TO.N,AMP_SW_NEG*%
D100*
X208140000Y-120440000D02*
X211260000Y-117320000D01*
X208640000Y-112005000D02*
X208820000Y-111825000D01*
D101*
X202457300Y-112789999D02*
X203662150Y-112789999D01*
D100*
X211260000Y-117320000D02*
X211260000Y-113480000D01*
D101*
X204170000Y-112282149D02*
X204170000Y-112030000D01*
X202457300Y-111489999D02*
X203629999Y-111489999D01*
D100*
X205300000Y-112005000D02*
X208640000Y-112005000D01*
D102*
X208500000Y-112005000D02*
X208680000Y-111825000D01*
D101*
X204195000Y-112005000D02*
X205300000Y-112005000D01*
X203662150Y-112789999D02*
X204170000Y-112282149D01*
X204170000Y-112030000D02*
X204195000Y-112005000D01*
D100*
X204640000Y-120440000D02*
X208140000Y-120440000D01*
D101*
X203629999Y-111489999D02*
X204170000Y-112030000D01*
D100*
X203790000Y-121290000D02*
X204640000Y-120440000D01*
D102*
X208680000Y-111825000D02*
X208820000Y-111825000D01*
D100*
X211260000Y-113480000D02*
X209605000Y-111825000D01*
X209605000Y-111825000D02*
X208820000Y-111825000D01*
%TO.N,24V_BENCH_PROTECTED*%
D103*
X261000000Y-110370000D02*
X271880000Y-110370000D01*
X262934000Y-90392000D02*
X257414000Y-90392000D01*
X264480000Y-90054000D02*
X263876000Y-89450000D01*
D101*
X256325000Y-96245000D02*
X256650000Y-96570000D01*
D103*
X272010000Y-110240000D02*
X272010000Y-96160000D01*
X257414000Y-90392000D02*
X255054000Y-88032000D01*
D101*
X254870000Y-96245000D02*
X256325000Y-96245000D01*
D103*
X263876000Y-88026000D02*
X263876000Y-86652000D01*
X272010000Y-96160000D02*
X263876000Y-88026000D01*
X263876000Y-89450000D02*
X262934000Y-90392000D01*
D104*
X257196000Y-74479500D02*
X256530500Y-74479500D01*
D103*
X255054000Y-75956000D02*
X256310000Y-74700000D01*
X259490000Y-108860000D02*
X261000000Y-110370000D01*
X259490000Y-99410000D02*
X259490000Y-108860000D01*
X255054000Y-88032000D02*
X255054000Y-75956000D01*
X271880000Y-110370000D02*
X272010000Y-110240000D01*
X256650000Y-96570000D02*
X259490000Y-99410000D01*
X264480000Y-90580000D02*
X264480000Y-90054000D01*
X263876000Y-89450000D02*
X263876000Y-86652000D01*
D104*
X256530500Y-74479500D02*
X256310000Y-74700000D01*
%TO.N,BENCH_OR_GATE*%
D102*
X258146000Y-75610000D02*
X258146000Y-74479500D01*
X256654000Y-84332000D02*
X256654000Y-77102000D01*
X256654000Y-77102000D02*
X258146000Y-75610000D01*
X258974000Y-86652000D02*
X256654000Y-84332000D01*
X259304000Y-86652000D02*
X258974000Y-86652000D01*
%TO.N,24V_OR*%
D99*
X244947500Y-82290000D02*
X244330000Y-82290000D01*
X245707500Y-80750000D02*
X245707500Y-81530000D01*
X245247500Y-80290000D02*
X245707500Y-80750000D01*
X244330000Y-80290000D02*
X245247500Y-80290000D01*
X245707500Y-81530000D02*
X244947500Y-82290000D01*
%TO.N,PDM_DATA3_CONN*%
D96*
X159330000Y-75330000D02*
X159630000Y-75030000D01*
X159330000Y-77805000D02*
X159330000Y-75330000D01*
%TO.N,PDM_DATA3*%
D97*
X147215000Y-98800000D02*
X152765000Y-98800000D01*
X145400000Y-98800000D02*
X145390000Y-98790000D01*
X152765000Y-98800000D02*
X159330000Y-92235000D01*
X159330000Y-92235000D02*
X159330000Y-79455000D01*
X147215000Y-98800000D02*
X145400000Y-98800000D01*
%TO.N,ETH_SPI_MOSI_MCU*%
X156850000Y-102840000D02*
X156600000Y-102590000D01*
X156850000Y-105000000D02*
X156850000Y-102840000D01*
%TO.N,ETH_SPI_MOSI*%
D99*
X136130000Y-83630000D02*
X135032410Y-83630000D01*
D97*
X137330000Y-82470000D02*
X137330000Y-82060000D01*
D99*
X136490000Y-83270000D02*
X136130000Y-83630000D01*
X134912410Y-83750000D02*
X134142500Y-83750000D01*
X156850000Y-106650000D02*
X155900000Y-105700000D01*
X155900000Y-103990000D02*
X155810000Y-103900000D01*
X155900000Y-105700000D02*
X155900000Y-103990000D01*
X136530000Y-83270000D02*
X136490000Y-83270000D01*
X135032410Y-83630000D02*
X134912410Y-83750000D01*
X134142500Y-83750000D02*
X134092500Y-83800000D01*
D97*
X136530000Y-83270000D02*
X137330000Y-82470000D01*
%TO.N,DAC_CP_P*%
D96*
X170562500Y-96430000D02*
X171390000Y-95602500D01*
X171390000Y-95602500D02*
X171390000Y-92530000D01*
%TO.N,DAC_CP_M*%
X172462500Y-96430000D02*
X172690000Y-96202500D01*
X172690000Y-96202500D02*
X172690000Y-92530000D01*
%TO.N,24V_AMP*%
D105*
X198850000Y-113560000D02*
X198850000Y-108337298D01*
X200679999Y-115389999D02*
X198850000Y-113560000D01*
D106*
X231325000Y-79320000D02*
X231325000Y-83645000D01*
D102*
X238717972Y-85629528D02*
X239307500Y-85040000D01*
D103*
X223872651Y-126280000D02*
X201790000Y-126280000D01*
D102*
X238717972Y-85846773D02*
X238717972Y-85629528D01*
D105*
X201547297Y-105640001D02*
X202457300Y-105640001D01*
D103*
X198630000Y-123120000D02*
X198630000Y-117850000D01*
D105*
X202457300Y-115389999D02*
X200679999Y-115389999D01*
X198850000Y-108337298D02*
X201547297Y-105640001D01*
D106*
X231325000Y-83645000D02*
X231185000Y-83785000D01*
D103*
X201790000Y-126280000D02*
X198630000Y-123120000D01*
X230060000Y-120092651D02*
X223872651Y-126280000D01*
D106*
X231185000Y-83785000D02*
X227180000Y-87790000D01*
%TO.N,24V_BENCH_RAW*%
X261970000Y-134090000D02*
X266470000Y-134090000D01*
D102*
X266470000Y-134090000D02*
X266540000Y-134020000D01*
X262520000Y-134640000D02*
X261970000Y-134090000D01*
D106*
X262520000Y-147960000D02*
X262520000Y-134640000D01*
%TO.N,3V3*%
D107*
X169235000Y-86890000D02*
X170700000Y-86890000D01*
D104*
X136200000Y-97440000D02*
X135046750Y-98593250D01*
X136200000Y-97040000D02*
X137475000Y-97040000D01*
D107*
X130095000Y-95575000D02*
X131640000Y-97120000D01*
D104*
X256112500Y-103832500D02*
X255780000Y-103500000D01*
X139620000Y-90580000D02*
X139110000Y-90580000D01*
D107*
X168037500Y-81270000D02*
X168070000Y-81270000D01*
D104*
X131930000Y-101500000D02*
X131930000Y-100593250D01*
D96*
X213245000Y-84440000D02*
X213245000Y-83735000D01*
D104*
X216875000Y-90325000D02*
X214665000Y-90325000D01*
D107*
X131690000Y-97120000D02*
X133521625Y-98951625D01*
D104*
X214665000Y-90325000D02*
X214495000Y-90155000D01*
X192070000Y-104495000D02*
X192070000Y-103190000D01*
D99*
X134092500Y-87300000D02*
X135990000Y-87300000D01*
D104*
X140505000Y-94010000D02*
X142475000Y-94010000D01*
D96*
X177330000Y-84580000D02*
X177330000Y-86830000D01*
D107*
X168070000Y-81270000D02*
X168630000Y-80710000D01*
D104*
X140930000Y-93585000D02*
X140930000Y-91890000D01*
X135046750Y-98593250D02*
X133930000Y-98593250D01*
D107*
X170700000Y-86890000D02*
X170740000Y-86930000D01*
D104*
X140102500Y-94412500D02*
X140505000Y-94010000D01*
X192070000Y-103800000D02*
X192070000Y-103190000D01*
X140102500Y-94412500D02*
X137475000Y-97040000D01*
D101*
X213245000Y-83735000D02*
X212695000Y-83185000D01*
D104*
X140102500Y-94412500D02*
X140930000Y-93585000D01*
D107*
X130095000Y-94439140D02*
X130095000Y-95575000D01*
D104*
X193165000Y-103090000D02*
X204255000Y-92000000D01*
X257080000Y-103832500D02*
X256112500Y-103832500D01*
D107*
X115620000Y-97025000D02*
X115715000Y-97120000D01*
D96*
X120608725Y-82096626D02*
X120130000Y-82575351D01*
D104*
X131930000Y-100593250D02*
X133930000Y-98593250D01*
D96*
X177330000Y-86830000D02*
X177230000Y-86930000D01*
D107*
X177330000Y-84580000D02*
X177330000Y-85820000D01*
D104*
X235395000Y-78160000D02*
X235415000Y-78180000D01*
X192070000Y-104495000D02*
X192070000Y-103800000D01*
X168670000Y-101050000D02*
X169707298Y-102087298D01*
X140930000Y-91890000D02*
X139620000Y-90580000D01*
D107*
X177330000Y-85820000D02*
X177230000Y-85920000D01*
D96*
X120130000Y-82575351D02*
X120130000Y-83170000D01*
D104*
X191970000Y-103090000D02*
X193165000Y-103090000D01*
D107*
X115715000Y-97120000D02*
X131640000Y-97120000D01*
X169235000Y-86890000D02*
X170190000Y-86890000D01*
D104*
X168525000Y-101050000D02*
X168670000Y-101050000D01*
X234207500Y-78160000D02*
X235395000Y-78160000D01*
X136200000Y-97040000D02*
X136200000Y-97440000D01*
X192070000Y-103190000D02*
X191970000Y-103090000D01*
D107*
X131640000Y-97120000D02*
X131690000Y-97120000D01*
X133521625Y-98951625D02*
X133521625Y-99001625D01*
D101*
X212695000Y-83185000D02*
X212420000Y-83185000D01*
D104*
X137475000Y-97040000D02*
X141455000Y-101020000D01*
%TO.N,3V3A_LDO*%
D101*
X186412500Y-95550000D02*
X186362500Y-95500000D01*
X186312500Y-95550000D02*
X186362500Y-95500000D01*
X184520000Y-95550000D02*
X186312500Y-95550000D01*
X186412500Y-97770000D02*
X186412500Y-95550000D01*
%TO.N,3V3A*%
D107*
X168832500Y-92680000D02*
X169690000Y-92680000D01*
X169690000Y-92680000D02*
X170590000Y-92680000D01*
X171539999Y-90430001D02*
X169690000Y-92280000D01*
X169690000Y-92280000D02*
X169690000Y-92680000D01*
X174800001Y-90430001D02*
X171539999Y-90430001D01*
D101*
X175280000Y-91360000D02*
X175280000Y-92530000D01*
D107*
X170590000Y-92680000D02*
X170740000Y-92530000D01*
X175280000Y-90910000D02*
X174800001Y-90430001D01*
X175280000Y-91360000D02*
X175280000Y-90910000D01*
%TO.N,ETH_TOCAP*%
D96*
X129083195Y-92790000D02*
X128870000Y-92790000D01*
X130680000Y-91193195D02*
X129083195Y-92790000D01*
X130680000Y-90212500D02*
X130680000Y-91193195D01*
%TO.N,STATUS_LED_K*%
X198765000Y-85020000D02*
X201303500Y-85020000D01*
X201583500Y-84740000D02*
X202446750Y-84740000D01*
X201303500Y-85020000D02*
X201583500Y-84740000D01*
%TO.N,STATUS_LED_A*%
X203688250Y-84705000D02*
X205281750Y-84705000D01*
X205281750Y-84705000D02*
X205361750Y-84625000D01*
X203653250Y-84740000D02*
X203688250Y-84705000D01*
%TO.N,5V*%
D102*
X217395000Y-85320000D02*
X218597500Y-86522500D01*
D107*
X221935000Y-94625000D02*
X221935000Y-92930000D01*
D101*
X215760000Y-86090000D02*
X214495000Y-86090000D01*
D102*
X218597500Y-86522500D02*
X221935000Y-89860000D01*
D107*
X234880000Y-92620000D02*
X235785000Y-93525000D01*
D101*
X216160000Y-86490000D02*
X215760000Y-86090000D01*
D107*
X234405492Y-96430000D02*
X223740000Y-96430000D01*
X223740000Y-96430000D02*
X221935000Y-94625000D01*
X235785000Y-95050492D02*
X234405492Y-96430000D01*
X235785000Y-93525000D02*
X235785000Y-95050492D01*
X234880000Y-92620000D02*
X234880000Y-90905000D01*
X234880000Y-90905000D02*
X234845000Y-90870000D01*
D102*
X221935000Y-89860000D02*
X221935000Y-92930000D01*
%TO.N,PHY_nRESET*%
D97*
X134010000Y-79910000D02*
X133535000Y-79910000D01*
X193040000Y-84370000D02*
X192995000Y-84415000D01*
D96*
X132680000Y-79575000D02*
X132940000Y-79315000D01*
D97*
X191571116Y-84415000D02*
X190820000Y-83663884D01*
D96*
X134500000Y-79315000D02*
X134780000Y-79035000D01*
D97*
X190820000Y-83663884D02*
X190820000Y-83165000D01*
D96*
X133850000Y-75040000D02*
X133850000Y-78105000D01*
X133600000Y-74790000D02*
X133850000Y-75040000D01*
D97*
X133535000Y-79910000D02*
X132940000Y-79315000D01*
D96*
X132680000Y-81887500D02*
X132680000Y-79575000D01*
D97*
X192995000Y-84415000D02*
X191571116Y-84415000D01*
D96*
X132940000Y-79315000D02*
X134500000Y-79315000D01*
X133850000Y-78105000D02*
X134780000Y-79035000D01*
%TO.N,ETH_SPI_CS_N*%
D97*
X146925000Y-94010000D02*
X147215000Y-93720000D01*
D99*
X144035000Y-93920000D02*
X144125000Y-94010000D01*
D97*
X144125000Y-94010000D02*
X146925000Y-94010000D01*
D99*
X144035000Y-93863530D02*
X144035000Y-93920000D01*
X135160000Y-85300000D02*
X134092500Y-85300000D01*
X143605735Y-93434265D02*
X144035000Y-93863530D01*
X135620000Y-85760000D02*
X135160000Y-85300000D01*
%TO.N,BUCK5_FB*%
D96*
X232120000Y-91510000D02*
X233230000Y-92620000D01*
X233230000Y-94475000D02*
X233235000Y-94480000D01*
X233230000Y-92620000D02*
X233230000Y-94475000D01*
X230979999Y-91510000D02*
X232120000Y-91510000D01*
%TO.N,BOOT_GPIO0*%
X176890000Y-90570000D02*
X177290000Y-90570000D01*
X180520000Y-87340000D02*
X180520000Y-79310000D01*
X181350000Y-72830000D02*
X181270000Y-72830000D01*
X177290000Y-90570000D02*
X180520000Y-87340000D01*
X180520000Y-79310000D02*
X179040000Y-77830000D01*
X179040000Y-75060000D02*
X179040000Y-77830000D01*
X166875000Y-101050000D02*
X166875000Y-100585000D01*
X181270000Y-72830000D02*
X179040000Y-75060000D01*
X166585000Y-101340000D02*
X166875000Y-101050000D01*
X166875000Y-100585000D02*
X167275000Y-100185000D01*
X164715000Y-101340000D02*
X166585000Y-101340000D01*
%TO.N,ESP_EN*%
X147215000Y-87370000D02*
X148265000Y-87370000D01*
D98*
X172460000Y-76560000D02*
X172460000Y-77730000D01*
D96*
X149450000Y-86185000D02*
X149450000Y-82960000D01*
D98*
X176270000Y-72830000D02*
X176190000Y-72830000D01*
D96*
X171970000Y-78220000D02*
X172460000Y-77730000D01*
D97*
X144900000Y-86770000D02*
X143040000Y-84910000D01*
D96*
X148265000Y-87370000D02*
X149450000Y-86185000D01*
D97*
X145500000Y-87370000D02*
X147215000Y-87370000D01*
D98*
X176190000Y-72830000D02*
X172460000Y-76560000D01*
D97*
X144900000Y-86770000D02*
X145500000Y-87370000D01*
D96*
X171530000Y-78220000D02*
X171970000Y-78220000D01*
D97*
X143040000Y-84910000D02*
X142695000Y-84910000D01*
D96*
X149450000Y-82960000D02*
X150050000Y-82360000D01*
%TO.N,PDM_CLK_MCU*%
X147125000Y-88550000D02*
X147215000Y-88640000D01*
X144990000Y-88550000D02*
X147125000Y-88550000D01*
%TO.N,PDM_DATA0*%
D97*
X145220000Y-89910000D02*
X145150000Y-89840000D01*
X151220000Y-86905000D02*
X148215000Y-89910000D01*
X148215000Y-89910000D02*
X147215000Y-89910000D01*
X147215000Y-89910000D02*
X145220000Y-89910000D01*
X151220000Y-80135000D02*
X151220000Y-86905000D01*
%TO.N,PDM_DATA1*%
X147215000Y-91180000D02*
X148215000Y-91180000D01*
X145040000Y-91190000D02*
X147205000Y-91190000D01*
X154300000Y-85095000D02*
X154300000Y-79745000D01*
X147205000Y-91190000D02*
X147215000Y-91180000D01*
X148215000Y-91180000D02*
X154300000Y-85095000D01*
%TO.N,PDM_DATA2*%
X156200000Y-79585000D02*
X156200000Y-84465000D01*
X145150000Y-92450000D02*
X145120000Y-92480000D01*
X147215000Y-92450000D02*
X145150000Y-92450000D01*
X148215000Y-92450000D02*
X147215000Y-92450000D01*
X156200000Y-84465000D02*
X148215000Y-92450000D01*
%TO.N,ETH_INT_N*%
D99*
X135230000Y-82850000D02*
X134880000Y-83200000D01*
X148465002Y-94030000D02*
X148465002Y-94376035D01*
X148465002Y-94376035D02*
X147851037Y-94990000D01*
X134880000Y-83200000D02*
X134192500Y-83200000D01*
X134192500Y-83200000D02*
X134092500Y-83300000D01*
X147851037Y-94990000D02*
X147215000Y-94990000D01*
%TO.N,I2C_SDA*%
D96*
X190030000Y-76870000D02*
X186890000Y-80010000D01*
D97*
X150300000Y-91490000D02*
X158340000Y-83450000D01*
D96*
X190060000Y-76870000D02*
X190030000Y-76870000D01*
X177230000Y-91540000D02*
X177230000Y-92530000D01*
D97*
X148215000Y-97530000D02*
X150300000Y-95445000D01*
D96*
X177380000Y-91380000D02*
X177380000Y-91390000D01*
X194920000Y-72520000D02*
X194960000Y-72520000D01*
X201370000Y-81120000D02*
X201755000Y-80735000D01*
X198765000Y-81120000D02*
X201370000Y-81120000D01*
X198027501Y-81120000D02*
X193670000Y-76762499D01*
X186890000Y-80010000D02*
X186890000Y-81880000D01*
X177380000Y-91390000D02*
X177230000Y-91540000D01*
X193670000Y-73770000D02*
X194920000Y-72520000D01*
D97*
X147215000Y-97530000D02*
X148215000Y-97530000D01*
D96*
X177390000Y-91380000D02*
X177380000Y-91380000D01*
D97*
X150300000Y-95445000D02*
X150300000Y-91490000D01*
D96*
X193670000Y-76762499D02*
X193670000Y-73770000D01*
X186890000Y-81880000D02*
X177390000Y-91380000D01*
D97*
X158340000Y-83450000D02*
X158340000Y-73780000D01*
D96*
X198765000Y-81120000D02*
X198027501Y-81120000D01*
D97*
X158340000Y-73780000D02*
X159630000Y-72490000D01*
%TO.N,I2S_BCLK*%
X153260000Y-99530000D02*
X151520000Y-101270000D01*
D96*
X175280000Y-86930000D02*
X175280000Y-80730000D01*
X175280000Y-80730000D02*
X175860000Y-80150000D01*
D97*
X174603504Y-89580380D02*
X175280000Y-88903884D01*
X175280000Y-88903884D02*
X175280000Y-86930000D01*
X151520000Y-101270000D02*
X151520000Y-102590000D01*
X171810380Y-89580380D02*
X174603504Y-89580380D01*
X153510000Y-99530000D02*
X153260000Y-99530000D01*
%TO.N,I2S_LRCLK*%
D96*
X153060000Y-101080000D02*
X153060000Y-102320000D01*
X173990000Y-88188256D02*
X173990000Y-86930000D01*
X154360000Y-99780000D02*
X153060000Y-101080000D01*
X173915478Y-88262778D02*
X173990000Y-88188256D01*
X173990000Y-81070000D02*
X173160000Y-80240000D01*
X173990000Y-86930000D02*
X173990000Y-81070000D01*
X153060000Y-102320000D02*
X152790000Y-102590000D01*
%TO.N,I2S_DATA*%
D97*
X174650000Y-86940000D02*
X174640000Y-86930000D01*
X174550000Y-88750000D02*
X174650000Y-88650000D01*
X174650000Y-88650000D02*
X174650000Y-86940000D01*
X155520000Y-100410000D02*
X154060000Y-101870000D01*
D96*
X174510000Y-80250000D02*
X174660000Y-80400000D01*
X174660000Y-80400000D02*
X174660000Y-86910000D01*
D97*
X154060000Y-101870000D02*
X154060000Y-102590000D01*
D96*
X174660000Y-86910000D02*
X174640000Y-86930000D01*
%TO.N,ETH_SPI_SCLK_MCU*%
D97*
X154890000Y-103030000D02*
X155330000Y-102590000D01*
X154890000Y-104985000D02*
X154890000Y-103030000D01*
%TO.N,ETH_SPI_MISO*%
D99*
X136250000Y-84250000D02*
X134142500Y-84250000D01*
X134142500Y-84250000D02*
X134092500Y-84300000D01*
X157870000Y-103510000D02*
X157870000Y-102590000D01*
X157520000Y-103860000D02*
X157870000Y-103510000D01*
X136490000Y-84120000D02*
X136380000Y-84120000D01*
X136380000Y-84120000D02*
X136250000Y-84250000D01*
%TO.N,I2C_SCL*%
D96*
X192670000Y-76469605D02*
X197970395Y-81770000D01*
X162170000Y-75030000D02*
X160290000Y-76910000D01*
D97*
X187520000Y-80320000D02*
X187520000Y-81990000D01*
D96*
X192670000Y-75320000D02*
X192670000Y-72770000D01*
D97*
X189740000Y-78240000D02*
X189600000Y-78240000D01*
D96*
X192670000Y-75320000D02*
X192670000Y-76469605D01*
X198765000Y-81770000D02*
X201050000Y-81770000D01*
X201050000Y-81770000D02*
X201795000Y-82515000D01*
D97*
X177880000Y-91630000D02*
X177880000Y-92530000D01*
X187520000Y-81990000D02*
X177880000Y-91630000D01*
D96*
X159140000Y-98520000D02*
X159140000Y-102590000D01*
D97*
X189600000Y-78240000D02*
X187520000Y-80320000D01*
D96*
X192670000Y-72770000D02*
X192420000Y-72520000D01*
X160290000Y-76910000D02*
X160290000Y-97370000D01*
X197970395Y-81770000D02*
X198765000Y-81770000D01*
X160290000Y-97370000D02*
X159140000Y-98520000D01*
%TO.N,IOX_nRESET*%
D97*
X193040000Y-81770000D02*
X192250000Y-81770000D01*
X188000000Y-83795000D02*
X188940000Y-82855000D01*
X192000000Y-82020000D02*
X189775000Y-82020000D01*
X188000000Y-84415000D02*
X188000000Y-83795000D01*
X192250000Y-81770000D02*
X192000000Y-82020000D01*
X165890000Y-96260000D02*
X165900000Y-96270000D01*
X189775000Y-82020000D02*
X188940000Y-82855000D01*
X164715000Y-96260000D02*
X165890000Y-96260000D01*
%TO.N,UART0_RX*%
D99*
X165520000Y-89910000D02*
X164715000Y-89910000D01*
X178810000Y-72830000D02*
X178810000Y-73250000D01*
X166870000Y-88560000D02*
X165520000Y-89910000D01*
X166870000Y-85190000D02*
X166870000Y-88560000D01*
X178810000Y-73250000D02*
X166870000Y-85190000D01*
%TO.N,UART0_TX*%
X166440000Y-85054314D02*
X170690000Y-80804314D01*
X173650000Y-72830000D02*
X173730000Y-72830000D01*
X164715000Y-88640000D02*
X165665000Y-88640000D01*
X170690000Y-75790000D02*
X173650000Y-72830000D01*
X166440000Y-87865000D02*
X166440000Y-85054314D01*
X170690000Y-80804314D02*
X170690000Y-75790000D01*
X165665000Y-88640000D02*
X166440000Y-87865000D01*
%TO.N,IOX_INT_N*%
X166640000Y-81270000D02*
X166880000Y-81510000D01*
X191840000Y-80320000D02*
X191990000Y-80470000D01*
X166040000Y-81617500D02*
X166387500Y-81270000D01*
X166040000Y-86995000D02*
X166040000Y-81617500D01*
X191990000Y-80470000D02*
X193040000Y-80470000D01*
X164715000Y-87370000D02*
X165665000Y-87370000D01*
X165665000Y-87370000D02*
X166040000Y-86995000D01*
X166387500Y-81270000D02*
X166640000Y-81270000D01*
%TO.N,RING_GPIO_SPARE*%
D96*
X163410000Y-85420000D02*
X164090000Y-86100000D01*
X164090000Y-86100000D02*
X164715000Y-86100000D01*
X162170000Y-72490000D02*
X163410000Y-73730000D01*
X163410000Y-73730000D02*
X163410000Y-85420000D01*
%TO.N,ETH_3V3A*%
X122730000Y-90475000D02*
X123555000Y-91300000D01*
X130922399Y-92191889D02*
X130920000Y-92189490D01*
X119330000Y-88820000D02*
X120985000Y-90475000D01*
X126947712Y-88300000D02*
X126978000Y-88330288D01*
X126947907Y-86800000D02*
X126977564Y-86829657D01*
X117640000Y-83410000D02*
X116040000Y-81810000D01*
X131180000Y-91400301D02*
X131180000Y-90212500D01*
X119330000Y-86520000D02*
X119330000Y-88820000D01*
X125767500Y-84800000D02*
X126946535Y-84800000D01*
X124340000Y-90515000D02*
X123555000Y-91300000D01*
X130920000Y-91660301D02*
X131180000Y-91400301D01*
X126946535Y-84800000D02*
X126980550Y-84834015D01*
X128180000Y-91430000D02*
X128110000Y-91500000D01*
X124340000Y-88886880D02*
X124340000Y-90515000D01*
X125767500Y-88300000D02*
X124926880Y-88300000D01*
X125767500Y-86800000D02*
X126947907Y-86800000D01*
X117640000Y-84830000D02*
X119330000Y-86520000D01*
X120985000Y-90475000D02*
X122730000Y-90475000D01*
X125767500Y-88300000D02*
X126947712Y-88300000D01*
X129180000Y-90212500D02*
X129180000Y-91398894D01*
X129180000Y-91398894D02*
X129172131Y-91406763D01*
X124926880Y-88300000D02*
X124340000Y-88886880D01*
X128180000Y-90212500D02*
X128180000Y-91430000D01*
X130920000Y-92189490D02*
X130920000Y-91660301D01*
X117640000Y-84830000D02*
X117640000Y-83410000D01*
%TO.N,ETH_TX_CT*%
X116990000Y-85099239D02*
X116990000Y-85050000D01*
X122070000Y-91465000D02*
X121905000Y-91300000D01*
X118830000Y-86890000D02*
X117420000Y-85480000D01*
X117370761Y-85480000D02*
X116990000Y-85099239D01*
X110515000Y-82069000D02*
X109400000Y-80954000D01*
X117420000Y-85480000D02*
X117370761Y-85480000D01*
X118830000Y-89220000D02*
X118830000Y-86890000D01*
X122070000Y-93145000D02*
X122070000Y-91465000D01*
X120910000Y-91300000D02*
X118830000Y-89220000D01*
X114009000Y-82069000D02*
X110515000Y-82069000D01*
X121905000Y-91300000D02*
X120910000Y-91300000D01*
X116990000Y-85050000D02*
X114009000Y-82069000D01*
%TO.N,POE_RECT_NEG*%
D107*
X108850000Y-136010000D02*
X114380000Y-136010000D01*
X107790000Y-130110000D02*
X109180000Y-131500000D01*
X105090000Y-122340000D02*
X105330000Y-122580000D01*
D101*
X109180000Y-131500000D02*
X109180000Y-135680000D01*
D107*
X105590000Y-137650000D02*
X107210000Y-137650000D01*
D101*
X109180000Y-135680000D02*
X108850000Y-136010000D01*
D107*
X105620000Y-130110000D02*
X107790000Y-130110000D01*
X105620000Y-122870000D02*
X105330000Y-122580000D01*
X105090000Y-114410000D02*
X105090000Y-122340000D01*
X107210000Y-137650000D02*
X108850000Y-136010000D01*
X114380000Y-136010000D02*
X114500000Y-136130000D01*
X105620000Y-130110000D02*
X105620000Y-122870000D01*
%TO.N,POE_MODE_A_AC1*%
X101370000Y-98340000D02*
X99750000Y-96720000D01*
X101370000Y-122850000D02*
X101370000Y-98340000D01*
X90680000Y-133540000D02*
X101370000Y-122850000D01*
X98210000Y-137650000D02*
X94790000Y-137650000D01*
X94790000Y-137650000D02*
X90680000Y-133540000D01*
X99750000Y-96720000D02*
X99750000Y-92640000D01*
%TO.N,ETH_25MHZ*%
D99*
X134912410Y-86350000D02*
X134142500Y-86350000D01*
X134142500Y-86350000D02*
X134092500Y-86300000D01*
X137200000Y-86410000D02*
X137150000Y-86360000D01*
X137150000Y-86360000D02*
X134922410Y-86360000D01*
X134922410Y-86360000D02*
X134912410Y-86350000D01*
%TO.N,POE_MODE_A_AC2*%
D107*
X98360000Y-144990000D02*
X101240000Y-142110000D01*
X101240000Y-142110000D02*
X101240000Y-132130000D01*
X98240000Y-129570000D02*
X98240000Y-130110000D01*
X101120000Y-96070000D02*
X101120000Y-96210000D01*
X101240000Y-132130000D02*
X99220000Y-130110000D01*
X101120000Y-96210000D02*
X102500000Y-97590000D01*
X102500000Y-125310000D02*
X98240000Y-129570000D01*
X99220000Y-130110000D02*
X98240000Y-130110000D01*
X102500000Y-97590000D02*
X102500000Y-125310000D01*
%TO.N,POE_RECT_POS*%
X88560000Y-131860000D02*
X90780000Y-129640000D01*
X108850000Y-141150000D02*
X112020000Y-141150000D01*
X122500000Y-112620000D02*
X124937500Y-112620000D01*
X123340000Y-112620000D02*
X122500000Y-112620000D01*
X118672500Y-112620000D02*
X122500000Y-112620000D01*
X126977500Y-126192500D02*
X126977500Y-110580000D01*
X113582500Y-111220000D02*
X117272500Y-111220000D01*
X117272500Y-111220000D02*
X118672500Y-112620000D01*
X103620000Y-147110000D02*
X105740000Y-144990000D01*
X88660000Y-127520000D02*
X88660000Y-119970000D01*
X90680000Y-140920000D02*
X88560000Y-138800000D01*
X114500000Y-138670000D02*
X126977500Y-126192500D01*
X124062500Y-110830000D02*
X124062500Y-111897500D01*
X108850000Y-141150000D02*
X108850000Y-143550000D01*
X90680000Y-140920000D02*
X96870000Y-147110000D01*
X108850000Y-143550000D02*
X109280000Y-143980000D01*
X112020000Y-141150000D02*
X114500000Y-138670000D01*
X96870000Y-147110000D02*
X103620000Y-147110000D01*
X108850000Y-141880000D02*
X105740000Y-144990000D01*
X88560000Y-138800000D02*
X88560000Y-131860000D01*
X124062500Y-111897500D02*
X123340000Y-112620000D01*
X124937500Y-112620000D02*
X126977500Y-110580000D01*
X108850000Y-141150000D02*
X108850000Y-141880000D01*
X88660000Y-119970000D02*
X90070000Y-118560000D01*
X90780000Y-129640000D02*
X88660000Y-127520000D01*
%TO.N,AMP_PLIMIT*%
D98*
X190935002Y-108890002D02*
X194850000Y-108890002D01*
X189975000Y-109690000D02*
X190855000Y-108810000D01*
X182590000Y-109730000D02*
X182630000Y-109690000D01*
X190855000Y-108810000D02*
X190935002Y-108890002D01*
X179530000Y-109915000D02*
X182405000Y-109915000D01*
X182630000Y-109690000D02*
X189975000Y-109690000D01*
%TO.N,AT_DET_PRIMARY*%
D107*
X108050000Y-106640000D02*
X108050000Y-121570000D01*
X108050000Y-121570000D02*
X112450000Y-125970000D01*
X112450000Y-125970000D02*
X114500000Y-125970000D01*
%TO.N,24V_POE*%
D105*
X276434000Y-83672000D02*
X276434000Y-77924000D01*
X273406000Y-86502000D02*
X273604000Y-86502000D01*
X276434000Y-77924000D02*
X273320000Y-74810000D01*
X273604000Y-86502000D02*
X276434000Y-83672000D01*
X273320000Y-74810000D02*
X273020000Y-74810000D01*
D101*
X271955000Y-74450000D02*
X272660000Y-74450000D01*
X272660000Y-74450000D02*
X273020000Y-74810000D01*
%TO.N,POE_AT_DET*%
D107*
X115620000Y-98675000D02*
X115670000Y-98725000D01*
D97*
X191975213Y-85695000D02*
X193015000Y-85695000D01*
X193015000Y-85695000D02*
X193040000Y-85670000D01*
D107*
X115670000Y-98725000D02*
X115670000Y-104080000D01*
%TO.N,BENCH_PASS_GATE*%
D101*
X255175000Y-95290000D02*
X257980000Y-95290000D01*
X259985000Y-97295000D02*
X262892500Y-97295000D01*
X262892500Y-97295000D02*
X262897500Y-97290000D01*
D100*
X261560000Y-99760000D02*
X262957500Y-99760000D01*
D97*
X254870000Y-95595000D02*
X255025000Y-95440000D01*
D104*
X262957500Y-99760000D02*
X262987500Y-99730000D01*
X246170000Y-99460000D02*
X246240000Y-99390000D01*
D101*
X262987500Y-99730000D02*
X262987500Y-97380000D01*
D104*
X245232500Y-99460000D02*
X246170000Y-99460000D01*
D101*
X255025000Y-95440000D02*
X255175000Y-95290000D01*
D96*
X262987500Y-97380000D02*
X262897500Y-97290000D01*
D101*
X257980000Y-95290000D02*
X259985000Y-97295000D01*
%TO.N,BENCH_RAMP*%
X264625000Y-94160000D02*
X264625000Y-97192500D01*
D96*
X264625000Y-97192500D02*
X264722500Y-97290000D01*
%TO.N,AMP_BSPR*%
D98*
X202457300Y-106939998D02*
X205154998Y-106939998D01*
D97*
X205154998Y-106939998D02*
X205360000Y-107145000D01*
%TO.N,AMP_SW_POS*%
D100*
X210025000Y-108175000D02*
X208870000Y-108175000D01*
D101*
X203662150Y-107590000D02*
X204100000Y-108027850D01*
D100*
X210830000Y-108970000D02*
X210820000Y-108970000D01*
X215675000Y-121125000D02*
X215675000Y-113835000D01*
D101*
X203590001Y-108889999D02*
X202457300Y-108889999D01*
D102*
X208855000Y-108160000D02*
X208870000Y-108175000D01*
D101*
X205360000Y-108695000D02*
X203785000Y-108695000D01*
D100*
X205360000Y-108695000D02*
X205695000Y-108360000D01*
X210830000Y-108990000D02*
X210830000Y-108970000D01*
X205695000Y-108360000D02*
X208685000Y-108360000D01*
X208685000Y-108360000D02*
X208870000Y-108175000D01*
X215510000Y-121290000D02*
X215675000Y-121125000D01*
X215675000Y-113835000D02*
X210830000Y-108990000D01*
D101*
X202457300Y-107590000D02*
X203662150Y-107590000D01*
X204100000Y-108380000D02*
X203785000Y-108695000D01*
X203785000Y-108695000D02*
X203590001Y-108889999D01*
D100*
X210820000Y-108970000D02*
X210025000Y-108175000D01*
D101*
X204100000Y-108027850D02*
X204100000Y-108380000D01*
%TO.N,PHY_LED_A*%
D97*
X136200000Y-94163250D02*
X136670000Y-93693250D01*
X136200000Y-95390000D02*
X136200000Y-94163250D01*
%TO.N,BENCH_GATE_A*%
D96*
X243407500Y-106152500D02*
X241860000Y-107700000D01*
X243407500Y-99460000D02*
X243407500Y-106152500D01*
%TO.N,BT4_LED_A*%
D107*
X130529697Y-110580000D02*
X129902500Y-110580000D01*
X132980000Y-108129697D02*
X130529697Y-110580000D01*
X136790000Y-107230000D02*
X135890303Y-108129697D01*
X135890303Y-108129697D02*
X132980000Y-108129697D01*
%TO.N,POE_BT4_DET*%
D97*
X192103342Y-86970000D02*
X192005412Y-87067930D01*
D107*
X143105000Y-101020000D02*
X143105000Y-103475000D01*
D97*
X193040000Y-86970000D02*
X192103342Y-86970000D01*
D107*
X143105000Y-103475000D02*
X144410000Y-104780000D01*
X144410000Y-104780000D02*
X144410000Y-107210000D01*
%TO.N,SPK_NEG*%
D108*
X209180000Y-147070000D02*
X209180000Y-135325000D01*
X209180000Y-135325000D02*
X209225000Y-135280000D01*
X208610000Y-147640000D02*
X209180000Y-147070000D01*
X207980000Y-147640000D02*
X208610000Y-147640000D01*
X209225000Y-135280000D02*
X209225000Y-134175000D01*
X209225000Y-134175000D02*
X205840000Y-130790000D01*
X205840000Y-130790000D02*
X203790000Y-130790000D01*
%TO.N,AMP_GVDD*%
D98*
X189930000Y-111590000D02*
X182800000Y-111590000D01*
X194850000Y-109540001D02*
X191979999Y-109540001D01*
X182800000Y-111590000D02*
X182660000Y-111450000D01*
X190870000Y-110650000D02*
X189930000Y-111590000D01*
X191979999Y-109540001D02*
X190870000Y-110650000D01*
%TO.N,ETH_SPI_SCLK*%
D97*
X134422764Y-81450000D02*
X132570000Y-83302764D01*
D99*
X154890000Y-106550000D02*
X154890000Y-106635000D01*
D97*
X132570000Y-84140000D02*
X133230000Y-84800000D01*
X134970000Y-81450000D02*
X134422764Y-81450000D01*
D99*
X135910000Y-84900000D02*
X135810000Y-84800000D01*
X135810000Y-84800000D02*
X134092500Y-84800000D01*
X153870000Y-105380000D02*
X153870000Y-105530000D01*
D97*
X132570000Y-83302764D02*
X132570000Y-84140000D01*
D99*
X153870000Y-105530000D02*
X154890000Y-106550000D01*
D97*
X133230000Y-84800000D02*
X134092500Y-84800000D01*
%TO.N,EXP_GPIO0*%
D96*
X198765000Y-86320000D02*
X197600000Y-86320000D01*
X189840000Y-72520000D02*
X189880000Y-72520000D01*
X196090000Y-84810000D02*
X196090000Y-81710000D01*
X189740000Y-75360000D02*
X189740000Y-72620000D01*
X189740000Y-72620000D02*
X189840000Y-72520000D01*
X197600000Y-86320000D02*
X196090000Y-84810000D01*
X196090000Y-81710000D02*
X189740000Y-75360000D01*
%TO.N,EXP_GPIO1*%
X190495000Y-75135000D02*
X196690000Y-81330000D01*
X196690000Y-84540000D02*
X197820000Y-85670000D01*
X197820000Y-85670000D02*
X198765000Y-85670000D01*
X196690000Y-81330000D02*
X196690000Y-84540000D01*
%TO.N,BUCK3V3_SW*%
D98*
X211495000Y-85690000D02*
X210440000Y-85690000D01*
X210890000Y-86140000D02*
X211495000Y-86140000D01*
D104*
X205390000Y-88690000D02*
X208505000Y-85575000D01*
X208505000Y-85575000D02*
X210325000Y-85575000D01*
X204255000Y-88690000D02*
X205390000Y-88690000D01*
D98*
X210325000Y-85575000D02*
X210440000Y-85690000D01*
X211495000Y-85190000D02*
X211495000Y-86140000D01*
X211495000Y-85190000D02*
X210710000Y-85190000D01*
X210440000Y-85690000D02*
X210890000Y-86140000D01*
X210710000Y-85190000D02*
X210325000Y-85575000D01*
%TO.N,PDM_CLK*%
D97*
X141595000Y-77625000D02*
X141595000Y-86805000D01*
X149470000Y-75030000D02*
X148105000Y-73665000D01*
X143340000Y-88550000D02*
X142100000Y-88550000D01*
X145555000Y-73665000D02*
X141595000Y-77625000D01*
X148105000Y-73665000D02*
X145555000Y-73665000D01*
X141595000Y-86805000D02*
X143340000Y-88550000D01*
X142100000Y-88550000D02*
X141740000Y-88910000D01*
%TO.N,PDM_DATA0_CONN*%
D96*
X151220000Y-78485000D02*
X151220000Y-75820000D01*
X151220000Y-75820000D02*
X152010000Y-75030000D01*
%TO.N,PDM_DATA1_CONN*%
X154300000Y-78095000D02*
X154300000Y-75280000D01*
X154300000Y-75280000D02*
X154550000Y-75030000D01*
%TO.N,PDM_DATA2_CONN*%
X156200000Y-77935000D02*
X156200000Y-75920000D01*
X156200000Y-75920000D02*
X157090000Y-75030000D01*
%TO.N,AMP_ENABLE_CMD*%
X194400000Y-82360000D02*
X194340000Y-82420000D01*
X234570000Y-82980000D02*
X234540000Y-82950000D01*
X235535000Y-82980000D02*
X234570000Y-82980000D01*
X194340000Y-82420000D02*
X193040000Y-82420000D01*
%TO.N,AMP_MUTE*%
D97*
X196000000Y-112789999D02*
X194850000Y-112789999D01*
X194070000Y-83110000D02*
X193080000Y-83110000D01*
X193080000Y-83110000D02*
X193040000Y-83070000D01*
%TO.N,DAC_XSMT*%
X172690000Y-86930000D02*
X172690000Y-85802500D01*
X192970000Y-83790000D02*
X193040000Y-83720000D01*
X172690000Y-85802500D02*
X172692500Y-85800000D01*
X191830000Y-83790000D02*
X192970000Y-83790000D01*
%TO.N,AMP_FAULTZ*%
D96*
X194260000Y-85060000D02*
X193080000Y-85060000D01*
X192070000Y-106145000D02*
X192865001Y-106940001D01*
X193030000Y-106940001D02*
X194850000Y-106940001D01*
X194525002Y-103689998D02*
X197147300Y-103689998D01*
X193080000Y-85060000D02*
X193040000Y-85020000D01*
X192865001Y-106940001D02*
X193030000Y-106940001D01*
X193030000Y-106620000D02*
X193210000Y-106440000D01*
X193030000Y-106940001D02*
X193030000Y-106620000D01*
X192070000Y-106145000D02*
X194525002Y-103689998D01*
%TO.N,POE_BT3_DET*%
D97*
X191220000Y-86330000D02*
X191230000Y-86320000D01*
D101*
X130280000Y-101520000D02*
X128840000Y-102960000D01*
D97*
X191230000Y-86320000D02*
X193040000Y-86320000D01*
D101*
X130280000Y-101500000D02*
X130280000Y-101520000D01*
%TO.N,5V_PG*%
X200130000Y-88000000D02*
X199860000Y-87730000D01*
X232030000Y-90785000D02*
X232035000Y-90785000D01*
D96*
X233110000Y-90785000D02*
X233195000Y-90870000D01*
D101*
X199860000Y-87730000D02*
X199860000Y-87720000D01*
D96*
X231380001Y-90785000D02*
X232030000Y-90785000D01*
D101*
X199860000Y-87720000D02*
X199760000Y-87620000D01*
X199760000Y-87620000D02*
X198765000Y-87620000D01*
D96*
X232030000Y-90785000D02*
X233110000Y-90785000D01*
%TO.N,3V3_PG*%
D104*
X209145000Y-88290000D02*
X209145000Y-88035000D01*
X209145000Y-88290000D02*
X209145000Y-87885000D01*
D96*
X198765000Y-86970000D02*
X199915585Y-86970000D01*
X211495000Y-86690000D02*
X210650000Y-86690000D01*
D104*
X209145000Y-87885000D02*
X210170000Y-86860000D01*
X209145000Y-88035000D02*
X208880000Y-87770000D01*
D96*
X199915585Y-86970000D02*
X199981982Y-86903603D01*
X210650000Y-86690000D02*
X210480000Y-86860000D01*
D104*
X210170000Y-86860000D02*
X210480000Y-86860000D01*
%TO.N,POE_MODE_B_AC2*%
D107*
X97630000Y-122260000D02*
X97950000Y-122580000D01*
X98170000Y-81460000D02*
X98210000Y-81460000D01*
X100150000Y-99780000D02*
X96530000Y-96160000D01*
X96530000Y-96160000D02*
X96530000Y-83100000D01*
X100150000Y-120380000D02*
X100150000Y-99780000D01*
X96530000Y-83100000D02*
X98170000Y-81460000D01*
X90780000Y-122260000D02*
X97630000Y-122260000D01*
X97950000Y-122580000D02*
X100150000Y-120380000D01*
%TO.N,BENCH_GATE_B*%
D100*
X262860000Y-107700000D02*
X264812500Y-105747500D01*
X264812500Y-105747500D02*
X264812500Y-99730000D01*
%TO.N,ETH_TX_P*%
D109*
X123151800Y-78418666D02*
X123151800Y-82428666D01*
D110*
X123151800Y-82428666D02*
X123085477Y-82428666D01*
D109*
X125168200Y-83788200D02*
X125180000Y-83800000D01*
X123151800Y-82428666D02*
X124511334Y-83788200D01*
X120862266Y-77974600D02*
X122707734Y-77974600D01*
X120368200Y-78468666D02*
X120862266Y-77974600D01*
X124511334Y-83788200D02*
X125168200Y-83788200D01*
D110*
X123085477Y-82428666D02*
X123038580Y-82475563D01*
D109*
X120368200Y-79020699D02*
X120368200Y-78468666D01*
X122707734Y-77974600D02*
X123151800Y-78418666D01*
X121080000Y-79732499D02*
X120368200Y-79020699D01*
X125180000Y-83800000D02*
X125767500Y-83800000D01*
X121080000Y-80670000D02*
X121080000Y-79732499D01*
%TO.N,ETH_TX_N*%
X123628200Y-82231334D02*
X124708666Y-83311800D01*
X125168200Y-83311800D02*
X125180000Y-83300000D01*
X120664934Y-77498200D02*
X122905066Y-77498200D01*
X125180000Y-83300000D02*
X125767500Y-83300000D01*
X124708666Y-83311800D02*
X125168200Y-83311800D01*
X119180000Y-80670000D02*
X119180000Y-79732499D01*
X119180000Y-79732499D02*
X119891800Y-79020699D01*
X123628200Y-78221334D02*
X123628200Y-82231334D01*
X119891800Y-78271334D02*
X120664934Y-77498200D01*
X119891800Y-79020699D02*
X119891800Y-78271334D01*
D110*
X123719373Y-82231334D02*
X123790000Y-82160707D01*
X123628200Y-82231334D02*
X123719373Y-82231334D01*
D109*
X122905066Y-77498200D02*
X123628200Y-78221334D01*
%TO.N,ETH_RX_P*%
X122463433Y-86293433D02*
X122968666Y-85788200D01*
X119180000Y-84107501D02*
X119891800Y-84819301D01*
X122968666Y-85788200D02*
X124649449Y-85788200D01*
X124661249Y-85800000D02*
X125767500Y-85800000D01*
X124649449Y-85788200D02*
X124661249Y-85800000D01*
X119891800Y-84819301D02*
X119891800Y-85677677D01*
D110*
X122463433Y-86293433D02*
X122420000Y-86336866D01*
D109*
X119180000Y-83170000D02*
X119180000Y-84107501D01*
X122328666Y-86428200D02*
X122463433Y-86293433D01*
X119891800Y-85677677D02*
X120642323Y-86428200D01*
X120642323Y-86428200D02*
X122328666Y-86428200D01*
D110*
X122420000Y-86336866D02*
X122420000Y-86590000D01*
%TO.N,ETH_RX_N*%
D109*
X122356567Y-85726567D02*
X122771334Y-85311800D01*
X124661249Y-85300000D02*
X125767500Y-85300000D01*
X120368200Y-85480345D02*
X120839655Y-85951800D01*
X121080000Y-84107501D02*
X120368200Y-84819301D01*
X120368200Y-84819301D02*
X120368200Y-85480345D01*
X120839655Y-85951800D02*
X122131334Y-85951800D01*
X124649449Y-85311800D02*
X124661249Y-85300000D01*
X122131334Y-85951800D02*
X122356567Y-85726567D01*
D110*
X122290000Y-85660000D02*
X121980000Y-85660000D01*
X122356567Y-85726567D02*
X122290000Y-85660000D01*
D109*
X122771334Y-85311800D02*
X124649449Y-85311800D01*
X121080000Y-83170000D02*
X121080000Y-84107501D01*
%TO.N,AMP_BSNR*%
D96*
X208684998Y-109539998D02*
X202457300Y-109539998D01*
D97*
X208870000Y-109725000D02*
X208684998Y-109539998D01*
%TO.N,EFUSE_ILIM*%
X241287500Y-75592500D02*
X241287500Y-76950000D01*
X241287500Y-76950000D02*
X242117500Y-77780000D01*
X242117500Y-77780000D02*
X242117500Y-79077500D01*
%TO.N,BENCH_FAULT_N*%
D96*
X254870000Y-96895000D02*
X255479999Y-96895000D01*
X257080000Y-102007500D02*
X257080000Y-100420000D01*
X256110000Y-97525001D02*
X256110000Y-99450000D01*
X257080000Y-100420000D02*
X256140000Y-99480000D01*
X256110000Y-99450000D02*
X256140000Y-99480000D01*
X255479999Y-96895000D02*
X256110000Y-97525001D01*
%TO.N,PHY_SPEED_LED_A*%
D97*
X133960000Y-95272750D02*
X133930000Y-95302750D01*
X133930000Y-95302750D02*
X133930000Y-97386750D01*
X133960000Y-94180000D02*
X133960000Y-95272750D01*
%TO.N,SPK_POS*%
D108*
X212175000Y-135280000D02*
X212180000Y-135285000D01*
X212175000Y-133500000D02*
X214885000Y-130790000D01*
X212180000Y-147390000D02*
X212430000Y-147640000D01*
X214885000Y-130790000D02*
X215510000Y-130790000D01*
X212430000Y-147640000D02*
X213060000Y-147640000D01*
X212175000Y-135280000D02*
X212175000Y-133500000D01*
X212180000Y-135285000D02*
X212180000Y-147390000D01*
%TO.N,DAC_OUT_FILTERED*%
D96*
X177782500Y-99970000D02*
X178572500Y-100760000D01*
X174282500Y-100885000D02*
X174182500Y-100985000D01*
X174282500Y-97535000D02*
X174282500Y-100885000D01*
X174182500Y-100985000D02*
X175197500Y-99970000D01*
X175197500Y-99970000D02*
X177782500Y-99970000D01*
%TO.N,AMP_IN_P*%
D109*
X178572500Y-102660000D02*
X177610700Y-103621800D01*
X194763200Y-107676802D02*
X192053668Y-107676802D01*
X179378666Y-106431800D02*
X178448433Y-105501567D01*
X194850000Y-107590002D02*
X194763200Y-107676802D01*
X177610700Y-103621800D02*
X177610700Y-104663834D01*
X177610700Y-104663834D02*
X178448433Y-105501567D01*
X192053668Y-107676802D02*
X190808666Y-106431800D01*
X190808666Y-106431800D02*
X179378666Y-106431800D01*
%TO.N,BT3_LED_A*%
D107*
X121930000Y-102980000D02*
X121220000Y-102980000D01*
X121190000Y-110830000D02*
X124450000Y-107570000D01*
X124450000Y-105500000D02*
X121930000Y-102980000D01*
X121137500Y-110830000D02*
X121190000Y-110830000D01*
X124450000Y-107570000D02*
X124450000Y-105500000D01*
%TO.N,AMP_GAIN*%
D98*
X190980000Y-112470000D02*
X190980000Y-112220000D01*
X190980000Y-112220000D02*
X193009998Y-110190002D01*
X193009998Y-110190002D02*
X194850000Y-110190002D01*
%TO.N,EFUSE_OV*%
X247475000Y-76860000D02*
X244720000Y-76860000D01*
X247545000Y-76930000D02*
X247475000Y-76860000D01*
X244720000Y-76860000D02*
X243642500Y-77937500D01*
X243642500Y-77937500D02*
X243642500Y-79077500D01*
X247545000Y-79170000D02*
X247545000Y-76930000D01*
%TO.N,BENCH_FUSED*%
D96*
X253310000Y-107940000D02*
X251010000Y-110240000D01*
D101*
X253290000Y-98320000D02*
X253310000Y-98340000D01*
D108*
X253310000Y-98340000D02*
X253310000Y-107940000D01*
D96*
X251457500Y-94802500D02*
X251457500Y-92400000D01*
D106*
X261970000Y-129430000D02*
X261970000Y-123690000D01*
D96*
X248170000Y-91220000D02*
X249062500Y-92112500D01*
D106*
X262180000Y-121410000D02*
X251010000Y-110240000D01*
D96*
X244240000Y-93907500D02*
X244240000Y-91774544D01*
X243297500Y-94850000D02*
X244240000Y-93907500D01*
X244794544Y-91220000D02*
X248170000Y-91220000D01*
X252250000Y-95595000D02*
X251457500Y-94802500D01*
X244240000Y-91774544D02*
X244794544Y-91220000D01*
X251357500Y-92500000D02*
X251457500Y-92400000D01*
X253290000Y-96025001D02*
X252859999Y-95595000D01*
X253290000Y-98320000D02*
X253290000Y-96025001D01*
D106*
X262180000Y-123480000D02*
X262180000Y-121410000D01*
D96*
X252859999Y-95595000D02*
X252250000Y-95595000D01*
X261970000Y-123690000D02*
X262180000Y-123480000D01*
X249062500Y-92112500D02*
X249062500Y-92500000D01*
X249062500Y-92500000D02*
X251357500Y-92500000D01*
%TO.N,BENCH_COMMON_SOURCE*%
D102*
X241040000Y-113600000D02*
X241860000Y-112780000D01*
X259950000Y-112780000D02*
X259670000Y-113060000D01*
X262860000Y-112780000D02*
X259950000Y-112780000D01*
X241040000Y-114540000D02*
X241040000Y-113600000D01*
%TO.N,AT_LED_A*%
D107*
X110657500Y-111220000D02*
X110657500Y-108137500D01*
X110680000Y-108115000D02*
X110680000Y-106730000D01*
X110680000Y-106730000D02*
X108050000Y-104100000D01*
X110657500Y-108137500D02*
X110680000Y-108115000D01*
%TO.N,AMP_SDZ*%
D96*
X196937296Y-106290002D02*
X194850000Y-106290002D01*
X237830000Y-86230000D02*
X237240000Y-85640000D01*
D101*
X237240000Y-85320000D02*
X237240000Y-83100000D01*
D97*
X237360000Y-82547500D02*
X237360000Y-82980000D01*
D96*
X203997298Y-99230000D02*
X234840000Y-99230000D01*
X237830000Y-96240000D02*
X237830000Y-86230000D01*
D101*
X237240000Y-83100000D02*
X237360000Y-82980000D01*
D96*
X199497300Y-103729998D02*
X196937296Y-106290002D01*
D97*
X238617500Y-81290000D02*
X237360000Y-82547500D01*
D96*
X234840000Y-99230000D02*
X237830000Y-96240000D01*
X199497300Y-103729998D02*
X203997298Y-99230000D01*
D97*
X240405000Y-81290000D02*
X238617500Y-81290000D01*
D96*
X237240000Y-85640000D02*
X237240000Y-85320000D01*
%TO.N,EFUSE_PGTH*%
D101*
X237270000Y-80092500D02*
X237270000Y-80710000D01*
D97*
X237350000Y-80790000D02*
X237270000Y-80710000D01*
D101*
X236547500Y-79370000D02*
X237270000Y-80092500D01*
X233150000Y-79320000D02*
X233200000Y-79370000D01*
X233200000Y-79370000D02*
X236547500Y-79370000D01*
D97*
X240405000Y-80790000D02*
X237350000Y-80790000D01*
%TO.N,POE_MODE_B_AC1*%
D107*
X98390000Y-113730000D02*
X97710000Y-114410000D01*
X94480000Y-111180000D02*
X97710000Y-114410000D01*
X98390000Y-100250000D02*
X98390000Y-113730000D01*
X90070000Y-111180000D02*
X94480000Y-111180000D01*
%TO.N,PHY_LINK_LED*%
D97*
X135460000Y-90720000D02*
X135460000Y-89300000D01*
X134960000Y-88800000D02*
X134092500Y-88800000D01*
X136670000Y-92486750D02*
X136670000Y-91930000D01*
X135460000Y-89300000D02*
X134960000Y-88800000D01*
X136670000Y-91930000D02*
X135460000Y-90720000D01*
%TO.N,BENCH_OV*%
D96*
X245132500Y-97120000D02*
X245132500Y-94860000D01*
X245132500Y-94860000D02*
X245122500Y-94850000D01*
X245357500Y-96895000D02*
X252250000Y-96895000D01*
X245132500Y-97120000D02*
X245357500Y-96895000D01*
%TO.N,DAC_OUT_L*%
X173990000Y-95592500D02*
X174282500Y-95885000D01*
X173990000Y-92530000D02*
X173990000Y-95592500D01*
%TO.N,BENCH_UV*%
X250982500Y-96245000D02*
X252250000Y-96245000D01*
X245102500Y-92480000D02*
X247217500Y-92480000D01*
X247217500Y-92480000D02*
X247237500Y-92500000D01*
X247237500Y-92500000D02*
X250982500Y-96245000D01*
%TO.N,BENCH_SHDN*%
X253810000Y-97094999D02*
X253810000Y-93640000D01*
X254870000Y-97545000D02*
X254260001Y-97545000D01*
X253810000Y-93640000D02*
X253282500Y-93112500D01*
X254260001Y-97545000D02*
X253810000Y-97094999D01*
X253282500Y-93112500D02*
X253282500Y-92400000D01*
%TO.N,DAC_VNEG*%
X173340000Y-92530000D02*
X173340000Y-99872500D01*
X173340000Y-99872500D02*
X172142500Y-101070000D01*
%TO.N,DAC_1V8*%
X172042500Y-84445000D02*
X172042500Y-86927500D01*
X172042500Y-86927500D02*
X172040000Y-86930000D01*
%TO.N,ETH_1V2*%
X131680000Y-90212500D02*
X131680000Y-92535000D01*
X131680000Y-92535000D02*
X131920000Y-92775000D01*
%TO.N,PHY_SPEED_LED*%
D97*
X132680000Y-91240000D02*
X132680000Y-90212500D01*
X132730000Y-91290000D02*
X132680000Y-91240000D01*
X132730000Y-91300000D02*
X132730000Y-91290000D01*
X133960000Y-92530000D02*
X132730000Y-91300000D01*
%TO.N,EFUSE_FAULT_N*%
X239337500Y-80290000D02*
X240405000Y-80290000D01*
D98*
X237240000Y-77702500D02*
X234457500Y-74920000D01*
X237240000Y-78180000D02*
X237240000Y-77702500D01*
D97*
X237240000Y-78192500D02*
X239337500Y-80290000D01*
X237240000Y-78180000D02*
X237240000Y-78192500D01*
%TO.N,EFUSE_DVDT*%
X242617500Y-77890000D02*
X244137500Y-76370000D01*
X242617500Y-79077500D02*
X242617500Y-77890000D01*
X244137500Y-76370000D02*
X244137500Y-75705000D01*
%TO.N,EFUSE_UV*%
D98*
X247595000Y-81630000D02*
X247685000Y-81540000D01*
X247595000Y-83490000D02*
X247595000Y-81630000D01*
X246027500Y-79560000D02*
X244535000Y-79560000D01*
X247685000Y-81217500D02*
X246027500Y-79560000D01*
X244535000Y-79560000D02*
X244330000Y-79765000D01*
%TO.N,POE_OR_GATE*%
D102*
X273880000Y-73530000D02*
X279346718Y-78996718D01*
X271985000Y-73530000D02*
X273880000Y-73530000D01*
X271955000Y-73500000D02*
X271985000Y-73530000D01*
X277794000Y-90882000D02*
X272314000Y-90882000D01*
X279346718Y-78996718D02*
X279325322Y-89350678D01*
X268834000Y-87402000D02*
X268834000Y-86502000D01*
X272314000Y-90882000D02*
X268834000Y-87402000D01*
X279325322Y-89350678D02*
X277794000Y-90882000D01*
%TO.N,BUCK5_VCC*%
D96*
X229650000Y-92700000D02*
X229980001Y-92369999D01*
X229980001Y-92369999D02*
X229980001Y-91510000D01*
X229650000Y-93540000D02*
X229650000Y-92700000D01*
%TO.N,EFUSE_SHDN*%
D101*
X237997500Y-74730000D02*
X237797500Y-74730000D01*
D111*
X241042500Y-78290000D02*
X241117500Y-78365000D01*
D101*
X241042500Y-78290000D02*
X241042500Y-77775000D01*
D111*
X241117500Y-78365000D02*
X241117500Y-79002500D01*
D101*
X241042500Y-77775000D02*
X237997500Y-74730000D01*
%TO.N,AMP_IN_N*%
D109*
X176232500Y-102720000D02*
X177134300Y-103621800D01*
X191856336Y-108153202D02*
X190611334Y-106908200D01*
X194850000Y-108240001D02*
X194763201Y-108153202D01*
X177134300Y-103621800D02*
X177134300Y-104861166D01*
X194763201Y-108153202D02*
X191856336Y-108153202D01*
X177134300Y-104861166D02*
X178111567Y-105838433D01*
X190611334Y-106908200D02*
X179181334Y-106908200D01*
X179181334Y-106908200D02*
X178111567Y-105838433D01*
%TO.N,AMP_BSNL*%
D97*
X208679400Y-113439998D02*
X202457300Y-113439998D01*
X208820000Y-113375000D02*
X208744398Y-113375000D01*
X208744398Y-113375000D02*
X208679400Y-113439998D01*
%TO.N,BUCK5_BOOT*%
D96*
X228254999Y-92110000D02*
X227870000Y-92110000D01*
X229579999Y-90785000D02*
X228254999Y-92110000D01*
%TO.N,BUCK5_SW*%
X228480000Y-90560000D02*
X228754999Y-90285001D01*
X228754999Y-90285001D02*
X229579999Y-90285001D01*
D100*
X225245000Y-92215000D02*
X226900000Y-90560000D01*
D96*
X227870000Y-90560000D02*
X228480000Y-90560000D01*
D100*
X225245000Y-92930000D02*
X225245000Y-92215000D01*
D96*
X230244999Y-90285001D02*
X229579999Y-90285001D01*
X230480000Y-89322001D02*
X230480000Y-90050000D01*
D100*
X226900000Y-90560000D02*
X227870000Y-90560000D01*
D96*
X230480000Y-90050000D02*
X230244999Y-90285001D01*
%TO.N,ETH_RX_TERM*%
X117280000Y-86600000D02*
X117280000Y-88540000D01*
X117280000Y-88540000D02*
X116110000Y-89710000D01*
%TD*%
%TA.AperFunction,Conductor*%
%TO.N,3V3*%
G36*
X205274180Y-71597744D02*
G01*
X205340171Y-71620701D01*
X205353319Y-71631534D01*
X205839262Y-72091444D01*
X205874421Y-72151822D01*
X205877943Y-72186051D01*
X205600000Y-79760000D01*
X205600000Y-79760001D01*
X207229925Y-83384186D01*
X207239470Y-83453400D01*
X207210079Y-83516788D01*
X207151084Y-83554223D01*
X207130140Y-83558330D01*
X205918874Y-83689042D01*
X205901084Y-83689677D01*
X203765584Y-83612374D01*
X203699301Y-83590277D01*
X203665082Y-83554435D01*
X202558057Y-81792822D01*
X202545266Y-81765617D01*
X202375512Y-81249827D01*
X202373253Y-81179998D01*
X202376246Y-81170145D01*
X202402646Y-81094699D01*
X202405500Y-81064266D01*
X202405500Y-80405734D01*
X202402646Y-80375301D01*
X202402646Y-80375300D01*
X202402646Y-80375298D01*
X202357793Y-80247119D01*
X202357792Y-80247117D01*
X202277150Y-80137850D01*
X202167882Y-80057207D01*
X202167880Y-80057206D01*
X202039700Y-80012353D01*
X202009270Y-80009500D01*
X202009266Y-80009500D01*
X201500734Y-80009500D01*
X201500730Y-80009500D01*
X201470300Y-80012353D01*
X201470298Y-80012353D01*
X201342119Y-80057206D01*
X201342117Y-80057207D01*
X201232850Y-80137850D01*
X201152207Y-80247117D01*
X201107017Y-80376261D01*
X201066295Y-80433036D01*
X201020400Y-80455515D01*
X200424695Y-80606280D01*
X200394842Y-80610069D01*
X198363258Y-80619431D01*
X198296129Y-80600055D01*
X198250131Y-80547463D01*
X198238694Y-80496745D01*
X198238257Y-80455515D01*
X198200499Y-76891155D01*
X198200499Y-76704516D01*
X198198306Y-76684114D01*
X198190096Y-75909073D01*
X198191226Y-75891008D01*
X198804633Y-71392686D01*
X198833195Y-71328923D01*
X198891697Y-71290722D01*
X198933591Y-71285592D01*
X205274180Y-71597744D01*
G37*
%TD.AperFunction*%
%TD*%
%TA.AperFunction,Conductor*%
%TO.N,3V3*%
G36*
X213337539Y-87035185D02*
G01*
X213383294Y-87087989D01*
X213394500Y-87139500D01*
X213394500Y-87859752D01*
X213406131Y-87918229D01*
X213406132Y-87918230D01*
X213450447Y-87984552D01*
X213516769Y-88028867D01*
X213516770Y-88028868D01*
X213575247Y-88040499D01*
X213575250Y-88040500D01*
X213667611Y-88040500D01*
X213734650Y-88060185D01*
X213780405Y-88112989D01*
X213791073Y-88152966D01*
X213794999Y-88194999D01*
X213795000Y-88195000D01*
X215733810Y-88875646D01*
X215941827Y-88948673D01*
X215998562Y-88989453D01*
X216021694Y-89038302D01*
X216485349Y-91087015D01*
X216522808Y-91140487D01*
X216525595Y-91210301D01*
X216490194Y-91270539D01*
X216428263Y-91301998D01*
X212377444Y-92064700D01*
X212307920Y-92057760D01*
X212253185Y-92014334D01*
X212230616Y-91948209D01*
X212230500Y-91942841D01*
X212230500Y-91645730D01*
X212227646Y-91615300D01*
X212227646Y-91615298D01*
X212182793Y-91487119D01*
X212182792Y-91487117D01*
X212102150Y-91377850D01*
X211992882Y-91297207D01*
X211992880Y-91297206D01*
X211864700Y-91252353D01*
X211834270Y-91249500D01*
X211834266Y-91249500D01*
X210775734Y-91249500D01*
X210775730Y-91249500D01*
X210745300Y-91252353D01*
X210745298Y-91252353D01*
X210617119Y-91297206D01*
X210617117Y-91297207D01*
X210507850Y-91377850D01*
X210427207Y-91487117D01*
X210427206Y-91487119D01*
X210382353Y-91615298D01*
X210382353Y-91615300D01*
X210379500Y-91645730D01*
X210379500Y-92254269D01*
X210382353Y-92284697D01*
X210385817Y-92294597D01*
X210389377Y-92364376D01*
X210354646Y-92425003D01*
X210292652Y-92457228D01*
X210291718Y-92457408D01*
X201138903Y-94180733D01*
X201069379Y-94173793D01*
X201014644Y-94130367D01*
X200992075Y-94064242D01*
X200992049Y-94063599D01*
X200839280Y-90057256D01*
X200856396Y-89989518D01*
X200907418Y-89941784D01*
X200946291Y-89929691D01*
X203399755Y-89592210D01*
X204203476Y-89481657D01*
X204220373Y-89480500D01*
X206624750Y-89480500D01*
X206624751Y-89480499D01*
X206639568Y-89477552D01*
X206683229Y-89468868D01*
X206683229Y-89468867D01*
X206683231Y-89468867D01*
X206749552Y-89424552D01*
X206793867Y-89358231D01*
X206793867Y-89358229D01*
X206793868Y-89358229D01*
X206805499Y-89299752D01*
X206805500Y-89299750D01*
X206805500Y-89231851D01*
X206825185Y-89164812D01*
X206877989Y-89119057D01*
X206912596Y-89109009D01*
X208677348Y-88866263D01*
X208734694Y-88874865D01*
X208735420Y-88872632D01*
X208744694Y-88875645D01*
X208744696Y-88875646D01*
X208838481Y-88890500D01*
X209451518Y-88890499D01*
X209545304Y-88875646D01*
X209658342Y-88818050D01*
X209729419Y-88746972D01*
X209790739Y-88713488D01*
X209800179Y-88711814D01*
X211642997Y-88458330D01*
X211698640Y-88465491D01*
X211698963Y-88464288D01*
X211706812Y-88466391D01*
X211706814Y-88466392D01*
X211834108Y-88500500D01*
X211834110Y-88500500D01*
X211965890Y-88500500D01*
X211965892Y-88500500D01*
X212093186Y-88466392D01*
X212207314Y-88400500D01*
X212207322Y-88400491D01*
X212212685Y-88396378D01*
X212271275Y-88371908D01*
X212685000Y-88315000D01*
X212716561Y-88142218D01*
X212747972Y-88079807D01*
X212808138Y-88044285D01*
X212838543Y-88040500D01*
X212914750Y-88040500D01*
X212914751Y-88040499D01*
X212929568Y-88037552D01*
X212973229Y-88028868D01*
X212973229Y-88028867D01*
X212973231Y-88028867D01*
X213039552Y-87984552D01*
X213083867Y-87918231D01*
X213083867Y-87918229D01*
X213083868Y-87918229D01*
X213095499Y-87859752D01*
X213095500Y-87859750D01*
X213095500Y-87139500D01*
X213098050Y-87130814D01*
X213096762Y-87121853D01*
X213107740Y-87097812D01*
X213115185Y-87072461D01*
X213122025Y-87066533D01*
X213125787Y-87058297D01*
X213148021Y-87044007D01*
X213167989Y-87026706D01*
X213178503Y-87024418D01*
X213184565Y-87020523D01*
X213219500Y-87015500D01*
X213270500Y-87015500D01*
X213337539Y-87035185D01*
G37*
%TD.AperFunction*%
%TD*%
%TA.AperFunction,Conductor*%
%TO.N,3V3*%
G36*
X133109402Y-76523493D02*
G01*
X133165464Y-76565192D01*
X133183964Y-76600301D01*
X133493038Y-77519831D01*
X133499500Y-77559338D01*
X133499500Y-78151144D01*
X133507920Y-78182567D01*
X133523386Y-78240289D01*
X133523387Y-78240290D01*
X133569527Y-78320208D01*
X133569531Y-78320213D01*
X133838957Y-78589639D01*
X133845694Y-78600510D01*
X133852922Y-78606299D01*
X133868814Y-78637812D01*
X133923663Y-78800992D01*
X133926364Y-78870810D01*
X133890889Y-78931004D01*
X133828503Y-78962464D01*
X133806125Y-78964500D01*
X133663795Y-78964500D01*
X133596756Y-78944815D01*
X133553311Y-78896796D01*
X133551412Y-78893071D01*
X133543050Y-78876658D01*
X133543047Y-78876655D01*
X133543045Y-78876652D01*
X133453347Y-78786954D01*
X133453344Y-78786952D01*
X133453342Y-78786950D01*
X133376517Y-78747805D01*
X133340301Y-78729352D01*
X133246524Y-78714500D01*
X132633482Y-78714500D01*
X132552519Y-78727323D01*
X132539696Y-78729354D01*
X132426658Y-78786950D01*
X132426657Y-78786951D01*
X132426652Y-78786954D01*
X132336954Y-78876652D01*
X132336951Y-78876657D01*
X132336950Y-78876658D01*
X132326689Y-78896796D01*
X132279352Y-78989698D01*
X132264500Y-79083475D01*
X132264500Y-79546517D01*
X132279354Y-79640304D01*
X132315985Y-79712195D01*
X132329500Y-79768490D01*
X132329500Y-80250041D01*
X132309815Y-80317080D01*
X132257011Y-80362835D01*
X132245007Y-80367579D01*
X130780000Y-80859999D01*
X130773343Y-80867415D01*
X130748093Y-80913393D01*
X130686689Y-80946730D01*
X130679726Y-80948020D01*
X130670229Y-80949500D01*
X130577868Y-80949501D01*
X130497505Y-80965485D01*
X130476139Y-80979760D01*
X130449102Y-80983976D01*
X130440490Y-80982841D01*
X130432204Y-80985436D01*
X130406378Y-80978349D01*
X130379830Y-80974853D01*
X130373910Y-80969845D01*
X130373781Y-80970159D01*
X130368383Y-80967923D01*
X130364825Y-80966947D01*
X130362648Y-80965547D01*
X130362494Y-80965484D01*
X130282135Y-80949500D01*
X130077870Y-80949500D01*
X129997504Y-80965485D01*
X129906375Y-81026375D01*
X129845485Y-81117505D01*
X129845483Y-81117509D01*
X129829500Y-81197862D01*
X129829500Y-82577129D01*
X129845485Y-82657495D01*
X129912893Y-82758378D01*
X129933771Y-82825056D01*
X129915286Y-82892436D01*
X129863307Y-82939126D01*
X129809074Y-82951267D01*
X128706470Y-82944893D01*
X128639546Y-82924821D01*
X128594097Y-82871754D01*
X128583342Y-82827089D01*
X128530653Y-81773308D01*
X128530499Y-81767131D01*
X128530499Y-81197870D01*
X128530499Y-81197868D01*
X128514515Y-81117505D01*
X128514513Y-81117502D01*
X128509841Y-81106222D01*
X128511128Y-81105688D01*
X128494806Y-81056356D01*
X128489199Y-80944216D01*
X128489198Y-80944215D01*
X125778268Y-79691545D01*
X125725669Y-79645555D01*
X125706422Y-79584882D01*
X125626476Y-77906009D01*
X125642950Y-77838112D01*
X125693518Y-77789897D01*
X125756020Y-77776245D01*
X128218691Y-77889327D01*
X128277793Y-77909668D01*
X128278085Y-77909097D01*
X128282149Y-77911167D01*
X128284753Y-77912064D01*
X128285884Y-77912877D01*
X128286776Y-77913525D01*
X128286778Y-77913526D01*
X128286780Y-77913528D01*
X128406874Y-77974719D01*
X128406876Y-77974719D01*
X128406878Y-77974720D01*
X128506507Y-77990500D01*
X128506512Y-77990500D01*
X129073493Y-77990500D01*
X129173121Y-77974720D01*
X129173122Y-77974719D01*
X129173126Y-77974719D01*
X129218738Y-77951478D01*
X129280715Y-77938094D01*
X131500000Y-78040000D01*
X132978478Y-76552395D01*
X133039695Y-76518723D01*
X133109402Y-76523493D01*
G37*
%TD.AperFunction*%
%TD*%
%TA.AperFunction,Conductor*%
%TO.N,3V3*%
G36*
X147985850Y-74010185D02*
G01*
X148006492Y-74026819D01*
X148472568Y-74492895D01*
X148506053Y-74554218D01*
X148501069Y-74623910D01*
X148499448Y-74628028D01*
X148459871Y-74723575D01*
X148459868Y-74723587D01*
X148419500Y-74926530D01*
X148419500Y-75133469D01*
X148459868Y-75336412D01*
X148459870Y-75336420D01*
X148539059Y-75527598D01*
X148568390Y-75571497D01*
X148589267Y-75638175D01*
X148588950Y-75649524D01*
X148449999Y-77530007D01*
X148567070Y-84093289D01*
X148548584Y-84160668D01*
X148496605Y-84207358D01*
X148478906Y-84214215D01*
X148461389Y-84219500D01*
X148434108Y-84219500D01*
X148306814Y-84253608D01*
X148261368Y-84279846D01*
X148247617Y-84283995D01*
X148226458Y-84284151D01*
X148205900Y-84289139D01*
X148192223Y-84284405D01*
X148177750Y-84284513D01*
X148159866Y-84273206D01*
X148139873Y-84266287D01*
X148125499Y-84251479D01*
X148118693Y-84247176D01*
X148116437Y-84242332D01*
X148109553Y-84235448D01*
X148043230Y-84191132D01*
X148043229Y-84191131D01*
X147984752Y-84179500D01*
X147984748Y-84179500D01*
X146445252Y-84179500D01*
X146445247Y-84179500D01*
X146386770Y-84191131D01*
X146386769Y-84191132D01*
X146320447Y-84235447D01*
X146276132Y-84301769D01*
X146276131Y-84301770D01*
X146264500Y-84360247D01*
X146264500Y-85299752D01*
X146276131Y-85358229D01*
X146276132Y-85358230D01*
X146320447Y-85424552D01*
X146386769Y-85468867D01*
X146386770Y-85468868D01*
X146445247Y-85480499D01*
X146445250Y-85480500D01*
X146445252Y-85480500D01*
X147984750Y-85480500D01*
X147984751Y-85480499D01*
X147999568Y-85477552D01*
X148043229Y-85468868D01*
X148043229Y-85468867D01*
X148043231Y-85468867D01*
X148109552Y-85424552D01*
X148153867Y-85358231D01*
X148153867Y-85358229D01*
X148153868Y-85358229D01*
X148165498Y-85299756D01*
X148165500Y-85299748D01*
X148165500Y-85299735D01*
X148165684Y-85297876D01*
X148166056Y-85296952D01*
X148166689Y-85293774D01*
X148167291Y-85293893D01*
X148171269Y-85284038D01*
X148172021Y-85269134D01*
X148184083Y-85252293D01*
X148191837Y-85233086D01*
X148204016Y-85224464D01*
X148212707Y-85212333D01*
X148231958Y-85204687D01*
X148248867Y-85192720D01*
X148264860Y-85191621D01*
X148277644Y-85186545D01*
X148304985Y-85188866D01*
X148312893Y-85188323D01*
X148317070Y-85189140D01*
X148434108Y-85220500D01*
X148477382Y-85220500D01*
X148489175Y-85222807D01*
X148509950Y-85233590D01*
X148532409Y-85240185D01*
X148540381Y-85249385D01*
X148551189Y-85254995D01*
X148562837Y-85275301D01*
X148578164Y-85292989D01*
X148581553Y-85307928D01*
X148585955Y-85315601D01*
X148585471Y-85325194D01*
X148589349Y-85342287D01*
X148591815Y-85480499D01*
X148609574Y-86476149D01*
X148591088Y-86543528D01*
X148573275Y-86566041D01*
X148429828Y-86709488D01*
X148368505Y-86742973D01*
X148340139Y-86745791D01*
X148091598Y-86741766D01*
X148046153Y-86732343D01*
X148043229Y-86731131D01*
X147984752Y-86719500D01*
X147984748Y-86719500D01*
X146717645Y-86719500D01*
X146715637Y-86719484D01*
X146214876Y-86711374D01*
X146148164Y-86690606D01*
X146103270Y-86637068D01*
X146100573Y-86630375D01*
X146076797Y-86566041D01*
X145790000Y-85790000D01*
X144486929Y-85840359D01*
X144419179Y-85823278D01*
X144394459Y-85804132D01*
X143554184Y-84963857D01*
X143520699Y-84902534D01*
X143518193Y-84885192D01*
X143372402Y-82882996D01*
X143384356Y-82820192D01*
X144130478Y-81271101D01*
X144154506Y-81237241D01*
X144218528Y-81173220D01*
X144279719Y-81053126D01*
X144295500Y-80953488D01*
X144295882Y-80948638D01*
X144297335Y-80948752D01*
X144307783Y-80902984D01*
X144312444Y-80893305D01*
X144420000Y-80670000D01*
X144420000Y-75311688D01*
X144439685Y-75244649D01*
X144456319Y-75224007D01*
X145653507Y-74026819D01*
X145714830Y-73993334D01*
X145741188Y-73990500D01*
X147918811Y-73990500D01*
X147985850Y-74010185D01*
G37*
%TD.AperFunction*%
%TD*%
%TA.AperFunction,Conductor*%
%TO.N,3V3A*%
G36*
X175417896Y-91642607D02*
G01*
X175433060Y-91646417D01*
X175448513Y-91655507D01*
X175465894Y-91659905D01*
X175493100Y-91681734D01*
X175493279Y-91681840D01*
X175493422Y-91681993D01*
X175493767Y-91682362D01*
X175523811Y-91738296D01*
X175526121Y-91747987D01*
X175529500Y-91776739D01*
X175529500Y-93354678D01*
X175529500Y-93354680D01*
X175529499Y-93354680D01*
X175544028Y-93427717D01*
X175544032Y-93427735D01*
X175544033Y-93427739D01*
X175544821Y-93429130D01*
X175545327Y-93429675D01*
X175599399Y-93510601D01*
X175642643Y-93539495D01*
X175665821Y-93554982D01*
X175682258Y-93565965D01*
X175682260Y-93565966D01*
X175682264Y-93565967D01*
X175682280Y-93565970D01*
X175682288Y-93565972D01*
X175727021Y-93574869D01*
X175747681Y-93578979D01*
X175750415Y-93579703D01*
X175755323Y-93580500D01*
X176104676Y-93580500D01*
X176108796Y-93580500D01*
X176116648Y-93578117D01*
X176165762Y-93568348D01*
X176188764Y-93566083D01*
X176211145Y-93552532D01*
X176223313Y-93548723D01*
X176293171Y-93547478D01*
X176329251Y-93563956D01*
X176332260Y-93565966D01*
X176406812Y-93580796D01*
X176409551Y-93581817D01*
X176411125Y-93581733D01*
X176424488Y-93587387D01*
X176443969Y-93594652D01*
X176446719Y-93596217D01*
X176449252Y-93597836D01*
X176450317Y-93598266D01*
X176454777Y-93600805D01*
X176461161Y-93607420D01*
X176491423Y-93632585D01*
X176498592Y-93641831D01*
X176513944Y-93667527D01*
X176692497Y-94069999D01*
X176692498Y-94069999D01*
X176692499Y-94070000D01*
X177249227Y-94109370D01*
X183307939Y-94537831D01*
X183342428Y-94545304D01*
X183357081Y-94550756D01*
X183413046Y-94592582D01*
X183413047Y-94592582D01*
X183420091Y-94601976D01*
X183440050Y-94642085D01*
X183893507Y-96218383D01*
X183898338Y-96253343D01*
X183898262Y-96267221D01*
X183893145Y-96284299D01*
X183893048Y-96302129D01*
X183883327Y-96317074D01*
X183878211Y-96334152D01*
X183864673Y-96345753D01*
X183854952Y-96360699D01*
X183825159Y-96379614D01*
X183825157Y-96379617D01*
X183825156Y-96379617D01*
X183814911Y-96384228D01*
X183774998Y-96394666D01*
X182592398Y-96499786D01*
X182590823Y-96499916D01*
X182589219Y-96500038D01*
X182587626Y-96500149D01*
X181415441Y-96574130D01*
X181411546Y-96574314D01*
X181407622Y-96574438D01*
X181403706Y-96574500D01*
X180897018Y-96574500D01*
X180897009Y-96574501D01*
X180840386Y-96580587D01*
X180840384Y-96580588D01*
X180823040Y-96587056D01*
X180823028Y-96587059D01*
X180769848Y-96606895D01*
X180752366Y-96611989D01*
X180736744Y-96615319D01*
X180734710Y-96615753D01*
X180716671Y-96618231D01*
X175853420Y-96925169D01*
X175853415Y-96925168D01*
X175853415Y-96925169D01*
X175818233Y-96922355D01*
X175801936Y-96918666D01*
X175742307Y-96886078D01*
X175732406Y-96876328D01*
X175712024Y-96849976D01*
X175694635Y-96819858D01*
X175661002Y-96761604D01*
X175558508Y-96659110D01*
X175558506Y-96659108D01*
X175557813Y-96658608D01*
X175555295Y-96657254D01*
X175432980Y-96586635D01*
X175427732Y-96584011D01*
X175412946Y-96576775D01*
X175408408Y-96574008D01*
X175394789Y-96565706D01*
X175350510Y-96519273D01*
X175345531Y-96510158D01*
X175334594Y-96482864D01*
X175310370Y-96392631D01*
X174668360Y-94001146D01*
X174664626Y-93980169D01*
X174662728Y-93959161D01*
X174662643Y-93937861D01*
X174681212Y-93712099D01*
X174689083Y-93677695D01*
X174694702Y-93663108D01*
X174737151Y-93607639D01*
X174737150Y-93607639D01*
X174740789Y-93604975D01*
X174792718Y-93582868D01*
X174795690Y-93582349D01*
X174817021Y-93580500D01*
X174818796Y-93580500D01*
X174826648Y-93578117D01*
X174887740Y-93565966D01*
X174970601Y-93510601D01*
X175025966Y-93427740D01*
X175040500Y-93354674D01*
X175040500Y-91789508D01*
X175041981Y-91770402D01*
X175043135Y-91763002D01*
X175045211Y-91758595D01*
X175045523Y-91754572D01*
X175046460Y-91751381D01*
X175047218Y-91751603D01*
X175050918Y-91735080D01*
X175052076Y-91732256D01*
X175052078Y-91732249D01*
X175053296Y-91729278D01*
X175054394Y-91729728D01*
X175067244Y-91711829D01*
X175072914Y-91699796D01*
X175078308Y-91696419D01*
X175089559Y-91680748D01*
X175088787Y-91679857D01*
X175091127Y-91677828D01*
X175091935Y-91677439D01*
X175092344Y-91676870D01*
X175092402Y-91676825D01*
X175093806Y-91675731D01*
X175094264Y-91676319D01*
X175149946Y-91649557D01*
X175150943Y-91649374D01*
X175168449Y-91647429D01*
X175382800Y-91638968D01*
X175417896Y-91642607D01*
G37*
%TD.AperFunction*%
%TD*%
%TA.AperFunction,Conductor*%
%TO.N,5V*%
G36*
X186722327Y-99007972D02*
G01*
X186789295Y-99027891D01*
X186834864Y-99080856D01*
X186844565Y-99150049D01*
X186841665Y-99164064D01*
X186809500Y-99284108D01*
X186809500Y-99424019D01*
X186807156Y-99424019D01*
X186798242Y-99481182D01*
X186789171Y-99497223D01*
X186786132Y-99501770D01*
X186786131Y-99501773D01*
X186774500Y-99560247D01*
X186774500Y-100659752D01*
X186786131Y-100718229D01*
X186786132Y-100718230D01*
X186830447Y-100784552D01*
X186896769Y-100828867D01*
X186896770Y-100828868D01*
X186955247Y-100840499D01*
X186955250Y-100840500D01*
X186955252Y-100840500D01*
X187644750Y-100840500D01*
X187644751Y-100840499D01*
X187659568Y-100837552D01*
X187703229Y-100828868D01*
X187703229Y-100828867D01*
X187703231Y-100828867D01*
X187769552Y-100784552D01*
X187813867Y-100718231D01*
X187813867Y-100718229D01*
X187813868Y-100718229D01*
X187825499Y-100659752D01*
X187825500Y-100659750D01*
X187825500Y-99560249D01*
X187825499Y-99560247D01*
X187811485Y-99489790D01*
X187812623Y-99489563D01*
X187806488Y-99432525D01*
X187808740Y-99422459D01*
X187810500Y-99415892D01*
X187810500Y-99284108D01*
X187778878Y-99166092D01*
X187780541Y-99096243D01*
X187819704Y-99038381D01*
X187883932Y-99010877D01*
X187898653Y-99010000D01*
X189405379Y-99010000D01*
X189472418Y-99029685D01*
X189518173Y-99082489D01*
X189529376Y-99134619D01*
X189527971Y-99415889D01*
X189510662Y-102877494D01*
X189490643Y-102944434D01*
X189437611Y-102989925D01*
X189377829Y-103000559D01*
X188834472Y-102961748D01*
X188110000Y-102910000D01*
X188109996Y-102910000D01*
X185344436Y-102910000D01*
X185277397Y-102890315D01*
X185231642Y-102837511D01*
X185220437Y-102785565D01*
X185227896Y-100659750D01*
X185233275Y-99126745D01*
X185253194Y-99059778D01*
X185306159Y-99014209D01*
X185357708Y-99003184D01*
X186722327Y-99007972D01*
G37*
%TD.AperFunction*%
%TD*%
%TA.AperFunction,Conductor*%
%TO.N,24V_AMP*%
G36*
X240760039Y-81635184D02*
G01*
X240805794Y-81687988D01*
X240817000Y-81739499D01*
X240817000Y-82409747D01*
X240826225Y-82456128D01*
X240819996Y-82525720D01*
X240807715Y-82549200D01*
X240807260Y-82549879D01*
X240807259Y-82549882D01*
X240792000Y-82626596D01*
X240792000Y-83378397D01*
X240807260Y-83455118D01*
X240807261Y-83455120D01*
X240844199Y-83510401D01*
X240865077Y-83577079D01*
X240859726Y-83615390D01*
X240079564Y-86179271D01*
X240068039Y-86196823D01*
X240060883Y-86216565D01*
X240049249Y-86225442D01*
X240041217Y-86237676D01*
X240022030Y-86246212D01*
X240005338Y-86258950D01*
X239980942Y-86264492D01*
X239977380Y-86266078D01*
X239970921Y-86266770D01*
X239969510Y-86266884D01*
X239918570Y-86260329D01*
X239867196Y-86242353D01*
X239836770Y-86239500D01*
X239836766Y-86239500D01*
X238778234Y-86239500D01*
X238778230Y-86239500D01*
X238747800Y-86242353D01*
X238747798Y-86242353D01*
X238619619Y-86287206D01*
X238619617Y-86287207D01*
X238508919Y-86368905D01*
X238492837Y-86374955D01*
X238480071Y-86384764D01*
X238445680Y-86392698D01*
X238345702Y-86401108D01*
X238277248Y-86387112D01*
X238227228Y-86338329D01*
X238214846Y-86306951D01*
X237956537Y-85248715D01*
X237953000Y-85219311D01*
X237953000Y-84996612D01*
X237954384Y-84978140D01*
X238403206Y-81998888D01*
X238432655Y-81935535D01*
X238438094Y-81929731D01*
X238716009Y-81651816D01*
X238777330Y-81618334D01*
X238803688Y-81615500D01*
X240462287Y-81615500D01*
X240462295Y-81615499D01*
X240693000Y-81615499D01*
X240760039Y-81635184D01*
G37*
%TD.AperFunction*%
%TD*%
%TA.AperFunction,Conductor*%
%TO.N,24V_OR*%
G36*
X278352061Y-70259502D02*
G01*
X278386990Y-70264541D01*
X278401941Y-70268940D01*
X278414741Y-70277175D01*
X278429515Y-70280842D01*
X278443527Y-70295694D01*
X278460699Y-70306742D01*
X278467754Y-70321373D01*
X278477462Y-70331663D01*
X278488829Y-70365077D01*
X278490835Y-70375790D01*
X278492747Y-70405753D01*
X278452827Y-71097773D01*
X278445802Y-71132357D01*
X278441131Y-71145429D01*
X278400036Y-71201935D01*
X278334915Y-71227254D01*
X278326275Y-71227992D01*
X278277404Y-71222373D01*
X278186244Y-71192753D01*
X278186230Y-71192751D01*
X278069416Y-71174249D01*
X278024957Y-71167208D01*
X278005489Y-71164124D01*
X277976290Y-71159500D01*
X277976287Y-71159500D01*
X277763713Y-71159500D01*
X277763709Y-71159500D01*
X277724776Y-71165666D01*
X277715042Y-71167208D01*
X277677654Y-71173129D01*
X277553763Y-71192752D01*
X277351582Y-71258445D01*
X277162182Y-71354949D01*
X276990210Y-71479892D01*
X276839892Y-71630210D01*
X276714949Y-71802182D01*
X276618445Y-71991580D01*
X276552752Y-72193759D01*
X276519500Y-72403707D01*
X276519500Y-72616291D01*
X276551508Y-72818388D01*
X276551509Y-72818388D01*
X276552753Y-72826242D01*
X276552754Y-72826243D01*
X276617334Y-73025000D01*
X276618444Y-73028414D01*
X276714951Y-73217820D01*
X276839890Y-73389786D01*
X276839892Y-73389788D01*
X276990216Y-73540112D01*
X277162169Y-73665042D01*
X277162200Y-73665060D01*
X277162442Y-73665182D01*
X277351588Y-73761557D01*
X277553757Y-73827246D01*
X277763713Y-73860500D01*
X277763714Y-73860500D01*
X277976285Y-73860500D01*
X277976286Y-73860500D01*
X277976287Y-73860500D01*
X278126728Y-73836671D01*
X278162000Y-73836169D01*
X278175774Y-73837949D01*
X278239735Y-73866066D01*
X278278338Y-73924289D01*
X278278340Y-73924298D01*
X278278342Y-73924300D01*
X278278342Y-73924302D01*
X278281357Y-73934051D01*
X278286687Y-73977828D01*
X278134039Y-76623961D01*
X278127015Y-76658542D01*
X278123209Y-76669194D01*
X278112722Y-76683614D01*
X278106721Y-76700408D01*
X278092597Y-76711287D01*
X278082115Y-76725702D01*
X278065496Y-76732163D01*
X278051369Y-76743046D01*
X278033608Y-76744562D01*
X278016995Y-76751022D01*
X277999520Y-76747473D01*
X277981753Y-76748990D01*
X277948528Y-76737117D01*
X277948523Y-76737116D01*
X277948517Y-76737113D01*
X277939255Y-76732220D01*
X277909496Y-76710260D01*
X274374658Y-73175423D01*
X274374655Y-73175419D01*
X274374655Y-73175420D01*
X274367588Y-73168353D01*
X274367588Y-73168352D01*
X274248717Y-73049481D01*
X274248712Y-73049477D01*
X274248711Y-73049476D01*
X274142695Y-72988269D01*
X274142688Y-72988265D01*
X274125921Y-72978584D01*
X274119390Y-72973573D01*
X274104179Y-72967272D01*
X274096017Y-72966198D01*
X274087706Y-72963971D01*
X273959057Y-72929499D01*
X273959054Y-72929499D01*
X273791443Y-72929499D01*
X273791380Y-72929500D01*
X272170470Y-72929500D01*
X272154279Y-72928438D01*
X272138303Y-72926334D01*
X272122400Y-72923171D01*
X272034057Y-72899499D01*
X272034055Y-72899499D01*
X271875943Y-72899499D01*
X271803565Y-72918892D01*
X271803552Y-72918896D01*
X271799579Y-72919961D01*
X271723212Y-72940423D01*
X271723211Y-72940424D01*
X271698553Y-72954660D01*
X271698546Y-72954663D01*
X271663805Y-72974722D01*
X271633901Y-72987110D01*
X271603436Y-72995274D01*
X271571339Y-72999500D01*
X271409239Y-72999500D01*
X271351720Y-73007880D01*
X271341107Y-73009426D01*
X271236011Y-73060804D01*
X271153304Y-73143511D01*
X271137704Y-73175423D01*
X271101926Y-73248608D01*
X271092000Y-73316739D01*
X271092000Y-73683260D01*
X271101926Y-73751391D01*
X271153303Y-73856485D01*
X271171536Y-73874718D01*
X271192683Y-73902970D01*
X271200174Y-73916690D01*
X271215025Y-73984948D01*
X271214896Y-73986754D01*
X271195528Y-74044956D01*
X271191349Y-74051459D01*
X271174713Y-74072103D01*
X271153305Y-74093510D01*
X271153300Y-74093517D01*
X271101926Y-74198606D01*
X271101926Y-74198607D01*
X271101926Y-74198608D01*
X271092000Y-74266739D01*
X271092000Y-74633260D01*
X271101926Y-74701391D01*
X271153303Y-74806485D01*
X271236014Y-74889196D01*
X271236015Y-74889196D01*
X271236017Y-74889198D01*
X271341107Y-74940573D01*
X271375173Y-74945536D01*
X271409239Y-74950500D01*
X271409240Y-74950500D01*
X272112259Y-74950500D01*
X272147194Y-74955523D01*
X272162192Y-74959927D01*
X272220961Y-74997693D01*
X272220967Y-74997700D01*
X272220970Y-74997702D01*
X272220971Y-74997704D01*
X272227734Y-75005508D01*
X272248447Y-75040949D01*
X272249096Y-75040681D01*
X272310596Y-75189158D01*
X272310604Y-75189176D01*
X272310613Y-75189191D01*
X272398211Y-75320290D01*
X272398212Y-75320291D01*
X272398217Y-75320297D01*
X272509701Y-75431781D01*
X272509707Y-75431786D01*
X272509711Y-75431789D01*
X272640814Y-75519390D01*
X272640827Y-75519397D01*
X272786498Y-75579735D01*
X272786503Y-75579737D01*
X272845879Y-75591547D01*
X272923032Y-75606895D01*
X272933778Y-75609535D01*
X272946989Y-75613414D01*
X272946989Y-75613415D01*
X272979410Y-75622935D01*
X273032152Y-75654230D01*
X275584573Y-78206651D01*
X275605723Y-78234903D01*
X275618331Y-78257992D01*
X275633500Y-78317421D01*
X275633500Y-82765797D01*
X275613815Y-82832836D01*
X275561011Y-82878591D01*
X275519710Y-82889376D01*
X270739700Y-83284307D01*
X270699474Y-83289259D01*
X270679902Y-83292470D01*
X270640218Y-83300626D01*
X270640213Y-83300628D01*
X270506903Y-83354734D01*
X270506902Y-83354735D01*
X270446565Y-83389954D01*
X270446564Y-83389954D01*
X270446561Y-83389957D01*
X270446549Y-83389965D01*
X270333887Y-83479436D01*
X270250259Y-83567982D01*
X270204590Y-83623837D01*
X270184253Y-83652689D01*
X270147033Y-83714411D01*
X270130423Y-83763146D01*
X270130418Y-83763164D01*
X270128879Y-83767680D01*
X270091155Y-83874218D01*
X270088863Y-83913200D01*
X270087719Y-83919296D01*
X270087619Y-83921612D01*
X270087618Y-83921619D01*
X270085643Y-83967705D01*
X270085592Y-83968789D01*
X270085570Y-83969203D01*
X270082712Y-84017850D01*
X270082926Y-84020397D01*
X270082574Y-84027227D01*
X270072278Y-84056594D01*
X270063885Y-84086561D01*
X270060816Y-84089288D01*
X270059458Y-84093162D01*
X270034919Y-84112301D01*
X270011657Y-84132973D01*
X270006521Y-84134450D01*
X270004364Y-84136133D01*
X269998948Y-84136628D01*
X269973486Y-84143952D01*
X260996264Y-85219249D01*
X260992058Y-85219680D01*
X260987850Y-85220039D01*
X260983676Y-85220324D01*
X260108399Y-85265325D01*
X260108399Y-85265326D01*
X260108398Y-85265325D01*
X260108397Y-85265326D01*
X260073254Y-85262105D01*
X260054495Y-85257629D01*
X259998664Y-85227663D01*
X259995136Y-85224370D01*
X259994156Y-85223096D01*
X259993856Y-85222924D01*
X259993503Y-85222245D01*
X259985902Y-85212358D01*
X259979824Y-85208297D01*
X259979497Y-85208079D01*
X259979448Y-85208046D01*
X259979387Y-85208005D01*
X259979385Y-85208003D01*
X259922385Y-85169917D01*
X259917642Y-85166024D01*
X259912230Y-85163132D01*
X259912229Y-85163131D01*
X259853752Y-85151500D01*
X259853750Y-85151500D01*
X258754249Y-85151500D01*
X258754247Y-85151500D01*
X258695770Y-85163131D01*
X258695769Y-85163131D01*
X258695768Y-85163132D01*
X258693254Y-85164475D01*
X258691308Y-85166112D01*
X258629447Y-85207447D01*
X258613070Y-85231957D01*
X258599592Y-85243301D01*
X258599455Y-85243360D01*
X258599259Y-85243580D01*
X258588613Y-85252476D01*
X258524548Y-85280358D01*
X258455584Y-85269180D01*
X258445650Y-85264427D01*
X258411487Y-85240252D01*
X257303426Y-84132191D01*
X257303421Y-84132186D01*
X257282274Y-84103935D01*
X257269667Y-84080846D01*
X257254500Y-84021421D01*
X257254500Y-77419926D01*
X257259522Y-77384993D01*
X257262716Y-77374116D01*
X257266934Y-77359748D01*
X257298228Y-77307006D01*
X257926966Y-76678269D01*
X258626520Y-75978716D01*
X258705577Y-75841784D01*
X258746501Y-75689057D01*
X258746501Y-75530942D01*
X258746501Y-75523347D01*
X258746501Y-75521663D01*
X258746500Y-75521589D01*
X258746500Y-74400446D01*
X258746500Y-74400445D01*
X258746499Y-74400441D01*
X258745867Y-74398080D01*
X258745866Y-74398079D01*
X258745856Y-74398039D01*
X258745856Y-74398038D01*
X258744920Y-74394548D01*
X258744914Y-74394526D01*
X258739443Y-74374108D01*
X268179500Y-74374108D01*
X268179500Y-74505890D01*
X268213608Y-74633188D01*
X268213650Y-74633260D01*
X268246554Y-74690250D01*
X268279500Y-74747314D01*
X268372686Y-74840500D01*
X268442314Y-74880699D01*
X268456579Y-74888936D01*
X268457030Y-74889196D01*
X268486810Y-74906390D01*
X268486814Y-74906392D01*
X268614108Y-74940500D01*
X268614110Y-74940500D01*
X268745889Y-74940500D01*
X268745890Y-74940500D01*
X268745892Y-74940500D01*
X268861594Y-74909497D01*
X268864347Y-74908796D01*
X268881281Y-74904685D01*
X268881282Y-74904686D01*
X268910228Y-74897660D01*
X268970277Y-74898048D01*
X268976602Y-74899670D01*
X269000258Y-74908381D01*
X269038766Y-74927207D01*
X269066107Y-74940573D01*
X269066110Y-74940573D01*
X269066112Y-74940574D01*
X269134238Y-74950500D01*
X270225761Y-74950500D01*
X270225762Y-74950500D01*
X270230303Y-74949838D01*
X270248471Y-74947191D01*
X270293893Y-74940573D01*
X270398983Y-74889198D01*
X270481698Y-74806483D01*
X270533073Y-74701393D01*
X270543000Y-74633260D01*
X270543000Y-74266740D01*
X270540096Y-74246812D01*
X270533073Y-74198608D01*
X270521123Y-74174163D01*
X270481698Y-74093517D01*
X270481696Y-74093515D01*
X270481696Y-74093514D01*
X270463470Y-74075288D01*
X270442318Y-74047032D01*
X270434826Y-74033311D01*
X270431036Y-74015893D01*
X270422495Y-74000255D01*
X270419974Y-73965051D01*
X270420085Y-73963499D01*
X270420103Y-73963242D01*
X270439473Y-73905041D01*
X270443657Y-73898530D01*
X270460287Y-73877895D01*
X270481696Y-73856485D01*
X270481698Y-73856483D01*
X270533073Y-73751393D01*
X270543000Y-73683260D01*
X270543000Y-73316740D01*
X270534268Y-73256812D01*
X270533073Y-73248607D01*
X270518020Y-73217816D01*
X270481698Y-73143517D01*
X270481696Y-73143515D01*
X270481696Y-73143514D01*
X270458472Y-73120290D01*
X270454079Y-73114763D01*
X270452283Y-73110344D01*
X270442318Y-73097032D01*
X270434826Y-73083311D01*
X270419974Y-73015051D01*
X270420103Y-73013242D01*
X270439473Y-72955041D01*
X270443657Y-72948530D01*
X270460287Y-72927895D01*
X270481696Y-72906485D01*
X270481698Y-72906483D01*
X270533073Y-72801393D01*
X270543000Y-72733260D01*
X270543000Y-72366740D01*
X270533073Y-72298607D01*
X270483371Y-72196940D01*
X270481933Y-72193752D01*
X270481696Y-72193514D01*
X270398985Y-72110803D01*
X270293891Y-72059426D01*
X270225761Y-72049500D01*
X270225760Y-72049500D01*
X270225755Y-72049500D01*
X269134245Y-72049500D01*
X269134240Y-72049500D01*
X269134239Y-72049500D01*
X269075841Y-72058008D01*
X269066107Y-72059426D01*
X268961011Y-72110804D01*
X268878304Y-72193511D01*
X268828254Y-72295892D01*
X268826926Y-72298608D01*
X268817000Y-72366739D01*
X268817000Y-72366740D01*
X268817000Y-72733260D01*
X268819466Y-72750185D01*
X268825264Y-72789979D01*
X268825303Y-72810922D01*
X268825330Y-72825268D01*
X268823381Y-72839010D01*
X268794478Y-72902621D01*
X268735773Y-72940508D01*
X268722576Y-72944410D01*
X268687415Y-72949500D01*
X268644108Y-72949500D01*
X268516808Y-72983609D01*
X268516806Y-72983610D01*
X268402696Y-73049493D01*
X268402682Y-73049502D01*
X268402677Y-73049506D01*
X268309506Y-73142677D01*
X268309502Y-73142682D01*
X268309493Y-73142696D01*
X268243610Y-73256806D01*
X268243609Y-73256809D01*
X268227551Y-73316739D01*
X268209500Y-73384106D01*
X268209500Y-73384108D01*
X268209500Y-73515892D01*
X268213414Y-73530500D01*
X268243608Y-73643187D01*
X268263594Y-73677803D01*
X268309500Y-73757314D01*
X268309502Y-73757316D01*
X268384652Y-73832466D01*
X268405801Y-73860717D01*
X268412453Y-73872899D01*
X268427305Y-73941172D01*
X268402889Y-74006637D01*
X268402884Y-74006643D01*
X268396077Y-74015735D01*
X268375503Y-74036563D01*
X268375733Y-74036825D01*
X268372697Y-74039488D01*
X268279502Y-74132682D01*
X268279493Y-74132696D01*
X268213610Y-74246806D01*
X268213609Y-74246808D01*
X268179500Y-74374108D01*
X258739443Y-74374108D01*
X258705577Y-74247716D01*
X258677225Y-74198608D01*
X258677225Y-74198607D01*
X258671277Y-74188306D01*
X258658887Y-74158395D01*
X258650724Y-74127928D01*
X258646500Y-74095839D01*
X258646500Y-73933738D01*
X258636573Y-73865609D01*
X258636573Y-73865608D01*
X258634076Y-73860500D01*
X258586872Y-73763941D01*
X258585434Y-73760752D01*
X258502485Y-73677803D01*
X258476762Y-73665228D01*
X258397391Y-73626426D01*
X258329261Y-73616500D01*
X258329260Y-73616500D01*
X258329255Y-73616500D01*
X257962745Y-73616500D01*
X257962740Y-73616500D01*
X257962739Y-73616500D01*
X257911640Y-73623944D01*
X257894606Y-73626426D01*
X257789517Y-73677800D01*
X257789510Y-73677805D01*
X257771285Y-73696031D01*
X257771282Y-73696032D01*
X257771282Y-73696034D01*
X257743027Y-73717184D01*
X257729309Y-73724674D01*
X257661051Y-73739525D01*
X257661036Y-73739523D01*
X257661036Y-73739524D01*
X257661035Y-73739523D01*
X257659245Y-73739396D01*
X257601044Y-73720028D01*
X257594529Y-73715841D01*
X257573896Y-73699214D01*
X257552485Y-73677803D01*
X257447391Y-73626426D01*
X257379261Y-73616500D01*
X257379260Y-73616500D01*
X257379255Y-73616500D01*
X257012745Y-73616500D01*
X257012740Y-73616500D01*
X257012739Y-73616500D01*
X256954341Y-73625008D01*
X256944607Y-73626426D01*
X256839513Y-73677803D01*
X256756800Y-73760517D01*
X256754879Y-73764446D01*
X256738665Y-73788267D01*
X256735032Y-73793605D01*
X256724489Y-73805144D01*
X256664752Y-73841355D01*
X256661029Y-73842343D01*
X256603422Y-73843777D01*
X256599337Y-73842908D01*
X256577642Y-73836165D01*
X256576687Y-73835769D01*
X256573441Y-73834286D01*
X256570605Y-73833618D01*
X256570604Y-73833617D01*
X256570579Y-73833612D01*
X256563920Y-73832040D01*
X256560691Y-73831722D01*
X256398700Y-73799500D01*
X256398696Y-73799500D01*
X256398692Y-73799500D01*
X256221308Y-73799500D01*
X256221303Y-73799500D01*
X256221299Y-73799500D01*
X256047366Y-73834097D01*
X256047333Y-73834105D01*
X255883450Y-73901988D01*
X255883448Y-73901989D01*
X255883438Y-73901995D01*
X255735963Y-74000536D01*
X255735958Y-74000540D01*
X254356128Y-75380367D01*
X254356109Y-75380388D01*
X254354540Y-75381958D01*
X254354536Y-75381964D01*
X254353760Y-75383124D01*
X254353749Y-75383138D01*
X254255989Y-75529445D01*
X254255988Y-75529448D01*
X254235159Y-75579735D01*
X254235159Y-75579736D01*
X254188108Y-75693324D01*
X254188104Y-75693337D01*
X254188099Y-75693358D01*
X254153501Y-75867289D01*
X254153500Y-75867309D01*
X254153500Y-85435883D01*
X254153499Y-85435889D01*
X254153500Y-85435892D01*
X254148475Y-85470827D01*
X254144070Y-85485825D01*
X254106325Y-85544570D01*
X254106291Y-85544598D01*
X254106291Y-85544600D01*
X254106289Y-85544600D01*
X254103678Y-85546865D01*
X254051889Y-85573630D01*
X254047233Y-85574768D01*
X254024159Y-85578150D01*
X243831356Y-86102216D01*
X243831356Y-86102217D01*
X243831355Y-86102216D01*
X243831354Y-86102217D01*
X243796209Y-86098995D01*
X243781389Y-86095459D01*
X243720748Y-86060754D01*
X243689374Y-86002863D01*
X243689026Y-86001363D01*
X243686765Y-85991613D01*
X243683595Y-85960623D01*
X243737759Y-83711057D01*
X243743618Y-83676268D01*
X243750256Y-83655523D01*
X243757457Y-83643754D01*
X243759713Y-83633544D01*
X243780950Y-83605361D01*
X243784748Y-83601587D01*
X243803250Y-83586451D01*
X243869612Y-83542112D01*
X243927740Y-83455117D01*
X243943000Y-83378401D01*
X243942999Y-82626600D01*
X243927740Y-82549883D01*
X243927738Y-82549881D01*
X243927567Y-82549017D01*
X243925107Y-82542238D01*
X243914102Y-82507093D01*
X243910819Y-82445849D01*
X243918000Y-82409750D01*
X243918000Y-81757328D01*
X243923023Y-81722392D01*
X243927427Y-81707394D01*
X243965161Y-81648652D01*
X243965201Y-81648617D01*
X243966534Y-81647461D01*
X244021425Y-81619974D01*
X244028983Y-81618329D01*
X244055327Y-81615499D01*
X244705898Y-81615499D01*
X244705900Y-81615499D01*
X244782617Y-81600240D01*
X244869612Y-81542112D01*
X244927740Y-81455117D01*
X244943000Y-81378401D01*
X244942999Y-81201600D01*
X244927740Y-81124883D01*
X244927739Y-81124881D01*
X244927738Y-81124878D01*
X244926963Y-81123718D01*
X244926959Y-81123711D01*
X244926956Y-81123708D01*
X244911726Y-81091873D01*
X244907053Y-81076952D01*
X244905808Y-81007100D01*
X244906302Y-81005300D01*
X244909410Y-80993970D01*
X244925891Y-80957882D01*
X244927740Y-80955117D01*
X244943000Y-80878401D01*
X244942999Y-80701600D01*
X244927740Y-80624883D01*
X244927739Y-80624881D01*
X244927738Y-80624879D01*
X244904361Y-80589894D01*
X244869612Y-80537888D01*
X244811747Y-80499224D01*
X244782619Y-80479761D01*
X244782617Y-80479760D01*
X244782615Y-80479759D01*
X244782612Y-80479758D01*
X244782609Y-80479757D01*
X244782600Y-80479754D01*
X244705908Y-80464500D01*
X244705904Y-80464500D01*
X244059830Y-80464500D01*
X244059825Y-80464499D01*
X244059823Y-80464500D01*
X244024889Y-80459475D01*
X244009890Y-80455070D01*
X243951144Y-80417327D01*
X243951115Y-80417293D01*
X243951114Y-80417293D01*
X243951113Y-80417291D01*
X243949957Y-80415958D01*
X243922477Y-80361083D01*
X243920832Y-80353521D01*
X243918000Y-80327168D01*
X243918000Y-80257323D01*
X243919869Y-80235874D01*
X243921506Y-80226553D01*
X243922905Y-80223723D01*
X243923022Y-80222392D01*
X243924305Y-80218022D01*
X243925276Y-80218307D01*
X243929379Y-80202234D01*
X243928687Y-80201976D01*
X243929748Y-80199130D01*
X243930391Y-80198270D01*
X243930849Y-80196477D01*
X243932087Y-80193767D01*
X243933334Y-80194337D01*
X243942272Y-80182393D01*
X243945150Y-80172612D01*
X243950474Y-80168003D01*
X243952490Y-80163929D01*
X243959020Y-80160013D01*
X243968020Y-80147986D01*
X243967123Y-80146951D01*
X243968179Y-80146035D01*
X243970158Y-80145129D01*
X243971610Y-80143190D01*
X243971647Y-80143163D01*
X243974086Y-80141338D01*
X243975198Y-80142824D01*
X243984448Y-80138594D01*
X243997977Y-80126884D01*
X244031603Y-80117029D01*
X244031717Y-80116976D01*
X244032589Y-80116851D01*
X244033285Y-80116752D01*
X244050869Y-80115499D01*
X244086529Y-80115499D01*
X244118620Y-80119724D01*
X244144676Y-80126705D01*
X244149083Y-80127886D01*
X244149371Y-80127963D01*
X244169858Y-80136099D01*
X244173662Y-80137543D01*
X244173747Y-80137375D01*
X244175409Y-80138205D01*
X244175410Y-80138206D01*
X244175412Y-80138207D01*
X244277273Y-80165500D01*
X244277275Y-80165500D01*
X244382725Y-80165500D01*
X244382727Y-80165500D01*
X244484588Y-80138207D01*
X244484594Y-80138203D01*
X244492097Y-80135096D01*
X244492304Y-80135597D01*
X244510915Y-80127886D01*
X244523863Y-80124417D01*
X244541379Y-80119724D01*
X244573471Y-80115499D01*
X244705898Y-80115499D01*
X244705900Y-80115499D01*
X244782617Y-80100240D01*
X244869612Y-80042112D01*
X244877421Y-80030423D01*
X244901000Y-80004175D01*
X244917101Y-79990719D01*
X244971344Y-79964472D01*
X244977927Y-79963101D01*
X245003193Y-79960500D01*
X245792415Y-79960500D01*
X245827347Y-79965521D01*
X245852591Y-79972934D01*
X245905337Y-80004230D01*
X246923074Y-81021967D01*
X246944223Y-81050218D01*
X246956831Y-81073307D01*
X246972000Y-81132736D01*
X246972000Y-82044269D01*
X246974853Y-82074699D01*
X246974853Y-82074701D01*
X247019258Y-82201599D01*
X247019707Y-82202882D01*
X247019732Y-82202916D01*
X247019733Y-82202918D01*
X247054830Y-82250473D01*
X247100350Y-82312150D01*
X247129788Y-82333876D01*
X247143162Y-82345297D01*
X247147443Y-82349513D01*
X247150501Y-82355014D01*
X247154250Y-82359173D01*
X247154917Y-82358667D01*
X247156446Y-82360681D01*
X247155949Y-82361057D01*
X247164750Y-82370821D01*
X247168079Y-82376002D01*
X247169163Y-82377429D01*
X247169290Y-82377732D01*
X247169459Y-82377974D01*
X247169406Y-82378010D01*
X247175026Y-82391424D01*
X247183126Y-82400747D01*
X247193114Y-82434598D01*
X247193215Y-82435294D01*
X247194500Y-82453102D01*
X247194500Y-82505192D01*
X247189476Y-82540130D01*
X247185072Y-82555127D01*
X247147296Y-82613904D01*
X247147296Y-82613905D01*
X247128584Y-82630118D01*
X247121019Y-82636171D01*
X247010351Y-82717848D01*
X247010347Y-82717852D01*
X246929706Y-82827118D01*
X246884853Y-82955297D01*
X246884478Y-82957499D01*
X246884312Y-82961069D01*
X246882000Y-82985733D01*
X246882000Y-83994265D01*
X246884312Y-84018929D01*
X246884478Y-84022499D01*
X246884853Y-84024699D01*
X246884853Y-84024701D01*
X246929706Y-84152880D01*
X246929707Y-84152882D01*
X247010350Y-84262150D01*
X247119617Y-84342792D01*
X247119618Y-84342793D01*
X247247799Y-84387646D01*
X247247803Y-84387647D01*
X247266242Y-84389375D01*
X247278230Y-84390500D01*
X247278234Y-84390500D01*
X247278239Y-84390500D01*
X247911770Y-84390500D01*
X247911771Y-84390500D01*
X247913076Y-84390377D01*
X247942199Y-84387646D01*
X247942201Y-84387646D01*
X248006290Y-84365219D01*
X248070382Y-84342793D01*
X248179650Y-84262150D01*
X248260293Y-84152882D01*
X248281190Y-84093162D01*
X248283587Y-84086312D01*
X248283587Y-84086308D01*
X248284653Y-84083265D01*
X248305146Y-84024701D01*
X248305146Y-84024699D01*
X248308000Y-83994269D01*
X248308000Y-82985730D01*
X248305687Y-82961078D01*
X248305520Y-82957502D01*
X248305146Y-82955300D01*
X248305146Y-82955298D01*
X248260293Y-82827119D01*
X248260292Y-82827117D01*
X248260292Y-82827116D01*
X248193495Y-82736610D01*
X248179650Y-82717850D01*
X248077787Y-82642672D01*
X248052666Y-82617890D01*
X248044521Y-82607162D01*
X248019662Y-82541867D01*
X248034050Y-82473495D01*
X248076953Y-82427414D01*
X248084135Y-82422867D01*
X248109512Y-82410593D01*
X248160379Y-82392794D01*
X248160378Y-82392794D01*
X248160382Y-82392793D01*
X248269650Y-82312150D01*
X248350293Y-82202882D01*
X248377586Y-82124883D01*
X248395146Y-82074701D01*
X248395146Y-82074699D01*
X248398000Y-82044269D01*
X248398000Y-81035730D01*
X248797000Y-81035730D01*
X248797000Y-82044269D01*
X248797536Y-82049983D01*
X248799312Y-82068929D01*
X248799478Y-82072499D01*
X248799852Y-82074701D01*
X248817413Y-82124883D01*
X248844258Y-82201599D01*
X248844707Y-82202881D01*
X248844708Y-82202884D01*
X248876328Y-82245728D01*
X248925350Y-82312150D01*
X249034618Y-82392793D01*
X249055529Y-82400110D01*
X249162799Y-82437646D01*
X249162803Y-82437647D01*
X249181242Y-82439375D01*
X249193230Y-82440500D01*
X249193234Y-82440500D01*
X249193239Y-82440500D01*
X249826770Y-82440500D01*
X249826771Y-82440500D01*
X249829190Y-82440272D01*
X249857199Y-82437646D01*
X249857201Y-82437646D01*
X249946955Y-82406239D01*
X249985382Y-82392793D01*
X250094650Y-82312150D01*
X250175293Y-82202882D01*
X250202586Y-82124883D01*
X250220146Y-82074701D01*
X250220146Y-82074699D01*
X250221610Y-82059090D01*
X250225113Y-82047090D01*
X250227375Y-82043556D01*
X250227734Y-82042274D01*
X250228949Y-82035946D01*
X250229382Y-82034859D01*
X250229769Y-82035013D01*
X250232075Y-82026778D01*
X250236203Y-82017740D01*
X250236203Y-82017738D01*
X250236840Y-82016345D01*
X250238070Y-82016906D01*
X250245725Y-82007218D01*
X250252076Y-81991291D01*
X250274755Y-81970481D01*
X250277586Y-81966899D01*
X250278810Y-81966024D01*
X250278854Y-81965996D01*
X250282159Y-81963633D01*
X250282430Y-81963539D01*
X250336983Y-81941746D01*
X250337275Y-81941705D01*
X250347232Y-81941009D01*
X250348150Y-81940690D01*
X250348969Y-81940887D01*
X250354517Y-81940500D01*
X250390375Y-81940500D01*
X250406549Y-81941559D01*
X250422541Y-81943664D01*
X250438433Y-81946825D01*
X250564108Y-81980500D01*
X250564110Y-81980500D01*
X250695890Y-81980500D01*
X250695892Y-81980500D01*
X250823186Y-81946392D01*
X250937314Y-81880500D01*
X251030500Y-81787314D01*
X251096392Y-81673186D01*
X251130500Y-81545892D01*
X251130500Y-81414108D01*
X251096392Y-81286814D01*
X251030500Y-81172686D01*
X250937314Y-81079500D01*
X250868898Y-81040000D01*
X250868898Y-81039999D01*
X250868896Y-81039999D01*
X250861507Y-81035733D01*
X250823187Y-81013608D01*
X250759539Y-80996554D01*
X250695892Y-80979500D01*
X250695891Y-80979500D01*
X250564108Y-80979500D01*
X250436808Y-81013609D01*
X250404028Y-81032535D01*
X250404024Y-81032536D01*
X250404023Y-81032538D01*
X250371256Y-81045654D01*
X250357770Y-81048925D01*
X250287980Y-81045597D01*
X250231069Y-81005067D01*
X250223995Y-80996071D01*
X250204427Y-80960378D01*
X250175293Y-80877119D01*
X250175292Y-80877117D01*
X250094650Y-80767850D01*
X249985382Y-80687207D01*
X249985380Y-80687206D01*
X249857204Y-80642354D01*
X249857202Y-80642353D01*
X249857200Y-80642353D01*
X249826770Y-80639500D01*
X249826766Y-80639500D01*
X249826764Y-80639500D01*
X249193234Y-80639500D01*
X249193230Y-80639500D01*
X249174574Y-80641249D01*
X249168569Y-80641812D01*
X249164999Y-80641978D01*
X249162797Y-80642353D01*
X249034618Y-80687206D01*
X248925349Y-80767849D01*
X248844706Y-80877118D01*
X248799853Y-81005297D01*
X248799478Y-81007499D01*
X248799312Y-81011069D01*
X248797000Y-81035730D01*
X248398000Y-81035730D01*
X248395639Y-81010563D01*
X248395598Y-81010077D01*
X248395633Y-81009904D01*
X248395520Y-81007501D01*
X248395145Y-81005297D01*
X248377586Y-80955115D01*
X248350744Y-80878405D01*
X248350293Y-80877118D01*
X248350292Y-80877117D01*
X248269650Y-80767850D01*
X248160382Y-80687207D01*
X248160380Y-80687206D01*
X248032204Y-80642354D01*
X248032202Y-80642353D01*
X248032200Y-80642353D01*
X248001770Y-80639500D01*
X248001766Y-80639500D01*
X248001764Y-80639500D01*
X247742585Y-80639500D01*
X247742584Y-80639499D01*
X247742584Y-80639500D01*
X247707649Y-80634477D01*
X247682407Y-80627065D01*
X247629662Y-80595769D01*
X247328681Y-80294788D01*
X247307532Y-80266538D01*
X247302500Y-80257323D01*
X247302110Y-80256608D01*
X247287257Y-80188338D01*
X247311671Y-80122873D01*
X247367601Y-80081001D01*
X247371480Y-80079554D01*
X247374816Y-80078311D01*
X247418130Y-80070500D01*
X247861771Y-80070500D01*
X247864143Y-80070277D01*
X247892199Y-80067646D01*
X247892201Y-80067646D01*
X247929113Y-80054729D01*
X248016891Y-80024014D01*
X248038821Y-80021012D01*
X248044371Y-80015927D01*
X248044374Y-80015928D01*
X248044374Y-80015925D01*
X248077048Y-79985997D01*
X248093556Y-79968787D01*
X248129650Y-79942150D01*
X248210293Y-79832882D01*
X248232719Y-79768790D01*
X248255146Y-79704701D01*
X248255146Y-79704699D01*
X248258000Y-79674269D01*
X248258000Y-78665730D01*
X248255687Y-78641078D01*
X248255520Y-78637502D01*
X248255146Y-78635300D01*
X248255146Y-78635298D01*
X248210293Y-78507119D01*
X248210292Y-78507117D01*
X248152055Y-78428209D01*
X248147778Y-78422029D01*
X248133727Y-78400351D01*
X248133420Y-78399999D01*
X248110575Y-78369905D01*
X248105073Y-78357241D01*
X248098006Y-78349524D01*
X248087135Y-78315946D01*
X248086226Y-78310660D01*
X248084466Y-78286785D01*
X248099620Y-77633219D01*
X248105453Y-77598412D01*
X248115151Y-77568012D01*
X248133515Y-77532063D01*
X248140293Y-77522882D01*
X248155244Y-77480154D01*
X248185146Y-77394701D01*
X248185146Y-77394699D01*
X248185520Y-77392497D01*
X248185688Y-77388919D01*
X248188000Y-77364270D01*
X248188000Y-76358130D01*
X248188000Y-76355730D01*
X248188000Y-76355729D01*
X248587000Y-76355729D01*
X248587000Y-77364265D01*
X248589312Y-77388929D01*
X248589478Y-77392499D01*
X248589853Y-77394699D01*
X248589853Y-77394701D01*
X248634706Y-77522880D01*
X248634707Y-77522882D01*
X248715350Y-77632150D01*
X248824617Y-77712792D01*
X248824618Y-77712793D01*
X248952799Y-77757646D01*
X248952803Y-77757647D01*
X248971242Y-77759375D01*
X248983230Y-77760500D01*
X248983234Y-77760500D01*
X248983239Y-77760500D01*
X249616770Y-77760500D01*
X249616771Y-77760500D01*
X249618076Y-77760377D01*
X249647199Y-77757646D01*
X249647201Y-77757646D01*
X249711290Y-77735219D01*
X249775382Y-77712793D01*
X249884650Y-77632150D01*
X249965293Y-77522882D01*
X250006394Y-77405420D01*
X250022664Y-77374120D01*
X250031780Y-77361410D01*
X250086839Y-77318409D01*
X250090839Y-77316823D01*
X250147027Y-77308552D01*
X250150670Y-77308862D01*
X250156361Y-77309478D01*
X250164102Y-77310498D01*
X250164108Y-77310500D01*
X250164111Y-77310500D01*
X250295890Y-77310500D01*
X250295892Y-77310500D01*
X250423186Y-77276392D01*
X250537314Y-77210500D01*
X250630500Y-77117314D01*
X250696392Y-77003186D01*
X250730500Y-76875892D01*
X250730500Y-76744108D01*
X250696392Y-76616814D01*
X250630500Y-76502686D01*
X250537314Y-76409500D01*
X250444182Y-76355730D01*
X250423187Y-76343608D01*
X250330578Y-76318794D01*
X250330578Y-76318793D01*
X250295893Y-76309500D01*
X250295892Y-76309500D01*
X250164108Y-76309500D01*
X250164106Y-76309500D01*
X250164101Y-76309501D01*
X250146651Y-76314175D01*
X250146651Y-76314176D01*
X250146649Y-76314176D01*
X250146635Y-76314180D01*
X250111607Y-76318368D01*
X250095980Y-76317997D01*
X250029427Y-76296727D01*
X250029424Y-76296725D01*
X250025875Y-76294323D01*
X249987381Y-76252553D01*
X249985689Y-76249552D01*
X249976661Y-76229608D01*
X249965293Y-76197119D01*
X249965292Y-76197117D01*
X249950556Y-76177150D01*
X249884650Y-76087850D01*
X249775382Y-76007207D01*
X249775380Y-76007206D01*
X249693965Y-75978717D01*
X249647204Y-75962354D01*
X249647202Y-75962353D01*
X249647200Y-75962353D01*
X249616770Y-75959500D01*
X249616766Y-75959500D01*
X249616764Y-75959500D01*
X248983234Y-75959500D01*
X248983230Y-75959500D01*
X248964574Y-75961249D01*
X248958569Y-75961812D01*
X248954999Y-75961978D01*
X248952797Y-75962353D01*
X248824618Y-76007206D01*
X248715349Y-76087849D01*
X248634706Y-76197118D01*
X248589853Y-76325297D01*
X248589478Y-76327499D01*
X248589312Y-76331069D01*
X248587000Y-76355729D01*
X248188000Y-76355729D01*
X248185639Y-76330563D01*
X248185598Y-76330077D01*
X248185633Y-76329904D01*
X248185520Y-76327501D01*
X248185146Y-76325298D01*
X248182288Y-76317131D01*
X248144517Y-76209189D01*
X248139080Y-76187595D01*
X248135646Y-76165863D01*
X248134159Y-76143635D01*
X248135453Y-76087850D01*
X248226431Y-72164106D01*
X256109500Y-72164106D01*
X256109500Y-72164108D01*
X256109500Y-72295892D01*
X256122739Y-72345301D01*
X256143608Y-72423187D01*
X256176554Y-72480250D01*
X256209500Y-72537314D01*
X256302686Y-72630500D01*
X256416814Y-72696392D01*
X256544108Y-72730500D01*
X256544110Y-72730500D01*
X256568970Y-72730500D01*
X256603905Y-72735523D01*
X256618903Y-72739927D01*
X256677675Y-72777696D01*
X256677681Y-72777702D01*
X256677681Y-72777703D01*
X256685289Y-72786482D01*
X256702344Y-72814559D01*
X256703320Y-72814082D01*
X256705427Y-72818391D01*
X256705427Y-72818392D01*
X256756803Y-72923485D01*
X256839514Y-73006196D01*
X256839515Y-73006196D01*
X256839517Y-73006198D01*
X256944607Y-73057573D01*
X256966769Y-73060802D01*
X257012739Y-73067500D01*
X257012740Y-73067500D01*
X257379261Y-73067500D01*
X257379262Y-73067500D01*
X257383803Y-73066838D01*
X257401971Y-73064191D01*
X257447393Y-73057573D01*
X257552483Y-73006198D01*
X257559181Y-72999500D01*
X257570719Y-72987961D01*
X257598961Y-72966821D01*
X257612692Y-72959323D01*
X257680946Y-72944474D01*
X257682756Y-72944603D01*
X257740953Y-72963969D01*
X257747471Y-72968158D01*
X257768106Y-72984788D01*
X257789751Y-73006433D01*
X257792941Y-73007871D01*
X257834961Y-73028414D01*
X257894604Y-73057572D01*
X257894605Y-73057572D01*
X257894607Y-73057573D01*
X257916769Y-73060802D01*
X257962739Y-73067500D01*
X257962740Y-73067500D01*
X258329261Y-73067500D01*
X258329262Y-73067500D01*
X258333803Y-73066838D01*
X258351971Y-73064191D01*
X258397393Y-73057573D01*
X258502483Y-73006198D01*
X258509181Y-72999500D01*
X258520719Y-72987961D01*
X258548961Y-72966821D01*
X258562692Y-72959323D01*
X258630946Y-72944474D01*
X258632756Y-72944603D01*
X258690953Y-72963969D01*
X258697471Y-72968158D01*
X258718106Y-72984788D01*
X258739751Y-73006433D01*
X258742941Y-73007871D01*
X258784961Y-73028414D01*
X258844604Y-73057572D01*
X258844605Y-73057572D01*
X258844607Y-73057573D01*
X258866769Y-73060802D01*
X258912739Y-73067500D01*
X258912740Y-73067500D01*
X259279261Y-73067500D01*
X259279262Y-73067500D01*
X259283803Y-73066838D01*
X259301971Y-73064191D01*
X259347393Y-73057573D01*
X259452483Y-73006198D01*
X259535198Y-72923483D01*
X259586573Y-72818393D01*
X259596500Y-72750260D01*
X259596500Y-71658740D01*
X259586573Y-71590607D01*
X259536871Y-71488940D01*
X259535433Y-71485752D01*
X259535196Y-71485514D01*
X259452485Y-71402803D01*
X259347391Y-71351426D01*
X259279261Y-71341500D01*
X259279260Y-71341500D01*
X259279255Y-71341500D01*
X258912745Y-71341500D01*
X258912740Y-71341500D01*
X258912739Y-71341500D01*
X258861640Y-71348944D01*
X258844606Y-71351426D01*
X258739517Y-71402800D01*
X258739510Y-71402805D01*
X258721285Y-71421031D01*
X258721282Y-71421032D01*
X258721282Y-71421034D01*
X258693027Y-71442184D01*
X258679309Y-71449674D01*
X258611051Y-71464525D01*
X258611036Y-71464523D01*
X258611036Y-71464524D01*
X258611035Y-71464523D01*
X258609245Y-71464396D01*
X258551044Y-71445028D01*
X258544529Y-71440841D01*
X258523896Y-71424214D01*
X258502485Y-71402803D01*
X258397391Y-71351426D01*
X258329261Y-71341500D01*
X258329260Y-71341500D01*
X258329255Y-71341500D01*
X257962745Y-71341500D01*
X257962740Y-71341500D01*
X257962739Y-71341500D01*
X257911640Y-71348944D01*
X257894606Y-71351426D01*
X257789517Y-71402800D01*
X257789510Y-71402805D01*
X257771285Y-71421031D01*
X257771282Y-71421032D01*
X257771282Y-71421034D01*
X257743027Y-71442184D01*
X257729309Y-71449674D01*
X257661051Y-71464525D01*
X257661036Y-71464523D01*
X257661036Y-71464524D01*
X257661035Y-71464523D01*
X257659245Y-71464396D01*
X257601044Y-71445028D01*
X257594529Y-71440841D01*
X257573896Y-71424214D01*
X257552485Y-71402803D01*
X257447391Y-71351426D01*
X257379261Y-71341500D01*
X257379260Y-71341500D01*
X257379255Y-71341500D01*
X257012745Y-71341500D01*
X257012740Y-71341500D01*
X257012739Y-71341500D01*
X256954341Y-71350008D01*
X256944607Y-71351426D01*
X256839511Y-71402804D01*
X256756804Y-71485511D01*
X256705425Y-71590609D01*
X256703221Y-71605739D01*
X256694888Y-71633920D01*
X256693215Y-71639578D01*
X256686694Y-71653787D01*
X256640844Y-71706504D01*
X256635479Y-71709938D01*
X256568631Y-71729500D01*
X256544108Y-71729500D01*
X256416808Y-71763609D01*
X256416806Y-71763610D01*
X256302696Y-71829493D01*
X256302682Y-71829502D01*
X256302677Y-71829506D01*
X256209506Y-71922677D01*
X256209502Y-71922682D01*
X256209493Y-71922696D01*
X256143610Y-72036806D01*
X256143609Y-72036809D01*
X256143608Y-72036811D01*
X256143608Y-72036812D01*
X256137549Y-72059426D01*
X256124574Y-72107850D01*
X256109500Y-72164106D01*
X248226431Y-72164106D01*
X248267718Y-70383491D01*
X248273548Y-70348695D01*
X248278302Y-70333792D01*
X248317425Y-70275914D01*
X248319409Y-70274273D01*
X248373479Y-70248383D01*
X248379795Y-70247087D01*
X248404773Y-70244557D01*
X278352061Y-70259502D01*
G37*
%TD.AperFunction*%
%TD*%
%TA.AperFunction,Conductor*%
%TO.N,24V_AMP*%
G36*
X219340614Y-115061061D02*
G01*
X243323393Y-117459339D01*
X243388142Y-117485597D01*
X243428415Y-117542692D01*
X243434924Y-117577025D01*
X244663595Y-144280815D01*
X244647012Y-144348688D01*
X244596367Y-144396822D01*
X244531011Y-144410207D01*
X244341042Y-144396822D01*
X243657893Y-144348688D01*
X229264431Y-143334539D01*
X229198941Y-143310192D01*
X229166791Y-143274600D01*
X222747927Y-132566530D01*
X222712631Y-132507648D01*
X229919500Y-132507648D01*
X229919500Y-132712351D01*
X229951522Y-132914534D01*
X230014781Y-133109223D01*
X230107715Y-133291613D01*
X230228028Y-133457213D01*
X230372786Y-133601971D01*
X230527749Y-133714556D01*
X230538390Y-133722287D01*
X230654607Y-133781503D01*
X230720776Y-133815218D01*
X230720778Y-133815218D01*
X230720781Y-133815220D01*
X230825137Y-133849127D01*
X230915465Y-133878477D01*
X231016557Y-133894488D01*
X231117648Y-133910500D01*
X231117649Y-133910500D01*
X231322351Y-133910500D01*
X231322352Y-133910500D01*
X231524534Y-133878477D01*
X231719219Y-133815220D01*
X231901610Y-133722287D01*
X231994590Y-133654732D01*
X232067213Y-133601971D01*
X232067215Y-133601968D01*
X232067219Y-133601966D01*
X232211966Y-133457219D01*
X232211968Y-133457215D01*
X232211971Y-133457213D01*
X232264732Y-133384590D01*
X232332287Y-133291610D01*
X232425220Y-133109219D01*
X232488477Y-132914534D01*
X232520500Y-132712352D01*
X232520500Y-132507648D01*
X232488477Y-132305466D01*
X232425220Y-132110781D01*
X232425218Y-132110778D01*
X232425218Y-132110776D01*
X232391503Y-132044607D01*
X232332287Y-131928390D01*
X232324556Y-131917749D01*
X232211971Y-131762786D01*
X232067213Y-131618028D01*
X231901613Y-131497715D01*
X231901612Y-131497714D01*
X231901610Y-131497713D01*
X231844653Y-131468691D01*
X231719223Y-131404781D01*
X231524534Y-131341522D01*
X231349995Y-131313878D01*
X231322352Y-131309500D01*
X231117648Y-131309500D01*
X231093329Y-131313351D01*
X230915465Y-131341522D01*
X230720776Y-131404781D01*
X230538386Y-131497715D01*
X230372786Y-131618028D01*
X230228028Y-131762786D01*
X230107715Y-131928386D01*
X230014781Y-132110776D01*
X229951522Y-132305465D01*
X229919500Y-132507648D01*
X222712631Y-132507648D01*
X220624209Y-129023704D01*
X220607201Y-128972507D01*
X219693666Y-119997984D01*
X219692884Y-119990299D01*
X232259500Y-119990299D01*
X232259500Y-120195002D01*
X232291522Y-120397185D01*
X232354781Y-120591874D01*
X232447715Y-120774264D01*
X232568028Y-120939864D01*
X232712786Y-121084622D01*
X232867749Y-121197207D01*
X232878390Y-121204938D01*
X232994607Y-121264154D01*
X233060776Y-121297869D01*
X233060778Y-121297869D01*
X233060781Y-121297871D01*
X233165137Y-121331778D01*
X233255465Y-121361128D01*
X233356557Y-121377139D01*
X233457648Y-121393151D01*
X233457649Y-121393151D01*
X233662351Y-121393151D01*
X233662352Y-121393151D01*
X233864534Y-121361128D01*
X234059219Y-121297871D01*
X234241610Y-121204938D01*
X234334590Y-121137383D01*
X234407213Y-121084622D01*
X234407215Y-121084619D01*
X234407219Y-121084617D01*
X234551966Y-120939870D01*
X234551968Y-120939866D01*
X234551971Y-120939864D01*
X234604732Y-120867241D01*
X234672287Y-120774261D01*
X234765220Y-120591870D01*
X234828477Y-120397185D01*
X234860500Y-120195003D01*
X234860500Y-119990299D01*
X234828477Y-119788117D01*
X234765220Y-119593432D01*
X234765218Y-119593429D01*
X234765218Y-119593427D01*
X234731503Y-119527258D01*
X234672287Y-119411041D01*
X234664556Y-119400400D01*
X234551971Y-119245437D01*
X234407213Y-119100679D01*
X234241613Y-118980366D01*
X234241612Y-118980365D01*
X234241610Y-118980364D01*
X234184653Y-118951342D01*
X234059223Y-118887432D01*
X233864534Y-118824173D01*
X233687941Y-118796204D01*
X233662352Y-118792151D01*
X233457648Y-118792151D01*
X233433329Y-118796002D01*
X233255465Y-118824173D01*
X233060776Y-118887432D01*
X232878386Y-118980366D01*
X232712786Y-119100679D01*
X232568028Y-119245437D01*
X232447715Y-119411037D01*
X232354781Y-119593427D01*
X232291522Y-119788116D01*
X232259500Y-119990299D01*
X219692884Y-119990299D01*
X219204964Y-115197007D01*
X219217759Y-115128319D01*
X219265658Y-115077452D01*
X219333454Y-115060556D01*
X219340614Y-115061061D01*
G37*
%TD.AperFunction*%
%TD*%
%TA.AperFunction,Conductor*%
%TO.N,3V3*%
G36*
X135193020Y-86942289D02*
G01*
X136645934Y-87197802D01*
X136682399Y-87210299D01*
X136687116Y-87212791D01*
X136687118Y-87212793D01*
X136815301Y-87257646D01*
X136825445Y-87258597D01*
X136845730Y-87260500D01*
X136991630Y-87260500D01*
X137013107Y-87262374D01*
X137947681Y-87426730D01*
X138010298Y-87457729D01*
X138011750Y-87460153D01*
X138676066Y-87456561D01*
X139775210Y-87450620D01*
X139842354Y-87469942D01*
X139888393Y-87522498D01*
X139899457Y-87564402D01*
X140192402Y-91108091D01*
X140187146Y-91133606D01*
X140185739Y-91159620D01*
X140180212Y-91167275D01*
X140178308Y-91176524D01*
X140160091Y-91195148D01*
X140144844Y-91216271D01*
X140132647Y-91223207D01*
X140129453Y-91226474D01*
X140114165Y-91233720D01*
X139938556Y-91302709D01*
X139900093Y-91311105D01*
X139109999Y-91355000D01*
X138575216Y-91432045D01*
X138506054Y-91422121D01*
X138477421Y-91403957D01*
X136260768Y-89527580D01*
X136228501Y-89485339D01*
X135480000Y-87880000D01*
X135146076Y-87857264D01*
X135080528Y-87833070D01*
X135038466Y-87777280D01*
X135030499Y-87733550D01*
X135030499Y-87697870D01*
X135030499Y-87697868D01*
X135014515Y-87617505D01*
X134994309Y-87587266D01*
X134953624Y-87526375D01*
X134880487Y-87477507D01*
X134862495Y-87465485D01*
X134862493Y-87465484D01*
X134862490Y-87465483D01*
X134782136Y-87449500D01*
X133402870Y-87449500D01*
X133322504Y-87465485D01*
X133322500Y-87465487D01*
X133308086Y-87475118D01*
X133300939Y-87477355D01*
X133295493Y-87482499D01*
X133268050Y-87487652D01*
X133241408Y-87495994D01*
X133234185Y-87494012D01*
X133226823Y-87495395D01*
X133200949Y-87484893D01*
X133174029Y-87477507D01*
X133169024Y-87471935D01*
X133162083Y-87469118D01*
X133145996Y-87446297D01*
X133127340Y-87425527D01*
X133125140Y-87416711D01*
X133121827Y-87412011D01*
X133115314Y-87377328D01*
X133112039Y-87300923D01*
X133128835Y-87233105D01*
X133173927Y-87188229D01*
X133187314Y-87180500D01*
X133193016Y-87176125D01*
X133258184Y-87150930D01*
X133268503Y-87150500D01*
X134163307Y-87150500D01*
X134163311Y-87150499D01*
X134782130Y-87150499D01*
X134782132Y-87150499D01*
X134862495Y-87134515D01*
X134953624Y-87073624D01*
X135004157Y-86997996D01*
X135008392Y-86994456D01*
X135010493Y-86989346D01*
X135034911Y-86972292D01*
X135057765Y-86953193D01*
X135064445Y-86951667D01*
X135067777Y-86949341D01*
X135102485Y-86942981D01*
X135166785Y-86940508D01*
X135193020Y-86942289D01*
G37*
%TD.AperFunction*%
%TD*%
%TA.AperFunction,Conductor*%
%TO.N,24V_AMP*%
G36*
X201523980Y-113745711D02*
G01*
X201560518Y-113781441D01*
X201571849Y-113798399D01*
X201628717Y-113836396D01*
X201654710Y-113853764D01*
X201654714Y-113853765D01*
X201727771Y-113868297D01*
X201727774Y-113868298D01*
X201727776Y-113868298D01*
X203186826Y-113868298D01*
X203186827Y-113868297D01*
X203259890Y-113853764D01*
X203276660Y-113842558D01*
X203285884Y-113836396D01*
X203352562Y-113815518D01*
X203354775Y-113815498D01*
X204958807Y-113815498D01*
X205025846Y-113835183D01*
X205071601Y-113887987D01*
X205081455Y-113921234D01*
X205441847Y-116341407D01*
X205442802Y-116369589D01*
X205327721Y-117803735D01*
X205302737Y-117868985D01*
X205246442Y-117910370D01*
X205194200Y-117917420D01*
X201222244Y-117598697D01*
X200740000Y-117560000D01*
X200739999Y-117560000D01*
X193519722Y-120197990D01*
X193449999Y-120202507D01*
X193388902Y-120168611D01*
X193355829Y-120107065D01*
X193353188Y-120079332D01*
X193408589Y-116939910D01*
X193429454Y-116873231D01*
X193483054Y-116828416D01*
X200626722Y-113740063D01*
X200675357Y-113729884D01*
X201456856Y-113726332D01*
X201523980Y-113745711D01*
G37*
%TD.AperFunction*%
%TD*%
%TA.AperFunction,Conductor*%
%TO.N,3V3*%
G36*
X190821960Y-80063267D02*
G01*
X190856788Y-80071824D01*
X191262196Y-80236612D01*
X191316885Y-80280089D01*
X191339389Y-80346235D01*
X191339500Y-80351482D01*
X191339500Y-80385891D01*
X191373608Y-80513187D01*
X191406554Y-80570250D01*
X191439500Y-80627314D01*
X191532686Y-80720500D01*
X191627988Y-80775523D01*
X191641425Y-80783281D01*
X191646814Y-80786392D01*
X191774108Y-80820500D01*
X191774110Y-80820500D01*
X191905890Y-80820500D01*
X191905892Y-80820500D01*
X192033186Y-80786392D01*
X192033194Y-80786387D01*
X192040696Y-80783281D01*
X192041249Y-80784618D01*
X192047424Y-80782963D01*
X192059002Y-80775523D01*
X192093937Y-80770500D01*
X192126667Y-80770500D01*
X192193706Y-80790185D01*
X192214348Y-80806819D01*
X192229735Y-80822206D01*
X192332509Y-80867585D01*
X192357635Y-80870500D01*
X193722364Y-80870499D01*
X193722379Y-80870497D01*
X193722382Y-80870497D01*
X193747487Y-80867586D01*
X193747487Y-80867585D01*
X193747491Y-80867585D01*
X193812779Y-80838757D01*
X193882054Y-80829686D01*
X193945239Y-80859509D01*
X193982271Y-80918758D01*
X193986741Y-80946686D01*
X194001956Y-81289019D01*
X193985267Y-81356867D01*
X193934547Y-81404921D01*
X193865898Y-81417925D01*
X193827992Y-81407959D01*
X193747495Y-81372416D01*
X193747491Y-81372415D01*
X193722365Y-81369500D01*
X192357643Y-81369500D01*
X192357617Y-81369502D01*
X192332512Y-81372413D01*
X192332511Y-81372414D01*
X192229739Y-81417791D01*
X192229729Y-81417798D01*
X192225008Y-81422519D01*
X192169430Y-81454605D01*
X192124364Y-81466681D01*
X192124355Y-81466685D01*
X192050144Y-81509530D01*
X192050136Y-81509536D01*
X191901492Y-81658181D01*
X191840169Y-81691666D01*
X191813811Y-81694500D01*
X189732147Y-81694500D01*
X189649362Y-81716682D01*
X189649359Y-81716683D01*
X189593573Y-81748891D01*
X189593571Y-81748892D01*
X189581011Y-81756144D01*
X189575138Y-81759535D01*
X189454688Y-81879984D01*
X189453356Y-81881242D01*
X189423770Y-81896305D01*
X189394599Y-81912234D01*
X189392065Y-81912448D01*
X189391092Y-81912944D01*
X189388862Y-81912719D01*
X189362629Y-81914941D01*
X188265918Y-81865251D01*
X188199838Y-81842552D01*
X188156520Y-81787731D01*
X188147557Y-81743991D01*
X188115862Y-80238460D01*
X188134132Y-80171023D01*
X188152147Y-80148179D01*
X188344399Y-79955926D01*
X188405719Y-79922444D01*
X188416240Y-79920626D01*
X188796194Y-79871774D01*
X188823856Y-79871331D01*
X190821960Y-80063267D01*
G37*
%TD.AperFunction*%
%TD*%
%TA.AperFunction,Conductor*%
%TO.N,5V*%
G36*
X219178201Y-77867743D02*
G01*
X219213105Y-77872942D01*
X219228083Y-77877422D01*
X219243043Y-77887144D01*
X219260139Y-77892263D01*
X219286643Y-77915476D01*
X219286667Y-77915492D01*
X219287866Y-77916890D01*
X219315020Y-77971844D01*
X219316627Y-77979414D01*
X219319328Y-78005795D01*
X219306934Y-80440159D01*
X219469406Y-86823968D01*
X219469405Y-86823969D01*
X219469406Y-86823970D01*
X219465273Y-86859021D01*
X219461252Y-86874126D01*
X219424984Y-86933846D01*
X219424978Y-86933851D01*
X219423635Y-86935077D01*
X219369523Y-86963903D01*
X219362010Y-86965739D01*
X219335729Y-86969244D01*
X217149671Y-87024880D01*
X217146516Y-87024920D01*
X217143380Y-87024920D01*
X217140290Y-87024881D01*
X215515756Y-86984381D01*
X215480956Y-86978489D01*
X215455360Y-86970275D01*
X215405569Y-86939887D01*
X215144426Y-86678744D01*
X215144421Y-86678739D01*
X215123274Y-86650488D01*
X215110667Y-86627399D01*
X215095500Y-86567974D01*
X215095500Y-86520063D01*
X215095069Y-86518081D01*
X215083868Y-86461770D01*
X215080975Y-86456358D01*
X215077081Y-86451613D01*
X215075956Y-86449930D01*
X215039552Y-86395447D01*
X215003146Y-86371121D01*
X214983385Y-86357917D01*
X214978641Y-86354024D01*
X214973230Y-86351132D01*
X214973229Y-86351131D01*
X214914752Y-86339500D01*
X214914750Y-86339500D01*
X214212330Y-86339500D01*
X214212325Y-86339499D01*
X214212323Y-86339500D01*
X214177389Y-86334475D01*
X214162390Y-86330070D01*
X214103644Y-86292327D01*
X214103615Y-86292293D01*
X214103614Y-86292293D01*
X214103613Y-86292291D01*
X214102457Y-86290958D01*
X214074977Y-86236083D01*
X214073332Y-86228521D01*
X214070500Y-86202168D01*
X214070500Y-85047295D01*
X214070500Y-85045249D01*
X214070499Y-85045247D01*
X214058868Y-84986770D01*
X214058867Y-84986769D01*
X214014552Y-84920447D01*
X213978146Y-84896121D01*
X213958385Y-84882917D01*
X213953641Y-84879024D01*
X213948230Y-84876132D01*
X213948229Y-84876131D01*
X213889752Y-84864500D01*
X213889750Y-84864500D01*
X213737330Y-84864500D01*
X213737325Y-84864499D01*
X213737323Y-84864500D01*
X213702389Y-84859475D01*
X213687390Y-84855070D01*
X213628644Y-84817327D01*
X213628615Y-84817293D01*
X213628614Y-84817293D01*
X213628613Y-84817291D01*
X213627457Y-84815958D01*
X213599977Y-84761083D01*
X213598332Y-84753521D01*
X213595500Y-84727168D01*
X213595500Y-84078466D01*
X213599725Y-84046373D01*
X213607888Y-84015908D01*
X213620276Y-83986001D01*
X213634259Y-83961781D01*
X213634258Y-83961781D01*
X213634266Y-83961769D01*
X213664798Y-83908886D01*
X213695499Y-83794309D01*
X213695499Y-83675690D01*
X213664798Y-83561113D01*
X213631276Y-83503050D01*
X213631276Y-83503049D01*
X213605496Y-83458398D01*
X213605493Y-83458392D01*
X213605487Y-83458384D01*
X213542425Y-83395322D01*
X213521280Y-83367077D01*
X213508884Y-83344375D01*
X213493746Y-83282303D01*
X213499779Y-83000328D01*
X213500830Y-82990326D01*
X209148112Y-81271763D01*
X209148110Y-81271762D01*
X209148109Y-81271762D01*
X209117464Y-81254262D01*
X209105128Y-81244655D01*
X209064333Y-81187941D01*
X209059707Y-81174777D01*
X209052726Y-81136530D01*
X209036658Y-80440195D01*
X208979448Y-77961134D01*
X208981497Y-77944111D01*
X208983665Y-77926091D01*
X208987722Y-77910996D01*
X209024054Y-77851435D01*
X209024707Y-77850842D01*
X209080675Y-77821666D01*
X209089779Y-77819600D01*
X209117844Y-77816528D01*
X219178201Y-77867743D01*
G37*
%TD.AperFunction*%
%TD*%
%TA.AperFunction,Conductor*%
%TO.N,24V_AMP*%
G36*
X206677205Y-100317066D02*
G01*
X206727565Y-100365498D01*
X206743746Y-100433468D01*
X206743372Y-100438607D01*
X206364282Y-104483701D01*
X206338428Y-104548611D01*
X206312217Y-104572044D01*
X206312620Y-104572553D01*
X206306958Y-104577029D01*
X206187029Y-104696959D01*
X206098001Y-104841294D01*
X206097996Y-104841305D01*
X206044651Y-105002290D01*
X206034500Y-105101647D01*
X206034500Y-105698337D01*
X206034501Y-105698355D01*
X206044650Y-105797707D01*
X206044651Y-105797710D01*
X206097996Y-105958694D01*
X206097999Y-105958701D01*
X206106082Y-105971805D01*
X206124521Y-106039197D01*
X206103598Y-106105861D01*
X206049955Y-106150629D01*
X206019483Y-106159445D01*
X205754952Y-106200333D01*
X205723410Y-106201146D01*
X205658347Y-106194500D01*
X205061662Y-106194500D01*
X205061644Y-106194501D01*
X204962292Y-106204650D01*
X204962289Y-106204651D01*
X204876124Y-106233204D01*
X204837120Y-106239498D01*
X202388307Y-106239498D01*
X202347662Y-106247582D01*
X202288671Y-106259316D01*
X202264481Y-106261698D01*
X201704579Y-106261698D01*
X201704560Y-106261700D01*
X201691318Y-106263123D01*
X201622559Y-106250714D01*
X201571425Y-106203100D01*
X201554149Y-106135400D01*
X201558281Y-106107796D01*
X202782670Y-101531298D01*
X202792884Y-101505301D01*
X202954308Y-101200665D01*
X202976185Y-101171057D01*
X203534601Y-100612641D01*
X203595920Y-100579159D01*
X203610999Y-100576840D01*
X206608657Y-100303549D01*
X206677205Y-100317066D01*
G37*
%TD.AperFunction*%
%TD*%
%TA.AperFunction,Conductor*%
%TO.N,3V3A*%
G36*
X171062426Y-90170583D02*
G01*
X171108997Y-90222668D01*
X171121015Y-90274922D01*
X171130443Y-91434638D01*
X171111304Y-91501835D01*
X171075341Y-91538746D01*
X171059400Y-91549397D01*
X171059397Y-91549401D01*
X171004034Y-91632260D01*
X171004032Y-91632264D01*
X170989500Y-91705321D01*
X170989500Y-94037238D01*
X170969815Y-94104277D01*
X170967963Y-94107076D01*
X169924992Y-95637272D01*
X169923423Y-95639573D01*
X169868704Y-95712669D01*
X169862784Y-95728539D01*
X169854319Y-95740960D01*
X169854318Y-95740962D01*
X169780000Y-95849999D01*
X169481246Y-98816201D01*
X169454942Y-98880931D01*
X169397819Y-98921164D01*
X169354045Y-98927716D01*
X168206333Y-98892293D01*
X168139932Y-98870550D01*
X168095828Y-98816359D01*
X168086266Y-98773536D01*
X167955023Y-95637272D01*
X167734083Y-90357579D01*
X167741170Y-90329084D01*
X167745560Y-90300064D01*
X167749505Y-90295577D01*
X167750948Y-90289778D01*
X167772312Y-90269641D01*
X167791699Y-90247595D01*
X167799328Y-90244177D01*
X167801793Y-90241855D01*
X167823904Y-90233170D01*
X167925981Y-90204005D01*
X167958106Y-90199250D01*
X170995090Y-90151945D01*
X171062426Y-90170583D01*
G37*
%TD.AperFunction*%
%TD*%
%TA.AperFunction,Conductor*%
%TO.N,24V_AMP*%
G36*
X226320321Y-85200002D02*
G01*
X234226135Y-85249228D01*
X234293049Y-85269330D01*
X234338474Y-85322418D01*
X234349359Y-85373867D01*
X234330447Y-89033346D01*
X234310417Y-89100283D01*
X234257377Y-89145764D01*
X234248472Y-89149367D01*
X232470006Y-89789996D01*
X231416931Y-90417043D01*
X231377037Y-90432244D01*
X231365373Y-90434500D01*
X231333857Y-90434500D01*
X231252080Y-90456411D01*
X231247778Y-90457244D01*
X231244052Y-90456890D01*
X231224232Y-90459500D01*
X231060248Y-90459500D01*
X231001771Y-90471131D01*
X231001767Y-90471133D01*
X230953302Y-90503517D01*
X230886625Y-90524395D01*
X230819245Y-90505910D01*
X230772555Y-90453931D01*
X230761379Y-90384961D01*
X230763611Y-90372433D01*
X230768723Y-90350360D01*
X230793867Y-90312732D01*
X230805500Y-90254249D01*
X230805500Y-90191596D01*
X230808699Y-90177786D01*
X230809331Y-90176663D01*
X230809724Y-90173680D01*
X230830500Y-90096143D01*
X230830500Y-90003856D01*
X230830500Y-89413505D01*
X230850185Y-89346466D01*
X230902989Y-89300711D01*
X230972147Y-89290767D01*
X231001432Y-89298801D01*
X231060248Y-89310500D01*
X231060251Y-89310501D01*
X231060253Y-89310501D01*
X231337148Y-89310501D01*
X231729462Y-89310501D01*
X231791461Y-89327113D01*
X231876814Y-89376392D01*
X232004108Y-89410500D01*
X232004110Y-89410500D01*
X232135890Y-89410500D01*
X232135892Y-89410500D01*
X232263186Y-89376392D01*
X232377314Y-89310500D01*
X232470500Y-89217314D01*
X232536392Y-89103186D01*
X232570500Y-88975892D01*
X232570500Y-88844108D01*
X232536392Y-88716814D01*
X232470500Y-88602686D01*
X232377314Y-88509500D01*
X232320250Y-88476554D01*
X232263187Y-88443608D01*
X232199539Y-88426554D01*
X232135892Y-88409500D01*
X232004108Y-88409500D01*
X231876812Y-88443608D01*
X231762686Y-88509500D01*
X231762683Y-88509502D01*
X231669501Y-88602684D01*
X231664550Y-88609137D01*
X231662190Y-88607326D01*
X231621919Y-88645721D01*
X231565106Y-88659501D01*
X231060248Y-88659501D01*
X231001771Y-88671132D01*
X231001768Y-88671134D01*
X230998388Y-88673393D01*
X230931710Y-88694269D01*
X230864331Y-88675783D01*
X230817642Y-88623803D01*
X230805500Y-88570289D01*
X230805500Y-88389750D01*
X230805499Y-88389748D01*
X230793868Y-88331271D01*
X230793867Y-88331270D01*
X230749552Y-88264948D01*
X230683230Y-88220633D01*
X230683229Y-88220632D01*
X230624752Y-88209001D01*
X230624748Y-88209001D01*
X230335252Y-88209001D01*
X230335247Y-88209001D01*
X230276770Y-88220632D01*
X230276769Y-88220633D01*
X230210447Y-88264948D01*
X230166132Y-88331270D01*
X230166131Y-88331271D01*
X230154500Y-88389748D01*
X230154500Y-88570289D01*
X230134815Y-88637328D01*
X230082011Y-88683083D01*
X230012853Y-88693027D01*
X229961612Y-88673393D01*
X229958231Y-88671134D01*
X229958228Y-88671132D01*
X229899751Y-88659501D01*
X229899747Y-88659501D01*
X229622852Y-88659501D01*
X229605754Y-88659501D01*
X229538715Y-88639816D01*
X229492960Y-88587012D01*
X229485979Y-88567595D01*
X229485523Y-88565892D01*
X229476392Y-88531814D01*
X229410500Y-88417686D01*
X229317314Y-88324500D01*
X229260250Y-88291554D01*
X229203187Y-88258608D01*
X229139539Y-88241554D01*
X229075892Y-88224500D01*
X228944108Y-88224500D01*
X228816812Y-88258608D01*
X228702686Y-88324500D01*
X228702683Y-88324502D01*
X228609502Y-88417683D01*
X228609500Y-88417686D01*
X228543608Y-88531812D01*
X228509500Y-88659108D01*
X228509500Y-88790891D01*
X228543608Y-88918187D01*
X228558665Y-88944266D01*
X228609500Y-89032314D01*
X228702686Y-89125500D01*
X228816814Y-89191392D01*
X228944108Y-89225500D01*
X229002331Y-89225500D01*
X229064332Y-89242113D01*
X229070138Y-89245465D01*
X229070139Y-89245466D01*
X229144362Y-89288319D01*
X229227148Y-89310501D01*
X229227150Y-89310501D01*
X229899749Y-89310501D01*
X229899750Y-89310500D01*
X229914484Y-89307569D01*
X229970209Y-89296486D01*
X229970433Y-89297612D01*
X230027514Y-89291475D01*
X230089994Y-89322749D01*
X230125648Y-89382837D01*
X230129500Y-89413505D01*
X230129500Y-89810501D01*
X230109815Y-89877540D01*
X230057011Y-89923295D01*
X230005500Y-89934501D01*
X229626143Y-89934501D01*
X228708855Y-89934501D01*
X228619711Y-89958387D01*
X228619710Y-89958387D01*
X228619708Y-89958388D01*
X228619705Y-89958389D01*
X228532749Y-90008595D01*
X228531712Y-90006799D01*
X228476861Y-90028004D01*
X228408416Y-90013965D01*
X228378864Y-89992115D01*
X228373225Y-89986476D01*
X228373221Y-89986473D01*
X228373220Y-89986472D01*
X228253126Y-89925281D01*
X228253124Y-89925280D01*
X228253121Y-89925279D01*
X228153493Y-89909500D01*
X228153488Y-89909500D01*
X227934069Y-89909500D01*
X226835931Y-89909500D01*
X226835929Y-89909500D01*
X226710261Y-89934497D01*
X226710255Y-89934499D01*
X226591872Y-89983535D01*
X226586504Y-89986405D01*
X226585747Y-89984989D01*
X226526497Y-90003534D01*
X226511887Y-90002930D01*
X225971568Y-89948573D01*
X225906836Y-89922277D01*
X225866596Y-89865158D01*
X225859981Y-89825735D01*
X225840538Y-85324536D01*
X225859933Y-85257412D01*
X225912539Y-85211429D01*
X225964537Y-85200000D01*
X226319549Y-85200000D01*
X226320321Y-85200002D01*
G37*
%TD.AperFunction*%
%TD*%
%TA.AperFunction,Conductor*%
%TO.N,24V_POE*%
G36*
X277717928Y-83234732D02*
G01*
X277767876Y-83283589D01*
X277779872Y-83313618D01*
X278428135Y-85859808D01*
X278431969Y-85890659D01*
X278430484Y-86609299D01*
X278410661Y-86676298D01*
X278401333Y-86688916D01*
X276537245Y-88902521D01*
X276479006Y-88941121D01*
X276452562Y-88946231D01*
X272706317Y-89254405D01*
X272637890Y-89240283D01*
X272587960Y-89191408D01*
X272580529Y-89175628D01*
X271532809Y-86472000D01*
X270592294Y-84045014D01*
X270590878Y-84028211D01*
X270584536Y-84012585D01*
X270588004Y-83994116D01*
X270586426Y-83975394D01*
X270594404Y-83960037D01*
X270597432Y-83943916D01*
X270617763Y-83915073D01*
X270701392Y-83826525D01*
X270761732Y-83791304D01*
X270781323Y-83788090D01*
X277649496Y-83220634D01*
X277717928Y-83234732D01*
G37*
%TD.AperFunction*%
%TD*%
M02*
