%TF.GenerationSoftware,KiCad,Pcbnew,10.0.2*%
%TF.CreationDate,2026-10-02T16:18:39+00:00*%
%TF.ProjectId,microphone-rinG-KIcad,6d696372-6f70-4686-9f6e-652d72696e47,rev?*%
%TF.SameCoordinates,Original*%
%TF.FileFunction,Paste,Top*%
%TF.FilePolarity,Positive*%
%FSLAX46Y46*%
G04 Gerber Fmt 4.6, Leading zero omitted, Abs format (unit mm)*
G04 Created by KiCad (PCBNEW 10.0.2) date 2026-10-02 16:18:39*
%MOMM*%
%LPD*%
G01*
G04 APERTURE LIST*
G04 Aperture macros list*
%AMRoundRect*
0 Rectangle with rounded corners*
0 $1 Rounding radius*
0 $2 $3 $4 $5 $6 $7 $8 $9 X,Y pos of 4 corners*
0 Add a 4 corners polygon primitive as box body*
4,1,4,$2,$3,$4,$5,$6,$7,$8,$9,$2,$3,0*
0 Add four circle primitives for the rounded corners*
1,1,$1+$1,$2,$3*
1,1,$1+$1,$4,$5*
1,1,$1+$1,$6,$7*
1,1,$1+$1,$8,$9*
0 Add four rect primitives between the rounded corners*
20,1,$1+$1,$2,$3,$4,$5,0*
20,1,$1+$1,$4,$5,$6,$7,0*
20,1,$1+$1,$6,$7,$8,$9,0*
20,1,$1+$1,$8,$9,$2,$3,0*%
%AMFreePoly0*
4,1,85,0.387729,0.396873,0.402374,0.361518,0.402222,0.045874,0.387560,0.010526,0.364366,-0.002605,0.333197,-0.010409,0.304157,-0.019744,0.275848,-0.030945,0.248326,-0.044007,0.221699,-0.058868,0.196117,-0.075419,0.171696,-0.093631,0.148489,-0.113422,0.126677,-0.134684,0.106296,-0.157334,0.087454,-0.181287,0.070222,-0.206425,0.054708,-0.232641,0.040929,-0.259832,0.028989,-0.287861,
0.018899,-0.316639,0.010303,-0.347575,-0.013273,-0.377719,-0.030419,-0.380074,-0.030250,-0.380661,-0.036473,-0.382465,-0.050394,-0.384442,-0.352196,-0.384442,-0.387551,-0.369797,-0.402196,-0.334442,-0.401546,-0.326409,-0.394968,-0.285997,-0.394500,-0.283515,-0.385889,-0.243485,-0.385299,-0.241044,-0.374682,-0.201471,-0.373965,-0.199045,-0.361367,-0.160081,-0.360538,-0.157720,-0.346009,-0.119442,
-0.345045,-0.117086,-0.328586,-0.079596,-0.327525,-0.077334,-0.309211,-0.040707,-0.308026,-0.038478,-0.287884,-0.002817,-0.286597,-0.000668,-0.264702,0.033927,-0.263282,0.036050,-0.239635,0.069502,-0.238141,0.071507,-0.212868,0.103714,-0.211254,0.105666,-0.184381,0.136553,-0.182690,0.138402,-0.154292,0.167916,-0.152500,0.169687,-0.122655,0.197729,-0.120770,0.199412,-0.089554,0.225904,
-0.087597,0.227482,-0.055085,0.252374,-0.053037,0.253861,-0.019306,0.277077,-0.017186,0.278458,0.017689,0.299946,0.019848,0.301203,0.055738,0.320914,0.057970,0.322068,0.094800,0.339949,0.097098,0.340994,0.134791,0.356996,0.137148,0.357927,0.175604,0.371999,0.177992,0.372805,0.217108,0.384921,0.219528,0.385605,0.259203,0.395739,0.261652,0.396299,0.301784,0.404427,
0.304269,0.404865,0.344782,0.410961,0.352222,0.411518,0.352374,0.411518,0.387729,0.396873,0.387729,0.396873,$1*%
%AMFreePoly1*
4,1,85,-0.032267,0.384772,0.003084,0.370116,0.016220,0.346916,0.024024,0.315747,0.033359,0.286710,0.044561,0.258394,0.057629,0.230859,0.072458,0.204250,0.089017,0.178689,0.107257,0.154232,0.127029,0.131046,0.148298,0.109228,0.170947,0.088848,0.194893,0.070012,0.220044,0.052793,0.246264,0.037254,0.273441,0.023483,0.301483,0.011536,0.330250,0.001451,0.361190,-0.007147,
0.391333,-0.030723,0.393698,-0.047930,0.394293,-0.047759,0.396096,-0.054008,0.398056,-0.067869,0.398056,-0.369672,0.383411,-0.405027,0.348056,-0.419672,0.340022,-0.419022,0.299611,-0.412443,0.297136,-0.411976,0.257080,-0.403365,0.254625,-0.402772,0.215077,-0.392155,0.212658,-0.391440,0.173695,-0.378842,0.171335,-0.378013,0.133057,-0.363484,0.130701,-0.362520,0.093210,-0.346061,
0.090947,-0.345000,0.054321,-0.326686,0.052094,-0.325501,0.016432,-0.305359,0.014260,-0.304059,-0.020335,-0.282139,-0.022415,-0.280746,-0.055867,-0.257124,-0.057893,-0.255616,-0.090100,-0.230343,-0.092037,-0.228743,-0.122949,-0.201870,-0.124827,-0.200151,-0.154316,-0.171754,-0.156088,-0.169960,-0.184130,-0.140089,-0.185798,-0.138220,-0.212290,-0.107004,-0.213868,-0.105047,-0.238760,-0.072535,
-0.240233,-0.070507,-0.263474,-0.036775,-0.264860,-0.034650,-0.286348,0.000198,-0.287622,0.002385,-0.307333,0.038301,-0.308491,0.040544,-0.326347,0.077374,-0.327380,0.079649,-0.343382,0.117343,-0.344313,0.119700,-0.358384,0.158155,-0.359181,0.160513,-0.371323,0.199629,-0.372023,0.202107,-0.382132,0.241782,-0.382686,0.244208,-0.390814,0.284365,-0.391251,0.286840,-0.397347,0.327328,
-0.397904,0.334772,-0.397904,0.334874,-0.383259,0.370229,-0.347904,0.384874,-0.032267,0.384772,-0.032267,0.384772,$1*%
%AMFreePoly2*
4,1,85,0.387678,0.369949,0.402323,0.334594,0.401673,0.326561,0.395095,0.286150,0.394627,0.283668,0.386016,0.243637,0.385426,0.241196,0.374809,0.201623,0.374092,0.199196,0.361494,0.160233,0.360665,0.157873,0.346136,0.119595,0.345172,0.117239,0.328713,0.079748,0.327652,0.077485,0.309338,0.040859,0.308153,0.038632,0.288011,0.002970,0.286711,0.000798,0.264791,-0.033797,
0.263398,-0.035877,0.239776,-0.069329,0.238268,-0.071355,0.212995,-0.103562,0.211381,-0.105515,0.184508,-0.136401,0.182818,-0.138248,0.154420,-0.167763,0.152627,-0.169535,0.122782,-0.197577,0.120897,-0.199260,0.089681,-0.225752,0.087724,-0.227330,0.055212,-0.252222,0.053163,-0.253710,0.019432,-0.276925,0.017314,-0.278305,-0.017561,-0.299794,-0.019722,-0.301052,-0.055612,-0.320762,
-0.057842,-0.321915,-0.094672,-0.339797,-0.096983,-0.340847,-0.134702,-0.356849,-0.137048,-0.357775,-0.175503,-0.371846,-0.177882,-0.372650,-0.216973,-0.384766,-0.219407,-0.385453,-0.259107,-0.395588,-0.261550,-0.396147,-0.301682,-0.404275,-0.304163,-0.404713,-0.344651,-0.410809,-0.352095,-0.411366,-0.352247,-0.411366,-0.387602,-0.396721,-0.402247,-0.361366,-0.402095,-0.045721,-0.387433,-0.010373,
-0.364239,0.002758,-0.333070,0.010562,-0.304037,0.019895,-0.275712,0.031101,-0.248182,0.044167,-0.221573,0.058996,-0.196004,0.075560,-0.171569,0.093783,-0.148362,0.113574,-0.126551,0.134836,-0.106169,0.157487,-0.087330,0.181436,-0.070121,0.206574,-0.054573,0.232809,-0.040805,0.259978,-0.028862,0.288014,-0.018774,0.316788,-0.010176,0.347728,0.013400,0.377871,0.030553,0.380229,
0.030384,0.380816,0.036607,0.382619,0.050521,0.384594,0.352323,0.384594,0.387678,0.369949,0.387678,0.369949,$1*%
%AMFreePoly3*
4,1,85,-0.339870,0.419225,-0.299458,0.412646,-0.296978,0.412178,-0.256948,0.403568,-0.254505,0.402978,-0.214932,0.392360,-0.212507,0.391643,-0.173543,0.379045,-0.171182,0.378216,-0.132904,0.363687,-0.130548,0.362723,-0.093058,0.346264,-0.090797,0.345204,-0.054170,0.326891,-0.051939,0.325704,-0.016278,0.305561,-0.014108,0.304262,0.020487,0.282342,0.022567,0.280949,0.056019,0.257327,
0.058045,0.255819,0.090252,0.230546,0.092204,0.228932,0.123091,0.202059,0.124939,0.200369,0.154453,0.171972,0.156225,0.170179,0.184267,0.140334,0.185951,0.138448,0.212443,0.107231,0.214020,0.105275,0.238912,0.072763,0.240399,0.070715,0.263615,0.036984,0.264996,0.034865,0.286484,-0.000009,0.287741,-0.002169,0.307452,-0.038059,0.308606,-0.040291,0.326487,-0.077121,
0.327537,-0.079431,0.343539,-0.117150,0.344465,-0.119495,0.358537,-0.157951,0.359341,-0.160331,0.371457,-0.199422,0.372145,-0.201857,0.382279,-0.241557,0.382837,-0.243999,0.390965,-0.284131,0.391403,-0.286612,0.397499,-0.327099,0.398056,-0.334543,0.398056,-0.334696,0.383411,-0.370051,0.348056,-0.384696,0.032412,-0.384543,-0.002936,-0.369881,-0.016067,-0.346687,-0.023871,-0.315518,
-0.033206,-0.286479,-0.044407,-0.258169,-0.057474,-0.230637,-0.072308,-0.204019,-0.088868,-0.178456,-0.107105,-0.154003,-0.126877,-0.130817,-0.148144,-0.108999,-0.170796,-0.088617,-0.194745,-0.069779,-0.219877,-0.052574,-0.246126,-0.037018,-0.273287,-0.023254,-0.301323,-0.011311,-0.330094,-0.001224,-0.361039,0.007376,-0.391181,0.030953,-0.393536,0.048097,-0.394123,0.047928,-0.395927,0.054151,
-0.397904,0.068072,-0.397904,0.369875,-0.383259,0.405230,-0.347904,0.419875,-0.339870,0.419225,-0.339870,0.419225,$1*%
G04 Aperture macros list end*
%ADD10C,0.010000*%
%ADD11RoundRect,0.027500X-0.342500X0.082500X-0.342500X-0.082500X0.342500X-0.082500X0.342500X0.082500X0*%
%ADD12RoundRect,0.027500X-0.082500X0.342500X-0.082500X-0.342500X0.082500X-0.342500X0.082500X0.342500X0*%
%ADD13FreePoly0,270.000000*%
%ADD14FreePoly1,270.000000*%
%ADD15FreePoly2,270.000000*%
%ADD16FreePoly3,270.000000*%
%ADD17R,0.530000X0.730000*%
%ADD18FreePoly0,90.000000*%
%ADD19FreePoly1,90.000000*%
%ADD20FreePoly2,90.000000*%
%ADD21FreePoly3,90.000000*%
%ADD22RoundRect,0.140000X0.140000X0.170000X-0.140000X0.170000X-0.140000X-0.170000X0.140000X-0.170000X0*%
%ADD23R,0.500000X0.400000*%
%ADD24R,0.400000X0.500000*%
%ADD25RoundRect,0.140000X-0.170000X0.140000X-0.170000X-0.140000X0.170000X-0.140000X0.170000X0.140000X0*%
%ADD26RoundRect,0.135000X-0.135000X-0.185000X0.135000X-0.185000X0.135000X0.185000X-0.135000X0.185000X0*%
%ADD27RoundRect,0.135000X0.135000X0.185000X-0.135000X0.185000X-0.135000X-0.185000X0.135000X-0.185000X0*%
G04 APERTURE END LIST*
D10*
%TO.C,U7*%
X237025000Y-201060000D02*
X237025000Y-202290000D01*
X235795000Y-202290000D01*
X235795000Y-201060000D01*
X237025000Y-201060000D01*
G36*
X237025000Y-202290000D02*
G01*
X235795000Y-202290000D01*
X235795000Y-201060000D01*
X237025000Y-201060000D01*
X237025000Y-202290000D01*
G37*
X237025000Y-202490000D02*
X237025000Y-203720000D01*
X235795000Y-203720000D01*
X235795000Y-202490000D01*
X237025000Y-202490000D01*
G36*
X237025000Y-203720000D02*
G01*
X235795000Y-203720000D01*
X235795000Y-202490000D01*
X237025000Y-202490000D01*
X237025000Y-203720000D01*
G37*
X235595000Y-202490000D02*
X235595000Y-203720000D01*
X234365000Y-203720000D01*
X234365000Y-202490000D01*
X235595000Y-202490000D01*
G36*
X235595000Y-203720000D02*
G01*
X234365000Y-203720000D01*
X234365000Y-202490000D01*
X235595000Y-202490000D01*
X235595000Y-203720000D01*
G37*
X235595000Y-201060000D02*
X235595000Y-202290000D01*
X234365000Y-202290000D01*
X234365000Y-201060000D01*
X235595000Y-201060000D01*
G36*
X235595000Y-202290000D02*
G01*
X234365000Y-202290000D01*
X234365000Y-201060000D01*
X235595000Y-201060000D01*
X235595000Y-202290000D01*
G37*
%TD*%
D11*
%TO.C,U7*%
X233700000Y-200990000D03*
X233700000Y-201390000D03*
X233700000Y-201790000D03*
X233700000Y-202190000D03*
X233700000Y-202590000D03*
X233700000Y-202990000D03*
X233700000Y-203390000D03*
X233700000Y-203790000D03*
X237690000Y-203790000D03*
X237690000Y-203390000D03*
X237690000Y-202990000D03*
X237690000Y-202590000D03*
X237690000Y-202190000D03*
X237690000Y-201790000D03*
X237690000Y-201390000D03*
X237690000Y-200990000D03*
D12*
X237095000Y-200395000D03*
X236695000Y-200395000D03*
X236295000Y-200395000D03*
X235895000Y-200395000D03*
X235495000Y-200395000D03*
X235095000Y-200395000D03*
X234695000Y-200395000D03*
X234295000Y-200395000D03*
X234295000Y-204385000D03*
X234695000Y-204385000D03*
X235095000Y-204385000D03*
X235495000Y-204385000D03*
X235895000Y-204385000D03*
X236295000Y-204385000D03*
X236695000Y-204385000D03*
X237095000Y-204385000D03*
%TD*%
D13*
%TO.C,U6*%
X191350000Y-239090000D03*
D14*
X190470000Y-239080000D03*
D15*
X190460000Y-239990000D03*
D16*
X191340000Y-240000000D03*
D17*
X192980000Y-238700000D03*
X192160000Y-238700000D03*
X192160000Y-240380000D03*
X192980000Y-240380000D03*
%TD*%
D13*
%TO.C,U5*%
X91150000Y-238590000D03*
D14*
X90270000Y-238580000D03*
D15*
X90260000Y-239490000D03*
D16*
X91140000Y-239500000D03*
D17*
X92780000Y-238200000D03*
X91960000Y-238200000D03*
X91960000Y-239880000D03*
X92780000Y-239880000D03*
%TD*%
D13*
%TO.C,U4*%
X40760000Y-151600000D03*
D14*
X39880000Y-151590000D03*
D15*
X39870000Y-152500000D03*
D16*
X40750000Y-152510000D03*
D17*
X42390000Y-151210000D03*
X41570000Y-151210000D03*
X41570000Y-152890000D03*
X42390000Y-152890000D03*
%TD*%
D13*
%TO.C,U3*%
X90700000Y-63520000D03*
D14*
X89820000Y-63510000D03*
D15*
X89810000Y-64420000D03*
D16*
X90690000Y-64430000D03*
D17*
X92330000Y-63130000D03*
X91510000Y-63130000D03*
X91510000Y-64810000D03*
X92330000Y-64810000D03*
%TD*%
D13*
%TO.C,U2*%
X191870000Y-63770000D03*
D14*
X190990000Y-63760000D03*
D15*
X190980000Y-64670000D03*
D16*
X191860000Y-64680000D03*
D17*
X193500000Y-63380000D03*
X192680000Y-63380000D03*
X192680000Y-65060000D03*
X193500000Y-65060000D03*
%TD*%
D18*
%TO.C,U1*%
X244840000Y-152060000D03*
D19*
X245720000Y-152070000D03*
D20*
X245730000Y-151160000D03*
D21*
X244850000Y-151150000D03*
D17*
X243210000Y-152450000D03*
X244030000Y-152450000D03*
X244030000Y-150770000D03*
X243210000Y-150770000D03*
%TD*%
D22*
%TO.C,C8*%
X240055000Y-199800000D03*
X239095000Y-199800000D03*
%TD*%
D23*
%TO.C,D2*%
X193300000Y-68700000D03*
X193300000Y-68000000D03*
X192000000Y-68000000D03*
X192000000Y-68700000D03*
%TD*%
D22*
%TO.C,C4*%
X42550000Y-154620000D03*
X41590000Y-154620000D03*
%TD*%
D24*
%TO.C,D3*%
X90275000Y-59075000D03*
X89575000Y-59075000D03*
X89575000Y-60375000D03*
X90275000Y-60375000D03*
%TD*%
D22*
%TO.C,C3*%
X90330000Y-61540000D03*
X89370000Y-61540000D03*
%TD*%
D25*
%TO.C,C7*%
X239060000Y-203720000D03*
X239060000Y-204680000D03*
%TD*%
D22*
%TO.C,C1*%
X244500000Y-154630000D03*
X243540000Y-154630000D03*
%TD*%
D24*
%TO.C,D5*%
X93225000Y-243450000D03*
X92525000Y-243450000D03*
X92525000Y-244750000D03*
X93225000Y-244750000D03*
%TD*%
D22*
%TO.C,C6*%
X192975000Y-241975000D03*
X192015000Y-241975000D03*
%TD*%
%TO.C,C5*%
X92960000Y-241520000D03*
X92000000Y-241520000D03*
%TD*%
D23*
%TO.C,D4*%
X42450000Y-156075000D03*
X42450000Y-156775000D03*
X43750000Y-156775000D03*
X43750000Y-156075000D03*
%TD*%
D26*
%TO.C,R1*%
X239115000Y-200875000D03*
X240135000Y-200875000D03*
%TD*%
D24*
%TO.C,D6*%
X192900000Y-243425000D03*
X192200000Y-243425000D03*
X192200000Y-244725000D03*
X192900000Y-244725000D03*
%TD*%
D22*
%TO.C,C2*%
X192870000Y-66770000D03*
X191910000Y-66770000D03*
%TD*%
D24*
%TO.C,D1*%
X243600000Y-157150000D03*
X244300000Y-157150000D03*
X244300000Y-155850000D03*
X243600000Y-155850000D03*
%TD*%
D27*
%TO.C,R4*%
X242110000Y-202075000D03*
X241090000Y-202075000D03*
%TD*%
M02*
