%TF.GenerationSoftware,KiCad,Pcbnew,10.0.2*%
%TF.CreationDate,2026-10-02T16:18:39+00:00*%
%TF.ProjectId,microphone-rinG-KIcad,6d696372-6f70-4686-9f6e-652d72696e47,rev?*%
%TF.SameCoordinates,Original*%
%TF.FileFunction,Copper,L2,Bot*%
%TF.FilePolarity,Positive*%
%FSLAX46Y46*%
G04 Gerber Fmt 4.6, Leading zero omitted, Abs format (unit mm)*
G04 Created by KiCad (PCBNEW 10.0.2) date 2026-10-02 16:18:39*
%MOMM*%
%LPD*%
G01*
G04 APERTURE LIST*
%TA.AperFunction,ComponentPad*%
%ADD10C,0.600000*%
%TD*%
%TA.AperFunction,ComponentPad*%
%ADD11R,1.700000X1.700000*%
%TD*%
%TA.AperFunction,ComponentPad*%
%ADD12C,1.700000*%
%TD*%
%TA.AperFunction,ViaPad*%
%ADD13C,0.600000*%
%TD*%
%TA.AperFunction,Conductor*%
%ADD14C,0.300000*%
%TD*%
%TA.AperFunction,Conductor*%
%ADD15C,0.500000*%
%TD*%
%TA.AperFunction,Conductor*%
%ADD16C,0.250000*%
%TD*%
G04 APERTURE END LIST*
D10*
%TO.P,U7,34,GND_34*%
%TO.N,GND*%
X235695000Y-202390000D03*
%TO.P,U7,35,GND_35*%
X236845000Y-202390000D03*
%TO.P,U7,36,GND_36*%
X235695000Y-203540000D03*
%TO.P,U7,37,GND_37*%
X234545000Y-202390000D03*
%TO.P,U7,38,GND_38*%
X235695000Y-201240000D03*
%TD*%
D11*
%TO.P,J1,1,Pin_1_1*%
%TO.N,+3V3*%
X243300000Y-188760000D03*
D12*
%TO.P,J1,2,Pin_2_2*%
%TO.N,GND*%
X245840000Y-188760000D03*
%TO.P,J1,3,Pin_3_3*%
%TO.N,/PDM_CLK*%
X243300000Y-186220000D03*
%TO.P,J1,4,Pin_4_4*%
%TO.N,GND*%
X245840000Y-186220000D03*
%TO.P,J1,5,Pin_5_5*%
%TO.N,/PDM_DATA0*%
X243300000Y-183680000D03*
%TO.P,J1,6,Pin_6_6*%
%TO.N,/PDM_DATA1*%
X245840000Y-183680000D03*
%TO.P,J1,7,Pin_7_7*%
%TO.N,GND*%
X243300000Y-181140000D03*
%TO.P,J1,8,Pin_8_8*%
%TO.N,/RING_GPIO_SPARE*%
X245840000Y-181140000D03*
%TO.P,J1,9,Pin_9_9*%
%TO.N,/I2C_SCL*%
X243300000Y-178600000D03*
%TO.P,J1,10,Pin_10_10*%
%TO.N,/I2C_SDA*%
X245840000Y-178600000D03*
%TO.P,J1,11,Pin_11_11*%
%TO.N,unconnected-(J1-Pin_11-Pad11)*%
X243300000Y-176060000D03*
%TO.P,J1,12,Pin_12_12*%
%TO.N,GND*%
X245840000Y-176060000D03*
%TO.P,J1,13,Pin_13_13*%
%TO.N,/PDM_DATA2*%
X243300000Y-173520000D03*
%TO.P,J1,14,Pin_14_14*%
%TO.N,GND*%
X245840000Y-173520000D03*
%TD*%
D13*
%TO.N,GND*%
X191400000Y-66830000D03*
X242980000Y-154640000D03*
X191620000Y-238530000D03*
X190900000Y-240510000D03*
X91880000Y-242030000D03*
X90550000Y-237940000D03*
X90610000Y-240050000D03*
X40970000Y-154960000D03*
X41080000Y-150960000D03*
X39200000Y-152420000D03*
%TO.N,+3V3*%
X92440000Y-64240000D03*
%TO.N,GND*%
X89750000Y-64920000D03*
X186840000Y-64890000D03*
X189920000Y-66930000D03*
X190510000Y-64770000D03*
X190240000Y-64020000D03*
X240960000Y-153060000D03*
X246340000Y-152040000D03*
X246350000Y-151040000D03*
%TO.N,*%
X49070000Y-136550000D03*
%TO.N,GND*%
X225000000Y-190370000D03*
X219350000Y-79790000D03*
X190775000Y-243700000D03*
X123320000Y-254510000D03*
X231710000Y-207930000D03*
X56250000Y-84770000D03*
X243160000Y-141000000D03*
X223380000Y-211460000D03*
X33460000Y-143830000D03*
X212920000Y-205550000D03*
X207690000Y-64120000D03*
X122790000Y-257600000D03*
X214040000Y-204400000D03*
X154570000Y-258230000D03*
%TO.N,+3V3*%
X244526860Y-152986494D03*
X93750000Y-241400000D03*
X193525000Y-243375000D03*
X194280000Y-66050000D03*
X93800000Y-243175000D03*
X239010000Y-206150000D03*
X239690000Y-205470000D03*
X243100000Y-157490000D03*
X42000000Y-156025000D03*
X90720000Y-58670000D03*
X43350000Y-154650000D03*
X242620000Y-150680000D03*
X193720000Y-69120000D03*
X193475000Y-242050000D03*
X245110000Y-154640000D03*
X91100000Y-61970000D03*
%TO.N,/PDM_DATA1*%
X93025000Y-63000000D03*
%TO.N,/PDM_DATA2*%
X93800000Y-238575000D03*
X193050000Y-237850000D03*
%TO.N,/I2C_SDA*%
X238954385Y-202780000D03*
%TO.N,/I2C_SCL*%
X240000000Y-202475000D03*
%TD*%
%TO.N,/I2C_SDA*%
D14*
X239299385Y-203125000D02*
X238954385Y-202780000D01*
X240269239Y-203125000D02*
X239299385Y-203125000D01*
X241150000Y-181350000D02*
X241150000Y-202244239D01*
X242600000Y-179900000D02*
X241150000Y-181350000D01*
X244560000Y-179900000D02*
X242600000Y-179900000D01*
X244560000Y-179880000D02*
X244560000Y-179900000D01*
X245840000Y-178600000D02*
X244560000Y-179880000D01*
X241150000Y-202244239D02*
X240269239Y-203125000D01*
%TO.N,/I2C_SCL*%
X240400000Y-202075000D02*
X240000000Y-202475000D01*
X242810000Y-178600000D02*
X240400000Y-181010000D01*
X240400000Y-181010000D02*
X240400000Y-202075000D01*
X243300000Y-178600000D02*
X242810000Y-178600000D01*
%TO.N,+3V3*%
D15*
X91100000Y-62900000D02*
X91100000Y-61970000D01*
X92440000Y-64240000D02*
X91100000Y-62900000D01*
%TO.N,/PDM_DATA1*%
D16*
X248040000Y-166590000D02*
X248040000Y-181480000D01*
X177375328Y-63000000D02*
X230100350Y-115725022D01*
X230100350Y-115725022D02*
X230100350Y-148650350D01*
X248040000Y-181480000D02*
X245840000Y-183680000D01*
X93025000Y-63000000D02*
X177375328Y-63000000D01*
X230100350Y-148650350D02*
X248040000Y-166590000D01*
%TO.N,+3V3*%
D15*
X192825000Y-241400000D02*
X93750000Y-241400000D01*
X243300000Y-189320000D02*
X244630000Y-190650000D01*
X93750000Y-241400000D02*
X93050000Y-240700000D01*
X90720000Y-61590000D02*
X91100000Y-61970000D01*
X239690000Y-205470000D02*
X239690000Y-205040000D01*
X193475000Y-242050000D02*
X192825000Y-241400000D01*
X246730000Y-190650000D02*
X247850000Y-189530000D01*
X245110000Y-154640000D02*
X245110000Y-153569634D01*
X43350000Y-178789417D02*
X43350000Y-154650000D01*
X93750000Y-241400000D02*
X93750000Y-243125000D01*
X93050000Y-240700000D02*
X93050000Y-228489417D01*
X193720000Y-69120000D02*
X193720000Y-66610000D01*
X245310000Y-154640000D02*
X245110000Y-154640000D01*
X245110000Y-155480000D02*
X243100000Y-157490000D01*
X244526860Y-152986494D02*
X244526860Y-152586860D01*
X249480000Y-121250000D02*
X249480000Y-150470000D01*
X247850000Y-187970000D02*
X248660000Y-187160000D01*
X244526860Y-152586860D02*
X242620000Y-150680000D01*
X43350000Y-109720000D02*
X91100000Y-61970000D01*
X248660000Y-187160000D02*
X248660000Y-163050000D01*
X194280000Y-66050000D02*
X249480000Y-121250000D01*
X239010000Y-206150000D02*
X239690000Y-205470000D01*
X248660000Y-163050000D02*
X243100000Y-157490000D01*
X242510000Y-202220000D02*
X242510000Y-192770000D01*
X242510000Y-192770000D02*
X244630000Y-190650000D01*
X43350000Y-154650000D02*
X43350000Y-109720000D01*
X193525000Y-243375000D02*
X193525000Y-242100000D01*
X93750000Y-243125000D02*
X93800000Y-243175000D01*
X190200000Y-61970000D02*
X194280000Y-66050000D01*
X247850000Y-189530000D02*
X247850000Y-187970000D01*
X245110000Y-153569634D02*
X244526860Y-152986494D01*
X91100000Y-61970000D02*
X190200000Y-61970000D01*
X245110000Y-154640000D02*
X245110000Y-155480000D01*
X43350000Y-154675000D02*
X42000000Y-156025000D01*
X244630000Y-190650000D02*
X246730000Y-190650000D01*
X90720000Y-58670000D02*
X90720000Y-61590000D01*
X193525000Y-242100000D02*
X193475000Y-242050000D01*
X239690000Y-205040000D02*
X242510000Y-202220000D01*
X193720000Y-66610000D02*
X194280000Y-66050000D01*
X43350000Y-154650000D02*
X43350000Y-154675000D01*
X249480000Y-150470000D02*
X245310000Y-154640000D01*
X93050000Y-228489417D02*
X43350000Y-178789417D01*
X243300000Y-188760000D02*
X243300000Y-189320000D01*
%TO.N,/PDM_DATA2*%
D16*
X95769006Y-240544006D02*
X93800000Y-238575000D01*
X193050000Y-237850000D02*
X182550000Y-237850000D01*
X238675000Y-185250000D02*
X238675000Y-178145000D01*
X193050000Y-230875000D02*
X238675000Y-185250000D01*
X182550000Y-237850000D02*
X179855994Y-240544006D01*
X193050000Y-237850000D02*
X193050000Y-230875000D01*
X179855994Y-240544006D02*
X95769006Y-240544006D01*
X238675000Y-178145000D02*
X243300000Y-173520000D01*
%TD*%
%TA.AperFunction,Conductor*%
%TO.N,GND*%
G36*
X142894210Y-39662757D02*
G01*
X144997605Y-39702094D01*
X144999858Y-39702158D01*
X147102235Y-39780823D01*
X147104380Y-39780923D01*
X149204961Y-39898890D01*
X149207245Y-39899040D01*
X151305171Y-40056257D01*
X151307356Y-40056441D01*
X153401982Y-40252861D01*
X153404263Y-40253096D01*
X155494878Y-40488652D01*
X155497022Y-40488914D01*
X157582919Y-40763528D01*
X157585073Y-40763832D01*
X159665436Y-41077396D01*
X159667651Y-41077751D01*
X161741749Y-41430155D01*
X161743997Y-41430559D01*
X163811084Y-41821672D01*
X163813302Y-41822113D01*
X165872785Y-42251826D01*
X165874974Y-42252304D01*
X167915213Y-42717975D01*
X167926019Y-42720442D01*
X167928274Y-42720979D01*
X169970171Y-43227378D01*
X169972361Y-43227942D01*
X172004469Y-43772444D01*
X172006695Y-43773062D01*
X172857214Y-44018093D01*
X174028249Y-44355462D01*
X174030471Y-44356125D01*
X176040738Y-44976211D01*
X176042949Y-44976915D01*
X178041313Y-45634496D01*
X178043420Y-45635211D01*
X180029236Y-46330078D01*
X180031400Y-46330859D01*
X182003723Y-47062681D01*
X182005889Y-47063508D01*
X183964181Y-47832081D01*
X183966323Y-47832944D01*
X185909993Y-48638038D01*
X185912037Y-48638907D01*
X187840347Y-49480219D01*
X187842415Y-49481145D01*
X189754592Y-50358339D01*
X189756685Y-50359323D01*
X191652120Y-51272117D01*
X191654123Y-51273104D01*
X192710631Y-51806454D01*
X193532217Y-52221210D01*
X193534277Y-52222275D01*
X194046411Y-52492945D01*
X195394253Y-53205301D01*
X195396137Y-53206319D01*
X196872641Y-54022353D01*
X197237505Y-54224007D01*
X197239524Y-54225148D01*
X199061410Y-55277014D01*
X199063407Y-55278192D01*
X200865354Y-56363971D01*
X200867233Y-56365127D01*
X202648648Y-57484464D01*
X202650475Y-57485636D01*
X204410612Y-58638064D01*
X204412489Y-58639318D01*
X204829947Y-58923936D01*
X206150735Y-59824434D01*
X206152638Y-59825758D01*
X207868368Y-61043133D01*
X207870246Y-61044492D01*
X209124262Y-61969999D01*
X209562920Y-62293743D01*
X209564750Y-62295120D01*
X211233772Y-63575805D01*
X211235590Y-63577227D01*
X211508291Y-63794699D01*
X212880404Y-64888923D01*
X212882203Y-64890386D01*
X213575379Y-65464705D01*
X214387625Y-66137678D01*
X214502104Y-66232527D01*
X214503876Y-66234023D01*
X216098513Y-67606319D01*
X216100256Y-67607847D01*
X217567777Y-68919304D01*
X217668923Y-69009693D01*
X217670627Y-69011246D01*
X218219472Y-69520500D01*
X219212758Y-70442134D01*
X219214443Y-70443727D01*
X220729565Y-71903218D01*
X220731220Y-71904842D01*
X222218813Y-73392435D01*
X222220437Y-73394090D01*
X223670495Y-74899420D01*
X223679928Y-74909212D01*
X223681504Y-74910879D01*
X224943046Y-76270498D01*
X225112400Y-76453018D01*
X225113962Y-76454732D01*
X226515808Y-78023399D01*
X226517336Y-78025142D01*
X227889632Y-79619779D01*
X227891128Y-79621551D01*
X229233269Y-81241452D01*
X229234732Y-81243251D01*
X230546421Y-82888056D01*
X230547850Y-82889883D01*
X231631933Y-84302689D01*
X231828518Y-84558883D01*
X231829912Y-84560735D01*
X233079162Y-86253408D01*
X233080522Y-86255287D01*
X234297897Y-87971017D01*
X234299221Y-87972920D01*
X235484320Y-89711141D01*
X235485607Y-89713068D01*
X236542575Y-91327406D01*
X236637979Y-91473118D01*
X236639208Y-91475035D01*
X237427833Y-92730123D01*
X237758499Y-93256375D01*
X237759714Y-93258350D01*
X238845463Y-95060248D01*
X238846641Y-95062245D01*
X239898507Y-96884131D01*
X239899648Y-96886150D01*
X240917295Y-98727442D01*
X240918397Y-98729482D01*
X241901380Y-100589378D01*
X241902445Y-100591438D01*
X242850532Y-102469495D01*
X242851557Y-102471574D01*
X243764329Y-104366964D01*
X243765316Y-104369063D01*
X244642499Y-106281216D01*
X244643446Y-106283332D01*
X245484729Y-108211574D01*
X245485636Y-108213708D01*
X246290707Y-110157323D01*
X246291574Y-110159474D01*
X247060147Y-112117766D01*
X247060974Y-112119932D01*
X247792796Y-114092255D01*
X247793583Y-114094436D01*
X248488429Y-116080191D01*
X248489174Y-116082387D01*
X249146740Y-118080708D01*
X249147444Y-118082917D01*
X249767530Y-120093184D01*
X249768193Y-120095406D01*
X249961161Y-120765213D01*
X249960804Y-120835082D01*
X249922731Y-120893667D01*
X249859028Y-120922367D01*
X249789921Y-120912071D01*
X249754326Y-120887222D01*
X230892695Y-102025591D01*
X211424341Y-82557238D01*
X221329500Y-82557238D01*
X221329500Y-82782761D01*
X221329501Y-82782778D01*
X221358937Y-83006369D01*
X221417313Y-83224230D01*
X221503614Y-83432582D01*
X221503622Y-83432598D01*
X221616382Y-83627902D01*
X221616393Y-83627918D01*
X221753682Y-83806837D01*
X221753688Y-83806844D01*
X221913155Y-83966311D01*
X221913161Y-83966316D01*
X222092090Y-84103613D01*
X222092097Y-84103617D01*
X222287401Y-84216377D01*
X222287417Y-84216385D01*
X222495769Y-84302686D01*
X222495771Y-84302686D01*
X222495777Y-84302689D01*
X222713627Y-84361062D01*
X222937232Y-84390500D01*
X222937239Y-84390500D01*
X223162761Y-84390500D01*
X223162768Y-84390500D01*
X223386373Y-84361062D01*
X223604223Y-84302689D01*
X223660439Y-84279403D01*
X223812582Y-84216385D01*
X223812585Y-84216383D01*
X223812591Y-84216381D01*
X224007910Y-84103613D01*
X224186839Y-83966316D01*
X224346316Y-83806839D01*
X224483613Y-83627910D01*
X224596381Y-83432591D01*
X224682689Y-83224223D01*
X224741062Y-83006373D01*
X224770500Y-82782768D01*
X224770500Y-82557232D01*
X224741062Y-82333627D01*
X224682689Y-82115777D01*
X224682686Y-82115769D01*
X224596385Y-81907417D01*
X224596377Y-81907401D01*
X224483617Y-81712097D01*
X224483613Y-81712090D01*
X224346316Y-81533161D01*
X224346311Y-81533155D01*
X224186844Y-81373688D01*
X224186837Y-81373682D01*
X224007918Y-81236393D01*
X224007916Y-81236391D01*
X224007910Y-81236387D01*
X224007905Y-81236384D01*
X224007902Y-81236382D01*
X223812598Y-81123622D01*
X223812582Y-81123614D01*
X223604230Y-81037313D01*
X223386369Y-80978937D01*
X223162778Y-80949501D01*
X223162773Y-80949500D01*
X223162768Y-80949500D01*
X222937232Y-80949500D01*
X222937226Y-80949500D01*
X222937221Y-80949501D01*
X222713630Y-80978937D01*
X222495769Y-81037313D01*
X222287417Y-81123614D01*
X222287401Y-81123622D01*
X222092097Y-81236382D01*
X222092081Y-81236393D01*
X221913162Y-81373682D01*
X221913155Y-81373688D01*
X221753688Y-81533155D01*
X221753682Y-81533162D01*
X221616393Y-81712081D01*
X221616382Y-81712097D01*
X221503622Y-81907401D01*
X221503614Y-81907417D01*
X221417313Y-82115769D01*
X221358937Y-82333630D01*
X221329501Y-82557221D01*
X221329500Y-82557238D01*
X211424341Y-82557238D01*
X194778112Y-65911009D01*
X194750841Y-65863771D01*
X194749504Y-65864326D01*
X194746392Y-65856815D01*
X194746392Y-65856814D01*
X194680500Y-65742686D01*
X194587314Y-65649500D01*
X194521421Y-65611456D01*
X194473185Y-65583607D01*
X194465680Y-65580499D01*
X194466233Y-65579163D01*
X194418990Y-65551887D01*
X190476616Y-61609513D01*
X190476614Y-61609511D01*
X190425250Y-61579856D01*
X190373888Y-61550201D01*
X190361780Y-61546957D01*
X190349673Y-61543713D01*
X190349670Y-61543712D01*
X190311478Y-61533478D01*
X190259309Y-61519500D01*
X190259308Y-61519500D01*
X91353937Y-61519500D01*
X91345758Y-61517873D01*
X91340682Y-61518789D01*
X91325558Y-61513855D01*
X91306484Y-61510061D01*
X91298977Y-61506951D01*
X91293186Y-61503608D01*
X91286726Y-61501877D01*
X91279218Y-61498767D01*
X91263227Y-61485880D01*
X91238990Y-61471887D01*
X91206819Y-61439716D01*
X91173334Y-61378393D01*
X91170500Y-61352035D01*
X91170500Y-58923936D01*
X91184618Y-58871246D01*
X91183282Y-58870693D01*
X91186388Y-58863192D01*
X91186392Y-58863186D01*
X91220500Y-58735892D01*
X91220500Y-58604108D01*
X91186392Y-58476814D01*
X91120500Y-58362686D01*
X91027314Y-58269500D01*
X90970250Y-58236554D01*
X90913187Y-58203608D01*
X90849539Y-58186554D01*
X90785892Y-58169500D01*
X90654108Y-58169500D01*
X90526812Y-58203608D01*
X90412686Y-58269500D01*
X90412683Y-58269502D01*
X90319502Y-58362683D01*
X90319500Y-58362686D01*
X90253608Y-58476812D01*
X90219500Y-58604108D01*
X90219500Y-58735891D01*
X90253608Y-58863186D01*
X90256718Y-58870693D01*
X90255381Y-58871246D01*
X90269500Y-58923936D01*
X90269500Y-61649309D01*
X90281311Y-61693387D01*
X90300201Y-61763887D01*
X90359511Y-61866614D01*
X90359513Y-61866616D01*
X90375215Y-61882318D01*
X90408700Y-61943641D01*
X90403716Y-62013333D01*
X90375215Y-62057680D01*
X42989513Y-109443383D01*
X42989509Y-109443389D01*
X42930201Y-109546112D01*
X42930200Y-109546117D01*
X42899500Y-109660691D01*
X42899500Y-154396062D01*
X42893152Y-154435228D01*
X42889177Y-154447167D01*
X42883608Y-154456814D01*
X42873878Y-154493126D01*
X42872707Y-154496644D01*
X42861078Y-154513390D01*
X42842736Y-154545159D01*
X41861009Y-155526886D01*
X41813775Y-155554161D01*
X41814328Y-155555495D01*
X41806816Y-155558606D01*
X41692689Y-155624498D01*
X41692683Y-155624502D01*
X41599502Y-155717683D01*
X41599500Y-155717686D01*
X41533608Y-155831812D01*
X41499500Y-155959108D01*
X41499500Y-156090891D01*
X41533608Y-156218187D01*
X41566554Y-156275250D01*
X41599500Y-156332314D01*
X41692686Y-156425500D01*
X41806814Y-156491392D01*
X41934108Y-156525500D01*
X41934110Y-156525500D01*
X42065890Y-156525500D01*
X42065892Y-156525500D01*
X42193186Y-156491392D01*
X42307314Y-156425500D01*
X42400500Y-156332314D01*
X42466392Y-156218186D01*
X42466393Y-156218180D01*
X42469504Y-156210674D01*
X42470842Y-156211228D01*
X42498111Y-156163990D01*
X42687820Y-155974282D01*
X42749142Y-155940798D01*
X42818834Y-155945782D01*
X42874767Y-155987654D01*
X42899184Y-156053118D01*
X42899500Y-156061964D01*
X42899500Y-178848725D01*
X42920369Y-178926613D01*
X42930200Y-178963302D01*
X42930200Y-178963303D01*
X42955267Y-179006720D01*
X42989511Y-179066031D01*
X42989513Y-179066033D01*
X92563181Y-228639701D01*
X92596666Y-228701024D01*
X92599500Y-228727382D01*
X92599500Y-240759309D01*
X92623084Y-240847324D01*
X92623083Y-240847324D01*
X92623084Y-240847326D01*
X92630200Y-240873885D01*
X92630199Y-240873885D01*
X92664681Y-240933608D01*
X92689511Y-240976614D01*
X92689513Y-240976616D01*
X93251886Y-241538989D01*
X93256517Y-241545919D01*
X93260755Y-241548862D01*
X93267963Y-241563049D01*
X93278765Y-241579215D01*
X93281878Y-241586730D01*
X93283608Y-241593186D01*
X93286950Y-241598974D01*
X93290060Y-241606482D01*
X93292255Y-241626903D01*
X93299500Y-241653937D01*
X93299500Y-243240891D01*
X93333608Y-243368187D01*
X93366554Y-243425250D01*
X93399500Y-243482314D01*
X93492686Y-243575500D01*
X93606814Y-243641392D01*
X93734108Y-243675500D01*
X93734110Y-243675500D01*
X93865890Y-243675500D01*
X93865892Y-243675500D01*
X93993186Y-243641392D01*
X94107314Y-243575500D01*
X94200500Y-243482314D01*
X94266392Y-243368186D01*
X94300500Y-243240892D01*
X94300500Y-243109108D01*
X94266392Y-242981814D01*
X94217113Y-242896460D01*
X94200500Y-242834460D01*
X94200500Y-241974500D01*
X94220185Y-241907461D01*
X94272989Y-241861706D01*
X94324500Y-241850500D01*
X192587035Y-241850500D01*
X192654074Y-241870185D01*
X192674716Y-241886819D01*
X192976886Y-242188990D01*
X192998391Y-242217896D01*
X193005241Y-242230621D01*
X193008608Y-242243186D01*
X193058822Y-242330159D01*
X193059686Y-242331764D01*
X193063170Y-242348258D01*
X193074500Y-242390539D01*
X193074500Y-243121062D01*
X193060383Y-243173751D01*
X193061719Y-243174304D01*
X193058608Y-243181814D01*
X193024500Y-243309108D01*
X193024500Y-243440892D01*
X193041554Y-243504539D01*
X193058608Y-243568187D01*
X193091554Y-243625250D01*
X193124500Y-243682314D01*
X193217686Y-243775500D01*
X193331814Y-243841392D01*
X193459108Y-243875500D01*
X193459110Y-243875500D01*
X193590890Y-243875500D01*
X193590892Y-243875500D01*
X193718186Y-243841392D01*
X193832314Y-243775500D01*
X193925500Y-243682314D01*
X193991392Y-243568186D01*
X194025500Y-243440892D01*
X194025500Y-243309108D01*
X193991392Y-243181814D01*
X193991388Y-243181807D01*
X193988281Y-243174304D01*
X193989616Y-243173751D01*
X193975500Y-243121062D01*
X193975500Y-241984110D01*
X193975500Y-241984108D01*
X193941392Y-241856814D01*
X193875500Y-241742686D01*
X193782314Y-241649500D01*
X193668186Y-241583608D01*
X193668183Y-241583606D01*
X193660672Y-241580495D01*
X193661224Y-241579160D01*
X193613990Y-241551886D01*
X193101616Y-241039513D01*
X193101614Y-241039511D01*
X193018468Y-240991506D01*
X192998888Y-240980201D01*
X192985485Y-240976610D01*
X192974673Y-240973713D01*
X192974670Y-240973712D01*
X192936478Y-240963478D01*
X192884309Y-240949500D01*
X192884308Y-240949500D01*
X180210189Y-240949500D01*
X180143150Y-240929815D01*
X180097395Y-240877011D01*
X180087451Y-240807853D01*
X180116476Y-240744297D01*
X180122508Y-240737819D01*
X180783468Y-240076859D01*
X181357913Y-239502413D01*
X190624500Y-239502413D01*
X190624500Y-239577587D01*
X190626975Y-239586823D01*
X190643956Y-239650200D01*
X190659386Y-239676925D01*
X190681543Y-239715301D01*
X190734699Y-239768457D01*
X190799801Y-239806044D01*
X190872413Y-239825500D01*
X190872415Y-239825500D01*
X190947585Y-239825500D01*
X190947587Y-239825500D01*
X191020199Y-239806044D01*
X191085301Y-239768457D01*
X191138457Y-239715301D01*
X191176044Y-239650199D01*
X191195500Y-239577587D01*
X191195500Y-239502413D01*
X191176044Y-239429801D01*
X191138457Y-239364699D01*
X191085301Y-239311543D01*
X191052750Y-239292749D01*
X191020200Y-239273956D01*
X190983893Y-239264228D01*
X190947587Y-239254500D01*
X190872413Y-239254500D01*
X190799799Y-239273956D01*
X190734699Y-239311543D01*
X190734696Y-239311545D01*
X190681545Y-239364696D01*
X190681543Y-239364699D01*
X190643956Y-239429799D01*
X190624500Y-239502413D01*
X181357913Y-239502413D01*
X182648507Y-238211818D01*
X182709830Y-238178334D01*
X182736188Y-238175500D01*
X192616324Y-238175500D01*
X192683363Y-238195185D01*
X192704005Y-238211819D01*
X192742686Y-238250500D01*
X192856814Y-238316392D01*
X192984108Y-238350500D01*
X192984110Y-238350500D01*
X193115890Y-238350500D01*
X193115892Y-238350500D01*
X193243186Y-238316392D01*
X193357314Y-238250500D01*
X193450500Y-238157314D01*
X193516392Y-238043186D01*
X193550500Y-237915892D01*
X193550500Y-237784108D01*
X193516392Y-237656814D01*
X193450500Y-237542686D01*
X193411819Y-237504005D01*
X193378334Y-237442682D01*
X193375500Y-237416324D01*
X193375500Y-231061187D01*
X193395185Y-230994148D01*
X193411814Y-230973511D01*
X195018087Y-229367238D01*
X208719500Y-229367238D01*
X208719500Y-229592761D01*
X208719501Y-229592778D01*
X208748937Y-229816369D01*
X208807313Y-230034230D01*
X208893614Y-230242582D01*
X208893622Y-230242598D01*
X209006382Y-230437902D01*
X209006393Y-230437918D01*
X209143682Y-230616837D01*
X209143688Y-230616844D01*
X209303155Y-230776311D01*
X209303161Y-230776316D01*
X209482090Y-230913613D01*
X209482097Y-230913617D01*
X209677401Y-231026377D01*
X209677417Y-231026385D01*
X209885769Y-231112686D01*
X209885771Y-231112686D01*
X209885777Y-231112689D01*
X210103627Y-231171062D01*
X210327232Y-231200500D01*
X210327239Y-231200500D01*
X210552761Y-231200500D01*
X210552768Y-231200500D01*
X210776373Y-231171062D01*
X210994223Y-231112689D01*
X211118561Y-231061187D01*
X211202582Y-231026385D01*
X211202585Y-231026383D01*
X211202591Y-231026381D01*
X211397910Y-230913613D01*
X211576839Y-230776316D01*
X211736316Y-230616839D01*
X211873613Y-230437910D01*
X211986381Y-230242591D01*
X212072689Y-230034223D01*
X212131062Y-229816373D01*
X212160500Y-229592768D01*
X212160500Y-229367232D01*
X212131062Y-229143627D01*
X212072689Y-228925777D01*
X212072686Y-228925769D01*
X211986385Y-228717417D01*
X211986377Y-228717401D01*
X211873617Y-228522097D01*
X211873613Y-228522090D01*
X211736316Y-228343161D01*
X211736311Y-228343155D01*
X211576844Y-228183688D01*
X211576837Y-228183682D01*
X211397918Y-228046393D01*
X211397916Y-228046391D01*
X211397910Y-228046387D01*
X211397905Y-228046384D01*
X211397902Y-228046382D01*
X211202598Y-227933622D01*
X211202582Y-227933614D01*
X210994230Y-227847313D01*
X210908628Y-227824376D01*
X210776373Y-227788938D01*
X210776372Y-227788937D01*
X210776369Y-227788937D01*
X210552778Y-227759501D01*
X210552773Y-227759500D01*
X210552768Y-227759500D01*
X210327232Y-227759500D01*
X210327226Y-227759500D01*
X210327221Y-227759501D01*
X210103630Y-227788937D01*
X209885769Y-227847313D01*
X209677417Y-227933614D01*
X209677401Y-227933622D01*
X209482097Y-228046382D01*
X209482081Y-228046393D01*
X209303162Y-228183682D01*
X209303155Y-228183688D01*
X209143688Y-228343155D01*
X209143682Y-228343162D01*
X209006393Y-228522081D01*
X209006382Y-228522097D01*
X208893622Y-228717401D01*
X208893614Y-228717417D01*
X208807313Y-228925769D01*
X208748937Y-229143630D01*
X208719501Y-229367221D01*
X208719500Y-229367238D01*
X195018087Y-229367238D01*
X238874859Y-185510466D01*
X238874862Y-185510465D01*
X238935465Y-185449862D01*
X238961930Y-185404023D01*
X238978318Y-185375639D01*
X239000500Y-185292853D01*
X239000500Y-185207147D01*
X239000500Y-178331187D01*
X239020185Y-178264148D01*
X239036814Y-178243511D01*
X241323794Y-175956530D01*
X242249500Y-175956530D01*
X242249500Y-176163469D01*
X242289868Y-176366412D01*
X242289870Y-176366420D01*
X242369058Y-176557596D01*
X242484024Y-176729657D01*
X242630342Y-176875975D01*
X242630345Y-176875977D01*
X242802402Y-176990941D01*
X242993580Y-177070130D01*
X243196530Y-177110499D01*
X243196534Y-177110500D01*
X243196535Y-177110500D01*
X243403466Y-177110500D01*
X243403467Y-177110499D01*
X243606420Y-177070130D01*
X243797598Y-176990941D01*
X243969655Y-176875977D01*
X244115977Y-176729655D01*
X244230941Y-176557598D01*
X244310130Y-176366420D01*
X244350500Y-176163465D01*
X244350500Y-175956535D01*
X244310130Y-175753580D01*
X244230941Y-175562402D01*
X244115977Y-175390345D01*
X244115975Y-175390342D01*
X243969657Y-175244024D01*
X243804150Y-175133437D01*
X243797598Y-175129059D01*
X243606420Y-175049870D01*
X243606412Y-175049868D01*
X243403469Y-175009500D01*
X243403465Y-175009500D01*
X243196535Y-175009500D01*
X243196530Y-175009500D01*
X242993587Y-175049868D01*
X242993579Y-175049870D01*
X242802403Y-175129058D01*
X242630342Y-175244024D01*
X242484024Y-175390342D01*
X242369058Y-175562403D01*
X242289870Y-175753579D01*
X242289868Y-175753587D01*
X242249500Y-175956530D01*
X241323794Y-175956530D01*
X242762896Y-174517428D01*
X242824217Y-174483945D01*
X242893909Y-174488929D01*
X242897964Y-174490524D01*
X242993580Y-174530130D01*
X243196530Y-174570499D01*
X243196534Y-174570500D01*
X243196535Y-174570500D01*
X243403466Y-174570500D01*
X243403467Y-174570499D01*
X243606420Y-174530130D01*
X243797598Y-174450941D01*
X243969655Y-174335977D01*
X244115977Y-174189655D01*
X244230941Y-174017598D01*
X244310130Y-173826420D01*
X244350500Y-173623465D01*
X244350500Y-173416535D01*
X244310130Y-173213580D01*
X244230941Y-173022402D01*
X244115977Y-172850345D01*
X244115975Y-172850342D01*
X243969657Y-172704024D01*
X243883626Y-172646541D01*
X243797598Y-172589059D01*
X243606420Y-172509870D01*
X243606412Y-172509868D01*
X243403469Y-172469500D01*
X243403465Y-172469500D01*
X243196535Y-172469500D01*
X243196530Y-172469500D01*
X242993587Y-172509868D01*
X242993579Y-172509870D01*
X242802403Y-172589058D01*
X242630342Y-172704024D01*
X242484024Y-172850342D01*
X242369058Y-173022403D01*
X242289870Y-173213579D01*
X242289868Y-173213587D01*
X242249500Y-173416530D01*
X242249500Y-173623469D01*
X242289868Y-173826412D01*
X242289871Y-173826424D01*
X242329448Y-173921971D01*
X242336917Y-173991440D01*
X242305642Y-174053919D01*
X242302568Y-174057104D01*
X238414537Y-177945135D01*
X238414535Y-177945138D01*
X238371682Y-178019359D01*
X238349500Y-178102147D01*
X238349500Y-185063811D01*
X238329815Y-185130850D01*
X238313181Y-185151492D01*
X192789537Y-230675135D01*
X192789533Y-230675141D01*
X192746681Y-230749361D01*
X192746682Y-230749362D01*
X192724500Y-230832147D01*
X192724500Y-237400500D01*
X192704815Y-237467539D01*
X192652011Y-237513294D01*
X192600500Y-237524500D01*
X182507147Y-237524500D01*
X182424361Y-237546682D01*
X182424358Y-237546683D01*
X182387250Y-237568107D01*
X182387250Y-237568108D01*
X182350138Y-237589535D01*
X182350135Y-237589537D01*
X179757486Y-240182187D01*
X179696163Y-240215672D01*
X179669805Y-240218506D01*
X150742691Y-240218506D01*
X150675652Y-240198821D01*
X150629897Y-240146017D01*
X150619953Y-240076859D01*
X150648978Y-240013303D01*
X150707756Y-239975529D01*
X150729555Y-239971204D01*
X152106909Y-239824467D01*
X152106914Y-239824466D01*
X152106936Y-239824464D01*
X153962711Y-239586823D01*
X155813023Y-239309846D01*
X155813032Y-239309844D01*
X155813055Y-239309841D01*
X157657017Y-238993662D01*
X157657027Y-238993659D01*
X157657039Y-238993658D01*
X159493929Y-238638400D01*
X161322864Y-238244235D01*
X161322866Y-238244234D01*
X161322873Y-238244233D01*
X163143015Y-237811340D01*
X164159440Y-237546683D01*
X164953580Y-237339905D01*
X166753724Y-236830149D01*
X168542643Y-236282298D01*
X170319531Y-235696601D01*
X172083587Y-235073321D01*
X173834016Y-234412738D01*
X175570029Y-233715150D01*
X177290845Y-232980872D01*
X178995688Y-232210234D01*
X180683790Y-231403585D01*
X182354390Y-230561286D01*
X184006735Y-229683718D01*
X185640082Y-228771276D01*
X187253693Y-227824371D01*
X188846843Y-226843430D01*
X190418813Y-225828894D01*
X191968895Y-224781222D01*
X193496390Y-223700884D01*
X195000611Y-222588368D01*
X196480879Y-221444175D01*
X197936528Y-220268821D01*
X198856822Y-219492896D01*
X199366885Y-219062849D01*
X199623229Y-218837238D01*
X200771355Y-217826760D01*
X202149256Y-216561154D01*
X203499984Y-215266586D01*
X204822930Y-213943640D01*
X206117498Y-212592912D01*
X207383104Y-211215011D01*
X208619179Y-209810557D01*
X208619180Y-209810554D01*
X208619193Y-209810541D01*
X209172745Y-209153994D01*
X209825165Y-208380184D01*
X211000519Y-206924535D01*
X212144712Y-205444267D01*
X213257228Y-203940046D01*
X214337566Y-202412551D01*
X215385238Y-200862469D01*
X216399774Y-199290499D01*
X217380715Y-197697349D01*
X218327620Y-196083738D01*
X219240062Y-194450391D01*
X220117630Y-192798046D01*
X220959929Y-191127446D01*
X221766578Y-189439344D01*
X222537216Y-187734501D01*
X223271494Y-186013685D01*
X223969082Y-184277672D01*
X224629665Y-182527243D01*
X225252945Y-180763187D01*
X225838642Y-178986299D01*
X226386493Y-177197380D01*
X226896249Y-175397236D01*
X227255479Y-174017598D01*
X227367684Y-173586671D01*
X227800577Y-171766529D01*
X227848501Y-171544159D01*
X228194744Y-169937585D01*
X228550002Y-168100695D01*
X228562525Y-168027661D01*
X228866185Y-166256711D01*
X228886268Y-166122549D01*
X229143167Y-164406367D01*
X229380808Y-162550592D01*
X229579006Y-160690192D01*
X229737672Y-158826004D01*
X229856734Y-156958869D01*
X229936139Y-155089626D01*
X229975850Y-153219120D01*
X229975850Y-151348192D01*
X229936139Y-149477686D01*
X229926081Y-149240921D01*
X229942902Y-149173106D01*
X229993717Y-149125152D01*
X230062391Y-149112282D01*
X230127121Y-149138583D01*
X230137650Y-149147977D01*
X247678181Y-166688508D01*
X247711666Y-166749831D01*
X247714500Y-166776189D01*
X247714500Y-181293810D01*
X247694815Y-181360849D01*
X247678181Y-181381491D01*
X246377103Y-182682568D01*
X246315780Y-182716053D01*
X246246088Y-182711069D01*
X246241981Y-182709452D01*
X246146420Y-182669870D01*
X246146412Y-182669868D01*
X245943469Y-182629500D01*
X245943465Y-182629500D01*
X245736535Y-182629500D01*
X245736530Y-182629500D01*
X245533587Y-182669868D01*
X245533579Y-182669870D01*
X245342403Y-182749058D01*
X245170342Y-182864024D01*
X245024024Y-183010342D01*
X244909058Y-183182403D01*
X244829870Y-183373579D01*
X244829868Y-183373587D01*
X244789500Y-183576530D01*
X244789500Y-183783469D01*
X244829868Y-183986412D01*
X244829870Y-183986420D01*
X244909058Y-184177596D01*
X245024024Y-184349657D01*
X245170342Y-184495975D01*
X245170345Y-184495977D01*
X245342402Y-184610941D01*
X245533580Y-184690130D01*
X245736530Y-184730499D01*
X245736534Y-184730500D01*
X245736535Y-184730500D01*
X245943466Y-184730500D01*
X245943467Y-184730499D01*
X246146420Y-184690130D01*
X246337598Y-184610941D01*
X246509655Y-184495977D01*
X246655977Y-184349655D01*
X246770941Y-184177598D01*
X246850130Y-183986420D01*
X246890500Y-183783465D01*
X246890500Y-183576535D01*
X246850130Y-183373580D01*
X246810551Y-183278028D01*
X246803082Y-183208558D01*
X246834357Y-183146079D01*
X246837403Y-183142922D01*
X247997819Y-181982507D01*
X248059142Y-181949022D01*
X248128834Y-181954006D01*
X248184767Y-181995878D01*
X248209184Y-182061342D01*
X248209500Y-182070188D01*
X248209500Y-186922035D01*
X248189815Y-186989074D01*
X248173181Y-187009716D01*
X247489513Y-187693383D01*
X247489509Y-187693389D01*
X247430201Y-187796112D01*
X247430200Y-187796117D01*
X247399500Y-187910691D01*
X247399500Y-189292035D01*
X247379815Y-189359074D01*
X247363181Y-189379716D01*
X246579716Y-190163181D01*
X246518393Y-190196666D01*
X246492035Y-190199500D01*
X244867965Y-190199500D01*
X244800926Y-190179815D01*
X244780284Y-190163181D01*
X244380170Y-189763067D01*
X244346685Y-189701744D01*
X244346234Y-189651194D01*
X244350500Y-189629748D01*
X244350500Y-187890252D01*
X244350500Y-187890249D01*
X244350499Y-187890247D01*
X244338868Y-187831770D01*
X244338867Y-187831769D01*
X244294552Y-187765447D01*
X244228230Y-187721132D01*
X244228229Y-187721131D01*
X244169752Y-187709500D01*
X244169748Y-187709500D01*
X242430252Y-187709500D01*
X242430247Y-187709500D01*
X242371770Y-187721131D01*
X242371769Y-187721132D01*
X242305447Y-187765447D01*
X242261132Y-187831769D01*
X242261131Y-187831770D01*
X242249500Y-187890247D01*
X242249500Y-189629752D01*
X242261131Y-189688229D01*
X242261132Y-189688230D01*
X242305447Y-189754552D01*
X242371769Y-189798867D01*
X242371770Y-189798868D01*
X242430247Y-189810499D01*
X242430250Y-189810500D01*
X242430252Y-189810500D01*
X243102035Y-189810500D01*
X243169074Y-189830185D01*
X243189716Y-189846819D01*
X243905215Y-190562318D01*
X243938700Y-190623641D01*
X243933716Y-190693333D01*
X243905215Y-190737680D01*
X242149513Y-192493383D01*
X242149509Y-192493389D01*
X242090201Y-192596112D01*
X242090200Y-192596117D01*
X242059500Y-192710691D01*
X242059500Y-201982035D01*
X242039815Y-202049074D01*
X242023181Y-202069716D01*
X241712181Y-202380716D01*
X241650858Y-202414201D01*
X241581166Y-202409217D01*
X241525233Y-202367345D01*
X241500816Y-202301881D01*
X241500500Y-202293035D01*
X241500500Y-186116530D01*
X242249500Y-186116530D01*
X242249500Y-186323469D01*
X242289868Y-186526412D01*
X242289870Y-186526420D01*
X242369058Y-186717596D01*
X242484024Y-186889657D01*
X242630342Y-187035975D01*
X242630345Y-187035977D01*
X242802402Y-187150941D01*
X242993580Y-187230130D01*
X243196530Y-187270499D01*
X243196534Y-187270500D01*
X243196535Y-187270500D01*
X243403466Y-187270500D01*
X243403467Y-187270499D01*
X243606420Y-187230130D01*
X243797598Y-187150941D01*
X243969655Y-187035977D01*
X244115977Y-186889655D01*
X244230941Y-186717598D01*
X244310130Y-186526420D01*
X244350500Y-186323465D01*
X244350500Y-186116535D01*
X244310130Y-185913580D01*
X244230941Y-185722402D01*
X244115977Y-185550345D01*
X244115975Y-185550342D01*
X243969658Y-185404025D01*
X243927175Y-185375639D01*
X243797598Y-185289059D01*
X243606420Y-185209870D01*
X243606412Y-185209868D01*
X243403469Y-185169500D01*
X243403465Y-185169500D01*
X243196535Y-185169500D01*
X243196530Y-185169500D01*
X242993587Y-185209868D01*
X242993579Y-185209870D01*
X242802403Y-185289058D01*
X242630341Y-185404025D01*
X242484024Y-185550342D01*
X242369058Y-185722403D01*
X242289870Y-185913579D01*
X242289868Y-185913587D01*
X242249500Y-186116530D01*
X241500500Y-186116530D01*
X241500500Y-183576530D01*
X242249500Y-183576530D01*
X242249500Y-183783469D01*
X242289868Y-183986412D01*
X242289870Y-183986420D01*
X242369058Y-184177596D01*
X242484024Y-184349657D01*
X242630342Y-184495975D01*
X242630345Y-184495977D01*
X242802402Y-184610941D01*
X242993580Y-184690130D01*
X243196530Y-184730499D01*
X243196534Y-184730500D01*
X243196535Y-184730500D01*
X243403466Y-184730500D01*
X243403467Y-184730499D01*
X243606420Y-184690130D01*
X243797598Y-184610941D01*
X243969655Y-184495977D01*
X244115977Y-184349655D01*
X244230941Y-184177598D01*
X244310130Y-183986420D01*
X244350500Y-183783465D01*
X244350500Y-183576535D01*
X244310130Y-183373580D01*
X244230941Y-183182402D01*
X244115977Y-183010345D01*
X244115975Y-183010342D01*
X243969657Y-182864024D01*
X243883626Y-182806541D01*
X243797598Y-182749059D01*
X243778516Y-182741155D01*
X243606420Y-182669870D01*
X243606412Y-182669868D01*
X243403469Y-182629500D01*
X243403465Y-182629500D01*
X243196535Y-182629500D01*
X243196530Y-182629500D01*
X242993587Y-182669868D01*
X242993579Y-182669870D01*
X242802403Y-182749058D01*
X242630342Y-182864024D01*
X242484024Y-183010342D01*
X242369058Y-183182403D01*
X242289870Y-183373579D01*
X242289868Y-183373587D01*
X242249500Y-183576530D01*
X241500500Y-183576530D01*
X241500500Y-181546544D01*
X241520185Y-181479505D01*
X241536819Y-181458863D01*
X241959152Y-181036530D01*
X244789500Y-181036530D01*
X244789500Y-181243469D01*
X244829868Y-181446412D01*
X244829870Y-181446420D01*
X244909058Y-181637596D01*
X245024024Y-181809657D01*
X245170342Y-181955975D01*
X245170345Y-181955977D01*
X245342402Y-182070941D01*
X245533580Y-182150130D01*
X245736530Y-182190499D01*
X245736534Y-182190500D01*
X245736535Y-182190500D01*
X245943466Y-182190500D01*
X245943467Y-182190499D01*
X246146420Y-182150130D01*
X246337598Y-182070941D01*
X246509655Y-181955977D01*
X246655977Y-181809655D01*
X246770941Y-181637598D01*
X246850130Y-181446420D01*
X246890500Y-181243465D01*
X246890500Y-181036535D01*
X246850130Y-180833580D01*
X246770941Y-180642402D01*
X246655977Y-180470345D01*
X246655975Y-180470342D01*
X246509657Y-180324024D01*
X246363868Y-180226612D01*
X246337598Y-180209059D01*
X246146420Y-180129870D01*
X246146412Y-180129868D01*
X245943469Y-180089500D01*
X245943465Y-180089500D01*
X245736535Y-180089500D01*
X245736530Y-180089500D01*
X245533587Y-180129868D01*
X245533579Y-180129870D01*
X245342403Y-180209058D01*
X245170342Y-180324024D01*
X245024024Y-180470342D01*
X244909058Y-180642403D01*
X244829870Y-180833579D01*
X244829868Y-180833587D01*
X244789500Y-181036530D01*
X241959152Y-181036530D01*
X242708863Y-180286819D01*
X242770186Y-180253334D01*
X242796544Y-180250500D01*
X244606142Y-180250500D01*
X244606144Y-180250500D01*
X244695288Y-180226614D01*
X244775212Y-180180469D01*
X244840469Y-180115212D01*
X244859631Y-180082022D01*
X244879329Y-180056351D01*
X245327894Y-179607785D01*
X245389217Y-179574301D01*
X245458909Y-179579285D01*
X245463022Y-179580903D01*
X245533580Y-179610130D01*
X245736530Y-179650499D01*
X245736534Y-179650500D01*
X245736535Y-179650500D01*
X245943466Y-179650500D01*
X245943467Y-179650499D01*
X246146420Y-179610130D01*
X246337598Y-179530941D01*
X246509655Y-179415977D01*
X246655977Y-179269655D01*
X246770941Y-179097598D01*
X246850130Y-178906420D01*
X246890500Y-178703465D01*
X246890500Y-178496535D01*
X246850130Y-178293580D01*
X246770941Y-178102402D01*
X246655977Y-177930345D01*
X246655975Y-177930342D01*
X246509657Y-177784024D01*
X246423626Y-177726541D01*
X246337598Y-177669059D01*
X246146420Y-177589870D01*
X246146412Y-177589868D01*
X245943469Y-177549500D01*
X245943465Y-177549500D01*
X245736535Y-177549500D01*
X245736530Y-177549500D01*
X245533587Y-177589868D01*
X245533579Y-177589870D01*
X245342403Y-177669058D01*
X245170342Y-177784024D01*
X245024024Y-177930342D01*
X244909058Y-178102403D01*
X244829870Y-178293579D01*
X244829868Y-178293587D01*
X244789500Y-178496530D01*
X244789500Y-178703469D01*
X244829868Y-178906412D01*
X244829870Y-178906420D01*
X244859093Y-178976970D01*
X244866562Y-179046440D01*
X244835287Y-179108919D01*
X244832213Y-179112104D01*
X244431137Y-179513181D01*
X244404209Y-179527884D01*
X244378391Y-179544477D01*
X244372190Y-179545368D01*
X244369814Y-179546666D01*
X244343456Y-179549500D01*
X244135495Y-179549500D01*
X244068456Y-179529815D01*
X244022701Y-179477011D01*
X244012757Y-179407853D01*
X244041782Y-179344297D01*
X244047814Y-179337819D01*
X244115974Y-179269658D01*
X244115975Y-179269657D01*
X244115977Y-179269655D01*
X244230941Y-179097598D01*
X244310130Y-178906420D01*
X244350500Y-178703465D01*
X244350500Y-178496535D01*
X244310130Y-178293580D01*
X244230941Y-178102402D01*
X244115977Y-177930345D01*
X244115975Y-177930342D01*
X243969657Y-177784024D01*
X243883626Y-177726541D01*
X243797598Y-177669059D01*
X243606420Y-177589870D01*
X243606412Y-177589868D01*
X243403469Y-177549500D01*
X243403465Y-177549500D01*
X243196535Y-177549500D01*
X243196530Y-177549500D01*
X242993587Y-177589868D01*
X242993579Y-177589870D01*
X242802403Y-177669058D01*
X242630342Y-177784024D01*
X242484024Y-177930342D01*
X242369058Y-178102403D01*
X242289870Y-178293579D01*
X242289868Y-178293587D01*
X242249500Y-178496530D01*
X242249500Y-178613456D01*
X242229815Y-178680495D01*
X242213181Y-178701137D01*
X240119531Y-180794786D01*
X240119527Y-180794791D01*
X240073387Y-180874709D01*
X240073386Y-180874712D01*
X240049500Y-180963856D01*
X240049500Y-201850563D01*
X240029815Y-201917602D01*
X239977011Y-201963357D01*
X239941690Y-201973502D01*
X239934107Y-201974500D01*
X239806812Y-202008608D01*
X239692686Y-202074500D01*
X239692683Y-202074502D01*
X239599502Y-202167683D01*
X239599500Y-202167686D01*
X239533608Y-202281814D01*
X239528231Y-202301881D01*
X239511091Y-202365849D01*
X239474725Y-202425509D01*
X239411878Y-202456038D01*
X239342503Y-202447743D01*
X239303635Y-202421436D01*
X239261701Y-202379502D01*
X239261699Y-202379500D01*
X239204635Y-202346554D01*
X239147572Y-202313608D01*
X239060893Y-202290383D01*
X239020277Y-202279500D01*
X238888493Y-202279500D01*
X238761197Y-202313608D01*
X238647071Y-202379500D01*
X238647068Y-202379502D01*
X238553887Y-202472683D01*
X238553885Y-202472686D01*
X238487993Y-202586812D01*
X238453885Y-202714108D01*
X238453885Y-202845891D01*
X238487993Y-202973187D01*
X238520939Y-203030250D01*
X238553885Y-203087314D01*
X238647071Y-203180500D01*
X238761199Y-203246392D01*
X238888493Y-203280500D01*
X238907841Y-203280500D01*
X238974880Y-203300185D01*
X238995522Y-203316819D01*
X239084173Y-203405470D01*
X239164097Y-203451614D01*
X239253241Y-203475500D01*
X239253242Y-203475500D01*
X239253243Y-203475500D01*
X240318035Y-203475500D01*
X240385074Y-203495185D01*
X240430829Y-203547989D01*
X240440773Y-203617147D01*
X240411748Y-203680703D01*
X240405716Y-203687181D01*
X239329513Y-204763383D01*
X239329509Y-204763389D01*
X239270201Y-204866112D01*
X239270200Y-204866117D01*
X239239500Y-204980691D01*
X239239500Y-205216061D01*
X239237872Y-205224240D01*
X239238789Y-205229318D01*
X239233852Y-205244451D01*
X239230060Y-205263516D01*
X239226947Y-205271029D01*
X239223608Y-205276814D01*
X239221879Y-205283264D01*
X239218765Y-205290783D01*
X239205887Y-205306762D01*
X239191886Y-205331009D01*
X238871009Y-205651886D01*
X238823775Y-205679161D01*
X238824328Y-205680495D01*
X238816816Y-205683606D01*
X238702689Y-205749498D01*
X238702683Y-205749502D01*
X238609502Y-205842683D01*
X238609500Y-205842686D01*
X238543608Y-205956812D01*
X238509500Y-206084108D01*
X238509500Y-206215891D01*
X238543608Y-206343187D01*
X238576554Y-206400250D01*
X238609500Y-206457314D01*
X238702686Y-206550500D01*
X238816814Y-206616392D01*
X238944108Y-206650500D01*
X238944110Y-206650500D01*
X239075890Y-206650500D01*
X239075892Y-206650500D01*
X239203186Y-206616392D01*
X239317314Y-206550500D01*
X239410500Y-206457314D01*
X239476392Y-206343186D01*
X239476393Y-206343180D01*
X239479504Y-206335674D01*
X239480842Y-206336228D01*
X239508111Y-206288990D01*
X239828990Y-205968111D01*
X239876228Y-205940842D01*
X239875674Y-205939504D01*
X239883180Y-205936393D01*
X239883186Y-205936392D01*
X239997314Y-205870500D01*
X240090500Y-205777314D01*
X240156392Y-205663186D01*
X240190500Y-205535892D01*
X240190500Y-205404108D01*
X240160951Y-205293828D01*
X240162614Y-205223982D01*
X240193043Y-205174059D01*
X241876648Y-203490453D01*
X241937969Y-203456970D01*
X242007661Y-203461954D01*
X242063594Y-203503826D01*
X242088011Y-203569290D01*
X242075022Y-203634017D01*
X241902445Y-203975873D01*
X241901380Y-203977933D01*
X240918397Y-205837829D01*
X240917295Y-205839869D01*
X239899648Y-207681161D01*
X239898507Y-207683180D01*
X238846641Y-209505066D01*
X238845463Y-209507063D01*
X237759714Y-211308961D01*
X237758499Y-211310936D01*
X236639231Y-213092241D01*
X236637979Y-213094193D01*
X235485608Y-214854242D01*
X235484320Y-214856170D01*
X234299221Y-216594391D01*
X234297897Y-216596294D01*
X233080522Y-218312024D01*
X233079162Y-218313903D01*
X231829912Y-220006576D01*
X231828518Y-220008428D01*
X230547850Y-221677428D01*
X230546421Y-221679255D01*
X229234732Y-223324060D01*
X229233269Y-223325859D01*
X227891128Y-224945760D01*
X227889632Y-224947532D01*
X226517336Y-226542169D01*
X226515808Y-226543912D01*
X225113962Y-228112579D01*
X225112400Y-228114293D01*
X223681521Y-229656414D01*
X223679928Y-229658099D01*
X222220437Y-231173221D01*
X222218813Y-231174876D01*
X220731220Y-232662469D01*
X220729565Y-232664093D01*
X219214443Y-234123584D01*
X219212758Y-234125177D01*
X217670637Y-235556056D01*
X217668923Y-235557618D01*
X216100256Y-236959464D01*
X216098513Y-236960992D01*
X214503876Y-238333288D01*
X214502104Y-238334784D01*
X212882203Y-239676925D01*
X212880404Y-239678388D01*
X211235599Y-240990077D01*
X211233772Y-240991506D01*
X209564772Y-242272174D01*
X209562920Y-242273568D01*
X207870247Y-243522818D01*
X207868368Y-243524178D01*
X206152638Y-244741553D01*
X206150735Y-244742877D01*
X204412514Y-245927976D01*
X204410586Y-245929264D01*
X202650537Y-247081635D01*
X202648585Y-247082887D01*
X200867280Y-248202155D01*
X200865305Y-248203370D01*
X199063407Y-249289119D01*
X199061410Y-249290297D01*
X197239524Y-250342163D01*
X197237505Y-250343304D01*
X195396213Y-251360951D01*
X195394173Y-251362053D01*
X193534277Y-252345036D01*
X193532217Y-252346101D01*
X191654160Y-253294188D01*
X191652081Y-253295213D01*
X189756691Y-254207985D01*
X189754592Y-254208972D01*
X187842439Y-255086155D01*
X187840323Y-255087102D01*
X185912081Y-255928385D01*
X185909947Y-255929292D01*
X183966332Y-256734363D01*
X183964181Y-256735230D01*
X182005889Y-257503803D01*
X182003723Y-257504630D01*
X180031400Y-258236452D01*
X180029219Y-258237239D01*
X178043464Y-258932085D01*
X178041268Y-258932830D01*
X176042947Y-259590396D01*
X176040738Y-259591100D01*
X174030471Y-260211186D01*
X174028249Y-260211849D01*
X172006703Y-260794246D01*
X172004469Y-260794867D01*
X169972389Y-261339361D01*
X169970143Y-261339940D01*
X167928274Y-261846332D01*
X167926019Y-261846869D01*
X165875012Y-262314998D01*
X165872746Y-262315493D01*
X163813330Y-262745192D01*
X163811056Y-262745644D01*
X161744014Y-263136749D01*
X161741732Y-263137159D01*
X159667688Y-263489554D01*
X159665398Y-263489921D01*
X157585144Y-263803469D01*
X157582848Y-263803793D01*
X155497100Y-264078387D01*
X155494799Y-264078668D01*
X153404276Y-264314213D01*
X153401969Y-264314451D01*
X151307419Y-264510864D01*
X151305108Y-264511059D01*
X149207259Y-264668270D01*
X149204946Y-264668422D01*
X147104464Y-264786384D01*
X147102147Y-264786492D01*
X144999890Y-264865152D01*
X144997573Y-264865217D01*
X142894210Y-264904555D01*
X142891891Y-264904577D01*
X140788109Y-264904577D01*
X140785790Y-264904555D01*
X138682426Y-264865217D01*
X138680109Y-264865152D01*
X136577852Y-264786492D01*
X136575535Y-264786384D01*
X134475053Y-264668422D01*
X134472740Y-264668270D01*
X132374891Y-264511059D01*
X132372580Y-264510864D01*
X130278030Y-264314451D01*
X130275723Y-264314213D01*
X128185200Y-264078668D01*
X128182899Y-264078387D01*
X126097151Y-263803793D01*
X126094855Y-263803469D01*
X124014601Y-263489921D01*
X124012311Y-263489554D01*
X121938267Y-263137159D01*
X121935985Y-263136749D01*
X119868943Y-262745644D01*
X119866669Y-262745192D01*
X117807253Y-262315493D01*
X117804987Y-262314998D01*
X115753980Y-261846869D01*
X115751725Y-261846332D01*
X113709856Y-261339940D01*
X113707610Y-261339361D01*
X111675530Y-260794867D01*
X111673296Y-260794246D01*
X109651750Y-260211849D01*
X109649528Y-260211186D01*
X107639261Y-259591100D01*
X107637052Y-259590396D01*
X105638731Y-258932830D01*
X105636535Y-258932085D01*
X103650780Y-258237239D01*
X103648599Y-258236452D01*
X101676276Y-257504630D01*
X101674110Y-257503803D01*
X99715818Y-256735230D01*
X99713667Y-256734363D01*
X97770052Y-255929292D01*
X97767918Y-255928385D01*
X95839676Y-255087102D01*
X95837560Y-255086155D01*
X93925407Y-254208972D01*
X93923308Y-254207985D01*
X92027918Y-253295213D01*
X92025839Y-253294188D01*
X90147782Y-252346101D01*
X90145722Y-252345036D01*
X88960738Y-251718754D01*
X88285785Y-251362031D01*
X88283825Y-251360972D01*
X87507876Y-250932120D01*
X86442494Y-250343304D01*
X86440475Y-250342163D01*
X84618589Y-249290297D01*
X84616592Y-249289119D01*
X82814694Y-248203370D01*
X82812719Y-248202155D01*
X82378000Y-247929003D01*
X81031379Y-247082864D01*
X81029497Y-247081657D01*
X79269412Y-245929263D01*
X79267485Y-245927976D01*
X77529264Y-244742877D01*
X77527361Y-244741553D01*
X75811631Y-243524178D01*
X75809752Y-243522818D01*
X74117079Y-242273568D01*
X74115227Y-242272174D01*
X74044490Y-242217896D01*
X73172588Y-241548862D01*
X72446227Y-240991506D01*
X72444400Y-240990077D01*
X70799595Y-239678388D01*
X70797796Y-239676925D01*
X70089138Y-239089778D01*
X70089128Y-239089771D01*
X70077493Y-239080131D01*
X69983691Y-239002413D01*
X90424500Y-239002413D01*
X90424500Y-239077586D01*
X90443956Y-239150200D01*
X90460087Y-239178139D01*
X90481543Y-239215301D01*
X90534699Y-239268457D01*
X90599801Y-239306044D01*
X90672413Y-239325500D01*
X90672415Y-239325500D01*
X90747585Y-239325500D01*
X90747587Y-239325500D01*
X90820199Y-239306044D01*
X90885301Y-239268457D01*
X90938457Y-239215301D01*
X90976044Y-239150199D01*
X90995500Y-239077587D01*
X90995500Y-239002413D01*
X90976044Y-238929801D01*
X90938457Y-238864699D01*
X90885301Y-238811543D01*
X90852750Y-238792749D01*
X90820200Y-238773956D01*
X90783893Y-238764228D01*
X90747587Y-238754500D01*
X90672413Y-238754500D01*
X90599799Y-238773956D01*
X90534699Y-238811543D01*
X90534696Y-238811545D01*
X90481545Y-238864696D01*
X90481543Y-238864699D01*
X90443956Y-238929799D01*
X90424500Y-239002413D01*
X69983691Y-239002413D01*
X69177824Y-238334725D01*
X69176123Y-238333288D01*
X67581486Y-236960992D01*
X67579743Y-236959464D01*
X66011076Y-235557618D01*
X66009362Y-235556056D01*
X65489103Y-235073326D01*
X64467223Y-234125160D01*
X64465556Y-234123584D01*
X62950434Y-232664093D01*
X62948779Y-232662469D01*
X61461186Y-231174876D01*
X61459562Y-231173221D01*
X61077230Y-230776316D01*
X60000051Y-229658077D01*
X59998478Y-229656414D01*
X59939432Y-229592778D01*
X58567590Y-228114283D01*
X58566037Y-228112579D01*
X58374555Y-227898311D01*
X57538007Y-226962213D01*
X57164191Y-226543912D01*
X57162663Y-226542169D01*
X55790367Y-224947532D01*
X55788871Y-224945760D01*
X54446730Y-223325859D01*
X54445267Y-223324060D01*
X53484730Y-222119586D01*
X53133571Y-221679246D01*
X53132149Y-221677428D01*
X52379698Y-220696814D01*
X51851464Y-220008406D01*
X51850087Y-220006576D01*
X51777268Y-219907910D01*
X50987076Y-218837238D01*
X59619500Y-218837238D01*
X59619500Y-219062761D01*
X59619501Y-219062778D01*
X59648937Y-219286369D01*
X59707313Y-219504230D01*
X59793614Y-219712582D01*
X59793622Y-219712598D01*
X59906382Y-219907902D01*
X59906393Y-219907918D01*
X60043682Y-220086837D01*
X60043688Y-220086844D01*
X60203155Y-220246311D01*
X60203161Y-220246316D01*
X60382090Y-220383613D01*
X60382097Y-220383617D01*
X60577401Y-220496377D01*
X60577417Y-220496385D01*
X60785769Y-220582686D01*
X60785771Y-220582686D01*
X60785777Y-220582689D01*
X61003627Y-220641062D01*
X61227232Y-220670500D01*
X61227239Y-220670500D01*
X61452761Y-220670500D01*
X61452768Y-220670500D01*
X61676373Y-220641062D01*
X61894223Y-220582689D01*
X61980935Y-220546772D01*
X62102582Y-220496385D01*
X62102585Y-220496383D01*
X62102591Y-220496381D01*
X62297910Y-220383613D01*
X62476839Y-220246316D01*
X62636316Y-220086839D01*
X62773613Y-219907910D01*
X62886381Y-219712591D01*
X62972689Y-219504223D01*
X63031062Y-219286373D01*
X63060500Y-219062768D01*
X63060500Y-218837232D01*
X63031062Y-218613627D01*
X62972689Y-218395777D01*
X62938776Y-218313903D01*
X62886385Y-218187417D01*
X62886377Y-218187401D01*
X62773617Y-217992097D01*
X62773613Y-217992090D01*
X62636316Y-217813161D01*
X62636311Y-217813155D01*
X62476844Y-217653688D01*
X62476837Y-217653682D01*
X62297918Y-217516393D01*
X62297916Y-217516391D01*
X62297910Y-217516387D01*
X62297905Y-217516384D01*
X62297902Y-217516382D01*
X62102598Y-217403622D01*
X62102582Y-217403614D01*
X61894230Y-217317313D01*
X61676369Y-217258937D01*
X61452778Y-217229501D01*
X61452773Y-217229500D01*
X61452768Y-217229500D01*
X61227232Y-217229500D01*
X61227226Y-217229500D01*
X61227221Y-217229501D01*
X61003630Y-217258937D01*
X60785769Y-217317313D01*
X60577417Y-217403614D01*
X60577401Y-217403622D01*
X60382097Y-217516382D01*
X60382081Y-217516393D01*
X60203162Y-217653682D01*
X60203155Y-217653688D01*
X60043688Y-217813155D01*
X60043682Y-217813162D01*
X59906393Y-217992081D01*
X59906382Y-217992097D01*
X59793622Y-218187401D01*
X59793614Y-218187417D01*
X59707313Y-218395769D01*
X59648937Y-218613630D01*
X59619501Y-218837221D01*
X59619500Y-218837238D01*
X50987076Y-218837238D01*
X50600836Y-218313902D01*
X50599477Y-218312024D01*
X49831385Y-217229500D01*
X49382100Y-216596292D01*
X49380778Y-216594391D01*
X48195679Y-214856170D01*
X48194391Y-214854242D01*
X47598194Y-213943653D01*
X47041980Y-213094131D01*
X47040808Y-213092304D01*
X45921471Y-211310889D01*
X45920315Y-211309010D01*
X44834536Y-209507063D01*
X44833358Y-209505066D01*
X43781492Y-207683180D01*
X43780351Y-207681161D01*
X43362178Y-206924535D01*
X42762663Y-205839793D01*
X42761645Y-205837909D01*
X41778619Y-203977933D01*
X41777554Y-203975873D01*
X41010306Y-202456038D01*
X40829448Y-202097779D01*
X40828442Y-202095737D01*
X40805970Y-202049074D01*
X39915667Y-200200341D01*
X39914683Y-200198248D01*
X39498261Y-199290499D01*
X39037489Y-198286071D01*
X39036553Y-198283979D01*
X38195270Y-196355737D01*
X38194382Y-196353649D01*
X37389288Y-194409979D01*
X37388425Y-194407837D01*
X36619852Y-192449545D01*
X36619025Y-192447379D01*
X36110287Y-191076286D01*
X35887197Y-190475039D01*
X35886416Y-190472875D01*
X35783870Y-190179815D01*
X35191555Y-188487076D01*
X35190825Y-188484924D01*
X35001868Y-187910691D01*
X34533259Y-186486603D01*
X34532555Y-186484394D01*
X34327009Y-185818030D01*
X33912466Y-184474117D01*
X33911806Y-184471905D01*
X33855848Y-184277672D01*
X33329406Y-182450351D01*
X33328788Y-182448125D01*
X33204026Y-181982507D01*
X32784286Y-180416017D01*
X32783715Y-180413799D01*
X32761450Y-180324024D01*
X32277323Y-178371930D01*
X32276786Y-178369675D01*
X32215783Y-178102402D01*
X31808648Y-176318630D01*
X31808162Y-176316402D01*
X31776252Y-176163469D01*
X31378457Y-174256958D01*
X31378011Y-174254712D01*
X31333146Y-174017596D01*
X30986903Y-172187653D01*
X30986496Y-172185388D01*
X30915329Y-171766529D01*
X30634095Y-170111307D01*
X30633734Y-170109054D01*
X30320176Y-168028729D01*
X30319872Y-168026575D01*
X30045258Y-165940678D01*
X30044996Y-165938534D01*
X29809440Y-163847919D01*
X29809204Y-163845625D01*
X29612785Y-161751012D01*
X29612601Y-161748827D01*
X29455384Y-159650901D01*
X29455233Y-159648602D01*
X29409038Y-158826033D01*
X29337267Y-157548036D01*
X29337167Y-157545891D01*
X29258502Y-155443514D01*
X29258438Y-155441229D01*
X29256352Y-155329715D01*
X29219101Y-153337866D01*
X29219079Y-153335547D01*
X29219079Y-152012413D01*
X40034500Y-152012413D01*
X40034500Y-152087586D01*
X40053956Y-152160200D01*
X40072749Y-152192750D01*
X40091543Y-152225301D01*
X40144699Y-152278457D01*
X40199750Y-152310241D01*
X40209783Y-152316034D01*
X40209801Y-152316044D01*
X40282413Y-152335500D01*
X40282415Y-152335500D01*
X40357585Y-152335500D01*
X40357587Y-152335500D01*
X40430199Y-152316044D01*
X40495301Y-152278457D01*
X40548457Y-152225301D01*
X40586044Y-152160199D01*
X40605500Y-152087587D01*
X40605500Y-152012413D01*
X40586044Y-151939801D01*
X40548457Y-151874699D01*
X40495301Y-151821543D01*
X40462750Y-151802749D01*
X40430200Y-151783956D01*
X40393893Y-151774228D01*
X40357587Y-151764500D01*
X40282413Y-151764500D01*
X40209799Y-151783956D01*
X40144699Y-151821543D01*
X40144696Y-151821545D01*
X40091545Y-151874696D01*
X40091543Y-151874699D01*
X40053956Y-151939799D01*
X40034500Y-152012413D01*
X29219079Y-152012413D01*
X29219079Y-151231764D01*
X29219101Y-151229445D01*
X29232195Y-150529306D01*
X29258438Y-149126047D01*
X29258503Y-149123765D01*
X29258933Y-149112282D01*
X29337167Y-147021415D01*
X29337266Y-147019280D01*
X29455234Y-144918687D01*
X29455385Y-144916396D01*
X29460227Y-144851780D01*
X29612601Y-142818476D01*
X29612784Y-142816308D01*
X29809206Y-140721662D01*
X29809442Y-140719379D01*
X29856773Y-140299304D01*
X30044998Y-138628764D01*
X30045256Y-138626646D01*
X30319874Y-136540721D01*
X30320173Y-136538597D01*
X30633742Y-134458203D01*
X30634092Y-134456021D01*
X30986502Y-132381887D01*
X30986906Y-132379641D01*
X31378011Y-130312599D01*
X31378463Y-130310325D01*
X31808175Y-128250847D01*
X31808643Y-128248704D01*
X32276791Y-126197613D01*
X32277323Y-126195381D01*
X32429697Y-125580982D01*
X32783728Y-124153457D01*
X32784280Y-124151319D01*
X33328798Y-122119149D01*
X33329409Y-122116952D01*
X33406712Y-121848627D01*
X33911817Y-120095368D01*
X33912469Y-120093184D01*
X34387356Y-118553642D01*
X34532564Y-118082887D01*
X34533259Y-118080708D01*
X34810752Y-117237417D01*
X35190851Y-116082308D01*
X35191544Y-116080266D01*
X35886433Y-114094386D01*
X35887183Y-114092307D01*
X36619038Y-112119896D01*
X36619852Y-112117766D01*
X36756627Y-111769269D01*
X37388443Y-110159427D01*
X37389273Y-110157368D01*
X38194399Y-108213622D01*
X38195234Y-108211656D01*
X39036581Y-106283269D01*
X39037471Y-106281280D01*
X39914704Y-104369016D01*
X39915647Y-104367011D01*
X40828482Y-102471492D01*
X40829427Y-102469574D01*
X41777561Y-100591424D01*
X41778619Y-100589378D01*
X42022086Y-100128716D01*
X42761670Y-98729355D01*
X42762639Y-98727561D01*
X43780365Y-96886124D01*
X43781492Y-96884131D01*
X44833374Y-95062217D01*
X44834536Y-95060248D01*
X45920344Y-93258253D01*
X45921442Y-93256468D01*
X47040839Y-91474958D01*
X47041949Y-91473228D01*
X48194441Y-89712992D01*
X48195629Y-89711215D01*
X49380813Y-87972869D01*
X49382064Y-87971070D01*
X50599514Y-86255234D01*
X50600798Y-86253460D01*
X51850141Y-84560662D01*
X51851425Y-84558956D01*
X53132197Y-82889820D01*
X53133530Y-82888116D01*
X54445289Y-81243223D01*
X54446730Y-81241452D01*
X54450931Y-81236382D01*
X55788932Y-79621477D01*
X55790367Y-79619779D01*
X57162663Y-78025142D01*
X57164158Y-78023435D01*
X58566091Y-76454672D01*
X58567539Y-76453083D01*
X59998548Y-74910821D01*
X60000000Y-74909286D01*
X60454721Y-74437232D01*
X69089500Y-74437232D01*
X69089500Y-74662768D01*
X69118938Y-74886373D01*
X69125281Y-74910047D01*
X69177313Y-75104230D01*
X69263614Y-75312582D01*
X69263622Y-75312598D01*
X69376382Y-75507902D01*
X69376393Y-75507918D01*
X69513682Y-75686837D01*
X69513688Y-75686844D01*
X69673155Y-75846311D01*
X69673161Y-75846316D01*
X69852090Y-75983613D01*
X69852097Y-75983617D01*
X70047401Y-76096377D01*
X70047417Y-76096385D01*
X70255769Y-76182686D01*
X70255771Y-76182686D01*
X70255777Y-76182689D01*
X70473627Y-76241062D01*
X70697232Y-76270500D01*
X70697239Y-76270500D01*
X70922761Y-76270500D01*
X70922768Y-76270500D01*
X71146373Y-76241062D01*
X71364223Y-76182689D01*
X71420439Y-76159403D01*
X71572582Y-76096385D01*
X71572585Y-76096383D01*
X71572591Y-76096381D01*
X71767910Y-75983613D01*
X71946839Y-75846316D01*
X72106316Y-75686839D01*
X72243613Y-75507910D01*
X72356381Y-75312591D01*
X72442689Y-75104223D01*
X72501062Y-74886373D01*
X72530500Y-74662768D01*
X72530500Y-74437232D01*
X72501062Y-74213627D01*
X72442689Y-73995777D01*
X72442686Y-73995769D01*
X72356385Y-73787417D01*
X72356377Y-73787401D01*
X72243617Y-73592097D01*
X72243613Y-73592090D01*
X72106316Y-73413161D01*
X72106311Y-73413155D01*
X71946844Y-73253688D01*
X71946837Y-73253682D01*
X71767918Y-73116393D01*
X71767916Y-73116391D01*
X71767910Y-73116387D01*
X71767905Y-73116384D01*
X71767902Y-73116382D01*
X71572598Y-73003622D01*
X71572582Y-73003614D01*
X71364230Y-72917313D01*
X71146369Y-72858937D01*
X70922778Y-72829501D01*
X70922773Y-72829500D01*
X70922768Y-72829500D01*
X70697232Y-72829500D01*
X70697226Y-72829500D01*
X70697221Y-72829501D01*
X70473630Y-72858937D01*
X70255769Y-72917313D01*
X70047417Y-73003614D01*
X70047401Y-73003622D01*
X69852097Y-73116382D01*
X69852081Y-73116393D01*
X69673162Y-73253682D01*
X69673155Y-73253688D01*
X69513688Y-73413155D01*
X69513682Y-73413162D01*
X69376393Y-73592081D01*
X69376382Y-73592097D01*
X69263622Y-73787401D01*
X69263614Y-73787417D01*
X69177313Y-73995769D01*
X69118937Y-74213630D01*
X69089501Y-74437221D01*
X69089500Y-74437232D01*
X60454721Y-74437232D01*
X61459615Y-73394034D01*
X61461133Y-73392488D01*
X62948832Y-71904789D01*
X62950378Y-71903271D01*
X64465630Y-70443656D01*
X64467165Y-70442204D01*
X66009427Y-69011195D01*
X66011016Y-69009747D01*
X67579779Y-67607814D01*
X67581486Y-67606319D01*
X68808148Y-66550691D01*
X69176132Y-66234014D01*
X69177821Y-66232588D01*
X70797825Y-64890362D01*
X70799567Y-64888945D01*
X72444460Y-63577186D01*
X72446164Y-63575853D01*
X74115300Y-62295081D01*
X74117006Y-62293797D01*
X75809804Y-61044454D01*
X75811578Y-61043170D01*
X77527414Y-59825720D01*
X77529213Y-59824469D01*
X79267559Y-58639285D01*
X79269336Y-58638097D01*
X81029572Y-57485605D01*
X81031302Y-57484495D01*
X82812812Y-56365098D01*
X82814597Y-56364000D01*
X84616618Y-55278176D01*
X84618561Y-55277030D01*
X86440501Y-54225133D01*
X86442468Y-54224021D01*
X88283905Y-53206295D01*
X88285699Y-53205326D01*
X90145736Y-52222267D01*
X90147782Y-52221210D01*
X92025918Y-51273083D01*
X92027836Y-51272138D01*
X93923355Y-50359303D01*
X93925360Y-50358360D01*
X95837624Y-49481127D01*
X95839613Y-49480237D01*
X97768000Y-48638890D01*
X97769966Y-48638055D01*
X99713712Y-47832929D01*
X99715771Y-47832099D01*
X101674147Y-47063493D01*
X101676240Y-47062694D01*
X103648651Y-46330839D01*
X103650730Y-46330089D01*
X105636610Y-45635200D01*
X105638652Y-45634507D01*
X107637081Y-44976905D01*
X107639231Y-44976220D01*
X109649567Y-44356113D01*
X109651712Y-44355473D01*
X111673331Y-43773055D01*
X111675493Y-43772454D01*
X113707663Y-43227936D01*
X113709801Y-43227384D01*
X115751749Y-42720973D01*
X115753957Y-42720447D01*
X117805048Y-42252299D01*
X117807191Y-42251831D01*
X119866717Y-41822109D01*
X119868894Y-41821676D01*
X121936021Y-41430555D01*
X121938231Y-41430158D01*
X124012365Y-41077748D01*
X124014547Y-41077398D01*
X126094941Y-40763829D01*
X126097065Y-40763530D01*
X128182990Y-40488912D01*
X128185108Y-40488654D01*
X130275747Y-40253095D01*
X130278006Y-40252862D01*
X132372652Y-40056440D01*
X132374820Y-40056257D01*
X134472762Y-39899039D01*
X134475031Y-39898890D01*
X136575624Y-39780922D01*
X136577759Y-39780823D01*
X138680144Y-39702158D01*
X138682391Y-39702094D01*
X140785790Y-39662757D01*
X140788109Y-39662735D01*
X142891891Y-39662735D01*
X142894210Y-39662757D01*
G37*
%TD.AperFunction*%
%TA.AperFunction,Conductor*%
G36*
X92664363Y-62440185D02*
G01*
X92710118Y-62492989D01*
X92720062Y-62562147D01*
X92691037Y-62625703D01*
X92685005Y-62632181D01*
X92624502Y-62692683D01*
X92624500Y-62692686D01*
X92558608Y-62806812D01*
X92524500Y-62934108D01*
X92524500Y-63065891D01*
X92558608Y-63193187D01*
X92591554Y-63250250D01*
X92624500Y-63307314D01*
X92717686Y-63400500D01*
X92831814Y-63466392D01*
X92959108Y-63500500D01*
X92959110Y-63500500D01*
X93090890Y-63500500D01*
X93090892Y-63500500D01*
X93218186Y-63466392D01*
X93332314Y-63400500D01*
X93370995Y-63361819D01*
X93432318Y-63328334D01*
X93458676Y-63325500D01*
X177189139Y-63325500D01*
X177256178Y-63345185D01*
X177276820Y-63361819D01*
X197724169Y-83809169D01*
X197757654Y-83870492D01*
X197752670Y-83940184D01*
X197710798Y-83996117D01*
X197645334Y-84020534D01*
X197577061Y-84005682D01*
X197558589Y-83993326D01*
X196480894Y-83123149D01*
X196480890Y-83123146D01*
X196480879Y-83123137D01*
X195000611Y-81978944D01*
X194903889Y-81907409D01*
X193727439Y-81037311D01*
X193496390Y-80866428D01*
X191968895Y-79786090D01*
X191725451Y-79621551D01*
X191385905Y-79392057D01*
X190418813Y-78738418D01*
X188846843Y-77723882D01*
X187253693Y-76742941D01*
X187127693Y-76669001D01*
X185640085Y-75796037D01*
X184006734Y-74883593D01*
X182354386Y-74006024D01*
X180683804Y-73163734D01*
X180683801Y-73163732D01*
X180683790Y-73163727D01*
X178995688Y-72357078D01*
X178995671Y-72357070D01*
X178995662Y-72357066D01*
X177290855Y-71586444D01*
X175570013Y-70852155D01*
X173834048Y-70154586D01*
X173562567Y-70052133D01*
X172083587Y-69493991D01*
X170319531Y-68870711D01*
X168542643Y-68285014D01*
X167331366Y-67914064D01*
X166753722Y-67737162D01*
X164953570Y-67227404D01*
X163143015Y-66755971D01*
X161322873Y-66323078D01*
X159493927Y-65928911D01*
X157657017Y-65573649D01*
X155813055Y-65257470D01*
X153962711Y-64980489D01*
X152106909Y-64742844D01*
X150246534Y-64544649D01*
X148382377Y-64385986D01*
X148382355Y-64385984D01*
X148382348Y-64385984D01*
X147507541Y-64330200D01*
X146515185Y-64266920D01*
X144645979Y-64187517D01*
X142775467Y-64147806D01*
X142775464Y-64147806D01*
X140904536Y-64147806D01*
X140904533Y-64147806D01*
X139034020Y-64187517D01*
X137164814Y-64266920D01*
X135742267Y-64357632D01*
X135297652Y-64385984D01*
X135297647Y-64385984D01*
X135297622Y-64385986D01*
X133433465Y-64544649D01*
X131573090Y-64742844D01*
X129717288Y-64980489D01*
X127866944Y-65257470D01*
X126022982Y-65573649D01*
X124186072Y-65928911D01*
X122357126Y-66323078D01*
X120536984Y-66755971D01*
X118726429Y-67227404D01*
X116926277Y-67737162D01*
X115892119Y-68053870D01*
X115137357Y-68285014D01*
X115137335Y-68285021D01*
X115137326Y-68285024D01*
X113360489Y-68870704D01*
X113360471Y-68870710D01*
X113360469Y-68870711D01*
X113222937Y-68919304D01*
X111596429Y-69493985D01*
X111596414Y-69493990D01*
X111596413Y-69493991D01*
X111526169Y-69520500D01*
X109845951Y-70154586D01*
X108109986Y-70852155D01*
X106389144Y-71586444D01*
X104684337Y-72357066D01*
X102996195Y-73163734D01*
X101325613Y-74006024D01*
X99673265Y-74883593D01*
X98039914Y-75796037D01*
X96426316Y-76742935D01*
X94833158Y-77723881D01*
X94005773Y-78257868D01*
X93514637Y-78574844D01*
X93261172Y-78738428D01*
X91711105Y-79786089D01*
X90183612Y-80866426D01*
X88679385Y-81978946D01*
X87199105Y-83123149D01*
X85743472Y-84298490D01*
X84313114Y-85504462D01*
X82908660Y-86740538D01*
X81530732Y-88006169D01*
X80180002Y-89300738D01*
X78857082Y-90623658D01*
X77562513Y-91974388D01*
X76296882Y-93352316D01*
X75060806Y-94756770D01*
X73854834Y-96187128D01*
X72679493Y-97642761D01*
X71535290Y-99123041D01*
X70422770Y-100627268D01*
X69342433Y-102154761D01*
X68294772Y-103704828D01*
X67280225Y-105276814D01*
X66299279Y-106869972D01*
X65352381Y-108483570D01*
X64439937Y-110116921D01*
X63562368Y-111769269D01*
X62720078Y-113439851D01*
X61913410Y-115127993D01*
X61142788Y-116832800D01*
X60408499Y-118553642D01*
X59710930Y-120289607D01*
X59050329Y-122040085D01*
X58427048Y-123804145D01*
X58312267Y-124152369D01*
X57841358Y-125581013D01*
X57748026Y-125885774D01*
X57293506Y-127369933D01*
X56783748Y-129170085D01*
X56312315Y-130980640D01*
X55879422Y-132800782D01*
X55485255Y-134629728D01*
X55129993Y-136466638D01*
X54813814Y-138310600D01*
X54536833Y-140160944D01*
X54299188Y-142016746D01*
X54100993Y-143877121D01*
X53942330Y-145741278D01*
X53823264Y-147608470D01*
X53743861Y-149477676D01*
X53704150Y-151348189D01*
X53704150Y-153219122D01*
X53743861Y-155089635D01*
X53823264Y-156958841D01*
X53942330Y-158826033D01*
X54100993Y-160690190D01*
X54299188Y-162550565D01*
X54536833Y-164406367D01*
X54813814Y-166256711D01*
X55129993Y-168100673D01*
X55485255Y-169937583D01*
X55879422Y-171766529D01*
X56312315Y-173586671D01*
X56783748Y-175397226D01*
X57268904Y-177110500D01*
X57293507Y-177197380D01*
X57841358Y-178986299D01*
X58427055Y-180763187D01*
X59050335Y-182527243D01*
X59524413Y-183783466D01*
X59710930Y-184277704D01*
X60408499Y-186013669D01*
X61142788Y-187734511D01*
X61886468Y-189379716D01*
X61913422Y-189439344D01*
X62720071Y-191127446D01*
X63562370Y-192798046D01*
X63627291Y-192920284D01*
X64439937Y-194450390D01*
X65352381Y-196083741D01*
X66299279Y-197697339D01*
X66299285Y-197697349D01*
X67280226Y-199290499D01*
X68294762Y-200862469D01*
X68644577Y-201380037D01*
X69342433Y-202412550D01*
X69932177Y-203246391D01*
X70422772Y-203940046D01*
X70450793Y-203977933D01*
X71535290Y-205444270D01*
X71931468Y-205956814D01*
X72390363Y-206550497D01*
X72679493Y-206924550D01*
X73549674Y-208002250D01*
X73576475Y-208066775D01*
X73564135Y-208135547D01*
X73516574Y-208186730D01*
X73448892Y-208204074D01*
X73382576Y-208182073D01*
X73365517Y-208167830D01*
X43836819Y-178639132D01*
X43803334Y-178577809D01*
X43800500Y-178551451D01*
X43800500Y-154903936D01*
X43814618Y-154851246D01*
X43813282Y-154850693D01*
X43816388Y-154843192D01*
X43816392Y-154843186D01*
X43850500Y-154715892D01*
X43850500Y-154584108D01*
X43816392Y-154456814D01*
X43816388Y-154456807D01*
X43813281Y-154449304D01*
X43814616Y-154448751D01*
X43800500Y-154396062D01*
X43800500Y-136484108D01*
X48569500Y-136484108D01*
X48569500Y-136615891D01*
X48603608Y-136743187D01*
X48636554Y-136800250D01*
X48669500Y-136857314D01*
X48762686Y-136950500D01*
X48876814Y-137016392D01*
X49004108Y-137050500D01*
X49004110Y-137050500D01*
X49135890Y-137050500D01*
X49135892Y-137050500D01*
X49263186Y-137016392D01*
X49377314Y-136950500D01*
X49470500Y-136857314D01*
X49536392Y-136743186D01*
X49570500Y-136615892D01*
X49570500Y-136484108D01*
X49536392Y-136356814D01*
X49470500Y-136242686D01*
X49377314Y-136149500D01*
X49320250Y-136116554D01*
X49263187Y-136083608D01*
X49199539Y-136066554D01*
X49135892Y-136049500D01*
X49004108Y-136049500D01*
X48876812Y-136083608D01*
X48762686Y-136149500D01*
X48762683Y-136149502D01*
X48669502Y-136242683D01*
X48669500Y-136242686D01*
X48603608Y-136356812D01*
X48569500Y-136484108D01*
X43800500Y-136484108D01*
X43800500Y-109957965D01*
X43820185Y-109890926D01*
X43836819Y-109870284D01*
X66309556Y-87397547D01*
X89764711Y-63942391D01*
X89826032Y-63908908D01*
X89895724Y-63913892D01*
X89951657Y-63955764D01*
X89969855Y-64000418D01*
X89972397Y-63999737D01*
X89993956Y-64080200D01*
X90001957Y-64094057D01*
X90031543Y-64145301D01*
X90084699Y-64198457D01*
X90149801Y-64236044D01*
X90222413Y-64255500D01*
X90222415Y-64255500D01*
X90297585Y-64255500D01*
X90297587Y-64255500D01*
X90370199Y-64236044D01*
X90435301Y-64198457D01*
X90488457Y-64145301D01*
X90526044Y-64080199D01*
X90545500Y-64007587D01*
X90545500Y-63932413D01*
X90526044Y-63859801D01*
X90488457Y-63794699D01*
X90435301Y-63741543D01*
X90402750Y-63722749D01*
X90370200Y-63703956D01*
X90336182Y-63694841D01*
X90297587Y-63684500D01*
X90297586Y-63684500D01*
X90289737Y-63682397D01*
X90290531Y-63679430D01*
X90239949Y-63657026D01*
X90201504Y-63598684D01*
X90200705Y-63528819D01*
X90232391Y-63474711D01*
X90548779Y-63158323D01*
X90610100Y-63124840D01*
X90679792Y-63129824D01*
X90734829Y-63170514D01*
X90739507Y-63176610D01*
X91941887Y-64378990D01*
X91969163Y-64426233D01*
X91970499Y-64425680D01*
X91973607Y-64433185D01*
X92001456Y-64481421D01*
X92039500Y-64547314D01*
X92132686Y-64640500D01*
X92246814Y-64706392D01*
X92374108Y-64740500D01*
X92374110Y-64740500D01*
X92505890Y-64740500D01*
X92505892Y-64740500D01*
X92633186Y-64706392D01*
X92747314Y-64640500D01*
X92840500Y-64547314D01*
X92906392Y-64433186D01*
X92940500Y-64305892D01*
X92940500Y-64174108D01*
X92906392Y-64046814D01*
X92840500Y-63932686D01*
X92747314Y-63839500D01*
X92669717Y-63794699D01*
X92633185Y-63773607D01*
X92625680Y-63770499D01*
X92626233Y-63769163D01*
X92578990Y-63741887D01*
X91586819Y-62749716D01*
X91572115Y-62722788D01*
X91555523Y-62696970D01*
X91554631Y-62690769D01*
X91553334Y-62688393D01*
X91550500Y-62662035D01*
X91550500Y-62544500D01*
X91570185Y-62477461D01*
X91622989Y-62431706D01*
X91674500Y-62420500D01*
X92597324Y-62420500D01*
X92664363Y-62440185D01*
G37*
%TD.AperFunction*%
%TA.AperFunction,Conductor*%
G36*
X190029074Y-62440185D02*
G01*
X190049716Y-62456819D01*
X191349477Y-63756580D01*
X191382962Y-63817903D01*
X191377978Y-63887595D01*
X191336106Y-63943528D01*
X191323798Y-63951647D01*
X191254702Y-63991541D01*
X191254696Y-63991545D01*
X191201545Y-64044696D01*
X191201543Y-64044699D01*
X191163956Y-64109799D01*
X191154444Y-64145300D01*
X191144500Y-64182413D01*
X191144500Y-64257587D01*
X191147001Y-64266920D01*
X191163956Y-64330200D01*
X191182749Y-64362750D01*
X191201543Y-64395301D01*
X191254699Y-64448457D01*
X191319801Y-64486044D01*
X191392413Y-64505500D01*
X191392415Y-64505500D01*
X191467585Y-64505500D01*
X191467587Y-64505500D01*
X191540199Y-64486044D01*
X191605301Y-64448457D01*
X191658457Y-64395301D01*
X191696044Y-64330199D01*
X191696044Y-64330198D01*
X191698351Y-64326203D01*
X191748918Y-64277987D01*
X191817525Y-64264765D01*
X191882390Y-64290733D01*
X191893419Y-64300522D01*
X193555214Y-65962317D01*
X193588699Y-66023640D01*
X193583715Y-66093332D01*
X193555215Y-66137678D01*
X193359514Y-66333382D01*
X193359509Y-66333389D01*
X193300201Y-66436112D01*
X193300200Y-66436117D01*
X193269500Y-66550691D01*
X193269500Y-68866062D01*
X193255383Y-68918751D01*
X193256719Y-68919304D01*
X193253608Y-68926814D01*
X193219500Y-69054108D01*
X193219500Y-69185891D01*
X193253608Y-69313187D01*
X193286554Y-69370250D01*
X193319500Y-69427314D01*
X193412686Y-69520500D01*
X193526814Y-69586392D01*
X193654108Y-69620500D01*
X193654110Y-69620500D01*
X193785890Y-69620500D01*
X193785892Y-69620500D01*
X193913186Y-69586392D01*
X194027314Y-69520500D01*
X194120500Y-69427314D01*
X194186392Y-69313186D01*
X194220500Y-69185892D01*
X194220500Y-69054108D01*
X194186392Y-68926814D01*
X194186388Y-68926807D01*
X194183281Y-68919304D01*
X194184616Y-68918751D01*
X194170500Y-68866062D01*
X194170500Y-66876965D01*
X194190185Y-66809926D01*
X194242989Y-66764171D01*
X194312147Y-66754227D01*
X194375703Y-66783252D01*
X194382181Y-66789284D01*
X248993181Y-121400284D01*
X249026666Y-121461607D01*
X249029500Y-121487965D01*
X249029500Y-150232035D01*
X249009815Y-150299074D01*
X248993181Y-150319716D01*
X245763523Y-153549373D01*
X245702200Y-153582858D01*
X245632508Y-153577874D01*
X245576575Y-153536002D01*
X245556069Y-153493790D01*
X245529799Y-153395748D01*
X245495702Y-153336690D01*
X245470489Y-153293020D01*
X245024973Y-152847504D01*
X245020340Y-152840570D01*
X245016102Y-152837628D01*
X245008896Y-152823444D01*
X244998092Y-152807274D01*
X244994982Y-152799767D01*
X244993252Y-152793308D01*
X244989908Y-152787517D01*
X244986798Y-152780007D01*
X244984603Y-152759592D01*
X244977360Y-152732556D01*
X244977360Y-152527553D01*
X244977360Y-152527551D01*
X244946659Y-152412974D01*
X244890696Y-152316044D01*
X244887349Y-152310246D01*
X244887345Y-152310241D01*
X244229071Y-151651967D01*
X244149517Y-151572413D01*
X244994500Y-151572413D01*
X244994500Y-151647586D01*
X245013956Y-151720200D01*
X245032749Y-151752750D01*
X245051543Y-151785301D01*
X245104699Y-151838457D01*
X245169801Y-151876044D01*
X245242413Y-151895500D01*
X245242415Y-151895500D01*
X245317585Y-151895500D01*
X245317587Y-151895500D01*
X245390199Y-151876044D01*
X245455301Y-151838457D01*
X245508457Y-151785301D01*
X245546044Y-151720199D01*
X245565500Y-151647587D01*
X245565500Y-151572413D01*
X245546044Y-151499801D01*
X245508457Y-151434699D01*
X245455301Y-151381543D01*
X245416029Y-151358869D01*
X245390200Y-151343956D01*
X245353893Y-151334228D01*
X245317587Y-151324500D01*
X245242413Y-151324500D01*
X245169799Y-151343956D01*
X245104699Y-151381543D01*
X245104696Y-151381545D01*
X245051545Y-151434696D01*
X245051543Y-151434699D01*
X245013956Y-151499799D01*
X244994500Y-151572413D01*
X244149517Y-151572413D01*
X243118113Y-150541010D01*
X243090841Y-150493771D01*
X243089504Y-150494326D01*
X243086392Y-150486815D01*
X243086392Y-150486814D01*
X243020500Y-150372686D01*
X242927314Y-150279500D01*
X242870250Y-150246554D01*
X242813187Y-150213608D01*
X242749539Y-150196554D01*
X242685892Y-150179500D01*
X242554108Y-150179500D01*
X242426812Y-150213608D01*
X242312686Y-150279500D01*
X242312683Y-150279502D01*
X242219502Y-150372683D01*
X242219500Y-150372686D01*
X242153608Y-150486812D01*
X242139086Y-150541010D01*
X242119500Y-150614108D01*
X242119500Y-150745892D01*
X242136554Y-150809539D01*
X242153608Y-150873187D01*
X242186554Y-150930250D01*
X242219500Y-150987314D01*
X242312686Y-151080500D01*
X242426814Y-151146392D01*
X242426816Y-151146392D01*
X242434326Y-151149504D01*
X242433771Y-151150841D01*
X242481010Y-151178113D01*
X244017397Y-152714500D01*
X244050882Y-152775823D01*
X244049491Y-152834273D01*
X244026360Y-152920600D01*
X244026360Y-153052385D01*
X244060468Y-153179681D01*
X244077074Y-153208443D01*
X244126360Y-153293808D01*
X244219546Y-153386994D01*
X244333674Y-153452886D01*
X244333676Y-153452886D01*
X244341186Y-153455998D01*
X244340631Y-153457335D01*
X244387870Y-153484607D01*
X244623181Y-153719918D01*
X244656666Y-153781241D01*
X244659500Y-153807599D01*
X244659500Y-154386062D01*
X244645383Y-154438751D01*
X244646719Y-154439304D01*
X244643608Y-154446814D01*
X244609500Y-154574108D01*
X244609500Y-154705892D01*
X244643608Y-154833186D01*
X244646718Y-154840693D01*
X244645381Y-154841246D01*
X244659500Y-154893936D01*
X244659500Y-155242034D01*
X244639815Y-155309073D01*
X244623181Y-155329715D01*
X242961009Y-156991886D01*
X242913775Y-157019161D01*
X242914328Y-157020495D01*
X242906816Y-157023606D01*
X242792689Y-157089498D01*
X242792683Y-157089502D01*
X242699502Y-157182683D01*
X242699500Y-157182686D01*
X242633608Y-157296812D01*
X242599500Y-157424108D01*
X242599500Y-157555891D01*
X242633608Y-157683187D01*
X242666554Y-157740250D01*
X242699500Y-157797314D01*
X242792686Y-157890500D01*
X242906814Y-157956392D01*
X242906816Y-157956392D01*
X242914326Y-157959504D01*
X242913771Y-157960841D01*
X242961010Y-157988113D01*
X248173181Y-163200284D01*
X248206666Y-163261607D01*
X248209500Y-163287965D01*
X248209500Y-165999811D01*
X248189815Y-166066850D01*
X248137011Y-166112605D01*
X248067853Y-166122549D01*
X248004297Y-166093524D01*
X247997819Y-166087492D01*
X230462169Y-148551842D01*
X230428684Y-148490519D01*
X230425850Y-148464161D01*
X230425850Y-115682171D01*
X230425850Y-115682169D01*
X230403668Y-115599384D01*
X230403668Y-115599383D01*
X230360815Y-115525160D01*
X177575190Y-62739535D01*
X177529918Y-62713397D01*
X177500968Y-62696682D01*
X177459574Y-62685591D01*
X177418181Y-62674500D01*
X177418180Y-62674500D01*
X93458676Y-62674500D01*
X93429235Y-62665855D01*
X93399249Y-62659332D01*
X93394233Y-62655577D01*
X93391637Y-62654815D01*
X93370995Y-62638181D01*
X93364995Y-62632181D01*
X93331510Y-62570858D01*
X93336494Y-62501166D01*
X93378366Y-62445233D01*
X93443830Y-62420816D01*
X93452676Y-62420500D01*
X189962035Y-62420500D01*
X190029074Y-62440185D01*
G37*
%TD.AperFunction*%
%TD*%
M02*
