%TF.GenerationSoftware,KiCad,Pcbnew,10.0.2*%
%TF.CreationDate,2026-10-02T16:18:39+00:00*%
%TF.ProjectId,microphone-rinG-KIcad,6d696372-6f70-4686-9f6e-652d72696e47,rev?*%
%TF.SameCoordinates,Original*%
%TF.FileFunction,Copper,L1,Top*%
%TF.FilePolarity,Positive*%
%FSLAX46Y46*%
G04 Gerber Fmt 4.6, Leading zero omitted, Abs format (unit mm)*
G04 Created by KiCad (PCBNEW 10.0.2) date 2026-10-02 16:18:39*
%MOMM*%
%LPD*%
G01*
G04 APERTURE LIST*
G04 Aperture macros list*
%AMRoundRect*
0 Rectangle with rounded corners*
0 $1 Rounding radius*
0 $2 $3 $4 $5 $6 $7 $8 $9 X,Y pos of 4 corners*
0 Add a 4 corners polygon primitive as box body*
4,1,4,$2,$3,$4,$5,$6,$7,$8,$9,$2,$3,0*
0 Add four circle primitives for the rounded corners*
1,1,$1+$1,$2,$3*
1,1,$1+$1,$4,$5*
1,1,$1+$1,$6,$7*
1,1,$1+$1,$8,$9*
0 Add four rect primitives between the rounded corners*
20,1,$1+$1,$2,$3,$4,$5,0*
20,1,$1+$1,$4,$5,$6,$7,0*
20,1,$1+$1,$6,$7,$8,$9,0*
20,1,$1+$1,$8,$9,$2,$3,0*%
%AMFreePoly0*
4,1,85,0.387729,0.396873,0.402374,0.361518,0.402222,0.045874,0.387560,0.010526,0.364366,-0.002605,0.333197,-0.010409,0.304157,-0.019744,0.275848,-0.030945,0.248326,-0.044007,0.221699,-0.058868,0.196117,-0.075419,0.171696,-0.093631,0.148489,-0.113422,0.126677,-0.134684,0.106296,-0.157334,0.087454,-0.181287,0.070222,-0.206425,0.054708,-0.232641,0.040929,-0.259832,0.028989,-0.287861,
0.018899,-0.316639,0.010303,-0.347575,-0.013273,-0.377719,-0.030419,-0.380074,-0.030250,-0.380661,-0.036473,-0.382465,-0.050394,-0.384442,-0.352196,-0.384442,-0.387551,-0.369797,-0.402196,-0.334442,-0.401546,-0.326409,-0.394968,-0.285997,-0.394500,-0.283515,-0.385889,-0.243485,-0.385299,-0.241044,-0.374682,-0.201471,-0.373965,-0.199045,-0.361367,-0.160081,-0.360538,-0.157720,-0.346009,-0.119442,
-0.345045,-0.117086,-0.328586,-0.079596,-0.327525,-0.077334,-0.309211,-0.040707,-0.308026,-0.038478,-0.287884,-0.002817,-0.286597,-0.000668,-0.264702,0.033927,-0.263282,0.036050,-0.239635,0.069502,-0.238141,0.071507,-0.212868,0.103714,-0.211254,0.105666,-0.184381,0.136553,-0.182690,0.138402,-0.154292,0.167916,-0.152500,0.169687,-0.122655,0.197729,-0.120770,0.199412,-0.089554,0.225904,
-0.087597,0.227482,-0.055085,0.252374,-0.053037,0.253861,-0.019306,0.277077,-0.017186,0.278458,0.017689,0.299946,0.019848,0.301203,0.055738,0.320914,0.057970,0.322068,0.094800,0.339949,0.097098,0.340994,0.134791,0.356996,0.137148,0.357927,0.175604,0.371999,0.177992,0.372805,0.217108,0.384921,0.219528,0.385605,0.259203,0.395739,0.261652,0.396299,0.301784,0.404427,
0.304269,0.404865,0.344782,0.410961,0.352222,0.411518,0.352374,0.411518,0.387729,0.396873,0.387729,0.396873,$1*%
%AMFreePoly1*
4,1,85,-0.032267,0.384772,0.003084,0.370116,0.016220,0.346916,0.024024,0.315747,0.033359,0.286710,0.044561,0.258394,0.057629,0.230859,0.072458,0.204250,0.089017,0.178689,0.107257,0.154232,0.127029,0.131046,0.148298,0.109228,0.170947,0.088848,0.194893,0.070012,0.220044,0.052793,0.246264,0.037254,0.273441,0.023483,0.301483,0.011536,0.330250,0.001451,0.361190,-0.007147,
0.391333,-0.030723,0.393698,-0.047930,0.394293,-0.047759,0.396096,-0.054008,0.398056,-0.067869,0.398056,-0.369672,0.383411,-0.405027,0.348056,-0.419672,0.340022,-0.419022,0.299611,-0.412443,0.297136,-0.411976,0.257080,-0.403365,0.254625,-0.402772,0.215077,-0.392155,0.212658,-0.391440,0.173695,-0.378842,0.171335,-0.378013,0.133057,-0.363484,0.130701,-0.362520,0.093210,-0.346061,
0.090947,-0.345000,0.054321,-0.326686,0.052094,-0.325501,0.016432,-0.305359,0.014260,-0.304059,-0.020335,-0.282139,-0.022415,-0.280746,-0.055867,-0.257124,-0.057893,-0.255616,-0.090100,-0.230343,-0.092037,-0.228743,-0.122949,-0.201870,-0.124827,-0.200151,-0.154316,-0.171754,-0.156088,-0.169960,-0.184130,-0.140089,-0.185798,-0.138220,-0.212290,-0.107004,-0.213868,-0.105047,-0.238760,-0.072535,
-0.240233,-0.070507,-0.263474,-0.036775,-0.264860,-0.034650,-0.286348,0.000198,-0.287622,0.002385,-0.307333,0.038301,-0.308491,0.040544,-0.326347,0.077374,-0.327380,0.079649,-0.343382,0.117343,-0.344313,0.119700,-0.358384,0.158155,-0.359181,0.160513,-0.371323,0.199629,-0.372023,0.202107,-0.382132,0.241782,-0.382686,0.244208,-0.390814,0.284365,-0.391251,0.286840,-0.397347,0.327328,
-0.397904,0.334772,-0.397904,0.334874,-0.383259,0.370229,-0.347904,0.384874,-0.032267,0.384772,-0.032267,0.384772,$1*%
%AMFreePoly2*
4,1,85,0.387678,0.369949,0.402323,0.334594,0.401673,0.326561,0.395095,0.286150,0.394627,0.283668,0.386016,0.243637,0.385426,0.241196,0.374809,0.201623,0.374092,0.199196,0.361494,0.160233,0.360665,0.157873,0.346136,0.119595,0.345172,0.117239,0.328713,0.079748,0.327652,0.077485,0.309338,0.040859,0.308153,0.038632,0.288011,0.002970,0.286711,0.000798,0.264791,-0.033797,
0.263398,-0.035877,0.239776,-0.069329,0.238268,-0.071355,0.212995,-0.103562,0.211381,-0.105515,0.184508,-0.136401,0.182818,-0.138248,0.154420,-0.167763,0.152627,-0.169535,0.122782,-0.197577,0.120897,-0.199260,0.089681,-0.225752,0.087724,-0.227330,0.055212,-0.252222,0.053163,-0.253710,0.019432,-0.276925,0.017314,-0.278305,-0.017561,-0.299794,-0.019722,-0.301052,-0.055612,-0.320762,
-0.057842,-0.321915,-0.094672,-0.339797,-0.096983,-0.340847,-0.134702,-0.356849,-0.137048,-0.357775,-0.175503,-0.371846,-0.177882,-0.372650,-0.216973,-0.384766,-0.219407,-0.385453,-0.259107,-0.395588,-0.261550,-0.396147,-0.301682,-0.404275,-0.304163,-0.404713,-0.344651,-0.410809,-0.352095,-0.411366,-0.352247,-0.411366,-0.387602,-0.396721,-0.402247,-0.361366,-0.402095,-0.045721,-0.387433,-0.010373,
-0.364239,0.002758,-0.333070,0.010562,-0.304037,0.019895,-0.275712,0.031101,-0.248182,0.044167,-0.221573,0.058996,-0.196004,0.075560,-0.171569,0.093783,-0.148362,0.113574,-0.126551,0.134836,-0.106169,0.157487,-0.087330,0.181436,-0.070121,0.206574,-0.054573,0.232809,-0.040805,0.259978,-0.028862,0.288014,-0.018774,0.316788,-0.010176,0.347728,0.013400,0.377871,0.030553,0.380229,
0.030384,0.380816,0.036607,0.382619,0.050521,0.384594,0.352323,0.384594,0.387678,0.369949,0.387678,0.369949,$1*%
%AMFreePoly3*
4,1,85,-0.339870,0.419225,-0.299458,0.412646,-0.296978,0.412178,-0.256948,0.403568,-0.254505,0.402978,-0.214932,0.392360,-0.212507,0.391643,-0.173543,0.379045,-0.171182,0.378216,-0.132904,0.363687,-0.130548,0.362723,-0.093058,0.346264,-0.090797,0.345204,-0.054170,0.326891,-0.051939,0.325704,-0.016278,0.305561,-0.014108,0.304262,0.020487,0.282342,0.022567,0.280949,0.056019,0.257327,
0.058045,0.255819,0.090252,0.230546,0.092204,0.228932,0.123091,0.202059,0.124939,0.200369,0.154453,0.171972,0.156225,0.170179,0.184267,0.140334,0.185951,0.138448,0.212443,0.107231,0.214020,0.105275,0.238912,0.072763,0.240399,0.070715,0.263615,0.036984,0.264996,0.034865,0.286484,-0.000009,0.287741,-0.002169,0.307452,-0.038059,0.308606,-0.040291,0.326487,-0.077121,
0.327537,-0.079431,0.343539,-0.117150,0.344465,-0.119495,0.358537,-0.157951,0.359341,-0.160331,0.371457,-0.199422,0.372145,-0.201857,0.382279,-0.241557,0.382837,-0.243999,0.390965,-0.284131,0.391403,-0.286612,0.397499,-0.327099,0.398056,-0.334543,0.398056,-0.334696,0.383411,-0.370051,0.348056,-0.384696,0.032412,-0.384543,-0.002936,-0.369881,-0.016067,-0.346687,-0.023871,-0.315518,
-0.033206,-0.286479,-0.044407,-0.258169,-0.057474,-0.230637,-0.072308,-0.204019,-0.088868,-0.178456,-0.107105,-0.154003,-0.126877,-0.130817,-0.148144,-0.108999,-0.170796,-0.088617,-0.194745,-0.069779,-0.219877,-0.052574,-0.246126,-0.037018,-0.273287,-0.023254,-0.301323,-0.011311,-0.330094,-0.001224,-0.361039,0.007376,-0.391181,0.030953,-0.393536,0.048097,-0.394123,0.047928,-0.395927,0.054151,
-0.397904,0.068072,-0.397904,0.369875,-0.383259,0.405230,-0.347904,0.419875,-0.339870,0.419225,-0.339870,0.419225,$1*%
G04 Aperture macros list end*
%TA.AperFunction,SMDPad,CuDef*%
%ADD10RoundRect,0.027500X-0.342500X0.082500X-0.342500X-0.082500X0.342500X-0.082500X0.342500X0.082500X0*%
%TD*%
%TA.AperFunction,SMDPad,CuDef*%
%ADD11RoundRect,0.027500X-0.082500X0.342500X-0.082500X-0.342500X0.082500X-0.342500X0.082500X0.342500X0*%
%TD*%
%TA.AperFunction,SMDPad,CuDef*%
%ADD12R,2.800000X2.800000*%
%TD*%
%TA.AperFunction,ComponentPad*%
%ADD13C,0.600000*%
%TD*%
%TA.AperFunction,SMDPad,CuDef*%
%ADD14FreePoly0,270.000000*%
%TD*%
%TA.AperFunction,SMDPad,CuDef*%
%ADD15FreePoly1,270.000000*%
%TD*%
%TA.AperFunction,SMDPad,CuDef*%
%ADD16FreePoly2,270.000000*%
%TD*%
%TA.AperFunction,SMDPad,CuDef*%
%ADD17FreePoly3,270.000000*%
%TD*%
%TA.AperFunction,SMDPad,CuDef*%
%ADD18R,0.530000X0.730000*%
%TD*%
%TA.AperFunction,SMDPad,CuDef*%
%ADD19FreePoly0,90.000000*%
%TD*%
%TA.AperFunction,SMDPad,CuDef*%
%ADD20FreePoly1,90.000000*%
%TD*%
%TA.AperFunction,SMDPad,CuDef*%
%ADD21FreePoly2,90.000000*%
%TD*%
%TA.AperFunction,SMDPad,CuDef*%
%ADD22FreePoly3,90.000000*%
%TD*%
%TA.AperFunction,SMDPad,CuDef*%
%ADD23RoundRect,0.140000X0.140000X0.170000X-0.140000X0.170000X-0.140000X-0.170000X0.140000X-0.170000X0*%
%TD*%
%TA.AperFunction,SMDPad,CuDef*%
%ADD24R,0.500000X0.400000*%
%TD*%
%TA.AperFunction,SMDPad,CuDef*%
%ADD25R,0.400000X0.500000*%
%TD*%
%TA.AperFunction,SMDPad,CuDef*%
%ADD26RoundRect,0.140000X-0.170000X0.140000X-0.170000X-0.140000X0.170000X-0.140000X0.170000X0.140000X0*%
%TD*%
%TA.AperFunction,ComponentPad*%
%ADD27R,1.700000X1.700000*%
%TD*%
%TA.AperFunction,ComponentPad*%
%ADD28C,1.700000*%
%TD*%
%TA.AperFunction,SMDPad,CuDef*%
%ADD29C,1.500000*%
%TD*%
%TA.AperFunction,SMDPad,CuDef*%
%ADD30RoundRect,0.135000X-0.135000X-0.185000X0.135000X-0.185000X0.135000X0.185000X-0.135000X0.185000X0*%
%TD*%
%TA.AperFunction,SMDPad,CuDef*%
%ADD31RoundRect,0.135000X0.135000X0.185000X-0.135000X0.185000X-0.135000X-0.185000X0.135000X-0.185000X0*%
%TD*%
%TA.AperFunction,ViaPad*%
%ADD32C,0.600000*%
%TD*%
%TA.AperFunction,Conductor*%
%ADD33C,0.150000*%
%TD*%
%TA.AperFunction,Conductor*%
%ADD34C,0.180000*%
%TD*%
%TA.AperFunction,Conductor*%
%ADD35C,0.250000*%
%TD*%
%TA.AperFunction,Conductor*%
%ADD36C,0.240000*%
%TD*%
%TA.AperFunction,Conductor*%
%ADD37C,0.500000*%
%TD*%
%TA.AperFunction,Conductor*%
%ADD38C,0.200000*%
%TD*%
G04 APERTURE END LIST*
D10*
%TO.P,U7,9,OUT8_9*%
%TO.N,/OUT8_COLOR*%
X233700000Y-200990000D03*
%TO.P,U7,10,OUT9_10*%
%TO.N,/OUT9_COLOR*%
X233700000Y-201390000D03*
%TO.P,U7,11,OUT10_11*%
%TO.N,/OUT10_COLOR*%
X233700000Y-201790000D03*
%TO.P,U7,12,OUT11_12*%
%TO.N,/OUT11_COLOR*%
X233700000Y-202190000D03*
%TO.P,U7,13,OUT12_13*%
%TO.N,/OUT12_COLOR*%
X233700000Y-202590000D03*
%TO.P,U7,14,OUT13_14*%
%TO.N,/OUT13_COLOR*%
X233700000Y-202990000D03*
%TO.P,U7,15,OUT14_15*%
%TO.N,/OUT14_COLOR*%
X233700000Y-203390000D03*
%TO.P,U7,16,OUT15_16*%
%TO.N,/OUT15_COLOR*%
X233700000Y-203790000D03*
%TO.P,U7,25,ADDR0_25*%
%TO.N,GND*%
X237690000Y-203790000D03*
%TO.P,U7,26,ADDR1_26*%
X237690000Y-203390000D03*
%TO.P,U7,27,VCC_27*%
%TO.N,+3V3*%
X237690000Y-202990000D03*
%TO.P,U7,28,SDA_28*%
%TO.N,/I2C_SDA*%
X237690000Y-202590000D03*
%TO.P,U7,29,SCL_29*%
%TO.N,/I2C_SCL*%
X237690000Y-202190000D03*
%TO.P,U7,30,EN_30*%
%TO.N,/RING_GPIO_SPARE*%
X237690000Y-201790000D03*
%TO.P,U7,31,IRF_31*%
%TO.N,Net-(U7-IRF)*%
X237690000Y-201390000D03*
%TO.P,U7,32,VCAP_32*%
%TO.N,Net-(U7-VCAP)*%
X237690000Y-200990000D03*
D11*
%TO.P,U7,1,OUT0_1*%
%TO.N,/OUT0_COLOR*%
X237095000Y-200395000D03*
%TO.P,U7,2,OUT1_2*%
%TO.N,/OUT1_COLOR*%
X236695000Y-200395000D03*
%TO.P,U7,3,OUT2_3*%
%TO.N,/OUT2_COLOR*%
X236295000Y-200395000D03*
%TO.P,U7,4,OUT3_4*%
%TO.N,/OUT3_COLOR*%
X235895000Y-200395000D03*
%TO.P,U7,5,OUT4_5*%
%TO.N,/OUT4_COLOR*%
X235495000Y-200395000D03*
%TO.P,U7,6,OUT5_6*%
%TO.N,/OUT5_COLOR*%
X235095000Y-200395000D03*
%TO.P,U7,7,OUT6_7*%
%TO.N,/OUT6_COLOR*%
X234695000Y-200395000D03*
%TO.P,U7,8,OUT7_8*%
%TO.N,/OUT7_COLOR*%
X234295000Y-200395000D03*
%TO.P,U7,17,OUT16_17*%
%TO.N,/OUT16_COLOR*%
X234295000Y-204385000D03*
%TO.P,U7,18,OUT17_18*%
%TO.N,/OUT17_COLOR*%
X234695000Y-204385000D03*
%TO.P,U7,19,NC_19_19*%
%TO.N,unconnected-(U7-NC_19-Pad19)*%
X235095000Y-204385000D03*
%TO.P,U7,20,NC_20_20*%
%TO.N,unconnected-(U7-NC_20-Pad20)*%
X235495000Y-204385000D03*
%TO.P,U7,21,NC_21_21*%
%TO.N,unconnected-(U7-NC_21-Pad21)*%
X235895000Y-204385000D03*
%TO.P,U7,22,NC_22_22*%
%TO.N,unconnected-(U7-NC_22-Pad22)*%
X236295000Y-204385000D03*
%TO.P,U7,23,NC_23_23*%
%TO.N,unconnected-(U7-NC_23-Pad23)*%
X236695000Y-204385000D03*
%TO.P,U7,24,NC_24_24*%
%TO.N,unconnected-(U7-NC_24-Pad24)*%
X237095000Y-204385000D03*
D12*
%TO.P,U7,33,GND_33*%
%TO.N,GND*%
X235695000Y-202390000D03*
D13*
%TO.P,U7,34,GND_34*%
X235695000Y-202390000D03*
%TO.P,U7,35,GND_35*%
X236845000Y-202390000D03*
%TO.P,U7,36,GND_36*%
X235695000Y-203540000D03*
%TO.P,U7,37,GND_37*%
X234545000Y-202390000D03*
%TO.P,U7,38,GND_38*%
X235695000Y-201240000D03*
%TD*%
D14*
%TO.P,U6,5,GND_5*%
%TO.N,GND*%
X191350000Y-239090000D03*
D15*
X190470000Y-239080000D03*
D16*
X190460000Y-239990000D03*
D17*
X191340000Y-240000000D03*
D18*
%TO.P,U6,3,DATA_3*%
%TO.N,/PDM_DATA2*%
X192980000Y-238700000D03*
%TO.P,U6,4,LR_SELECT_4*%
%TO.N,GND*%
X192160000Y-238700000D03*
%TO.P,U6,2,CLOCK_2*%
%TO.N,/PDM_CLK*%
X192160000Y-240380000D03*
%TO.P,U6,1,VDD_1*%
%TO.N,+3V3*%
X192980000Y-240380000D03*
%TD*%
D14*
%TO.P,U5,5,GND_5*%
%TO.N,GND*%
X91150000Y-238590000D03*
D15*
X90270000Y-238580000D03*
D16*
X90260000Y-239490000D03*
D17*
X91140000Y-239500000D03*
D18*
%TO.P,U5,3,DATA_3*%
%TO.N,/PDM_DATA2*%
X92780000Y-238200000D03*
%TO.P,U5,4,LR_SELECT_4*%
%TO.N,+3V3*%
X91960000Y-238200000D03*
%TO.P,U5,2,CLOCK_2*%
%TO.N,/PDM_CLK*%
X91960000Y-239880000D03*
%TO.P,U5,1,VDD_1*%
%TO.N,+3V3*%
X92780000Y-239880000D03*
%TD*%
D14*
%TO.P,U4,5,GND_5*%
%TO.N,GND*%
X40760000Y-151600000D03*
D15*
X39880000Y-151590000D03*
D16*
X39870000Y-152500000D03*
D17*
X40750000Y-152510000D03*
D18*
%TO.P,U4,3,DATA_3*%
%TO.N,/PDM_DATA1*%
X42390000Y-151210000D03*
%TO.P,U4,4,LR_SELECT_4*%
%TO.N,GND*%
X41570000Y-151210000D03*
%TO.P,U4,2,CLOCK_2*%
%TO.N,/PDM_CLK*%
X41570000Y-152890000D03*
%TO.P,U4,1,VDD_1*%
%TO.N,+3V3*%
X42390000Y-152890000D03*
%TD*%
D14*
%TO.P,U3,5,GND_5*%
%TO.N,GND*%
X90700000Y-63520000D03*
D15*
X89820000Y-63510000D03*
D16*
X89810000Y-64420000D03*
D17*
X90690000Y-64430000D03*
D18*
%TO.P,U3,3,DATA_3*%
%TO.N,/PDM_DATA1*%
X92330000Y-63130000D03*
%TO.P,U3,4,LR_SELECT_4*%
%TO.N,+3V3*%
X91510000Y-63130000D03*
%TO.P,U3,2,CLOCK_2*%
%TO.N,/PDM_CLK*%
X91510000Y-64810000D03*
%TO.P,U3,1,VDD_1*%
%TO.N,+3V3*%
X92330000Y-64810000D03*
%TD*%
D14*
%TO.P,U2,5,GND_5*%
%TO.N,GND*%
X191870000Y-63770000D03*
D15*
X190990000Y-63760000D03*
D16*
X190980000Y-64670000D03*
D17*
X191860000Y-64680000D03*
D18*
%TO.P,U2,3,DATA_3*%
%TO.N,/PDM_DATA0*%
X193500000Y-63380000D03*
%TO.P,U2,4,LR_SELECT_4*%
%TO.N,GND*%
X192680000Y-63380000D03*
%TO.P,U2,2,CLOCK_2*%
%TO.N,/PDM_CLK*%
X192680000Y-65060000D03*
%TO.P,U2,1,VDD_1*%
%TO.N,+3V3*%
X193500000Y-65060000D03*
%TD*%
D19*
%TO.P,U1,5,GND_5*%
%TO.N,GND*%
X244840000Y-152060000D03*
D20*
X245720000Y-152070000D03*
D21*
X245730000Y-151160000D03*
D22*
X244850000Y-151150000D03*
D18*
%TO.P,U1,3,DATA_3*%
%TO.N,/PDM_DATA0*%
X243210000Y-152450000D03*
%TO.P,U1,4,LR_SELECT_4*%
%TO.N,+3V3*%
X244030000Y-152450000D03*
%TO.P,U1,2,CLOCK_2*%
%TO.N,/PDM_CLK*%
X244030000Y-150770000D03*
%TO.P,U1,1,VDD_1*%
%TO.N,+3V3*%
X243210000Y-150770000D03*
%TD*%
D23*
%TO.P,C8,1*%
%TO.N,GND*%
X240055000Y-199800000D03*
%TO.P,C8,2*%
%TO.N,Net-(U7-VCAP)*%
X239095000Y-199800000D03*
%TD*%
D24*
%TO.P,D2,1*%
%TO.N,+3V3*%
X193300000Y-68700000D03*
%TO.P,D2,2*%
%TO.N,/OUT3_COLOR*%
X193300000Y-68000000D03*
%TO.P,D2,3*%
%TO.N,/OUT4_COLOR*%
X192000000Y-68000000D03*
%TO.P,D2,4*%
%TO.N,/OUT5_COLOR*%
X192000000Y-68700000D03*
%TD*%
D23*
%TO.P,C4,1*%
%TO.N,+3V3*%
X42550000Y-154620000D03*
%TO.P,C4,2*%
%TO.N,GND*%
X41590000Y-154620000D03*
%TD*%
D25*
%TO.P,D3,1*%
%TO.N,+3V3*%
X90275000Y-59075000D03*
%TO.P,D3,2*%
%TO.N,/OUT6_COLOR*%
X89575000Y-59075000D03*
%TO.P,D3,3*%
%TO.N,/OUT7_COLOR*%
X89575000Y-60375000D03*
%TO.P,D3,4*%
%TO.N,/OUT8_COLOR*%
X90275000Y-60375000D03*
%TD*%
D23*
%TO.P,C3,1*%
%TO.N,+3V3*%
X90330000Y-61540000D03*
%TO.P,C3,2*%
%TO.N,GND*%
X89370000Y-61540000D03*
%TD*%
D26*
%TO.P,C7,1*%
%TO.N,+3V3*%
X239060000Y-203720000D03*
%TO.P,C7,2*%
%TO.N,GND*%
X239060000Y-204680000D03*
%TD*%
D27*
%TO.P,J1,1,Pin_1_1*%
%TO.N,+3V3*%
X243300000Y-188760000D03*
D28*
%TO.P,J1,2,Pin_2_2*%
%TO.N,GND*%
X245840000Y-188760000D03*
%TO.P,J1,3,Pin_3_3*%
%TO.N,/PDM_CLK*%
X243300000Y-186220000D03*
%TO.P,J1,4,Pin_4_4*%
%TO.N,GND*%
X245840000Y-186220000D03*
%TO.P,J1,5,Pin_5_5*%
%TO.N,/PDM_DATA0*%
X243300000Y-183680000D03*
%TO.P,J1,6,Pin_6_6*%
%TO.N,/PDM_DATA1*%
X245840000Y-183680000D03*
%TO.P,J1,7,Pin_7_7*%
%TO.N,GND*%
X243300000Y-181140000D03*
%TO.P,J1,8,Pin_8_8*%
%TO.N,/RING_GPIO_SPARE*%
X245840000Y-181140000D03*
%TO.P,J1,9,Pin_9_9*%
%TO.N,/I2C_SCL*%
X243300000Y-178600000D03*
%TO.P,J1,10,Pin_10_10*%
%TO.N,/I2C_SDA*%
X245840000Y-178600000D03*
%TO.P,J1,11,Pin_11_11*%
%TO.N,unconnected-(J1-Pin_11-Pad11)*%
X243300000Y-176060000D03*
%TO.P,J1,12,Pin_12_12*%
%TO.N,GND*%
X245840000Y-176060000D03*
%TO.P,J1,13,Pin_13_13*%
%TO.N,/PDM_DATA2*%
X243300000Y-173520000D03*
%TO.P,J1,14,Pin_14_14*%
%TO.N,GND*%
X245840000Y-173520000D03*
%TD*%
D23*
%TO.P,C1,1*%
%TO.N,+3V3*%
X244500000Y-154630000D03*
%TO.P,C1,2*%
%TO.N,GND*%
X243540000Y-154630000D03*
%TD*%
D29*
%TO.P,TP2,1,1_1*%
%TO.N,GND*%
X234650000Y-212070000D03*
%TD*%
D25*
%TO.P,D5,1*%
%TO.N,+3V3*%
X93225000Y-243450000D03*
%TO.P,D5,2*%
%TO.N,/OUT12_COLOR*%
X92525000Y-243450000D03*
%TO.P,D5,3*%
%TO.N,/OUT13_COLOR*%
X92525000Y-244750000D03*
%TO.P,D5,4*%
%TO.N,/OUT14_COLOR*%
X93225000Y-244750000D03*
%TD*%
D23*
%TO.P,C6,1*%
%TO.N,+3V3*%
X192975000Y-241975000D03*
%TO.P,C6,2*%
%TO.N,GND*%
X192015000Y-241975000D03*
%TD*%
%TO.P,C5,1*%
%TO.N,+3V3*%
X92960000Y-241520000D03*
%TO.P,C5,2*%
%TO.N,GND*%
X92000000Y-241520000D03*
%TD*%
D24*
%TO.P,D4,1*%
%TO.N,+3V3*%
X42450000Y-156075000D03*
%TO.P,D4,2*%
%TO.N,/OUT9_COLOR*%
X42450000Y-156775000D03*
%TO.P,D4,3*%
%TO.N,/OUT10_COLOR*%
X43750000Y-156775000D03*
%TO.P,D4,4*%
%TO.N,/OUT11_COLOR*%
X43750000Y-156075000D03*
%TD*%
D30*
%TO.P,R1,1*%
%TO.N,Net-(U7-IRF)*%
X239115000Y-200875000D03*
%TO.P,R1,2*%
%TO.N,GND*%
X240135000Y-200875000D03*
%TD*%
D25*
%TO.P,D6,1*%
%TO.N,+3V3*%
X192900000Y-243425000D03*
%TO.P,D6,2*%
%TO.N,/OUT15_COLOR*%
X192200000Y-243425000D03*
%TO.P,D6,3*%
%TO.N,/OUT16_COLOR*%
X192200000Y-244725000D03*
%TO.P,D6,4*%
%TO.N,/OUT17_COLOR*%
X192900000Y-244725000D03*
%TD*%
D23*
%TO.P,C2,1*%
%TO.N,+3V3*%
X192870000Y-66770000D03*
%TO.P,C2,2*%
%TO.N,GND*%
X191910000Y-66770000D03*
%TD*%
D25*
%TO.P,D1,1*%
%TO.N,+3V3*%
X243600000Y-157150000D03*
%TO.P,D1,2*%
%TO.N,/OUT0_COLOR*%
X244300000Y-157150000D03*
%TO.P,D1,3*%
%TO.N,/OUT1_COLOR*%
X244300000Y-155850000D03*
%TO.P,D1,4*%
%TO.N,/OUT2_COLOR*%
X243600000Y-155850000D03*
%TD*%
D29*
%TO.P,TP1,1,1_1*%
%TO.N,+3V3*%
X236840000Y-208320000D03*
%TD*%
D31*
%TO.P,R4,1*%
%TO.N,GND*%
X242110000Y-202075000D03*
%TO.P,R4,2*%
%TO.N,/RING_GPIO_SPARE*%
X241090000Y-202075000D03*
%TD*%
D32*
%TO.N,GND*%
X191400000Y-66830000D03*
X242980000Y-154640000D03*
X191620000Y-238530000D03*
X190900000Y-240510000D03*
X91880000Y-242030000D03*
X90550000Y-237940000D03*
X90610000Y-240050000D03*
X40970000Y-154960000D03*
X41080000Y-150960000D03*
X39200000Y-152420000D03*
%TO.N,+3V3*%
X92440000Y-64240000D03*
%TO.N,GND*%
X89750000Y-64920000D03*
X186840000Y-64890000D03*
X189920000Y-66930000D03*
X190510000Y-64770000D03*
X190240000Y-64020000D03*
X240960000Y-153060000D03*
X246340000Y-152040000D03*
X246350000Y-151040000D03*
%TO.N,*%
X49070000Y-136550000D03*
%TO.N,GND*%
X225000000Y-190370000D03*
X219350000Y-79790000D03*
X190775000Y-243700000D03*
X123320000Y-254510000D03*
X231710000Y-207930000D03*
X56250000Y-84770000D03*
X243160000Y-141000000D03*
X223380000Y-211460000D03*
X33460000Y-143830000D03*
X212920000Y-205550000D03*
X207690000Y-64120000D03*
X122790000Y-257600000D03*
X214040000Y-204400000D03*
X154570000Y-258230000D03*
%TO.N,+3V3*%
X244526860Y-152986494D03*
X93750000Y-241400000D03*
X193525000Y-243375000D03*
X194280000Y-66050000D03*
X93800000Y-243175000D03*
X239010000Y-206150000D03*
X239690000Y-205470000D03*
X243100000Y-157490000D03*
X42000000Y-156025000D03*
X90720000Y-58670000D03*
X43350000Y-154650000D03*
X242620000Y-150680000D03*
X193720000Y-69120000D03*
X193475000Y-242050000D03*
X245110000Y-154640000D03*
X91100000Y-61970000D03*
%TO.N,/PDM_DATA1*%
X93025000Y-63000000D03*
%TO.N,/PDM_DATA2*%
X93800000Y-238575000D03*
X193050000Y-237850000D03*
%TO.N,/I2C_SDA*%
X238954385Y-202780000D03*
%TO.N,/I2C_SCL*%
X240000000Y-202475000D03*
%TD*%
%TO.N,+3V3*%
D33*
X238315000Y-202975000D02*
X237705000Y-202975000D01*
X237705000Y-202975000D02*
X237690000Y-202990000D01*
X239060000Y-203720000D02*
X238315000Y-202975000D01*
%TO.N,/RING_GPIO_SPARE*%
D34*
X240805000Y-201790000D02*
X241090000Y-202075000D01*
X240504622Y-201790000D02*
X240805000Y-201790000D01*
D33*
X240504622Y-201790000D02*
X237690000Y-201790000D01*
%TO.N,/I2C_SCL*%
D34*
X239715000Y-202190000D02*
X240000000Y-202475000D01*
X239595000Y-202190000D02*
X239715000Y-202190000D01*
%TO.N,/I2C_SDA*%
D33*
X238764385Y-202590000D02*
X238954385Y-202780000D01*
X237690000Y-202590000D02*
X238764385Y-202590000D01*
%TO.N,/I2C_SCL*%
X237690000Y-202190000D02*
X239595000Y-202190000D01*
%TO.N,Net-(U7-VCAP)*%
X238880000Y-199800000D02*
X239095000Y-199800000D01*
X237690000Y-200990000D02*
X238880000Y-199800000D01*
%TO.N,Net-(U7-IRF)*%
X237690000Y-201390000D02*
X238600000Y-201390000D01*
X238600000Y-201390000D02*
X239115000Y-200875000D01*
%TO.N,/OUT1_COLOR*%
X237385000Y-199135000D02*
X237515000Y-199135000D01*
X236695000Y-199825000D02*
X237385000Y-199135000D01*
X236695000Y-200395000D02*
X236695000Y-199825000D01*
%TO.N,/OUT0_COLOR*%
X237089306Y-199970694D02*
X237089306Y-200330002D01*
X237430000Y-199630000D02*
X237089306Y-199970694D01*
X237780000Y-199630000D02*
X237430000Y-199630000D01*
X237960000Y-199450000D02*
X237780000Y-199630000D01*
%TO.N,/OUT6_COLOR*%
X234695000Y-200395000D02*
X234695000Y-199365000D01*
X234695000Y-199365000D02*
X234540000Y-199210000D01*
%TO.N,/OUT5_COLOR*%
X235095000Y-199230000D02*
X235095000Y-200395000D01*
D35*
X192000000Y-70675000D02*
X192000000Y-68700000D01*
X235095000Y-113770000D02*
X192000000Y-70675000D01*
X235095000Y-199230000D02*
X235095000Y-113770000D01*
%TO.N,/OUT7_COLOR*%
X89575000Y-59975000D02*
X89575000Y-60375000D01*
X89900000Y-59650000D02*
X89575000Y-59975000D01*
X177100000Y-59650000D02*
X89900000Y-59650000D01*
X232525000Y-115075000D02*
X177100000Y-59650000D01*
X234060000Y-199570000D02*
X232525000Y-198035000D01*
X234060000Y-199880000D02*
X234060000Y-199570000D01*
X232525000Y-198035000D02*
X232525000Y-115075000D01*
D33*
X234295000Y-200115000D02*
X234295000Y-200300003D01*
X234060000Y-199880000D02*
X234295000Y-200115000D01*
%TO.N,/OUT8_COLOR*%
X233700000Y-200990000D02*
X233030000Y-200320000D01*
%TO.N,/OUT9_COLOR*%
X233246436Y-201390000D02*
X232406436Y-200550000D01*
X232406436Y-200550000D02*
X232175000Y-200550000D01*
X233700000Y-201390000D02*
X233246436Y-201390000D01*
%TO.N,/OUT10_COLOR*%
X232558614Y-201225000D02*
X232150000Y-201225000D01*
X233123614Y-201790000D02*
X232558614Y-201225000D01*
X233700000Y-201790000D02*
X233123614Y-201790000D01*
%TO.N,/OUT11_COLOR*%
X232965000Y-202190000D02*
X232625000Y-201850000D01*
X233700000Y-202190000D02*
X232965000Y-202190000D01*
%TO.N,/OUT12_COLOR*%
X232590000Y-202590000D02*
X232475000Y-202475000D01*
X233700000Y-202590000D02*
X232590000Y-202590000D01*
%TO.N,/OUT13_COLOR*%
X232735000Y-202990000D02*
X232650000Y-203075000D01*
X233700000Y-202990000D02*
X232735000Y-202990000D01*
%TO.N,/OUT14_COLOR*%
X233700000Y-203390000D02*
X232960000Y-203390000D01*
X232960000Y-203390000D02*
X232750000Y-203600000D01*
%TO.N,/OUT15_COLOR*%
X233700000Y-203790000D02*
X233115000Y-204375000D01*
%TO.N,/OUT17_COLOR*%
X234695000Y-205195000D02*
X234600000Y-205290000D01*
X234695000Y-204385000D02*
X234695000Y-205195000D01*
%TO.N,/OUT16_COLOR*%
X233920000Y-204760000D02*
X233920000Y-204910000D01*
X234295000Y-204385000D02*
X233920000Y-204760000D01*
D35*
X192175000Y-244700000D02*
X192200000Y-244725000D01*
X192175000Y-244300000D02*
X192175000Y-244700000D01*
X197350000Y-241044974D02*
X194369974Y-244025000D01*
X194369974Y-244025000D02*
X192450000Y-244025000D01*
X225275000Y-205025000D02*
X197350000Y-232950000D01*
X233805000Y-205025000D02*
X225275000Y-205025000D01*
X197350000Y-232950000D02*
X197350000Y-241044974D01*
X233920000Y-204910000D02*
X233805000Y-205025000D01*
X192450000Y-244025000D02*
X192175000Y-244300000D01*
%TO.N,/OUT17_COLOR*%
X192925000Y-244700000D02*
X192900000Y-244725000D01*
X234240000Y-205650000D02*
X225775000Y-205650000D01*
X234600000Y-205290000D02*
X234240000Y-205650000D01*
X225775000Y-205650000D02*
X198050000Y-233375000D01*
X198050000Y-233375000D02*
X198050000Y-241294998D01*
X198050000Y-241294998D02*
X194644998Y-244700000D01*
X194644998Y-244700000D02*
X192925000Y-244700000D01*
%TO.N,/PDM_CLK*%
X247450000Y-184950000D02*
X244570000Y-184950000D01*
X249400000Y-183000000D02*
X247450000Y-184950000D01*
X249400000Y-155600000D02*
X249400000Y-183000000D01*
X248370000Y-154570000D02*
X249400000Y-155600000D01*
X248370000Y-148530000D02*
X248370000Y-154570000D01*
X244570000Y-184950000D02*
X243300000Y-186220000D01*
X246262500Y-146422500D02*
X248370000Y-148530000D01*
X89505000Y-242335000D02*
X91960000Y-239880000D01*
X85475000Y-242335000D02*
X89505000Y-242335000D01*
X85410000Y-242270000D02*
X82040000Y-238900000D01*
X85410000Y-242270000D02*
X85475000Y-242335000D01*
X82040000Y-231390000D02*
X36850000Y-186200000D01*
X87585000Y-244445000D02*
X85410000Y-242270000D01*
X82040000Y-238900000D02*
X82040000Y-231390000D01*
X92710000Y-249550000D02*
X87605000Y-244445000D01*
X87605000Y-244445000D02*
X87585000Y-244445000D01*
X36850000Y-186200000D02*
X36850000Y-157480000D01*
X183253000Y-249550000D02*
X92710000Y-249550000D01*
X192203000Y-240600000D02*
X183253000Y-249550000D01*
X36850000Y-157610000D02*
X41570000Y-152890000D01*
X36850000Y-157480000D02*
X36850000Y-158030000D01*
X36850000Y-158030000D02*
X36850000Y-157610000D01*
X36850000Y-157480000D02*
X36850000Y-155275000D01*
X36850000Y-119460000D02*
X78480000Y-77830000D01*
X36850000Y-155275000D02*
X36850000Y-119460000D01*
X187150000Y-53220000D02*
X177190000Y-53220000D01*
X244000000Y-148750000D02*
X246262500Y-146487500D01*
X246262500Y-112332500D02*
X187150000Y-53220000D01*
X244000000Y-151000000D02*
X244000000Y-148750000D01*
X246262500Y-146487500D02*
X246262500Y-112332500D01*
X78480000Y-66695000D02*
X78480000Y-77830000D01*
X176860000Y-53220000D02*
X91955000Y-53220000D01*
X91955000Y-53220000D02*
X78480000Y-66695000D01*
X191915000Y-65860000D02*
X189500000Y-65860000D01*
X189500000Y-65860000D02*
X176860000Y-53220000D01*
X192596900Y-65178100D02*
X191915000Y-65860000D01*
X78480000Y-77830000D02*
X89530000Y-66780000D01*
%TO.N,/OUT0_COLOR*%
X243485000Y-158375000D02*
X244300000Y-157560000D01*
X242375000Y-158375000D02*
X243485000Y-158375000D01*
X239800000Y-160950000D02*
X242375000Y-158375000D01*
X244300000Y-157560000D02*
X244300000Y-157150000D01*
X239800000Y-197610000D02*
X239800000Y-160950000D01*
X237960000Y-199450000D02*
X239800000Y-197610000D01*
%TO.N,/OUT1_COLOR*%
X237515000Y-199135000D02*
X238925000Y-197725000D01*
%TO.N,/OUT2_COLOR*%
D33*
X236295000Y-199565000D02*
X236295000Y-200395000D01*
X236800000Y-199047792D02*
X236800000Y-199060000D01*
X236800000Y-199060000D02*
X236295000Y-199565000D01*
%TO.N,/OUT3_COLOR*%
X235895000Y-199305000D02*
X235895000Y-200395000D01*
X236384302Y-198815698D02*
X235895000Y-199305000D01*
X236395698Y-198815698D02*
X236384302Y-198815698D01*
D35*
X194000000Y-68000000D02*
X193300000Y-68000000D01*
X236875000Y-110875000D02*
X194000000Y-68000000D01*
X236875000Y-198336396D02*
X236875000Y-110875000D01*
X236395698Y-198815698D02*
X236875000Y-198336396D01*
%TO.N,/OUT1_COLOR*%
X244300000Y-156250000D02*
X244300000Y-155850000D01*
X238925000Y-197725000D02*
X238925000Y-160650000D01*
X243075000Y-156500000D02*
X244050000Y-156500000D01*
X238925000Y-160650000D02*
X243075000Y-156500000D01*
X244050000Y-156500000D02*
X244300000Y-156250000D01*
%TO.N,/OUT6_COLOR*%
X89575000Y-58465000D02*
X89575000Y-59075000D01*
X178150000Y-58550000D02*
X92980000Y-58550000D01*
X233475000Y-113875000D02*
X178150000Y-58550000D01*
X90530000Y-57510000D02*
X89575000Y-58465000D01*
X234540000Y-199210000D02*
X233475000Y-198145000D01*
X92980000Y-58550000D02*
X91940000Y-57510000D01*
X233475000Y-198145000D02*
X233475000Y-113875000D01*
X91940000Y-57510000D02*
X90530000Y-57510000D01*
%TO.N,/OUT12_COLOR*%
D36*
X92525000Y-243125000D02*
X92525000Y-243450000D01*
X93175000Y-242475000D02*
X92525000Y-243125000D01*
X94500000Y-242475000D02*
X93175000Y-242475000D01*
X96000000Y-243975000D02*
X94500000Y-242475000D01*
X222025000Y-202475000D02*
X180525000Y-243975000D01*
X180525000Y-243975000D02*
X96000000Y-243975000D01*
X232475000Y-202475000D02*
X222025000Y-202475000D01*
%TO.N,/I2C_SDA*%
D34*
X238814448Y-202640063D02*
X238954385Y-202780000D01*
%TO.N,GND*%
D35*
X191150000Y-238890000D02*
X191350000Y-239090000D01*
X190660000Y-238890000D02*
X191150000Y-238890000D01*
X190470000Y-239080000D02*
X190660000Y-238890000D01*
X190290000Y-239820000D02*
X190460000Y-239990000D01*
X190290000Y-239260000D02*
X190290000Y-239820000D01*
X190470000Y-239080000D02*
X190290000Y-239260000D01*
X190470000Y-240000000D02*
X190460000Y-239990000D01*
X190640000Y-240180000D02*
X190520000Y-240060000D01*
X191072463Y-240120000D02*
X190747537Y-240120000D01*
X191192463Y-240000000D02*
X191072463Y-240120000D01*
X190627537Y-240000000D02*
X190470000Y-240000000D01*
X191390000Y-239130000D02*
X191350000Y-239090000D01*
X191435000Y-239757463D02*
X191435000Y-239322537D01*
X191435000Y-239322537D02*
X191390000Y-239277537D01*
X191390000Y-239802463D02*
X191435000Y-239757463D01*
X191390000Y-239277537D02*
X191390000Y-239130000D01*
D37*
X191460000Y-66770000D02*
X191400000Y-66830000D01*
X191910000Y-66770000D02*
X191460000Y-66770000D01*
X242990000Y-154630000D02*
X242980000Y-154640000D01*
X243540000Y-154630000D02*
X242990000Y-154630000D01*
%TO.N,/PDM_DATA0*%
D35*
X242520000Y-152450000D02*
X243210000Y-152450000D01*
X241025000Y-150955000D02*
X242520000Y-152450000D01*
X241025000Y-112482000D02*
X241025000Y-150955000D01*
X241007000Y-112482000D02*
X241025000Y-112482000D01*
X193925000Y-63550000D02*
X195650000Y-65275000D01*
X195650000Y-65275000D02*
X195650000Y-67125000D01*
X195650000Y-67125000D02*
X241007000Y-112482000D01*
X193418900Y-63550000D02*
X193925000Y-63550000D01*
X193418900Y-63503100D02*
X193418900Y-63550000D01*
X243300000Y-182990000D02*
X243300000Y-183680000D01*
X244475000Y-181815000D02*
X243300000Y-182990000D01*
X244475000Y-173223299D02*
X244475000Y-181815000D01*
X246270000Y-171428299D02*
X244475000Y-173223299D01*
X246270000Y-154610000D02*
X246270000Y-171428299D01*
X243532000Y-153660000D02*
X245320000Y-153660000D01*
X243210000Y-153338000D02*
X243532000Y-153660000D01*
X243210000Y-152450000D02*
X243210000Y-153338000D01*
X245320000Y-153660000D02*
X246270000Y-154610000D01*
%TO.N,GND*%
D37*
X245895000Y-151895000D02*
X245720000Y-152070000D01*
X245895000Y-151325000D02*
X245895000Y-151895000D01*
X245730000Y-151160000D02*
X245895000Y-151325000D01*
X245565000Y-150995000D02*
X245730000Y-151160000D01*
X245005000Y-150995000D02*
X245565000Y-150995000D01*
X244850000Y-151150000D02*
X245005000Y-150995000D01*
X245005000Y-152225000D02*
X245565000Y-152225000D01*
X244840000Y-152060000D02*
X245005000Y-152225000D01*
X245565000Y-152225000D02*
X245720000Y-152070000D01*
X191790000Y-238700000D02*
X191620000Y-238530000D01*
X192160000Y-238700000D02*
X191790000Y-238700000D01*
X191340000Y-240070000D02*
X190900000Y-240510000D01*
%TO.N,+3V3*%
D35*
X92780000Y-239480000D02*
X92780000Y-239880000D01*
X91960000Y-238660000D02*
X92780000Y-239480000D01*
X91960000Y-238200000D02*
X91960000Y-238660000D01*
D37*
X92960000Y-240060000D02*
X92780000Y-239880000D01*
X92960000Y-241520000D02*
X92960000Y-240060000D01*
%TO.N,GND*%
X92000000Y-241910000D02*
X91880000Y-242030000D01*
X92000000Y-241520000D02*
X92000000Y-241910000D01*
X90270000Y-238220000D02*
X90550000Y-237940000D01*
X90270000Y-238580000D02*
X90270000Y-238220000D01*
X90260000Y-239700000D02*
X90610000Y-240050000D01*
X90260000Y-239490000D02*
X90260000Y-239700000D01*
X90980000Y-239660000D02*
X91140000Y-239500000D01*
X90430000Y-239660000D02*
X90980000Y-239660000D01*
X90260000Y-239490000D02*
X90430000Y-239660000D01*
X90095000Y-238785259D02*
X90095000Y-239325000D01*
X90455259Y-238425000D02*
X90095000Y-238785259D01*
X90095000Y-239325000D02*
X90260000Y-239490000D01*
X90985000Y-238425000D02*
X90455259Y-238425000D01*
X91150000Y-238590000D02*
X90985000Y-238425000D01*
X90425000Y-238425000D02*
X90985000Y-238425000D01*
X90270000Y-238580000D02*
X90425000Y-238425000D01*
X191145000Y-64835000D02*
X190980000Y-64670000D01*
X191860000Y-64680000D02*
X191705000Y-64835000D01*
X191705000Y-64835000D02*
X191145000Y-64835000D01*
X191870000Y-63770000D02*
X192045000Y-63945000D01*
X192045000Y-63945000D02*
X192045000Y-64245000D01*
X191705000Y-63605000D02*
X191145000Y-63605000D01*
X191145000Y-63605000D02*
X190990000Y-63760000D01*
X191870000Y-63770000D02*
X191705000Y-63605000D01*
X90535000Y-64585000D02*
X90690000Y-64430000D01*
X90005258Y-64585000D02*
X90535000Y-64585000D01*
X89645000Y-64224742D02*
X90005258Y-64585000D01*
X89645000Y-63715258D02*
X89645000Y-64224742D01*
X90005258Y-63355000D02*
X89645000Y-63715258D01*
X90535000Y-63355000D02*
X90005258Y-63355000D01*
X90700000Y-63520000D02*
X90535000Y-63355000D01*
X89975000Y-63355000D02*
X90535000Y-63355000D01*
X89820000Y-63510000D02*
X89975000Y-63355000D01*
%TO.N,+3V3*%
X91510000Y-62380000D02*
X91100000Y-61970000D01*
X91510000Y-63130000D02*
X91510000Y-62380000D01*
%TO.N,GND*%
X41310000Y-154620000D02*
X40970000Y-154960000D01*
X41590000Y-154620000D02*
X41310000Y-154620000D01*
X40760000Y-151600000D02*
X40760000Y-151280000D01*
X40760000Y-151280000D02*
X41080000Y-150960000D01*
X41330000Y-151210000D02*
X41080000Y-150960000D01*
X41570000Y-151210000D02*
X41330000Y-151210000D01*
X39280000Y-152500000D02*
X39200000Y-152420000D01*
X39870000Y-152500000D02*
X39280000Y-152500000D01*
D38*
X89810000Y-64860000D02*
X89750000Y-64920000D01*
X89810000Y-64420000D02*
X89810000Y-64860000D01*
%TO.N,+3V3*%
D37*
X92330000Y-64350000D02*
X92440000Y-64240000D01*
X92330000Y-64810000D02*
X92330000Y-64350000D01*
%TO.N,GND*%
D38*
X190610000Y-64670000D02*
X190510000Y-64770000D01*
X190980000Y-64670000D02*
X190610000Y-64670000D01*
X190500000Y-63760000D02*
X190240000Y-64020000D01*
X190990000Y-63760000D02*
X190500000Y-63760000D01*
X246310000Y-152070000D02*
X246340000Y-152040000D01*
X245720000Y-152070000D02*
X246310000Y-152070000D01*
X246230000Y-151160000D02*
X246350000Y-151040000D01*
X245730000Y-151160000D02*
X246230000Y-151160000D01*
D37*
X192015000Y-241975000D02*
X190775000Y-243215000D01*
X190775000Y-243215000D02*
X190775000Y-243700000D01*
%TO.N,+3V3*%
X90740000Y-61970000D02*
X90390000Y-61620000D01*
X42000000Y-156025000D02*
X42400000Y-156025000D01*
X239825000Y-205335000D02*
X239690000Y-205470000D01*
X244500000Y-154630000D02*
X245100000Y-154630000D01*
X239248266Y-203720000D02*
X239825000Y-204296734D01*
X245100000Y-154630000D02*
X245110000Y-154640000D01*
X192900000Y-243425000D02*
X193475000Y-243425000D01*
X239010000Y-206150000D02*
X236840000Y-208320000D01*
X90275000Y-59075000D02*
X90315000Y-59075000D01*
X42580000Y-154650000D02*
X42550000Y-154620000D01*
X193050000Y-242050000D02*
X192975000Y-241975000D01*
X193025000Y-241925000D02*
X192975000Y-241975000D01*
X242620000Y-150680000D02*
X242858000Y-150680000D01*
X242858000Y-150680000D02*
X243178000Y-151000000D01*
X243260000Y-157490000D02*
X243600000Y-157150000D01*
X90315000Y-59075000D02*
X90720000Y-58670000D01*
X93500000Y-243175000D02*
X93225000Y-243450000D01*
X244311494Y-152986494D02*
X244000000Y-152675000D01*
X194280000Y-66039200D02*
X193418900Y-65178100D01*
X193418900Y-65178100D02*
X193418900Y-66221100D01*
X193418900Y-66221100D02*
X192870000Y-66770000D01*
X193475000Y-243425000D02*
X193525000Y-243375000D01*
X42403450Y-153077500D02*
X42403450Y-154473450D01*
X42400000Y-156025000D02*
X42450000Y-156075000D01*
X93800000Y-243175000D02*
X93500000Y-243175000D01*
X42403450Y-154473450D02*
X42550000Y-154620000D01*
X93080000Y-241400000D02*
X92960000Y-241520000D01*
X93750000Y-241400000D02*
X93080000Y-241400000D01*
X244526860Y-152986494D02*
X244311494Y-152986494D01*
X193475000Y-242050000D02*
X193050000Y-242050000D01*
X243100000Y-157490000D02*
X243260000Y-157490000D01*
X193025000Y-240600000D02*
X193025000Y-241925000D01*
X43350000Y-154650000D02*
X42580000Y-154650000D01*
X91100000Y-61970000D02*
X90740000Y-61970000D01*
X239825000Y-204296734D02*
X239825000Y-205335000D01*
X194280000Y-66050000D02*
X194280000Y-66039200D01*
X193300000Y-68700000D02*
X193720000Y-69120000D01*
%TO.N,/OUT2_COLOR*%
D35*
X242575000Y-155850000D02*
X243600000Y-155850000D01*
X237875000Y-160550000D02*
X242575000Y-155850000D01*
X236800000Y-199047792D02*
X237875000Y-197972792D01*
X237875000Y-197972792D02*
X237875000Y-160550000D01*
%TO.N,/OUT4_COLOR*%
X235775000Y-112600000D02*
X192725000Y-69550000D01*
X235775000Y-198800000D02*
X235775000Y-112600000D01*
X235550000Y-199025000D02*
X235775000Y-198800000D01*
X192725000Y-68500000D02*
X192225000Y-68000000D01*
D33*
X235775000Y-198800000D02*
X235495000Y-199080000D01*
X235495000Y-199080000D02*
X235495000Y-200395000D01*
D35*
X192225000Y-68000000D02*
X192000000Y-68000000D01*
X192725000Y-69550000D02*
X192725000Y-68500000D01*
%TO.N,/OUT8_COLOR*%
X176625000Y-60675000D02*
X90575000Y-60675000D01*
X90575000Y-60675000D02*
X90275000Y-60375000D01*
X233030000Y-200320000D02*
X231325000Y-198615000D01*
X231325000Y-198615000D02*
X231325000Y-115375000D01*
X231325000Y-115375000D02*
X176625000Y-60675000D01*
%TO.N,/OUT11_COLOR*%
X42600000Y-161825000D02*
X42600000Y-159725000D01*
D36*
X221375000Y-201850000D02*
X180375000Y-242850000D01*
D35*
X42600000Y-159725000D02*
X43025000Y-159300000D01*
D36*
X232625000Y-201850000D02*
X221375000Y-201850000D01*
X102250000Y-242850000D02*
X42600000Y-183200000D01*
D35*
X43025000Y-156300000D02*
X43250000Y-156075000D01*
X43250000Y-156075000D02*
X43750000Y-156075000D01*
D36*
X180375000Y-242850000D02*
X102250000Y-242850000D01*
X42600000Y-183200000D02*
X42600000Y-161825000D01*
D35*
X43025000Y-159300000D02*
X43025000Y-156300000D01*
%TO.N,/OUT10_COLOR*%
D36*
X179775000Y-241975000D02*
X103784318Y-241975000D01*
X43750000Y-181940682D02*
X43750000Y-161350000D01*
X220525000Y-201225000D02*
X179775000Y-241975000D01*
X103784318Y-241975000D02*
X43750000Y-181940682D01*
X232150000Y-201225000D02*
X220525000Y-201225000D01*
D35*
X43750000Y-156775000D02*
X43750000Y-161350000D01*
%TO.N,/OUT9_COLOR*%
D36*
X44975000Y-155725000D02*
X44650000Y-155400000D01*
D35*
X41600000Y-155400000D02*
X43325000Y-155400000D01*
X42450000Y-156775000D02*
X41525000Y-156775000D01*
D36*
X232175000Y-200550000D02*
X219475000Y-200550000D01*
X179225000Y-240800000D02*
X104725000Y-240800000D01*
X219475000Y-200550000D02*
X179225000Y-240800000D01*
X104725000Y-240800000D02*
X44975000Y-181050000D01*
X44975000Y-181050000D02*
X44975000Y-155725000D01*
D35*
X41175000Y-156425000D02*
X41175000Y-155825000D01*
X41525000Y-156775000D02*
X41175000Y-156425000D01*
D36*
X44650000Y-155400000D02*
X43325000Y-155400000D01*
D35*
X41175000Y-155825000D02*
X41600000Y-155400000D01*
%TO.N,/OUT14_COLOR*%
X94425000Y-245950000D02*
X96664948Y-245950000D01*
D36*
X232750000Y-203600000D02*
X223525000Y-203600000D01*
X223525000Y-203600000D02*
X181175000Y-245950000D01*
D35*
X93225000Y-244750000D02*
X94425000Y-245950000D01*
D36*
X181175000Y-245950000D02*
X96664948Y-245950000D01*
%TO.N,/OUT13_COLOR*%
X95325000Y-245025000D02*
X94325000Y-244025000D01*
X92860000Y-244025000D02*
X92525000Y-244360000D01*
X180575000Y-245025000D02*
X95325000Y-245025000D01*
X222525000Y-203075000D02*
X180575000Y-245025000D01*
X232650000Y-203075000D02*
X222525000Y-203075000D01*
X92525000Y-244360000D02*
X92525000Y-244750000D01*
X94325000Y-244025000D02*
X92860000Y-244025000D01*
%TO.N,/OUT15_COLOR*%
D35*
X192400000Y-242725000D02*
X192200000Y-242925000D01*
X224950000Y-204375000D02*
X196650000Y-232675000D01*
X196650000Y-232675000D02*
X196650000Y-240125000D01*
X192200000Y-242925000D02*
X192200000Y-243425000D01*
X194050000Y-242725000D02*
X192400000Y-242725000D01*
X196650000Y-240125000D02*
X194050000Y-242725000D01*
X233115000Y-204375000D02*
X224950000Y-204375000D01*
%TO.N,/RING_GPIO_SPARE*%
X244550000Y-182660000D02*
X244550000Y-184120000D01*
X244550000Y-184120000D02*
X243720000Y-184950000D01*
X245840000Y-181370000D02*
X244550000Y-182660000D01*
X241970000Y-184950000D02*
X241090000Y-185830000D01*
X245840000Y-181140000D02*
X245840000Y-181370000D01*
X243720000Y-184950000D02*
X241970000Y-184950000D01*
X241090000Y-185830000D02*
X241090000Y-202075000D01*
%TO.N,/PDM_CLK*%
X89530000Y-66770000D02*
X91440000Y-64860000D01*
X89530000Y-66780000D02*
X89530000Y-66770000D01*
X91440000Y-64860000D02*
X91450000Y-64860000D01*
%TO.N,/PDM_DATA1*%
X92272000Y-63185000D02*
X92840000Y-63185000D01*
X94060000Y-63185000D02*
X92272000Y-63185000D01*
X42403450Y-151402500D02*
X42403450Y-118621550D01*
X94425000Y-63550000D02*
X94100000Y-63225000D01*
X94100000Y-63225000D02*
X94060000Y-63185000D01*
X94425000Y-66600000D02*
X94425000Y-63550000D01*
X92840000Y-63185000D02*
X93025000Y-63000000D01*
X42403450Y-118621550D02*
X94425000Y-66600000D01*
%TO.N,/PDM_DATA2*%
X93022000Y-238575000D02*
X92812000Y-238365000D01*
X193025000Y-237875000D02*
X193050000Y-237850000D01*
X193025000Y-238925000D02*
X193025000Y-237875000D01*
X93800000Y-238575000D02*
X93022000Y-238575000D01*
%TD*%
%TA.AperFunction,Conductor*%
%TO.N,GND*%
G36*
X224711850Y-203940185D02*
G01*
X224757605Y-203992989D01*
X224767549Y-204062147D01*
X224738524Y-204125703D01*
X224732492Y-204132181D01*
X196389537Y-232475135D01*
X196389533Y-232475141D01*
X196346681Y-232549361D01*
X196346682Y-232549362D01*
X196324500Y-232632147D01*
X196324500Y-239938811D01*
X196304815Y-240005850D01*
X196288181Y-240026492D01*
X194187181Y-242127492D01*
X194125858Y-242160977D01*
X194056166Y-242155993D01*
X194000233Y-242114121D01*
X193975816Y-242048657D01*
X193975500Y-242039811D01*
X193975500Y-241984110D01*
X193975500Y-241984108D01*
X193941392Y-241856814D01*
X193875500Y-241742686D01*
X193782314Y-241649500D01*
X193668186Y-241583608D01*
X193599194Y-241565121D01*
X193567406Y-241556604D01*
X193507746Y-241520238D01*
X193477217Y-241457391D01*
X193475500Y-241436829D01*
X193475500Y-240540693D01*
X193475500Y-240540691D01*
X193453418Y-240458280D01*
X193449725Y-240444497D01*
X193445500Y-240412404D01*
X193445500Y-239995249D01*
X193445499Y-239995247D01*
X193433868Y-239936770D01*
X193433867Y-239936769D01*
X193389552Y-239870447D01*
X193323230Y-239826132D01*
X193323229Y-239826131D01*
X193264752Y-239814500D01*
X193264748Y-239814500D01*
X192695252Y-239814500D01*
X192695247Y-239814500D01*
X192636770Y-239826131D01*
X192625487Y-239830806D01*
X192624792Y-239829130D01*
X192572205Y-239845592D01*
X192514901Y-239829867D01*
X192514513Y-239830806D01*
X192507040Y-239827710D01*
X192504826Y-239827103D01*
X192503469Y-239826231D01*
X192503229Y-239826131D01*
X192444752Y-239814500D01*
X192444748Y-239814500D01*
X191875252Y-239814500D01*
X191875247Y-239814500D01*
X191816770Y-239826131D01*
X191816769Y-239826132D01*
X191750447Y-239870447D01*
X191706132Y-239936769D01*
X191706131Y-239936770D01*
X191694500Y-239995247D01*
X191694500Y-240596811D01*
X191674815Y-240663850D01*
X191658181Y-240684492D01*
X183154492Y-249188181D01*
X183093169Y-249221666D01*
X183066811Y-249224500D01*
X92896189Y-249224500D01*
X92829150Y-249204815D01*
X92808508Y-249188181D01*
X87804864Y-244184536D01*
X87771674Y-244165373D01*
X87745995Y-244145668D01*
X86472508Y-242872181D01*
X86439023Y-242810858D01*
X86444007Y-242741166D01*
X86485879Y-242685233D01*
X86551343Y-242660816D01*
X86560189Y-242660500D01*
X89547851Y-242660500D01*
X89547853Y-242660500D01*
X89630639Y-242638318D01*
X89704862Y-242595465D01*
X91818508Y-240481819D01*
X91879831Y-240448334D01*
X91906189Y-240445500D01*
X92244750Y-240445500D01*
X92244751Y-240445499D01*
X92259820Y-240442502D01*
X92303229Y-240433868D01*
X92314513Y-240429194D01*
X92315178Y-240430800D01*
X92326645Y-240422213D01*
X92347671Y-240420705D01*
X92367785Y-240414407D01*
X92383087Y-240418165D01*
X92396336Y-240417216D01*
X92419827Y-240427190D01*
X92429407Y-240429544D01*
X92434278Y-240432202D01*
X92436769Y-240433867D01*
X92437647Y-240434041D01*
X92444907Y-240438004D01*
X92465110Y-240458200D01*
X92487353Y-240476123D01*
X92489504Y-240482584D01*
X92494321Y-240487400D01*
X92500398Y-240515311D01*
X92509421Y-240542416D01*
X92509500Y-240546847D01*
X92509500Y-241182686D01*
X92497882Y-241235090D01*
X92486030Y-241260506D01*
X92486027Y-241260516D01*
X92479500Y-241310098D01*
X92479500Y-241729894D01*
X92479501Y-241729900D01*
X92486028Y-241779487D01*
X92486029Y-241779489D01*
X92486029Y-241779490D01*
X92521068Y-241854631D01*
X92536776Y-241888316D01*
X92621684Y-241973224D01*
X92730513Y-242023972D01*
X92780099Y-242030500D01*
X92866883Y-242030499D01*
X92888127Y-242036737D01*
X92910214Y-242038317D01*
X92920996Y-242046388D01*
X92933920Y-242050183D01*
X92948420Y-242066917D01*
X92966148Y-242080187D01*
X92970855Y-242092806D01*
X92979676Y-242102986D01*
X92982827Y-242124904D01*
X92990566Y-242145651D01*
X92987703Y-242158812D01*
X92989620Y-242172145D01*
X92980421Y-242192287D01*
X92975715Y-242213924D01*
X92962446Y-242231649D01*
X92960596Y-242235701D01*
X92954564Y-242242179D01*
X92918537Y-242278207D01*
X92918536Y-242278208D01*
X92268538Y-242928205D01*
X92268536Y-242928208D01*
X92235479Y-242985465D01*
X92222278Y-243008329D01*
X92220574Y-243007345D01*
X92188907Y-243046635D01*
X92189084Y-243046812D01*
X92187439Y-243048456D01*
X92183431Y-243053430D01*
X92181618Y-243054665D01*
X92180452Y-243055443D01*
X92180446Y-243055450D01*
X92136132Y-243121768D01*
X92136131Y-243121770D01*
X92124500Y-243180247D01*
X92124500Y-243719752D01*
X92136131Y-243778229D01*
X92136132Y-243778230D01*
X92180447Y-243844552D01*
X92209354Y-243863867D01*
X92246769Y-243888867D01*
X92266218Y-243892735D01*
X92275206Y-243897436D01*
X92285323Y-243898157D01*
X92305641Y-243913356D01*
X92328129Y-243925119D01*
X92333148Y-243933933D01*
X92341270Y-243940009D01*
X92350145Y-243963780D01*
X92362704Y-243985834D01*
X92362161Y-243995963D01*
X92365709Y-244005466D01*
X92360322Y-244030265D01*
X92358965Y-244055604D01*
X92352638Y-244065648D01*
X92350880Y-244073744D01*
X92329738Y-244102005D01*
X92328239Y-244103505D01*
X92328210Y-244103534D01*
X92268538Y-244163205D01*
X92268536Y-244163208D01*
X92226341Y-244236290D01*
X92208125Y-244304276D01*
X92185221Y-244343951D01*
X92187232Y-244345295D01*
X92136132Y-244421768D01*
X92136131Y-244421770D01*
X92124500Y-244480247D01*
X92124500Y-245019752D01*
X92136131Y-245078229D01*
X92136132Y-245078230D01*
X92180447Y-245144552D01*
X92246769Y-245188867D01*
X92246770Y-245188868D01*
X92305247Y-245200499D01*
X92305250Y-245200500D01*
X92305252Y-245200500D01*
X92744750Y-245200500D01*
X92744751Y-245200499D01*
X92759568Y-245197552D01*
X92803229Y-245188868D01*
X92803231Y-245188867D01*
X92806108Y-245186945D01*
X92813335Y-245184681D01*
X92814513Y-245184194D01*
X92814556Y-245184299D01*
X92872785Y-245166066D01*
X92940165Y-245184550D01*
X92943892Y-245186945D01*
X92946768Y-245188867D01*
X92946770Y-245188868D01*
X93005247Y-245200499D01*
X93005250Y-245200500D01*
X93005252Y-245200500D01*
X93163811Y-245200500D01*
X93230850Y-245220185D01*
X93251492Y-245236819D01*
X94225138Y-246210465D01*
X94299361Y-246253318D01*
X94382147Y-246275500D01*
X94382149Y-246275500D01*
X96707799Y-246275500D01*
X96707801Y-246275500D01*
X96710698Y-246274723D01*
X96742786Y-246270500D01*
X181217192Y-246270500D01*
X181217194Y-246270500D01*
X181217195Y-246270500D01*
X181298709Y-246248659D01*
X181371792Y-246206464D01*
X181431464Y-246146792D01*
X181431464Y-246146790D01*
X181441668Y-246136587D01*
X181441671Y-246136582D01*
X188075840Y-239502413D01*
X190624500Y-239502413D01*
X190624500Y-239577587D01*
X190626975Y-239586823D01*
X190643956Y-239650200D01*
X190654695Y-239668800D01*
X190681543Y-239715301D01*
X190734699Y-239768457D01*
X190799801Y-239806044D01*
X190872413Y-239825500D01*
X190872415Y-239825500D01*
X190947585Y-239825500D01*
X190947587Y-239825500D01*
X191020199Y-239806044D01*
X191085301Y-239768457D01*
X191138457Y-239715301D01*
X191176044Y-239650199D01*
X191195500Y-239577587D01*
X191195500Y-239502413D01*
X191176044Y-239429801D01*
X191138457Y-239364699D01*
X191085301Y-239311543D01*
X191047584Y-239289767D01*
X191020200Y-239273956D01*
X190983893Y-239264228D01*
X190947587Y-239254500D01*
X190872413Y-239254500D01*
X190799799Y-239273956D01*
X190734699Y-239311543D01*
X190734696Y-239311545D01*
X190681545Y-239364696D01*
X190681543Y-239364699D01*
X190643956Y-239429799D01*
X190626420Y-239495247D01*
X190624500Y-239502413D01*
X188075840Y-239502413D01*
X189263001Y-238315252D01*
X192514500Y-238315252D01*
X192514500Y-238334864D01*
X192514500Y-239084752D01*
X192526131Y-239143229D01*
X192526132Y-239143230D01*
X192570447Y-239209552D01*
X192636769Y-239253867D01*
X192636770Y-239253868D01*
X192695247Y-239265499D01*
X192695250Y-239265500D01*
X192695252Y-239265500D01*
X193264750Y-239265500D01*
X193264751Y-239265499D01*
X193279568Y-239262552D01*
X193323229Y-239253868D01*
X193323229Y-239253867D01*
X193323231Y-239253867D01*
X193389552Y-239209552D01*
X193433867Y-239143231D01*
X193433867Y-239143229D01*
X193433868Y-239143229D01*
X193445499Y-239084752D01*
X193445500Y-239084750D01*
X193445500Y-238315249D01*
X193445499Y-238315247D01*
X193432521Y-238249998D01*
X193438748Y-238180406D01*
X193446751Y-238163806D01*
X193450498Y-238157315D01*
X193450500Y-238157314D01*
X193516392Y-238043186D01*
X193550500Y-237915892D01*
X193550500Y-237784108D01*
X193516392Y-237656814D01*
X193450500Y-237542686D01*
X193357314Y-237449500D01*
X193300250Y-237416554D01*
X193243187Y-237383608D01*
X193179539Y-237366554D01*
X193115892Y-237349500D01*
X192984108Y-237349500D01*
X192856812Y-237383608D01*
X192742686Y-237449500D01*
X192742683Y-237449502D01*
X192649502Y-237542683D01*
X192649500Y-237542686D01*
X192583608Y-237656812D01*
X192549500Y-237784108D01*
X192549500Y-237915891D01*
X192583609Y-238043188D01*
X192583609Y-238043189D01*
X192585121Y-238045808D01*
X192585724Y-238048296D01*
X192586720Y-238050700D01*
X192586514Y-238050785D01*
X192589493Y-238054090D01*
X192594413Y-238084124D01*
X192601589Y-238113709D01*
X192600008Y-238118273D01*
X192600790Y-238123041D01*
X192591512Y-238157093D01*
X192579756Y-238184227D01*
X192570448Y-238190448D01*
X192526133Y-238256769D01*
X192514500Y-238315252D01*
X189263001Y-238315252D01*
X223621437Y-203956819D01*
X223682760Y-203923334D01*
X223709118Y-203920500D01*
X224644811Y-203920500D01*
X224711850Y-203940185D01*
G37*
%TD.AperFunction*%
%TA.AperFunction,Conductor*%
G36*
X41895989Y-153475185D02*
G01*
X41941744Y-153527989D01*
X41952950Y-153579500D01*
X41952950Y-154532758D01*
X41974410Y-154612852D01*
X41983650Y-154647335D01*
X41983650Y-154647336D01*
X41994920Y-154666855D01*
X42042961Y-154750064D01*
X42042962Y-154750065D01*
X42042965Y-154750070D01*
X42043878Y-154751260D01*
X42044796Y-154753242D01*
X42047025Y-154757102D01*
X42046678Y-154757302D01*
X42066686Y-154800477D01*
X42069500Y-154813463D01*
X42069501Y-154829900D01*
X42076028Y-154879487D01*
X42090569Y-154910670D01*
X42093509Y-154924234D01*
X42091950Y-154945797D01*
X42095197Y-154967172D01*
X42089481Y-154979954D01*
X42088472Y-154993922D01*
X42075502Y-155011220D01*
X42066678Y-155030956D01*
X42054958Y-155038619D01*
X42046558Y-155049824D01*
X42026293Y-155057364D01*
X42008201Y-155069196D01*
X41985466Y-155072556D01*
X41981075Y-155074191D01*
X41978385Y-155073603D01*
X41972323Y-155074500D01*
X41650465Y-155074500D01*
X41650449Y-155074499D01*
X41642853Y-155074499D01*
X41557147Y-155074499D01*
X41524586Y-155083224D01*
X41474362Y-155096681D01*
X41440221Y-155116393D01*
X41440220Y-155116392D01*
X41400141Y-155139532D01*
X41400136Y-155139536D01*
X40914537Y-155625135D01*
X40914535Y-155625138D01*
X40871682Y-155699361D01*
X40859579Y-155744531D01*
X40859579Y-155744532D01*
X40859578Y-155744531D01*
X40849500Y-155782145D01*
X40849500Y-156467852D01*
X40871682Y-156550640D01*
X40874345Y-156555252D01*
X40914535Y-156624862D01*
X41264533Y-156974859D01*
X41264535Y-156974862D01*
X41325138Y-157035465D01*
X41355910Y-157053231D01*
X41399361Y-157078318D01*
X41482147Y-157100501D01*
X41482149Y-157100501D01*
X41575449Y-157100501D01*
X41575465Y-157100500D01*
X41989319Y-157100500D01*
X42056358Y-157120185D01*
X42058210Y-157121398D01*
X42121769Y-157163867D01*
X42121770Y-157163868D01*
X42180247Y-157175499D01*
X42180250Y-157175500D01*
X42180252Y-157175500D01*
X42575500Y-157175500D01*
X42642539Y-157195185D01*
X42688294Y-157247989D01*
X42699500Y-157299500D01*
X42699500Y-159113811D01*
X42679815Y-159180850D01*
X42663181Y-159201492D01*
X42339537Y-159525135D01*
X42339533Y-159525141D01*
X42296682Y-159599360D01*
X42293845Y-159609947D01*
X42280384Y-159660187D01*
X42274500Y-159682147D01*
X42274500Y-161867852D01*
X42275275Y-161870744D01*
X42279500Y-161902837D01*
X42279500Y-183242195D01*
X42301341Y-183323709D01*
X42343536Y-183396792D01*
X42343538Y-183396794D01*
X42410273Y-183463529D01*
X42410279Y-183463534D01*
X101989195Y-243042450D01*
X101989205Y-243042461D01*
X101993536Y-243046792D01*
X102053208Y-243106464D01*
X102126291Y-243148659D01*
X102207805Y-243170500D01*
X102207806Y-243170500D01*
X102207808Y-243170500D01*
X180417192Y-243170500D01*
X180417194Y-243170500D01*
X180417195Y-243170500D01*
X180498709Y-243148659D01*
X180571792Y-243106464D01*
X180631464Y-243046792D01*
X180631464Y-243046790D01*
X180641668Y-243036587D01*
X180641671Y-243036582D01*
X221471436Y-202206819D01*
X221498363Y-202192115D01*
X221524182Y-202175523D01*
X221530382Y-202174631D01*
X221532759Y-202173334D01*
X221559117Y-202170500D01*
X221576882Y-202170500D01*
X221643921Y-202190185D01*
X221689676Y-202242989D01*
X221699620Y-202312147D01*
X221670595Y-202375703D01*
X221664563Y-202382181D01*
X180428564Y-243618181D01*
X180367241Y-243651666D01*
X180340883Y-243654500D01*
X96184118Y-243654500D01*
X96117079Y-243634815D01*
X96096437Y-243618181D01*
X94763534Y-242285279D01*
X94763532Y-242285276D01*
X94696794Y-242218538D01*
X94696792Y-242218536D01*
X94623709Y-242176341D01*
X94608049Y-242172145D01*
X94542196Y-242154500D01*
X94542195Y-242154500D01*
X93416402Y-242154500D01*
X93349363Y-242134815D01*
X93303608Y-242082011D01*
X93293664Y-242012853D01*
X93322689Y-241949297D01*
X93328721Y-241942819D01*
X93384721Y-241886819D01*
X93411648Y-241872115D01*
X93437467Y-241855523D01*
X93443667Y-241854631D01*
X93446044Y-241853334D01*
X93472402Y-241850500D01*
X93496063Y-241850500D01*
X93548750Y-241864618D01*
X93549304Y-241863281D01*
X93556807Y-241866388D01*
X93556814Y-241866392D01*
X93684108Y-241900500D01*
X93684110Y-241900500D01*
X93815890Y-241900500D01*
X93815892Y-241900500D01*
X93943186Y-241866392D01*
X94057314Y-241800500D01*
X94150500Y-241707314D01*
X94216392Y-241593186D01*
X94250500Y-241465892D01*
X94250500Y-241334108D01*
X94216392Y-241206814D01*
X94150500Y-241092686D01*
X94057314Y-240999500D01*
X93970712Y-240949500D01*
X93943187Y-240933608D01*
X93879539Y-240916554D01*
X93815892Y-240899500D01*
X93684108Y-240899500D01*
X93566592Y-240930987D01*
X93496743Y-240929325D01*
X93438881Y-240890162D01*
X93411377Y-240825934D01*
X93410500Y-240811213D01*
X93410500Y-240000693D01*
X93410500Y-240000691D01*
X93379799Y-239886114D01*
X93342027Y-239820691D01*
X93320489Y-239783386D01*
X93276588Y-239739485D01*
X93272016Y-239733669D01*
X93261673Y-239707823D01*
X93248334Y-239683393D01*
X93247024Y-239671212D01*
X93246059Y-239668800D01*
X93246512Y-239666450D01*
X93245500Y-239657035D01*
X93245500Y-239495249D01*
X93245499Y-239495247D01*
X93233868Y-239436770D01*
X93233867Y-239436769D01*
X93189552Y-239370447D01*
X93123230Y-239326132D01*
X93112979Y-239324093D01*
X93051068Y-239291708D01*
X93043010Y-239282683D01*
X92870865Y-239110538D01*
X92837380Y-239049215D01*
X92842364Y-238979523D01*
X92884236Y-238923590D01*
X92949700Y-238899173D01*
X92974739Y-238899919D01*
X92979144Y-238900499D01*
X92979147Y-238900500D01*
X93366324Y-238900500D01*
X93433363Y-238920185D01*
X93454005Y-238936819D01*
X93492686Y-238975500D01*
X93606814Y-239041392D01*
X93734108Y-239075500D01*
X93734110Y-239075500D01*
X93865890Y-239075500D01*
X93865892Y-239075500D01*
X93993186Y-239041392D01*
X94107314Y-238975500D01*
X94200500Y-238882314D01*
X94266392Y-238768186D01*
X94300500Y-238640892D01*
X94300500Y-238509108D01*
X94266392Y-238381814D01*
X94200500Y-238267686D01*
X94107314Y-238174500D01*
X94050250Y-238141554D01*
X93993187Y-238108608D01*
X93929539Y-238091554D01*
X93865892Y-238074500D01*
X93734108Y-238074500D01*
X93606812Y-238108608D01*
X93492686Y-238174500D01*
X93492683Y-238174502D01*
X93457181Y-238210005D01*
X93395858Y-238243490D01*
X93326166Y-238238506D01*
X93270233Y-238196634D01*
X93245816Y-238131170D01*
X93245500Y-238122324D01*
X93245500Y-237815249D01*
X93245499Y-237815247D01*
X93233868Y-237756770D01*
X93233867Y-237756769D01*
X93189552Y-237690447D01*
X93123230Y-237646132D01*
X93123229Y-237646131D01*
X93064752Y-237634500D01*
X93064748Y-237634500D01*
X92495252Y-237634500D01*
X92495247Y-237634500D01*
X92436770Y-237646131D01*
X92425487Y-237650806D01*
X92424792Y-237649130D01*
X92372205Y-237665592D01*
X92314901Y-237649867D01*
X92314513Y-237650806D01*
X92307040Y-237647710D01*
X92304826Y-237647103D01*
X92303469Y-237646231D01*
X92303229Y-237646131D01*
X92244752Y-237634500D01*
X92244748Y-237634500D01*
X91675252Y-237634500D01*
X91675247Y-237634500D01*
X91616770Y-237646131D01*
X91616769Y-237646132D01*
X91550447Y-237690447D01*
X91506132Y-237756769D01*
X91506131Y-237756770D01*
X91494500Y-237815247D01*
X91494500Y-238584752D01*
X91506131Y-238643229D01*
X91506132Y-238643230D01*
X91550447Y-238709552D01*
X91626924Y-238760652D01*
X91624523Y-238764245D01*
X91660619Y-238793322D01*
X91666162Y-238802060D01*
X91699535Y-238859862D01*
X91699537Y-238859864D01*
X91942492Y-239102819D01*
X91975977Y-239164142D01*
X91970993Y-239233834D01*
X91929121Y-239289767D01*
X91863657Y-239314184D01*
X91854811Y-239314500D01*
X91675247Y-239314500D01*
X91616770Y-239326131D01*
X91616769Y-239326132D01*
X91550447Y-239370447D01*
X91506132Y-239436769D01*
X91506131Y-239436770D01*
X91494500Y-239495247D01*
X91494500Y-239833811D01*
X91474815Y-239900850D01*
X91458181Y-239921492D01*
X89406492Y-241973181D01*
X89345169Y-242006666D01*
X89318811Y-242009500D01*
X85661188Y-242009500D01*
X85594149Y-241989815D01*
X85573507Y-241973181D01*
X82682294Y-239081967D01*
X82602740Y-239002413D01*
X90424500Y-239002413D01*
X90424500Y-239077587D01*
X90430469Y-239099864D01*
X90443956Y-239150200D01*
X90452006Y-239164142D01*
X90481543Y-239215301D01*
X90534699Y-239268457D01*
X90599801Y-239306044D01*
X90672413Y-239325500D01*
X90672415Y-239325500D01*
X90747585Y-239325500D01*
X90747587Y-239325500D01*
X90820199Y-239306044D01*
X90885301Y-239268457D01*
X90938457Y-239215301D01*
X90976044Y-239150199D01*
X90995500Y-239077587D01*
X90995500Y-239002413D01*
X90976044Y-238929801D01*
X90938457Y-238864699D01*
X90885301Y-238811543D01*
X90852750Y-238792749D01*
X90820200Y-238773956D01*
X90769845Y-238760464D01*
X90747587Y-238754500D01*
X90672413Y-238754500D01*
X90599799Y-238773956D01*
X90534699Y-238811543D01*
X90534696Y-238811545D01*
X90481545Y-238864696D01*
X90481543Y-238864699D01*
X90443956Y-238929799D01*
X90431712Y-238975497D01*
X90424500Y-239002413D01*
X82602740Y-239002413D01*
X82401819Y-238801492D01*
X82368334Y-238740169D01*
X82365500Y-238713811D01*
X82365500Y-231347149D01*
X82365500Y-231347147D01*
X82343318Y-231264362D01*
X82343318Y-231264361D01*
X82300465Y-231190138D01*
X37211819Y-186101492D01*
X37178334Y-186040169D01*
X37175500Y-186013811D01*
X37175500Y-157796189D01*
X37195185Y-157729150D01*
X37211819Y-157708508D01*
X41428508Y-153491819D01*
X41489831Y-153458334D01*
X41516189Y-153455500D01*
X41828950Y-153455500D01*
X41895989Y-153475185D01*
G37*
%TD.AperFunction*%
%TA.AperFunction,Conductor*%
G36*
X176505850Y-61020185D02*
G01*
X176526492Y-61036819D01*
X230963181Y-115473508D01*
X230996666Y-115534831D01*
X230999500Y-115561189D01*
X230999500Y-198572147D01*
X230999500Y-198657853D01*
X231004361Y-198675994D01*
X231021682Y-198740640D01*
X231037186Y-198767492D01*
X231064535Y-198814862D01*
X231064537Y-198814864D01*
X232267492Y-200017819D01*
X232300977Y-200079142D01*
X232295993Y-200148834D01*
X232254121Y-200204767D01*
X232188657Y-200229184D01*
X232179811Y-200229500D01*
X219432803Y-200229500D01*
X219351290Y-200251341D01*
X219278208Y-200293536D01*
X219278205Y-200293538D01*
X219218534Y-200353210D01*
X179128564Y-240443181D01*
X179067241Y-240476666D01*
X179040883Y-240479500D01*
X147599497Y-240479500D01*
X147532458Y-240459815D01*
X147486703Y-240407011D01*
X147476759Y-240337853D01*
X147505784Y-240274297D01*
X147564562Y-240236523D01*
X147591602Y-240231751D01*
X148382348Y-240181328D01*
X150246536Y-240022662D01*
X151675304Y-239870448D01*
X152106909Y-239824467D01*
X152106914Y-239824466D01*
X152106936Y-239824464D01*
X153962711Y-239586823D01*
X155813023Y-239309846D01*
X155813032Y-239309844D01*
X155813055Y-239309841D01*
X157657017Y-238993662D01*
X157657027Y-238993659D01*
X157657039Y-238993658D01*
X159493929Y-238638400D01*
X161322864Y-238244235D01*
X161322866Y-238244234D01*
X161322873Y-238244233D01*
X163143015Y-237811340D01*
X163903940Y-237613210D01*
X164953580Y-237339905D01*
X166753724Y-236830149D01*
X168542643Y-236282298D01*
X170319531Y-235696601D01*
X172083587Y-235073321D01*
X173834016Y-234412738D01*
X175570029Y-233715150D01*
X177290845Y-232980872D01*
X178995688Y-232210234D01*
X180683790Y-231403585D01*
X182354390Y-230561286D01*
X184006735Y-229683718D01*
X185640082Y-228771276D01*
X187253693Y-227824371D01*
X188846843Y-226843430D01*
X190418813Y-225828894D01*
X191968895Y-224781222D01*
X193496390Y-223700884D01*
X195000611Y-222588368D01*
X196480879Y-221444175D01*
X197936528Y-220268821D01*
X198856822Y-219492896D01*
X199366885Y-219062849D01*
X199623229Y-218837238D01*
X200771355Y-217826760D01*
X202149256Y-216561154D01*
X203499984Y-215266586D01*
X204822930Y-213943640D01*
X206117498Y-212592912D01*
X207383104Y-211215011D01*
X208619179Y-209810557D01*
X208619180Y-209810554D01*
X208619193Y-209810541D01*
X209105313Y-209233972D01*
X209825165Y-208380184D01*
X211000519Y-206924535D01*
X212144712Y-205444267D01*
X213257228Y-203940046D01*
X214337566Y-202412551D01*
X215385238Y-200862469D01*
X216399774Y-199290499D01*
X217380715Y-197697349D01*
X218327620Y-196083738D01*
X219240062Y-194450391D01*
X220117630Y-192798046D01*
X220959929Y-191127446D01*
X221766578Y-189439344D01*
X222537216Y-187734501D01*
X223271494Y-186013685D01*
X223969082Y-184277672D01*
X224629665Y-182527243D01*
X225252945Y-180763187D01*
X225838642Y-178986299D01*
X226386493Y-177197380D01*
X226896249Y-175397236D01*
X227210679Y-174189655D01*
X227367684Y-173586671D01*
X227800577Y-171766529D01*
X227848501Y-171544159D01*
X228194744Y-169937585D01*
X228550002Y-168100695D01*
X228562525Y-168027661D01*
X228866185Y-166256711D01*
X228913481Y-165940756D01*
X229143167Y-164406367D01*
X229380808Y-162550592D01*
X229579006Y-160690192D01*
X229737672Y-158826004D01*
X229856734Y-156958869D01*
X229936139Y-155089626D01*
X229975850Y-153219120D01*
X229975850Y-151348192D01*
X229975331Y-151323768D01*
X229968412Y-150997852D01*
X229936139Y-149477686D01*
X229856734Y-147608443D01*
X229737672Y-145741308D01*
X229579006Y-143877120D01*
X229380808Y-142016720D01*
X229143167Y-140160945D01*
X228866190Y-138310633D01*
X228866189Y-138310630D01*
X228866185Y-138310600D01*
X228550006Y-136466638D01*
X228528766Y-136356814D01*
X228194744Y-134629727D01*
X227800579Y-132800792D01*
X227800577Y-132800782D01*
X227367684Y-130980640D01*
X226896251Y-129170085D01*
X226896249Y-129170076D01*
X226386493Y-127369932D01*
X225838642Y-125581013D01*
X225252945Y-123804125D01*
X224629665Y-122040069D01*
X223969082Y-120289640D01*
X223891032Y-120095406D01*
X223271500Y-118553642D01*
X223246866Y-118495912D01*
X222537216Y-116832811D01*
X221766578Y-115127968D01*
X220959929Y-113439866D01*
X220117630Y-111769266D01*
X219240062Y-110116921D01*
X218327620Y-108483574D01*
X218169256Y-108213708D01*
X217380720Y-106869972D01*
X217380715Y-106869963D01*
X216399774Y-105276813D01*
X215385238Y-103704843D01*
X214337566Y-102154761D01*
X213257228Y-100627266D01*
X212144712Y-99123045D01*
X211000519Y-97642777D01*
X209825165Y-96187128D01*
X208619193Y-94756770D01*
X207383117Y-93352316D01*
X207383104Y-93352301D01*
X206117498Y-91974400D01*
X204822930Y-90623672D01*
X204822917Y-90623658D01*
X203499997Y-89300738D01*
X202149267Y-88006169D01*
X202149256Y-88006158D01*
X200771355Y-86740552D01*
X200217852Y-86253408D01*
X199366885Y-85504462D01*
X197936527Y-84298490D01*
X196480894Y-83123149D01*
X196480890Y-83123146D01*
X196480879Y-83123137D01*
X195000611Y-81978944D01*
X194903889Y-81907409D01*
X193727439Y-81037311D01*
X193496390Y-80866428D01*
X191968895Y-79786090D01*
X191725451Y-79621551D01*
X191385905Y-79392057D01*
X190418813Y-78738418D01*
X188846843Y-77723882D01*
X187253693Y-76742941D01*
X187127693Y-76669001D01*
X185640085Y-75796037D01*
X184006734Y-74883593D01*
X182354386Y-74006024D01*
X180683804Y-73163734D01*
X180683801Y-73163732D01*
X180683790Y-73163727D01*
X178995688Y-72357078D01*
X178995671Y-72357070D01*
X178995662Y-72357066D01*
X177290855Y-71586444D01*
X175570013Y-70852155D01*
X173834048Y-70154586D01*
X173562567Y-70052133D01*
X172083587Y-69493991D01*
X170319531Y-68870711D01*
X168542643Y-68285014D01*
X167170538Y-67864811D01*
X166753722Y-67737162D01*
X164953570Y-67227404D01*
X163143015Y-66755971D01*
X161322873Y-66323078D01*
X159493927Y-65928911D01*
X157657017Y-65573649D01*
X155813055Y-65257470D01*
X153962711Y-64980489D01*
X152106909Y-64742844D01*
X150246534Y-64544649D01*
X148382377Y-64385986D01*
X148382355Y-64385984D01*
X148382348Y-64385984D01*
X147507541Y-64330200D01*
X146515185Y-64266920D01*
X144645979Y-64187517D01*
X142775467Y-64147806D01*
X142775464Y-64147806D01*
X140904536Y-64147806D01*
X140904533Y-64147806D01*
X139034020Y-64187517D01*
X137164814Y-64266920D01*
X135742267Y-64357632D01*
X135297652Y-64385984D01*
X135297647Y-64385984D01*
X135297622Y-64385986D01*
X133433465Y-64544649D01*
X131573090Y-64742844D01*
X129717288Y-64980489D01*
X127866944Y-65257470D01*
X126022982Y-65573649D01*
X124186072Y-65928911D01*
X122357126Y-66323078D01*
X120536984Y-66755971D01*
X118726429Y-67227404D01*
X116926277Y-67737162D01*
X115892119Y-68053870D01*
X115137357Y-68285014D01*
X115137335Y-68285021D01*
X115137326Y-68285024D01*
X113360489Y-68870704D01*
X113360471Y-68870710D01*
X113360469Y-68870711D01*
X113221681Y-68919748D01*
X111596429Y-69493985D01*
X111596414Y-69493990D01*
X111596413Y-69493991D01*
X111526169Y-69520500D01*
X109845951Y-70154586D01*
X108109986Y-70852155D01*
X106389144Y-71586444D01*
X104684337Y-72357066D01*
X102996195Y-73163734D01*
X101325613Y-74006024D01*
X99673265Y-74883593D01*
X98039914Y-75796037D01*
X96426316Y-76742935D01*
X94833158Y-77723881D01*
X94265156Y-78090465D01*
X93514637Y-78574844D01*
X93261172Y-78738428D01*
X91711105Y-79786089D01*
X90183612Y-80866426D01*
X88679385Y-81978946D01*
X87199105Y-83123149D01*
X85743472Y-84298490D01*
X84313114Y-85504462D01*
X82908660Y-86740538D01*
X81530732Y-88006169D01*
X80180002Y-89300738D01*
X78857082Y-90623658D01*
X77562513Y-91974388D01*
X76296882Y-93352316D01*
X75060806Y-94756770D01*
X73854834Y-96187128D01*
X72679493Y-97642761D01*
X71535290Y-99123041D01*
X70422770Y-100627268D01*
X69342433Y-102154761D01*
X68294772Y-103704828D01*
X67280225Y-105276814D01*
X66299279Y-106869972D01*
X65352381Y-108483570D01*
X64439937Y-110116921D01*
X63562368Y-111769269D01*
X62720078Y-113439851D01*
X61913410Y-115127993D01*
X61142788Y-116832800D01*
X60408499Y-118553642D01*
X59710930Y-120289607D01*
X59050329Y-122040085D01*
X58427048Y-123804145D01*
X58312267Y-124152369D01*
X57841358Y-125581013D01*
X57748026Y-125885774D01*
X57293506Y-127369933D01*
X56783748Y-129170085D01*
X56312315Y-130980640D01*
X55879422Y-132800782D01*
X55485255Y-134629728D01*
X55129993Y-136466638D01*
X54813814Y-138310600D01*
X54536833Y-140160944D01*
X54299188Y-142016746D01*
X54100993Y-143877121D01*
X53942330Y-145741278D01*
X53823264Y-147608470D01*
X53743861Y-149477676D01*
X53704150Y-151348189D01*
X53704150Y-153219122D01*
X53743861Y-155089635D01*
X53823264Y-156958841D01*
X53883225Y-157899142D01*
X53932910Y-158678318D01*
X53942330Y-158826033D01*
X54100993Y-160690190D01*
X54299188Y-162550565D01*
X54536833Y-164406367D01*
X54813814Y-166256711D01*
X55129993Y-168100673D01*
X55485255Y-169937583D01*
X55879422Y-171766529D01*
X56312315Y-173586671D01*
X56783748Y-175397226D01*
X57268904Y-177110500D01*
X57293507Y-177197380D01*
X57841358Y-178986299D01*
X58427055Y-180763187D01*
X59050335Y-182527243D01*
X59524413Y-183783466D01*
X59710930Y-184277704D01*
X60408499Y-186013669D01*
X61142788Y-187734511D01*
X61482504Y-188486047D01*
X61913422Y-189439344D01*
X62720071Y-191127446D01*
X63562370Y-192798046D01*
X63746394Y-193144540D01*
X64439937Y-194450390D01*
X65352381Y-196083741D01*
X66299279Y-197697339D01*
X66299285Y-197697349D01*
X67280226Y-199290499D01*
X68294762Y-200862469D01*
X68802838Y-201614192D01*
X69342433Y-202412550D01*
X70037636Y-203395500D01*
X70422772Y-203940046D01*
X70642712Y-204237425D01*
X71535290Y-205444270D01*
X71894118Y-205908494D01*
X72444737Y-206620842D01*
X72679493Y-206924550D01*
X73854834Y-208380183D01*
X75060806Y-209810541D01*
X76195806Y-211100151D01*
X76296896Y-211215011D01*
X77562502Y-212592912D01*
X77562513Y-212592923D01*
X78857082Y-213943653D01*
X80180002Y-215266573D01*
X80765310Y-215827545D01*
X81530744Y-216561154D01*
X82908645Y-217826760D01*
X82908660Y-217826773D01*
X84313114Y-219062849D01*
X85434630Y-220008428D01*
X85743472Y-220268821D01*
X87199121Y-221444175D01*
X88679389Y-222588368D01*
X90183610Y-223700884D01*
X91711105Y-224781222D01*
X93261187Y-225828894D01*
X94833157Y-226843430D01*
X96426307Y-227824371D01*
X96917439Y-228112579D01*
X98039914Y-228771274D01*
X99510444Y-229592761D01*
X99673265Y-229683718D01*
X101325610Y-230561286D01*
X102996210Y-231403585D01*
X104684312Y-232210234D01*
X106389155Y-232980872D01*
X108109971Y-233715150D01*
X108109986Y-233715156D01*
X109845951Y-234412725D01*
X109845961Y-234412729D01*
X109845984Y-234412738D01*
X111596413Y-235073321D01*
X113360469Y-235696601D01*
X115137357Y-236282298D01*
X116926276Y-236830149D01*
X118726420Y-237339905D01*
X119147332Y-237449502D01*
X120536984Y-237811340D01*
X122357126Y-238244233D01*
X122995506Y-238381814D01*
X124186071Y-238638400D01*
X125929074Y-238975500D01*
X126022982Y-238993662D01*
X127866944Y-239309841D01*
X127866974Y-239309845D01*
X127866977Y-239309846D01*
X129717289Y-239586823D01*
X131573064Y-239824464D01*
X131573079Y-239824465D01*
X131573090Y-239824467D01*
X132483824Y-239921492D01*
X133433464Y-240022662D01*
X135297652Y-240181328D01*
X136088395Y-240231751D01*
X136154045Y-240255662D01*
X136196347Y-240311271D01*
X136201869Y-240380922D01*
X136168858Y-240442502D01*
X136107796Y-240476459D01*
X136080503Y-240479500D01*
X104909118Y-240479500D01*
X104842079Y-240459815D01*
X104821437Y-240443181D01*
X45331819Y-180953563D01*
X45298334Y-180892240D01*
X45295500Y-180865882D01*
X45295500Y-155682808D01*
X45295500Y-155682805D01*
X45273659Y-155601291D01*
X45231464Y-155528208D01*
X45171792Y-155468536D01*
X45171791Y-155468535D01*
X44906465Y-155203209D01*
X44906464Y-155203208D01*
X44846792Y-155143536D01*
X44773709Y-155101341D01*
X44756317Y-155096681D01*
X44692196Y-155079500D01*
X44692195Y-155079500D01*
X43894730Y-155079500D01*
X43827691Y-155059815D01*
X43781936Y-155007011D01*
X43771992Y-154937853D01*
X43787344Y-154893499D01*
X43816389Y-154843191D01*
X43816388Y-154843191D01*
X43816392Y-154843186D01*
X43850500Y-154715892D01*
X43850500Y-154584108D01*
X43816392Y-154456814D01*
X43810618Y-154446814D01*
X43807563Y-154441521D01*
X43750500Y-154342686D01*
X43657314Y-154249500D01*
X43570712Y-154199500D01*
X43543187Y-154183608D01*
X43479539Y-154166554D01*
X43415892Y-154149500D01*
X43284108Y-154149500D01*
X43156814Y-154183608D01*
X43149304Y-154186719D01*
X43148750Y-154185381D01*
X43142575Y-154187036D01*
X43130998Y-154194477D01*
X43096063Y-154199500D01*
X42977950Y-154199500D01*
X42910911Y-154179815D01*
X42865156Y-154127011D01*
X42853950Y-154075500D01*
X42853950Y-153294754D01*
X42855319Y-153280854D01*
X42854903Y-153280813D01*
X42855500Y-153274750D01*
X42855500Y-152505249D01*
X42855499Y-152505247D01*
X42843868Y-152446770D01*
X42843867Y-152446769D01*
X42799552Y-152380447D01*
X42733230Y-152336132D01*
X42733229Y-152336131D01*
X42674752Y-152324500D01*
X42674748Y-152324500D01*
X42105252Y-152324500D01*
X42105247Y-152324500D01*
X42046770Y-152336131D01*
X42035487Y-152340806D01*
X42034792Y-152339130D01*
X41982205Y-152355592D01*
X41924901Y-152339867D01*
X41924513Y-152340806D01*
X41917040Y-152337710D01*
X41914826Y-152337103D01*
X41913469Y-152336231D01*
X41913229Y-152336131D01*
X41854752Y-152324500D01*
X41854748Y-152324500D01*
X41285252Y-152324500D01*
X41285247Y-152324500D01*
X41226770Y-152336131D01*
X41226769Y-152336132D01*
X41160447Y-152380447D01*
X41116132Y-152446769D01*
X41116131Y-152446770D01*
X41104500Y-152505247D01*
X41104500Y-152843811D01*
X41084815Y-152910850D01*
X41068181Y-152931492D01*
X37387181Y-156612492D01*
X37325858Y-156645977D01*
X37256166Y-156640993D01*
X37200233Y-156599121D01*
X37175816Y-156533657D01*
X37175500Y-156524811D01*
X37175500Y-152012413D01*
X40034500Y-152012413D01*
X40034500Y-152087586D01*
X40053956Y-152160200D01*
X40072749Y-152192750D01*
X40091543Y-152225301D01*
X40144699Y-152278457D01*
X40209801Y-152316044D01*
X40282413Y-152335500D01*
X40282415Y-152335500D01*
X40357585Y-152335500D01*
X40357587Y-152335500D01*
X40430199Y-152316044D01*
X40495301Y-152278457D01*
X40548457Y-152225301D01*
X40586044Y-152160199D01*
X40605500Y-152087587D01*
X40605500Y-152012413D01*
X40586044Y-151939801D01*
X40548457Y-151874699D01*
X40495301Y-151821543D01*
X40462750Y-151802749D01*
X40430200Y-151783956D01*
X40393893Y-151774228D01*
X40357587Y-151764500D01*
X40282413Y-151764500D01*
X40209799Y-151783956D01*
X40144699Y-151821543D01*
X40144696Y-151821545D01*
X40091545Y-151874696D01*
X40091543Y-151874699D01*
X40053956Y-151939799D01*
X40034500Y-152012413D01*
X37175500Y-152012413D01*
X37175500Y-119646187D01*
X37195185Y-119579148D01*
X37211814Y-119558511D01*
X78669652Y-78100672D01*
X78669657Y-78100669D01*
X78679860Y-78090465D01*
X78679862Y-78090465D01*
X89790465Y-66979862D01*
X89795962Y-66970339D01*
X89815666Y-66944659D01*
X91348508Y-65411819D01*
X91409831Y-65378334D01*
X91436189Y-65375500D01*
X91794750Y-65375500D01*
X91794751Y-65375499D01*
X91809568Y-65372552D01*
X91853229Y-65363868D01*
X91864513Y-65359194D01*
X91865207Y-65360870D01*
X91917785Y-65344407D01*
X91975099Y-65360129D01*
X91975487Y-65359194D01*
X91982935Y-65362279D01*
X91985165Y-65362891D01*
X91986530Y-65363768D01*
X91986770Y-65363868D01*
X92045247Y-65375499D01*
X92045250Y-65375500D01*
X92045252Y-65375500D01*
X92614750Y-65375500D01*
X92614751Y-65375499D01*
X92629568Y-65372552D01*
X92673229Y-65363868D01*
X92673229Y-65363867D01*
X92673231Y-65363867D01*
X92739552Y-65319552D01*
X92783867Y-65253231D01*
X92783867Y-65253229D01*
X92783868Y-65253229D01*
X92795499Y-65194752D01*
X92795500Y-65194750D01*
X92795500Y-64643676D01*
X92815185Y-64576637D01*
X92831819Y-64555995D01*
X92840500Y-64547314D01*
X92906392Y-64433186D01*
X92940500Y-64305892D01*
X92940500Y-64174108D01*
X92906392Y-64046814D01*
X92840500Y-63932686D01*
X92747314Y-63839500D01*
X92747313Y-63839499D01*
X92741696Y-63835189D01*
X92700493Y-63778761D01*
X92696339Y-63709015D01*
X92717118Y-63663581D01*
X92730063Y-63645891D01*
X92739552Y-63639552D01*
X92783867Y-63573231D01*
X92784100Y-63572056D01*
X92791997Y-63561267D01*
X92817713Y-63541578D01*
X92842572Y-63520804D01*
X92845700Y-63520152D01*
X92847475Y-63518794D01*
X92855338Y-63518146D01*
X92892062Y-63510500D01*
X93873811Y-63510500D01*
X93940850Y-63530185D01*
X93961492Y-63546819D01*
X94063181Y-63648508D01*
X94096666Y-63709831D01*
X94099500Y-63736189D01*
X94099500Y-66413811D01*
X94079815Y-66480850D01*
X94063181Y-66501492D01*
X42142987Y-118421685D01*
X42142983Y-118421691D01*
X42100131Y-118495911D01*
X42100132Y-118495912D01*
X42077950Y-118578697D01*
X42077950Y-150569019D01*
X42058265Y-150636058D01*
X42022841Y-150672121D01*
X41980447Y-150700447D01*
X41936132Y-150766769D01*
X41936131Y-150766770D01*
X41924500Y-150825247D01*
X41924500Y-151594752D01*
X41936131Y-151653229D01*
X41936132Y-151653230D01*
X41980447Y-151719552D01*
X42046769Y-151763867D01*
X42046770Y-151763868D01*
X42105247Y-151775499D01*
X42105250Y-151775500D01*
X42105252Y-151775500D01*
X42674750Y-151775500D01*
X42674751Y-151775499D01*
X42689568Y-151772552D01*
X42733229Y-151763868D01*
X42733229Y-151763867D01*
X42733231Y-151763867D01*
X42799552Y-151719552D01*
X42843867Y-151653231D01*
X42843867Y-151653229D01*
X42843868Y-151653229D01*
X42855499Y-151594752D01*
X42855500Y-151594750D01*
X42855500Y-150825249D01*
X42855499Y-150825247D01*
X42843868Y-150766770D01*
X42843867Y-150766769D01*
X42799551Y-150700446D01*
X42784058Y-150690094D01*
X42739253Y-150636481D01*
X42728950Y-150586993D01*
X42728950Y-136484108D01*
X48569500Y-136484108D01*
X48569500Y-136615891D01*
X48603608Y-136743187D01*
X48636554Y-136800250D01*
X48669500Y-136857314D01*
X48762686Y-136950500D01*
X48876814Y-137016392D01*
X49004108Y-137050500D01*
X49004110Y-137050500D01*
X49135890Y-137050500D01*
X49135892Y-137050500D01*
X49263186Y-137016392D01*
X49377314Y-136950500D01*
X49470500Y-136857314D01*
X49536392Y-136743186D01*
X49570500Y-136615892D01*
X49570500Y-136484108D01*
X49536392Y-136356814D01*
X49470500Y-136242686D01*
X49377314Y-136149500D01*
X49320250Y-136116554D01*
X49263187Y-136083608D01*
X49199539Y-136066554D01*
X49135892Y-136049500D01*
X49004108Y-136049500D01*
X48876812Y-136083608D01*
X48762686Y-136149500D01*
X48762683Y-136149502D01*
X48669502Y-136242683D01*
X48669500Y-136242686D01*
X48603608Y-136356812D01*
X48569500Y-136484108D01*
X42728950Y-136484108D01*
X42728950Y-118807737D01*
X42748635Y-118740698D01*
X42765264Y-118720061D01*
X94614652Y-66870672D01*
X94614657Y-66870669D01*
X94624860Y-66860465D01*
X94624862Y-66860465D01*
X94685465Y-66799862D01*
X94728318Y-66725638D01*
X94732323Y-66710691D01*
X94750501Y-66642852D01*
X94750501Y-66557147D01*
X94750500Y-66557143D01*
X94750500Y-63507147D01*
X94728318Y-63424362D01*
X94728314Y-63424355D01*
X94685469Y-63350144D01*
X94685463Y-63350136D01*
X94259863Y-62924536D01*
X94259862Y-62924535D01*
X94216500Y-62899500D01*
X94185640Y-62881682D01*
X94143709Y-62870447D01*
X94102853Y-62859500D01*
X94102852Y-62859500D01*
X93593402Y-62859500D01*
X93526363Y-62839815D01*
X93486015Y-62797500D01*
X93425502Y-62692689D01*
X93425497Y-62692683D01*
X93332316Y-62599502D01*
X93332314Y-62599500D01*
X93271692Y-62564500D01*
X93218187Y-62533608D01*
X93154539Y-62516554D01*
X93090892Y-62499500D01*
X92959108Y-62499500D01*
X92831812Y-62533608D01*
X92775637Y-62566041D01*
X92707737Y-62582513D01*
X92685407Y-62577516D01*
X92685209Y-62578515D01*
X92614751Y-62564500D01*
X92614748Y-62564500D01*
X92084500Y-62564500D01*
X92017461Y-62544815D01*
X91971706Y-62492011D01*
X91960500Y-62440500D01*
X91960500Y-62320693D01*
X91960500Y-62320691D01*
X91929799Y-62206114D01*
X91917731Y-62185212D01*
X91917731Y-62185211D01*
X91870492Y-62103390D01*
X91870488Y-62103385D01*
X91598113Y-61831010D01*
X91570841Y-61783771D01*
X91569504Y-61784326D01*
X91566392Y-61776815D01*
X91566392Y-61776814D01*
X91500500Y-61662686D01*
X91407314Y-61569500D01*
X91350250Y-61536554D01*
X91293187Y-61503608D01*
X91220959Y-61484255D01*
X91165892Y-61469500D01*
X91034108Y-61469500D01*
X91034104Y-61469500D01*
X90979037Y-61484255D01*
X90967035Y-61483969D01*
X90955787Y-61488164D01*
X90932752Y-61483152D01*
X90909187Y-61482591D01*
X90897539Y-61475490D01*
X90887515Y-61473310D01*
X90859263Y-61452159D01*
X90846814Y-61439710D01*
X90813332Y-61378385D01*
X90810499Y-61352032D01*
X90810499Y-61330105D01*
X90810499Y-61330100D01*
X90803972Y-61280513D01*
X90755657Y-61176902D01*
X90745166Y-61107828D01*
X90773685Y-61044044D01*
X90832162Y-61005804D01*
X90868040Y-61000500D01*
X176438811Y-61000500D01*
X176505850Y-61020185D01*
G37*
%TD.AperFunction*%
%TA.AperFunction,Conductor*%
G36*
X176740850Y-53565185D02*
G01*
X176761492Y-53581819D01*
X189239534Y-66059861D01*
X189239535Y-66059862D01*
X189300138Y-66120465D01*
X189300140Y-66120466D01*
X189300144Y-66120469D01*
X189374355Y-66163314D01*
X189374362Y-66163318D01*
X189457147Y-66185500D01*
X189457149Y-66185500D01*
X191957851Y-66185500D01*
X191957853Y-66185500D01*
X192040639Y-66163318D01*
X192114862Y-66120465D01*
X192573508Y-65661819D01*
X192600435Y-65647115D01*
X192626254Y-65630523D01*
X192632454Y-65629631D01*
X192634831Y-65628334D01*
X192661189Y-65625500D01*
X192844400Y-65625500D01*
X192911439Y-65645185D01*
X192957194Y-65697989D01*
X192968400Y-65749500D01*
X192968400Y-65983133D01*
X192948715Y-66050172D01*
X192932081Y-66070815D01*
X192779713Y-66223182D01*
X192718390Y-66256666D01*
X192692053Y-66259500D01*
X192690110Y-66259500D01*
X192690102Y-66259500D01*
X192690100Y-66259501D01*
X192640513Y-66266028D01*
X192640511Y-66266028D01*
X192640510Y-66266029D01*
X192640509Y-66266029D01*
X192531683Y-66316776D01*
X192446776Y-66401683D01*
X192396027Y-66510514D01*
X192389500Y-66560098D01*
X192389500Y-66979894D01*
X192389501Y-66979900D01*
X192396028Y-67029487D01*
X192446776Y-67138316D01*
X192531684Y-67223224D01*
X192640513Y-67273972D01*
X192690099Y-67280500D01*
X193049900Y-67280499D01*
X193099487Y-67273972D01*
X193208316Y-67223224D01*
X193293224Y-67138316D01*
X193343972Y-67029487D01*
X193350500Y-66979901D01*
X193350499Y-66977981D01*
X193350661Y-66977431D01*
X193350765Y-66975850D01*
X193351118Y-66975873D01*
X193370172Y-66910942D01*
X193386809Y-66890293D01*
X193779390Y-66497714D01*
X193786926Y-66484661D01*
X193837488Y-66436447D01*
X193906095Y-66423221D01*
X193965546Y-66446612D01*
X193965648Y-66446436D01*
X193966824Y-66447115D01*
X193969805Y-66448288D01*
X193972683Y-66450497D01*
X193972686Y-66450500D01*
X193972688Y-66450501D01*
X194061006Y-66501492D01*
X194086814Y-66516392D01*
X194214108Y-66550500D01*
X194214110Y-66550500D01*
X194345890Y-66550500D01*
X194345892Y-66550500D01*
X194473186Y-66516392D01*
X194587314Y-66450500D01*
X194680500Y-66357314D01*
X194746392Y-66243186D01*
X194780500Y-66115892D01*
X194780500Y-65984108D01*
X194746392Y-65856814D01*
X194680500Y-65742686D01*
X194587314Y-65649500D01*
X194473186Y-65583608D01*
X194473184Y-65583607D01*
X194466148Y-65579545D01*
X194466715Y-65578561D01*
X194435814Y-65557911D01*
X194001819Y-65123916D01*
X193968334Y-65062593D01*
X193965500Y-65036235D01*
X193965500Y-64675249D01*
X193965499Y-64675247D01*
X193953868Y-64616770D01*
X193953867Y-64616769D01*
X193909552Y-64550447D01*
X193843230Y-64506132D01*
X193843229Y-64506131D01*
X193784752Y-64494500D01*
X193784748Y-64494500D01*
X193215252Y-64494500D01*
X193215247Y-64494500D01*
X193156770Y-64506131D01*
X193145487Y-64510806D01*
X193144792Y-64509130D01*
X193092205Y-64525592D01*
X193034901Y-64509867D01*
X193034513Y-64510806D01*
X193027040Y-64507710D01*
X193024826Y-64507103D01*
X193023469Y-64506231D01*
X193023229Y-64506131D01*
X192964752Y-64494500D01*
X192964748Y-64494500D01*
X192395252Y-64494500D01*
X192395247Y-64494500D01*
X192336770Y-64506131D01*
X192336769Y-64506132D01*
X192270447Y-64550447D01*
X192226132Y-64616769D01*
X192226131Y-64616770D01*
X192214500Y-64675247D01*
X192214500Y-65048811D01*
X192194815Y-65115850D01*
X192178181Y-65136492D01*
X191816492Y-65498181D01*
X191755169Y-65531666D01*
X191728811Y-65534500D01*
X189686189Y-65534500D01*
X189619150Y-65514815D01*
X189598508Y-65498181D01*
X188282740Y-64182413D01*
X191144500Y-64182413D01*
X191144500Y-64257586D01*
X191163956Y-64330200D01*
X191182749Y-64362750D01*
X191201543Y-64395301D01*
X191254699Y-64448457D01*
X191319801Y-64486044D01*
X191392413Y-64505500D01*
X191392415Y-64505500D01*
X191467585Y-64505500D01*
X191467587Y-64505500D01*
X191540199Y-64486044D01*
X191605301Y-64448457D01*
X191658457Y-64395301D01*
X191696044Y-64330199D01*
X191715500Y-64257587D01*
X191715500Y-64182413D01*
X191696044Y-64109801D01*
X191658457Y-64044699D01*
X191605301Y-63991543D01*
X191572750Y-63972749D01*
X191540200Y-63953956D01*
X191503893Y-63944228D01*
X191467587Y-63934500D01*
X191392413Y-63934500D01*
X191319799Y-63953956D01*
X191254699Y-63991543D01*
X191254696Y-63991545D01*
X191201545Y-64044696D01*
X191201543Y-64044699D01*
X191163956Y-64109799D01*
X191144500Y-64182413D01*
X188282740Y-64182413D01*
X177857508Y-53757181D01*
X177824023Y-53695858D01*
X177829007Y-53626166D01*
X177870879Y-53570233D01*
X177936343Y-53545816D01*
X177945189Y-53545500D01*
X186963811Y-53545500D01*
X187030850Y-53565185D01*
X187051492Y-53581819D01*
X245900681Y-112431008D01*
X245934166Y-112492331D01*
X245937000Y-112518689D01*
X245937000Y-146301311D01*
X245917315Y-146368350D01*
X245900681Y-146388992D01*
X243739537Y-148550135D01*
X243739533Y-148550141D01*
X243696681Y-148624361D01*
X243696682Y-148624362D01*
X243674500Y-148707147D01*
X243674500Y-150089160D01*
X243654815Y-150156199D01*
X243602011Y-150201954D01*
X243532853Y-150211898D01*
X243526309Y-150210777D01*
X243494752Y-150204500D01*
X243494748Y-150204500D01*
X242925252Y-150204500D01*
X242869778Y-150215534D01*
X242813495Y-150213691D01*
X242813186Y-150213608D01*
X242685892Y-150179500D01*
X242554108Y-150179500D01*
X242426812Y-150213608D01*
X242312686Y-150279500D01*
X242312683Y-150279502D01*
X242219502Y-150372683D01*
X242219500Y-150372686D01*
X242153608Y-150486812D01*
X242119500Y-150614108D01*
X242119500Y-150745891D01*
X242153608Y-150873187D01*
X242176102Y-150912147D01*
X242219500Y-150987314D01*
X242312686Y-151080500D01*
X242426814Y-151146392D01*
X242554108Y-151180500D01*
X242554110Y-151180500D01*
X242667983Y-151180500D01*
X242735022Y-151200185D01*
X242754862Y-151216024D01*
X242763984Y-151224982D01*
X242800448Y-151279552D01*
X242860253Y-151319512D01*
X242868560Y-151327670D01*
X242868700Y-151327922D01*
X242869362Y-151328465D01*
X242901386Y-151360489D01*
X242901388Y-151360490D01*
X242901392Y-151360493D01*
X242937856Y-151381545D01*
X243004113Y-151419798D01*
X243118690Y-151450499D01*
X243118693Y-151450499D01*
X243237306Y-151450499D01*
X243237309Y-151450499D01*
X243351887Y-151419798D01*
X243454614Y-151360489D01*
X243454619Y-151360483D01*
X243461059Y-151355543D01*
X243462505Y-151357427D01*
X243469011Y-151349791D01*
X243491258Y-151340698D01*
X243500991Y-151334860D01*
X243506785Y-151333105D01*
X243553231Y-151323867D01*
X243566431Y-151315046D01*
X243584067Y-151309707D01*
X243601321Y-151309562D01*
X243617785Y-151304407D01*
X243635531Y-151309275D01*
X243653934Y-151309121D01*
X243668526Y-151318326D01*
X243675099Y-151320129D01*
X243675487Y-151319194D01*
X243682935Y-151322279D01*
X243685165Y-151322891D01*
X243686530Y-151323768D01*
X243686770Y-151323868D01*
X243745247Y-151335499D01*
X243745250Y-151335500D01*
X243745252Y-151335500D01*
X244314750Y-151335500D01*
X244314751Y-151335499D01*
X244329568Y-151332552D01*
X244373229Y-151323868D01*
X244373229Y-151323867D01*
X244373231Y-151323867D01*
X244439552Y-151279552D01*
X244483867Y-151213231D01*
X244483867Y-151213229D01*
X244483868Y-151213229D01*
X244495477Y-151154862D01*
X244495500Y-151154748D01*
X244495500Y-150385252D01*
X244495500Y-150385249D01*
X244495499Y-150385247D01*
X244483868Y-150326770D01*
X244483867Y-150326769D01*
X244439551Y-150260446D01*
X244380608Y-150221061D01*
X244335804Y-150167449D01*
X244325500Y-150117960D01*
X244325500Y-148936189D01*
X244345185Y-148869150D01*
X244361819Y-148848508D01*
X246207319Y-147003008D01*
X246268642Y-146969523D01*
X246338334Y-146974507D01*
X246382681Y-147003008D01*
X248008181Y-148628508D01*
X248041666Y-148689831D01*
X248044500Y-148716189D01*
X248044500Y-154612852D01*
X248066682Y-154695640D01*
X248078375Y-154715892D01*
X248109535Y-154769862D01*
X248109537Y-154769864D01*
X249038181Y-155698508D01*
X249071666Y-155759831D01*
X249074500Y-155786189D01*
X249074500Y-182813811D01*
X249054815Y-182880850D01*
X249038181Y-182901492D01*
X247351492Y-184588181D01*
X247290169Y-184621666D01*
X247263811Y-184624500D01*
X246680495Y-184624500D01*
X246613456Y-184604815D01*
X246567701Y-184552011D01*
X246557757Y-184482853D01*
X246586782Y-184419297D01*
X246592814Y-184412819D01*
X246655974Y-184349658D01*
X246655975Y-184349657D01*
X246655977Y-184349655D01*
X246770941Y-184177598D01*
X246850130Y-183986420D01*
X246890500Y-183783465D01*
X246890500Y-183576535D01*
X246850130Y-183373580D01*
X246770941Y-183182402D01*
X246655977Y-183010345D01*
X246655975Y-183010342D01*
X246509657Y-182864024D01*
X246351738Y-182758507D01*
X246337598Y-182749059D01*
X246146420Y-182669870D01*
X246146412Y-182669868D01*
X245943469Y-182629500D01*
X245943465Y-182629500D01*
X245736535Y-182629500D01*
X245736530Y-182629500D01*
X245533587Y-182669868D01*
X245533579Y-182669870D01*
X245342403Y-182749058D01*
X245170342Y-182864024D01*
X245170341Y-182864025D01*
X245087181Y-182947186D01*
X245067744Y-182957798D01*
X245051011Y-182972299D01*
X245037679Y-182974215D01*
X245025858Y-182980671D01*
X245003771Y-182979091D01*
X244981853Y-182982243D01*
X244969601Y-182976647D01*
X244956166Y-182975687D01*
X244938439Y-182962416D01*
X244918297Y-182953218D01*
X244911014Y-182941886D01*
X244900233Y-182933815D01*
X244892495Y-182913069D01*
X244880523Y-182894440D01*
X244877371Y-182872521D01*
X244875816Y-182868351D01*
X244875500Y-182859505D01*
X244875500Y-182846188D01*
X244895185Y-182779149D01*
X244911815Y-182758511D01*
X245475551Y-182194774D01*
X245536872Y-182161291D01*
X245587421Y-182160840D01*
X245736530Y-182190499D01*
X245736534Y-182190500D01*
X245736535Y-182190500D01*
X245943466Y-182190500D01*
X245943467Y-182190499D01*
X246146420Y-182150130D01*
X246337598Y-182070941D01*
X246509655Y-181955977D01*
X246655977Y-181809655D01*
X246770941Y-181637598D01*
X246850130Y-181446420D01*
X246890500Y-181243465D01*
X246890500Y-181036535D01*
X246850130Y-180833580D01*
X246770941Y-180642402D01*
X246655977Y-180470345D01*
X246655976Y-180470344D01*
X246655975Y-180470342D01*
X246509657Y-180324024D01*
X246423626Y-180266541D01*
X246337598Y-180209059D01*
X246146420Y-180129870D01*
X246146412Y-180129868D01*
X245943469Y-180089500D01*
X245943465Y-180089500D01*
X245736535Y-180089500D01*
X245736530Y-180089500D01*
X245533587Y-180129868D01*
X245533579Y-180129870D01*
X245342403Y-180209058D01*
X245170342Y-180324024D01*
X245024022Y-180470344D01*
X245020352Y-180474817D01*
X244962606Y-180514151D01*
X244892762Y-180516020D01*
X244832994Y-180479832D01*
X244802278Y-180417076D01*
X244800500Y-180396151D01*
X244800500Y-179343848D01*
X244820185Y-179276809D01*
X244872989Y-179231054D01*
X244942147Y-179221110D01*
X245005703Y-179250135D01*
X245020357Y-179265187D01*
X245024030Y-179269663D01*
X245170342Y-179415975D01*
X245170345Y-179415977D01*
X245342402Y-179530941D01*
X245533580Y-179610130D01*
X245736530Y-179650499D01*
X245736534Y-179650500D01*
X245736535Y-179650500D01*
X245943466Y-179650500D01*
X245943467Y-179650499D01*
X246146420Y-179610130D01*
X246337598Y-179530941D01*
X246509655Y-179415977D01*
X246655977Y-179269655D01*
X246770941Y-179097598D01*
X246850130Y-178906420D01*
X246890500Y-178703465D01*
X246890500Y-178496535D01*
X246850130Y-178293580D01*
X246770941Y-178102402D01*
X246655977Y-177930345D01*
X246655976Y-177930344D01*
X246655975Y-177930342D01*
X246509657Y-177784024D01*
X246342303Y-177672203D01*
X246337598Y-177669059D01*
X246146420Y-177589870D01*
X246146412Y-177589868D01*
X245943469Y-177549500D01*
X245943465Y-177549500D01*
X245736535Y-177549500D01*
X245736530Y-177549500D01*
X245533587Y-177589868D01*
X245533579Y-177589870D01*
X245342403Y-177669058D01*
X245170342Y-177784024D01*
X245024022Y-177930344D01*
X245020352Y-177934817D01*
X244962606Y-177974151D01*
X244892762Y-177976020D01*
X244832994Y-177939832D01*
X244802278Y-177877076D01*
X244800500Y-177856151D01*
X244800500Y-173409488D01*
X244820185Y-173342449D01*
X244836819Y-173321807D01*
X245648758Y-172509868D01*
X246530465Y-171628161D01*
X246573317Y-171553938D01*
X246573318Y-171553937D01*
X246595500Y-171471152D01*
X246595500Y-154567147D01*
X246573318Y-154484362D01*
X246573318Y-154484361D01*
X246530465Y-154410138D01*
X245519862Y-153399535D01*
X245482750Y-153378108D01*
X245445640Y-153356682D01*
X245371026Y-153336690D01*
X245362853Y-153334500D01*
X245362852Y-153334500D01*
X245113368Y-153334500D01*
X245046329Y-153314815D01*
X245000574Y-153262011D01*
X244990630Y-153192853D01*
X244993593Y-153178407D01*
X245027360Y-153052386D01*
X245027360Y-152920602D01*
X244993252Y-152793308D01*
X244927360Y-152679180D01*
X244834174Y-152585994D01*
X244777110Y-152553048D01*
X244720047Y-152520102D01*
X244639775Y-152498593D01*
X244592752Y-152485994D01*
X244592751Y-152485994D01*
X244587407Y-152484562D01*
X244527746Y-152448197D01*
X244497217Y-152385350D01*
X244495500Y-152364787D01*
X244495500Y-152065249D01*
X244495499Y-152065247D01*
X244483868Y-152006770D01*
X244483867Y-152006769D01*
X244439552Y-151940447D01*
X244373230Y-151896132D01*
X244373229Y-151896131D01*
X244314752Y-151884500D01*
X244314748Y-151884500D01*
X243745252Y-151884500D01*
X243745247Y-151884500D01*
X243686770Y-151896131D01*
X243675487Y-151900806D01*
X243674792Y-151899130D01*
X243622205Y-151915592D01*
X243564901Y-151899867D01*
X243564513Y-151900806D01*
X243557040Y-151897710D01*
X243554826Y-151897103D01*
X243553469Y-151896231D01*
X243553229Y-151896131D01*
X243494752Y-151884500D01*
X243494748Y-151884500D01*
X242925252Y-151884500D01*
X242925247Y-151884500D01*
X242866770Y-151896131D01*
X242866769Y-151896132D01*
X242800447Y-151940447D01*
X242752342Y-152012442D01*
X242698729Y-152057247D01*
X242629404Y-152065954D01*
X242566377Y-152035799D01*
X242561559Y-152031232D01*
X242102740Y-151572413D01*
X244994500Y-151572413D01*
X244994500Y-151647587D01*
X245004228Y-151683893D01*
X245013956Y-151720200D01*
X245032749Y-151752750D01*
X245051543Y-151785301D01*
X245104699Y-151838457D01*
X245169801Y-151876044D01*
X245242413Y-151895500D01*
X245242415Y-151895500D01*
X245317585Y-151895500D01*
X245317587Y-151895500D01*
X245390199Y-151876044D01*
X245455301Y-151838457D01*
X245508457Y-151785301D01*
X245546044Y-151720199D01*
X245565500Y-151647587D01*
X245565500Y-151572413D01*
X245546044Y-151499801D01*
X245508457Y-151434699D01*
X245455301Y-151381543D01*
X245416029Y-151358869D01*
X245390200Y-151343956D01*
X245353893Y-151334228D01*
X245317587Y-151324500D01*
X245242413Y-151324500D01*
X245169799Y-151343956D01*
X245104699Y-151381543D01*
X245104696Y-151381545D01*
X245051545Y-151434696D01*
X245051543Y-151434699D01*
X245013956Y-151499799D01*
X244994500Y-151572413D01*
X242102740Y-151572413D01*
X241386819Y-150856492D01*
X241353334Y-150795169D01*
X241350500Y-150768811D01*
X241350500Y-112439149D01*
X241350500Y-112439147D01*
X241328318Y-112356362D01*
X241328314Y-112356355D01*
X241285469Y-112282144D01*
X241285463Y-112282136D01*
X241224864Y-112221537D01*
X241224862Y-112221535D01*
X241196408Y-112205107D01*
X241170727Y-112185401D01*
X196011819Y-67026492D01*
X195978334Y-66965169D01*
X195975500Y-66938811D01*
X195975500Y-65232149D01*
X195975500Y-65232147D01*
X195953318Y-65149362D01*
X195924919Y-65100173D01*
X195910469Y-65075144D01*
X195910463Y-65075136D01*
X194124864Y-63289537D01*
X194124862Y-63289535D01*
X194082008Y-63264793D01*
X194050638Y-63246681D01*
X194043135Y-63243574D01*
X194044379Y-63240570D01*
X193997688Y-63212066D01*
X193967203Y-63149197D01*
X193965500Y-63128720D01*
X193965500Y-62995249D01*
X193965499Y-62995247D01*
X193953868Y-62936770D01*
X193953867Y-62936769D01*
X193909552Y-62870447D01*
X193843230Y-62826132D01*
X193843229Y-62826131D01*
X193784752Y-62814500D01*
X193784748Y-62814500D01*
X193215252Y-62814500D01*
X193215247Y-62814500D01*
X193156770Y-62826131D01*
X193156769Y-62826132D01*
X193090447Y-62870447D01*
X193046132Y-62936769D01*
X193046131Y-62936770D01*
X193034500Y-62995247D01*
X193034500Y-63764752D01*
X193046131Y-63823229D01*
X193046132Y-63823230D01*
X193090447Y-63889552D01*
X193156769Y-63933867D01*
X193156770Y-63933868D01*
X193215247Y-63945499D01*
X193215250Y-63945500D01*
X193215252Y-63945500D01*
X193784750Y-63945500D01*
X193790813Y-63944903D01*
X193790986Y-63946663D01*
X193852239Y-63952142D01*
X193894526Y-63979853D01*
X195288181Y-65373508D01*
X195321666Y-65434831D01*
X195324500Y-65461189D01*
X195324500Y-67167852D01*
X195346682Y-67250640D01*
X195360152Y-67273970D01*
X195389535Y-67324862D01*
X195389536Y-67324863D01*
X195389537Y-67324864D01*
X240663181Y-112598507D01*
X240696666Y-112659830D01*
X240699500Y-112686188D01*
X240699500Y-150997852D01*
X240721682Y-151080640D01*
X240743108Y-151117750D01*
X240764535Y-151154862D01*
X242320138Y-152710465D01*
X242394361Y-152753318D01*
X242477147Y-152775500D01*
X242562853Y-152775500D01*
X242630950Y-152775500D01*
X242697989Y-152795185D01*
X242732063Y-152827721D01*
X242747399Y-152849325D01*
X242756133Y-152893231D01*
X242800448Y-152959552D01*
X242848388Y-152991585D01*
X242861613Y-153010214D01*
X242865851Y-153022518D01*
X242874195Y-153032502D01*
X242881690Y-153068502D01*
X242884368Y-153076274D01*
X242883796Y-153078614D01*
X242884500Y-153081993D01*
X242884500Y-153380852D01*
X242906682Y-153463640D01*
X242913348Y-153475185D01*
X242949535Y-153537862D01*
X242949537Y-153537864D01*
X243332138Y-153920465D01*
X243369250Y-153941891D01*
X243369252Y-153941893D01*
X243406358Y-153963317D01*
X243406360Y-153963317D01*
X243406361Y-153963318D01*
X243489147Y-153985501D01*
X243489149Y-153985501D01*
X243582449Y-153985501D01*
X243582465Y-153985500D01*
X244053598Y-153985500D01*
X244120637Y-154005185D01*
X244166392Y-154057989D01*
X244176336Y-154127147D01*
X244147311Y-154190703D01*
X244141279Y-154197181D01*
X244076776Y-154261683D01*
X244026027Y-154370514D01*
X244019500Y-154420098D01*
X244019500Y-154839894D01*
X244019934Y-154843188D01*
X244026028Y-154889487D01*
X244026029Y-154889489D01*
X244026029Y-154889490D01*
X244052286Y-154945797D01*
X244076776Y-154998316D01*
X244161684Y-155083224D01*
X244270513Y-155133972D01*
X244320099Y-155140500D01*
X244679900Y-155140499D01*
X244729487Y-155133972D01*
X244801041Y-155100605D01*
X244870116Y-155090114D01*
X244909219Y-155103475D01*
X244909300Y-155103280D01*
X244912371Y-155104552D01*
X244915447Y-155105603D01*
X244916814Y-155106392D01*
X245044108Y-155140500D01*
X245044110Y-155140500D01*
X245175890Y-155140500D01*
X245175892Y-155140500D01*
X245303186Y-155106392D01*
X245417314Y-155040500D01*
X245510500Y-154947314D01*
X245576392Y-154833186D01*
X245610500Y-154705892D01*
X245610500Y-154705883D01*
X245611561Y-154697832D01*
X245614032Y-154698157D01*
X245616738Y-154688943D01*
X245618318Y-154666855D01*
X245626390Y-154656071D01*
X245630185Y-154643150D01*
X245646918Y-154628650D01*
X245660190Y-154610922D01*
X245672810Y-154606214D01*
X245682989Y-154597395D01*
X245704906Y-154594243D01*
X245725654Y-154586505D01*
X245738814Y-154589367D01*
X245752147Y-154587451D01*
X245772290Y-154596650D01*
X245793927Y-154601357D01*
X245811652Y-154614625D01*
X245815703Y-154616476D01*
X245822181Y-154622508D01*
X245908181Y-154708508D01*
X245941666Y-154769831D01*
X245944500Y-154796189D01*
X245944500Y-171242109D01*
X245924815Y-171309148D01*
X245908181Y-171329790D01*
X244331624Y-172906346D01*
X244270301Y-172939831D01*
X244200609Y-172934847D01*
X244144676Y-172892975D01*
X244140841Y-172887556D01*
X244115977Y-172850345D01*
X244115974Y-172850341D01*
X243969657Y-172704024D01*
X243883626Y-172646541D01*
X243797598Y-172589059D01*
X243606420Y-172509870D01*
X243606412Y-172509868D01*
X243403469Y-172469500D01*
X243403465Y-172469500D01*
X243196535Y-172469500D01*
X243196530Y-172469500D01*
X242993587Y-172509868D01*
X242993579Y-172509870D01*
X242802403Y-172589058D01*
X242630342Y-172704024D01*
X242484024Y-172850342D01*
X242369058Y-173022403D01*
X242289870Y-173213579D01*
X242289868Y-173213587D01*
X242249500Y-173416530D01*
X242249500Y-173623469D01*
X242289868Y-173826412D01*
X242289870Y-173826420D01*
X242369058Y-174017596D01*
X242484024Y-174189657D01*
X242630342Y-174335975D01*
X242630345Y-174335977D01*
X242802402Y-174450941D01*
X242993580Y-174530130D01*
X243196530Y-174570499D01*
X243196534Y-174570500D01*
X243196535Y-174570500D01*
X243403466Y-174570500D01*
X243403467Y-174570499D01*
X243606420Y-174530130D01*
X243797598Y-174450941D01*
X243797599Y-174450940D01*
X243797600Y-174450940D01*
X243956610Y-174344694D01*
X244023287Y-174323816D01*
X244090667Y-174342301D01*
X244137357Y-174394280D01*
X244149500Y-174447796D01*
X244149500Y-175132203D01*
X244129815Y-175199242D01*
X244077011Y-175244997D01*
X244007853Y-175254941D01*
X243956610Y-175235306D01*
X243802303Y-175132203D01*
X243797598Y-175129059D01*
X243606420Y-175049870D01*
X243606412Y-175049868D01*
X243403469Y-175009500D01*
X243403465Y-175009500D01*
X243196535Y-175009500D01*
X243196530Y-175009500D01*
X242993587Y-175049868D01*
X242993579Y-175049870D01*
X242802403Y-175129058D01*
X242630342Y-175244024D01*
X242484024Y-175390342D01*
X242369058Y-175562403D01*
X242289870Y-175753579D01*
X242289868Y-175753587D01*
X242249500Y-175956530D01*
X242249500Y-176163469D01*
X242289868Y-176366412D01*
X242289870Y-176366420D01*
X242369058Y-176557596D01*
X242484024Y-176729657D01*
X242630342Y-176875975D01*
X242630345Y-176875977D01*
X242802402Y-176990941D01*
X242993580Y-177070130D01*
X243196530Y-177110499D01*
X243196534Y-177110500D01*
X243196535Y-177110500D01*
X243403466Y-177110500D01*
X243403467Y-177110499D01*
X243606420Y-177070130D01*
X243797598Y-176990941D01*
X243797599Y-176990940D01*
X243797600Y-176990940D01*
X243956610Y-176884694D01*
X244023287Y-176863816D01*
X244090667Y-176882301D01*
X244137357Y-176934280D01*
X244149500Y-176987796D01*
X244149500Y-177672203D01*
X244129815Y-177739242D01*
X244077011Y-177784997D01*
X244007853Y-177794941D01*
X243956610Y-177775306D01*
X243802303Y-177672203D01*
X243797598Y-177669059D01*
X243606420Y-177589870D01*
X243606412Y-177589868D01*
X243403469Y-177549500D01*
X243403465Y-177549500D01*
X243196535Y-177549500D01*
X243196530Y-177549500D01*
X242993587Y-177589868D01*
X242993579Y-177589870D01*
X242802403Y-177669058D01*
X242630342Y-177784024D01*
X242484024Y-177930342D01*
X242369058Y-178102403D01*
X242289870Y-178293579D01*
X242289868Y-178293587D01*
X242249500Y-178496530D01*
X242249500Y-178703469D01*
X242289868Y-178906412D01*
X242289870Y-178906420D01*
X242369058Y-179097596D01*
X242484024Y-179269657D01*
X242630342Y-179415975D01*
X242630345Y-179415977D01*
X242802402Y-179530941D01*
X242993580Y-179610130D01*
X243196530Y-179650499D01*
X243196534Y-179650500D01*
X243196535Y-179650500D01*
X243403466Y-179650500D01*
X243403467Y-179650499D01*
X243606420Y-179610130D01*
X243797598Y-179530941D01*
X243797599Y-179530940D01*
X243797600Y-179530940D01*
X243956610Y-179424694D01*
X244023287Y-179403816D01*
X244090667Y-179422301D01*
X244137357Y-179474280D01*
X244149500Y-179527796D01*
X244149500Y-181628811D01*
X244129815Y-181695850D01*
X244113181Y-181716492D01*
X243227674Y-182601998D01*
X243166351Y-182635483D01*
X243164184Y-182635934D01*
X242993587Y-182669868D01*
X242993579Y-182669870D01*
X242802403Y-182749058D01*
X242630342Y-182864024D01*
X242484024Y-183010342D01*
X242369058Y-183182403D01*
X242289870Y-183373579D01*
X242289868Y-183373587D01*
X242249500Y-183576530D01*
X242249500Y-183783469D01*
X242289868Y-183986412D01*
X242289870Y-183986420D01*
X242369058Y-184177596D01*
X242484024Y-184349657D01*
X242547186Y-184412819D01*
X242580671Y-184474142D01*
X242575687Y-184543834D01*
X242533815Y-184599767D01*
X242468351Y-184624184D01*
X242459505Y-184624500D01*
X241927147Y-184624500D01*
X241844359Y-184646682D01*
X241770138Y-184689535D01*
X241770135Y-184689537D01*
X240829537Y-185630135D01*
X240829533Y-185630141D01*
X240786681Y-185704361D01*
X240786682Y-185704362D01*
X240764500Y-185787147D01*
X240764500Y-201375500D01*
X240763023Y-201380527D01*
X240764083Y-201385657D01*
X240753282Y-201413702D01*
X240744815Y-201442539D01*
X240740856Y-201445969D01*
X240738973Y-201450859D01*
X240714719Y-201468617D01*
X240692011Y-201488294D01*
X240685690Y-201489871D01*
X240682599Y-201492135D01*
X240662619Y-201495630D01*
X240648034Y-201499271D01*
X240644272Y-201499500D01*
X240466377Y-201499500D01*
X240414085Y-201513511D01*
X240401605Y-201514271D01*
X240399487Y-201513786D01*
X240394071Y-201514500D01*
X239569331Y-201514500D01*
X239502292Y-201494815D01*
X239456537Y-201442011D01*
X239446593Y-201372853D01*
X239475618Y-201309297D01*
X239481650Y-201302819D01*
X239499429Y-201285040D01*
X239529065Y-201255404D01*
X239579068Y-201148173D01*
X239585500Y-201099316D01*
X239585500Y-200650684D01*
X239579068Y-200601827D01*
X239529065Y-200494596D01*
X239448185Y-200413716D01*
X239414700Y-200352393D01*
X239419684Y-200282701D01*
X239448181Y-200238358D01*
X239518224Y-200168316D01*
X239568972Y-200059487D01*
X239575500Y-200009901D01*
X239575499Y-199590100D01*
X239568972Y-199540513D01*
X239518224Y-199431684D01*
X239433316Y-199346776D01*
X239324487Y-199296028D01*
X239324485Y-199296027D01*
X239324486Y-199296027D01*
X239274902Y-199289500D01*
X238915102Y-199289500D01*
X238892307Y-199292501D01*
X238823272Y-199281732D01*
X238771018Y-199235350D01*
X238752136Y-199168080D01*
X238772620Y-199101280D01*
X238788441Y-199081885D01*
X240060465Y-197809862D01*
X240103318Y-197735639D01*
X240125500Y-197652853D01*
X240125500Y-197567147D01*
X240125500Y-161136189D01*
X240145185Y-161069150D01*
X240161819Y-161048508D01*
X242473508Y-158736819D01*
X242534831Y-158703334D01*
X242561189Y-158700500D01*
X243527851Y-158700500D01*
X243527853Y-158700500D01*
X243610639Y-158678318D01*
X243684862Y-158635465D01*
X244560465Y-157759862D01*
X244603318Y-157685639D01*
X244625500Y-157602853D01*
X244625500Y-157602844D01*
X244626561Y-157594793D01*
X244630030Y-157595249D01*
X244645185Y-157543641D01*
X244646399Y-157541788D01*
X244688867Y-157478231D01*
X244688868Y-157478229D01*
X244700499Y-157419752D01*
X244700500Y-157419750D01*
X244700500Y-156880249D01*
X244700499Y-156880247D01*
X244688868Y-156821770D01*
X244688867Y-156821769D01*
X244644552Y-156755447D01*
X244578230Y-156711132D01*
X244578231Y-156711132D01*
X244573015Y-156710095D01*
X244570625Y-156708844D01*
X244567934Y-156708972D01*
X244539854Y-156692747D01*
X244511105Y-156677708D01*
X244509771Y-156675365D01*
X244507437Y-156674017D01*
X244492581Y-156645176D01*
X244476533Y-156616991D01*
X244476677Y-156614299D01*
X244475443Y-156611903D01*
X244478537Y-156579615D01*
X244480274Y-156547222D01*
X244481929Y-156544212D01*
X244482108Y-156542352D01*
X244487191Y-156534648D01*
X244499766Y-156511792D01*
X244504313Y-156506013D01*
X244560465Y-156449862D01*
X244588964Y-156400500D01*
X244603318Y-156375638D01*
X244625500Y-156292853D01*
X244625500Y-156292851D01*
X244627603Y-156285003D01*
X244629271Y-156285450D01*
X244644808Y-156244169D01*
X244688867Y-156178231D01*
X244688868Y-156178229D01*
X244700499Y-156119752D01*
X244700500Y-156119750D01*
X244700500Y-155580249D01*
X244700499Y-155580247D01*
X244688868Y-155521770D01*
X244688867Y-155521769D01*
X244644552Y-155455447D01*
X244578230Y-155411132D01*
X244578229Y-155411131D01*
X244519752Y-155399500D01*
X244519748Y-155399500D01*
X244080252Y-155399500D01*
X244080247Y-155399500D01*
X244021770Y-155411131D01*
X244021768Y-155411132D01*
X244018887Y-155413058D01*
X244011655Y-155415322D01*
X244010487Y-155415806D01*
X244010443Y-155415701D01*
X243952209Y-155433933D01*
X243884829Y-155415446D01*
X243881113Y-155413058D01*
X243878231Y-155411132D01*
X243878229Y-155411131D01*
X243819752Y-155399500D01*
X243819748Y-155399500D01*
X243380252Y-155399500D01*
X243380247Y-155399500D01*
X243321770Y-155411131D01*
X243321769Y-155411132D01*
X243255447Y-155455447D01*
X243246131Y-155469391D01*
X243192518Y-155514196D01*
X243143029Y-155524500D01*
X242625465Y-155524500D01*
X242625449Y-155524499D01*
X242617853Y-155524499D01*
X242532147Y-155524499D01*
X242476956Y-155539287D01*
X242449360Y-155546682D01*
X242431235Y-155557147D01*
X242412250Y-155568108D01*
X242375138Y-155589535D01*
X242375135Y-155589537D01*
X237614537Y-160350135D01*
X237614533Y-160350141D01*
X237571681Y-160424361D01*
X237571682Y-160424362D01*
X237549500Y-160507147D01*
X237549500Y-197786603D01*
X237540855Y-197816043D01*
X237534332Y-197846030D01*
X237530577Y-197851045D01*
X237529815Y-197853642D01*
X237513181Y-197874284D01*
X237412181Y-197975284D01*
X237350858Y-198008769D01*
X237281166Y-198003785D01*
X237225233Y-197961913D01*
X237200816Y-197896449D01*
X237200500Y-197887603D01*
X237200500Y-110832149D01*
X237200500Y-110832147D01*
X237178318Y-110749362D01*
X237178314Y-110749355D01*
X237135469Y-110675144D01*
X237135463Y-110675136D01*
X194199864Y-67739537D01*
X194199862Y-67739535D01*
X194162750Y-67718108D01*
X194125640Y-67696682D01*
X194084246Y-67685591D01*
X194042853Y-67674500D01*
X194042852Y-67674500D01*
X193760681Y-67674500D01*
X193693642Y-67654815D01*
X193691790Y-67653602D01*
X193628230Y-67611132D01*
X193628229Y-67611131D01*
X193569752Y-67599500D01*
X193569748Y-67599500D01*
X193030252Y-67599500D01*
X193030247Y-67599500D01*
X192971770Y-67611131D01*
X192971769Y-67611132D01*
X192905447Y-67655447D01*
X192861132Y-67721769D01*
X192861131Y-67721770D01*
X192849500Y-67780247D01*
X192849500Y-67864811D01*
X192843261Y-67886056D01*
X192841682Y-67908145D01*
X192833609Y-67918928D01*
X192829815Y-67931850D01*
X192813081Y-67946349D01*
X192799810Y-67964078D01*
X192787189Y-67968785D01*
X192777011Y-67977605D01*
X192755093Y-67980756D01*
X192734346Y-67988495D01*
X192721185Y-67985632D01*
X192707853Y-67987549D01*
X192687709Y-67978349D01*
X192666073Y-67973643D01*
X192648347Y-67960374D01*
X192644297Y-67958524D01*
X192637819Y-67952492D01*
X192473353Y-67788026D01*
X192439868Y-67726703D01*
X192439440Y-67724650D01*
X192438867Y-67721769D01*
X192416784Y-67688720D01*
X192394552Y-67655447D01*
X192328230Y-67611132D01*
X192328229Y-67611131D01*
X192269752Y-67599500D01*
X192269748Y-67599500D01*
X191730252Y-67599500D01*
X191730247Y-67599500D01*
X191671770Y-67611131D01*
X191671769Y-67611132D01*
X191605447Y-67655447D01*
X191561132Y-67721769D01*
X191561131Y-67721770D01*
X191549500Y-67780247D01*
X191549500Y-68219752D01*
X191561131Y-68278229D01*
X191561132Y-68278231D01*
X191563058Y-68281113D01*
X191565322Y-68288344D01*
X191565806Y-68289513D01*
X191565701Y-68289556D01*
X191583933Y-68347791D01*
X191565446Y-68415171D01*
X191563058Y-68418887D01*
X191561132Y-68421768D01*
X191561131Y-68421770D01*
X191549500Y-68480247D01*
X191549500Y-68919752D01*
X191561131Y-68978229D01*
X191561132Y-68978230D01*
X191582651Y-69010434D01*
X191605448Y-69044552D01*
X191619389Y-69053867D01*
X191664195Y-69107478D01*
X191674500Y-69156970D01*
X191674500Y-70717852D01*
X191696682Y-70800640D01*
X191718108Y-70837750D01*
X191739535Y-70874862D01*
X191739537Y-70874864D01*
X234733181Y-113868508D01*
X234766666Y-113929831D01*
X234769500Y-113956189D01*
X234769500Y-198679811D01*
X234749815Y-198746850D01*
X234697011Y-198792605D01*
X234627853Y-198802549D01*
X234564297Y-198773524D01*
X234557819Y-198767492D01*
X233836819Y-198046492D01*
X233803334Y-197985169D01*
X233800500Y-197958811D01*
X233800500Y-113832149D01*
X233800500Y-113832147D01*
X233778318Y-113749362D01*
X233765492Y-113727147D01*
X233735469Y-113675144D01*
X233735463Y-113675136D01*
X178349864Y-58289537D01*
X178349862Y-58289535D01*
X178312750Y-58268108D01*
X178275640Y-58246682D01*
X178234246Y-58235591D01*
X178192853Y-58224500D01*
X178192852Y-58224500D01*
X93166189Y-58224500D01*
X93099150Y-58204815D01*
X93078508Y-58188181D01*
X92139864Y-57249537D01*
X92139862Y-57249535D01*
X92102750Y-57228108D01*
X92065640Y-57206682D01*
X92024246Y-57195591D01*
X91982853Y-57184500D01*
X90572853Y-57184500D01*
X90487147Y-57184500D01*
X90404359Y-57206682D01*
X90330138Y-57249535D01*
X90330135Y-57249537D01*
X89314537Y-58265135D01*
X89314535Y-58265138D01*
X89271681Y-58339361D01*
X89271681Y-58339362D01*
X89265431Y-58362684D01*
X89265432Y-58362685D01*
X89249500Y-58422145D01*
X89249500Y-58614319D01*
X89229815Y-58681358D01*
X89228602Y-58683210D01*
X89186132Y-58746769D01*
X89186131Y-58746770D01*
X89174500Y-58805247D01*
X89174500Y-59344752D01*
X89186131Y-59403229D01*
X89186132Y-59403230D01*
X89230447Y-59469552D01*
X89274762Y-59499162D01*
X89296769Y-59513867D01*
X89301978Y-59514903D01*
X89363890Y-59547287D01*
X89398465Y-59608002D01*
X89394726Y-59677772D01*
X89365471Y-59724201D01*
X89314538Y-59775134D01*
X89314533Y-59775141D01*
X89271681Y-59849361D01*
X89271682Y-59849362D01*
X89247397Y-59939997D01*
X89245732Y-59939551D01*
X89230192Y-59980830D01*
X89186132Y-60046769D01*
X89186131Y-60046770D01*
X89174500Y-60105247D01*
X89174500Y-60644752D01*
X89186131Y-60703229D01*
X89186132Y-60703230D01*
X89230447Y-60769552D01*
X89296769Y-60813867D01*
X89296770Y-60813868D01*
X89355247Y-60825499D01*
X89355250Y-60825500D01*
X89355252Y-60825500D01*
X89794750Y-60825500D01*
X89794751Y-60825499D01*
X89809568Y-60822552D01*
X89853229Y-60813868D01*
X89853231Y-60813867D01*
X89856108Y-60811945D01*
X89863335Y-60809681D01*
X89864513Y-60809194D01*
X89864556Y-60809299D01*
X89922785Y-60791066D01*
X89964026Y-60797347D01*
X89979944Y-60802625D01*
X89996769Y-60813867D01*
X90039457Y-60822358D01*
X90046752Y-60824777D01*
X90069408Y-60840469D01*
X90093828Y-60853243D01*
X90097721Y-60860080D01*
X90104190Y-60864561D01*
X90114765Y-60890010D01*
X90128402Y-60913959D01*
X90127980Y-60921816D01*
X90131000Y-60929082D01*
X90126137Y-60956208D01*
X90124663Y-60983729D01*
X90120061Y-60990110D01*
X90118673Y-60997855D01*
X90099917Y-61018045D01*
X90083797Y-61040401D01*
X90073054Y-61046963D01*
X90071120Y-61049046D01*
X90068579Y-61049697D01*
X90060132Y-61054858D01*
X89991682Y-61086777D01*
X89906776Y-61171683D01*
X89856027Y-61280514D01*
X89849500Y-61330098D01*
X89849500Y-61749894D01*
X89849501Y-61749900D01*
X89856028Y-61799487D01*
X89856029Y-61799489D01*
X89856029Y-61799490D01*
X89870727Y-61831010D01*
X89906776Y-61908316D01*
X89991684Y-61993224D01*
X90100513Y-62043972D01*
X90146712Y-62050054D01*
X90210609Y-62078319D01*
X90218207Y-62085310D01*
X90463386Y-62330490D01*
X90566113Y-62389799D01*
X90590321Y-62396284D01*
X90590324Y-62396286D01*
X90590325Y-62396286D01*
X90620447Y-62404357D01*
X90680691Y-62420500D01*
X90846063Y-62420500D01*
X90854241Y-62422126D01*
X90859318Y-62421211D01*
X90874441Y-62426144D01*
X90893516Y-62429939D01*
X90901022Y-62433048D01*
X90906814Y-62436392D01*
X90913272Y-62438122D01*
X90920782Y-62441233D01*
X90936777Y-62454123D01*
X90961010Y-62468113D01*
X91023181Y-62530284D01*
X91056666Y-62591607D01*
X91059500Y-62617965D01*
X91059500Y-62657627D01*
X91057117Y-62681818D01*
X91044500Y-62745247D01*
X91044500Y-63514752D01*
X91056131Y-63573229D01*
X91056132Y-63573230D01*
X91100447Y-63639552D01*
X91166769Y-63683867D01*
X91166770Y-63683868D01*
X91225247Y-63695499D01*
X91225250Y-63695500D01*
X91225252Y-63695500D01*
X91794750Y-63695500D01*
X91794751Y-63695499D01*
X91810081Y-63692450D01*
X91853229Y-63683868D01*
X91864513Y-63679194D01*
X91865207Y-63680870D01*
X91917785Y-63664407D01*
X91958702Y-63670581D01*
X91974800Y-63675869D01*
X91986769Y-63683867D01*
X92018133Y-63690105D01*
X92025269Y-63692450D01*
X92048103Y-63708173D01*
X92072668Y-63721023D01*
X92076476Y-63727710D01*
X92082816Y-63732076D01*
X92093524Y-63757647D01*
X92107243Y-63781738D01*
X92106831Y-63789423D01*
X92109804Y-63796523D01*
X92104987Y-63823826D01*
X92103504Y-63851507D01*
X92098782Y-63858999D01*
X92097666Y-63865330D01*
X92088633Y-63875107D01*
X92074249Y-63897936D01*
X92039503Y-63932682D01*
X92039500Y-63932686D01*
X91973607Y-64046814D01*
X91973606Y-64046817D01*
X91968095Y-64067386D01*
X91955708Y-64097291D01*
X91906513Y-64182500D01*
X91855947Y-64230715D01*
X91799126Y-64244500D01*
X91225247Y-64244500D01*
X91166770Y-64256131D01*
X91166769Y-64256132D01*
X91100447Y-64300447D01*
X91056132Y-64366769D01*
X91056131Y-64366770D01*
X91044500Y-64425247D01*
X91044500Y-64743810D01*
X91024815Y-64810849D01*
X91008181Y-64831491D01*
X89269535Y-66570136D01*
X89264035Y-66579663D01*
X89244331Y-66605340D01*
X79017181Y-76832491D01*
X78955858Y-76865976D01*
X78886166Y-76860992D01*
X78830233Y-76819120D01*
X78805816Y-76753656D01*
X78805500Y-76744810D01*
X78805500Y-66881188D01*
X78825185Y-66814149D01*
X78841819Y-66793507D01*
X81702913Y-63932413D01*
X89974500Y-63932413D01*
X89974500Y-64007586D01*
X89993956Y-64080200D01*
X90003824Y-64097291D01*
X90031543Y-64145301D01*
X90084699Y-64198457D01*
X90149801Y-64236044D01*
X90222413Y-64255500D01*
X90222415Y-64255500D01*
X90297585Y-64255500D01*
X90297587Y-64255500D01*
X90370199Y-64236044D01*
X90435301Y-64198457D01*
X90488457Y-64145301D01*
X90526044Y-64080199D01*
X90545500Y-64007587D01*
X90545500Y-63932413D01*
X90526044Y-63859801D01*
X90488457Y-63794699D01*
X90435301Y-63741543D01*
X90380375Y-63709831D01*
X90370200Y-63703956D01*
X90327257Y-63692450D01*
X90297587Y-63684500D01*
X90222413Y-63684500D01*
X90149799Y-63703956D01*
X90084699Y-63741543D01*
X90084696Y-63741545D01*
X90031545Y-63794696D01*
X90031543Y-63794699D01*
X89993956Y-63859799D01*
X89974500Y-63932413D01*
X81702913Y-63932413D01*
X92053507Y-53581819D01*
X92114830Y-53548334D01*
X92141188Y-53545500D01*
X176673811Y-53545500D01*
X176740850Y-53565185D01*
G37*
%TD.AperFunction*%
%TA.AperFunction,Conductor*%
G36*
X142894210Y-39662757D02*
G01*
X144997605Y-39702094D01*
X144999858Y-39702158D01*
X147102235Y-39780823D01*
X147104380Y-39780923D01*
X149204961Y-39898890D01*
X149207245Y-39899040D01*
X151305171Y-40056257D01*
X151307356Y-40056441D01*
X153401982Y-40252861D01*
X153404263Y-40253096D01*
X155494878Y-40488652D01*
X155497022Y-40488914D01*
X157582919Y-40763528D01*
X157585073Y-40763832D01*
X159665436Y-41077396D01*
X159667651Y-41077751D01*
X161741749Y-41430155D01*
X161743997Y-41430559D01*
X163811084Y-41821672D01*
X163813302Y-41822113D01*
X165872785Y-42251826D01*
X165874974Y-42252304D01*
X167915213Y-42717975D01*
X167926019Y-42720442D01*
X167928274Y-42720979D01*
X169970171Y-43227378D01*
X169972361Y-43227942D01*
X172004469Y-43772444D01*
X172006695Y-43773062D01*
X172857214Y-44018093D01*
X174028249Y-44355462D01*
X174030471Y-44356125D01*
X176040738Y-44976211D01*
X176042949Y-44976915D01*
X178041313Y-45634496D01*
X178043420Y-45635211D01*
X180029236Y-46330078D01*
X180031400Y-46330859D01*
X182003723Y-47062681D01*
X182005889Y-47063508D01*
X183964181Y-47832081D01*
X183966323Y-47832944D01*
X185909993Y-48638038D01*
X185912037Y-48638907D01*
X187840347Y-49480219D01*
X187842415Y-49481145D01*
X189754592Y-50358339D01*
X189756685Y-50359323D01*
X191652120Y-51272117D01*
X191654123Y-51273104D01*
X192710631Y-51806454D01*
X193532217Y-52221210D01*
X193534277Y-52222275D01*
X194046411Y-52492945D01*
X195394253Y-53205301D01*
X195396137Y-53206319D01*
X196872641Y-54022353D01*
X197237505Y-54224007D01*
X197239524Y-54225148D01*
X199061410Y-55277014D01*
X199063407Y-55278192D01*
X200865354Y-56363971D01*
X200867233Y-56365127D01*
X202648648Y-57484464D01*
X202650475Y-57485636D01*
X204410612Y-58638064D01*
X204412489Y-58639318D01*
X205935621Y-59677772D01*
X206150735Y-59824434D01*
X206152636Y-59825756D01*
X206414866Y-60011819D01*
X207868368Y-61043133D01*
X207870246Y-61044492D01*
X209415865Y-62185212D01*
X209562920Y-62293743D01*
X209564750Y-62295120D01*
X211230415Y-63573229D01*
X211233772Y-63575805D01*
X211235590Y-63577227D01*
X211544067Y-63823229D01*
X212880404Y-64888923D01*
X212882203Y-64890386D01*
X213571135Y-65461189D01*
X214445344Y-66185500D01*
X214502104Y-66232527D01*
X214503876Y-66234023D01*
X216098513Y-67606319D01*
X216100256Y-67607847D01*
X217011037Y-68421770D01*
X217505320Y-68863489D01*
X217668923Y-69009693D01*
X217670627Y-69011246D01*
X218639457Y-69910189D01*
X219212758Y-70442134D01*
X219214421Y-70443707D01*
X219887349Y-71091926D01*
X220729565Y-71903218D01*
X220731220Y-71904842D01*
X222218813Y-73392435D01*
X222220437Y-73394090D01*
X223670495Y-74899420D01*
X223679928Y-74909212D01*
X223681504Y-74910879D01*
X224943046Y-76270498D01*
X225112400Y-76453018D01*
X225113962Y-76454732D01*
X226515808Y-78023399D01*
X226517336Y-78025142D01*
X227889632Y-79619779D01*
X227891128Y-79621551D01*
X229233269Y-81241452D01*
X229234732Y-81243251D01*
X230546421Y-82888056D01*
X230547850Y-82889883D01*
X231631933Y-84302689D01*
X231828518Y-84558883D01*
X231829912Y-84560735D01*
X233079162Y-86253408D01*
X233080522Y-86255287D01*
X234297897Y-87971017D01*
X234299221Y-87972920D01*
X235484320Y-89711141D01*
X235485607Y-89713068D01*
X236542575Y-91327406D01*
X236637979Y-91473118D01*
X236639208Y-91475035D01*
X237427833Y-92730123D01*
X237758499Y-93256375D01*
X237759714Y-93258350D01*
X238845463Y-95060248D01*
X238846641Y-95062245D01*
X239898507Y-96884131D01*
X239899648Y-96886150D01*
X240917295Y-98727442D01*
X240918397Y-98729482D01*
X241901380Y-100589378D01*
X241902445Y-100591438D01*
X242850532Y-102469495D01*
X242851557Y-102471574D01*
X243764329Y-104366964D01*
X243765316Y-104369063D01*
X244642499Y-106281216D01*
X244643446Y-106283332D01*
X245484729Y-108211574D01*
X245485636Y-108213708D01*
X246290707Y-110157323D01*
X246291574Y-110159474D01*
X247060147Y-112117766D01*
X247060974Y-112119932D01*
X247792796Y-114092255D01*
X247793583Y-114094436D01*
X248488429Y-116080191D01*
X248489174Y-116082387D01*
X249146740Y-118080708D01*
X249147444Y-118082917D01*
X249767530Y-120093184D01*
X249768193Y-120095406D01*
X250350590Y-122116952D01*
X250351211Y-122119186D01*
X250895705Y-124151266D01*
X250896284Y-124153512D01*
X251402676Y-126195381D01*
X251403213Y-126197636D01*
X251871342Y-128248643D01*
X251871837Y-128250909D01*
X252301536Y-130310325D01*
X252301988Y-130312599D01*
X252693093Y-132379641D01*
X252693503Y-132381923D01*
X253045898Y-134455967D01*
X253046265Y-134458257D01*
X253359813Y-136538511D01*
X253360137Y-136540807D01*
X253634731Y-138626555D01*
X253635012Y-138628856D01*
X253870557Y-140719379D01*
X253870795Y-140721686D01*
X254067208Y-142816236D01*
X254067403Y-142818547D01*
X254224614Y-144916396D01*
X254224766Y-144918709D01*
X254342728Y-147019191D01*
X254342836Y-147021508D01*
X254421496Y-149123765D01*
X254421561Y-149126082D01*
X254460899Y-151229445D01*
X254460921Y-151231764D01*
X254460921Y-153335547D01*
X254460899Y-153337866D01*
X254421561Y-155441229D01*
X254421496Y-155443546D01*
X254342836Y-157545803D01*
X254342728Y-157548120D01*
X254224766Y-159648602D01*
X254224614Y-159650915D01*
X254067403Y-161748764D01*
X254067208Y-161751075D01*
X253870795Y-163845625D01*
X253870557Y-163847932D01*
X253635012Y-165938455D01*
X253634731Y-165940756D01*
X253360137Y-168026504D01*
X253359813Y-168028800D01*
X253046265Y-170109054D01*
X253045898Y-170111344D01*
X252693503Y-172185388D01*
X252693093Y-172187670D01*
X252301988Y-174254712D01*
X252301536Y-174256986D01*
X251871837Y-176316402D01*
X251871342Y-176318668D01*
X251403213Y-178369675D01*
X251402676Y-178371930D01*
X250896284Y-180413799D01*
X250895705Y-180416045D01*
X250351211Y-182448125D01*
X250350590Y-182450359D01*
X249768193Y-184471905D01*
X249767530Y-184474127D01*
X249147444Y-186484394D01*
X249146740Y-186486603D01*
X248489174Y-188484924D01*
X248488429Y-188487120D01*
X247793583Y-190472875D01*
X247792796Y-190475056D01*
X247060974Y-192447379D01*
X247060147Y-192449545D01*
X246291574Y-194407837D01*
X246290707Y-194409988D01*
X245485636Y-196353603D01*
X245484729Y-196355737D01*
X244643446Y-198283979D01*
X244642499Y-198286095D01*
X243765316Y-200198248D01*
X243764329Y-200200347D01*
X242851557Y-202095737D01*
X242850532Y-202097816D01*
X241902445Y-203975873D01*
X241901380Y-203977933D01*
X240918397Y-205837829D01*
X240917295Y-205839869D01*
X239899648Y-207681161D01*
X239898507Y-207683180D01*
X238846641Y-209505066D01*
X238845463Y-209507063D01*
X237759714Y-211308961D01*
X237758499Y-211310936D01*
X236639231Y-213092241D01*
X236637979Y-213094193D01*
X235485608Y-214854242D01*
X235484320Y-214856170D01*
X234299221Y-216594391D01*
X234297897Y-216596294D01*
X233080522Y-218312024D01*
X233079162Y-218313903D01*
X231829912Y-220006576D01*
X231828518Y-220008428D01*
X230547850Y-221677428D01*
X230546421Y-221679255D01*
X229234732Y-223324060D01*
X229233269Y-223325859D01*
X227891128Y-224945760D01*
X227889632Y-224947532D01*
X226517336Y-226542169D01*
X226515808Y-226543912D01*
X225113962Y-228112579D01*
X225112400Y-228114293D01*
X223681521Y-229656414D01*
X223679928Y-229658099D01*
X222220437Y-231173221D01*
X222218813Y-231174876D01*
X220731220Y-232662469D01*
X220729565Y-232664093D01*
X219214443Y-234123584D01*
X219212758Y-234125177D01*
X217670637Y-235556056D01*
X217668923Y-235557618D01*
X216100256Y-236959464D01*
X216098513Y-236960992D01*
X214503876Y-238333288D01*
X214502104Y-238334784D01*
X212882203Y-239676925D01*
X212880404Y-239678388D01*
X211235599Y-240990077D01*
X211233772Y-240991506D01*
X209564772Y-242272174D01*
X209562920Y-242273568D01*
X207870247Y-243522818D01*
X207868368Y-243524178D01*
X206152638Y-244741553D01*
X206150735Y-244742877D01*
X204412514Y-245927976D01*
X204410586Y-245929264D01*
X202650537Y-247081635D01*
X202648585Y-247082887D01*
X200867280Y-248202155D01*
X200865305Y-248203370D01*
X199063407Y-249289119D01*
X199061410Y-249290297D01*
X197239524Y-250342163D01*
X197237505Y-250343304D01*
X195396213Y-251360951D01*
X195394173Y-251362053D01*
X193534277Y-252345036D01*
X193532217Y-252346101D01*
X191654160Y-253294188D01*
X191652081Y-253295213D01*
X189756691Y-254207985D01*
X189754592Y-254208972D01*
X187842439Y-255086155D01*
X187840323Y-255087102D01*
X185912081Y-255928385D01*
X185909947Y-255929292D01*
X183966332Y-256734363D01*
X183964181Y-256735230D01*
X182005889Y-257503803D01*
X182003723Y-257504630D01*
X180031400Y-258236452D01*
X180029219Y-258237239D01*
X178043464Y-258932085D01*
X178041268Y-258932830D01*
X176042947Y-259590396D01*
X176040738Y-259591100D01*
X174030471Y-260211186D01*
X174028249Y-260211849D01*
X172006703Y-260794246D01*
X172004469Y-260794867D01*
X169972389Y-261339361D01*
X169970143Y-261339940D01*
X167928274Y-261846332D01*
X167926019Y-261846869D01*
X165875012Y-262314998D01*
X165872746Y-262315493D01*
X163813330Y-262745192D01*
X163811056Y-262745644D01*
X161744014Y-263136749D01*
X161741732Y-263137159D01*
X159667688Y-263489554D01*
X159665398Y-263489921D01*
X157585144Y-263803469D01*
X157582848Y-263803793D01*
X155497100Y-264078387D01*
X155494799Y-264078668D01*
X153404276Y-264314213D01*
X153401969Y-264314451D01*
X151307419Y-264510864D01*
X151305108Y-264511059D01*
X149207259Y-264668270D01*
X149204946Y-264668422D01*
X147104464Y-264786384D01*
X147102147Y-264786492D01*
X144999890Y-264865152D01*
X144997573Y-264865217D01*
X142894210Y-264904555D01*
X142891891Y-264904577D01*
X140788109Y-264904577D01*
X140785790Y-264904555D01*
X138682426Y-264865217D01*
X138680109Y-264865152D01*
X136577852Y-264786492D01*
X136575535Y-264786384D01*
X134475053Y-264668422D01*
X134472740Y-264668270D01*
X132374891Y-264511059D01*
X132372580Y-264510864D01*
X130278030Y-264314451D01*
X130275723Y-264314213D01*
X128185200Y-264078668D01*
X128182899Y-264078387D01*
X126097151Y-263803793D01*
X126094855Y-263803469D01*
X124014601Y-263489921D01*
X124012311Y-263489554D01*
X121938267Y-263137159D01*
X121935985Y-263136749D01*
X119868943Y-262745644D01*
X119866669Y-262745192D01*
X117807253Y-262315493D01*
X117804987Y-262314998D01*
X115753980Y-261846869D01*
X115751725Y-261846332D01*
X113709856Y-261339940D01*
X113707610Y-261339361D01*
X111675530Y-260794867D01*
X111673296Y-260794246D01*
X109651750Y-260211849D01*
X109649528Y-260211186D01*
X107639261Y-259591100D01*
X107637052Y-259590396D01*
X105638731Y-258932830D01*
X105636535Y-258932085D01*
X103650780Y-258237239D01*
X103648599Y-258236452D01*
X101676276Y-257504630D01*
X101674110Y-257503803D01*
X99715818Y-256735230D01*
X99713667Y-256734363D01*
X97770052Y-255929292D01*
X97767918Y-255928385D01*
X95839676Y-255087102D01*
X95837560Y-255086155D01*
X93925407Y-254208972D01*
X93923308Y-254207985D01*
X92027918Y-253295213D01*
X92025839Y-253294188D01*
X90147782Y-252346101D01*
X90145722Y-252345036D01*
X88960738Y-251718754D01*
X88285785Y-251362031D01*
X88283825Y-251360972D01*
X87507876Y-250932120D01*
X86442494Y-250343304D01*
X86440475Y-250342163D01*
X84618589Y-249290297D01*
X84616592Y-249289119D01*
X82814694Y-248203370D01*
X82812719Y-248202155D01*
X82378000Y-247929003D01*
X81031379Y-247082864D01*
X81029497Y-247081657D01*
X79269412Y-245929263D01*
X79267485Y-245927976D01*
X77529264Y-244742877D01*
X77527361Y-244741553D01*
X75811631Y-243524178D01*
X75809752Y-243522818D01*
X74182827Y-242322092D01*
X74117075Y-242273565D01*
X74115227Y-242272174D01*
X74074343Y-242240803D01*
X73064457Y-241465890D01*
X72446227Y-240991506D01*
X72444400Y-240990077D01*
X70799595Y-239678388D01*
X70797796Y-239676925D01*
X69177895Y-238334784D01*
X69176123Y-238333288D01*
X67581486Y-236960992D01*
X67579743Y-236959464D01*
X66011076Y-235557618D01*
X66009362Y-235556056D01*
X65489103Y-235073326D01*
X64467223Y-234125160D01*
X64465556Y-234123584D01*
X63881724Y-233561189D01*
X62950434Y-232664093D01*
X62948779Y-232662469D01*
X61461186Y-231174876D01*
X61459562Y-231173221D01*
X61077230Y-230776316D01*
X60000051Y-229658077D01*
X59998478Y-229656414D01*
X59939432Y-229592778D01*
X58567590Y-228114283D01*
X58566037Y-228112579D01*
X58374555Y-227898311D01*
X57538007Y-226962213D01*
X57164191Y-226543912D01*
X57162663Y-226542169D01*
X55790367Y-224947532D01*
X55788871Y-224945760D01*
X54446730Y-223325859D01*
X54445267Y-223324060D01*
X53484730Y-222119586D01*
X53133571Y-221679246D01*
X53132149Y-221677428D01*
X52953158Y-221444162D01*
X51851464Y-220008406D01*
X51850087Y-220006576D01*
X51777268Y-219907910D01*
X50987076Y-218837238D01*
X59619500Y-218837238D01*
X59619500Y-219062761D01*
X59619501Y-219062778D01*
X59648937Y-219286369D01*
X59707313Y-219504230D01*
X59793614Y-219712582D01*
X59793622Y-219712598D01*
X59906382Y-219907902D01*
X59906393Y-219907918D01*
X60043682Y-220086837D01*
X60043688Y-220086844D01*
X60203155Y-220246311D01*
X60203161Y-220246316D01*
X60382090Y-220383613D01*
X60382097Y-220383617D01*
X60577401Y-220496377D01*
X60577417Y-220496385D01*
X60785769Y-220582686D01*
X60785771Y-220582686D01*
X60785777Y-220582689D01*
X61003627Y-220641062D01*
X61227232Y-220670500D01*
X61227239Y-220670500D01*
X61452761Y-220670500D01*
X61452768Y-220670500D01*
X61676373Y-220641062D01*
X61894223Y-220582689D01*
X61950439Y-220559403D01*
X62102582Y-220496385D01*
X62102585Y-220496383D01*
X62102591Y-220496381D01*
X62297910Y-220383613D01*
X62476839Y-220246316D01*
X62636316Y-220086839D01*
X62773613Y-219907910D01*
X62886381Y-219712591D01*
X62972689Y-219504223D01*
X63031062Y-219286373D01*
X63060500Y-219062768D01*
X63060500Y-218837232D01*
X63031062Y-218613627D01*
X62972689Y-218395777D01*
X62938776Y-218313903D01*
X62886385Y-218187417D01*
X62886377Y-218187401D01*
X62773617Y-217992097D01*
X62773613Y-217992090D01*
X62636316Y-217813161D01*
X62636311Y-217813155D01*
X62476844Y-217653688D01*
X62476837Y-217653682D01*
X62297918Y-217516393D01*
X62297916Y-217516391D01*
X62297910Y-217516387D01*
X62297905Y-217516384D01*
X62297902Y-217516382D01*
X62102598Y-217403622D01*
X62102582Y-217403614D01*
X61894230Y-217317313D01*
X61676369Y-217258937D01*
X61452778Y-217229501D01*
X61452773Y-217229500D01*
X61452768Y-217229500D01*
X61227232Y-217229500D01*
X61227226Y-217229500D01*
X61227221Y-217229501D01*
X61003630Y-217258937D01*
X60785769Y-217317313D01*
X60577417Y-217403614D01*
X60577401Y-217403622D01*
X60382097Y-217516382D01*
X60382081Y-217516393D01*
X60203162Y-217653682D01*
X60203155Y-217653688D01*
X60043688Y-217813155D01*
X60043682Y-217813162D01*
X59906393Y-217992081D01*
X59906382Y-217992097D01*
X59793622Y-218187401D01*
X59793614Y-218187417D01*
X59707313Y-218395769D01*
X59648937Y-218613630D01*
X59619501Y-218837221D01*
X59619500Y-218837238D01*
X50987076Y-218837238D01*
X50600836Y-218313902D01*
X50599477Y-218312024D01*
X49831385Y-217229500D01*
X49382100Y-216596292D01*
X49380778Y-216594391D01*
X48195679Y-214856170D01*
X48194391Y-214854242D01*
X47598194Y-213943653D01*
X47041980Y-213094131D01*
X47040808Y-213092304D01*
X45921471Y-211310889D01*
X45920315Y-211309010D01*
X44834536Y-209507063D01*
X44833358Y-209505066D01*
X43781492Y-207683180D01*
X43780351Y-207681161D01*
X43194333Y-206620842D01*
X42762663Y-205839793D01*
X42761645Y-205837909D01*
X42026537Y-204447018D01*
X41778619Y-203977933D01*
X41777554Y-203975873D01*
X41191109Y-202814190D01*
X40829448Y-202097779D01*
X40828442Y-202095737D01*
X40823291Y-202085041D01*
X39915667Y-200200341D01*
X39914683Y-200198248D01*
X39860375Y-200079863D01*
X39037489Y-198286071D01*
X39036553Y-198283979D01*
X38195251Y-196355693D01*
X38194382Y-196353649D01*
X37389288Y-194409979D01*
X37388425Y-194407837D01*
X36619852Y-192449545D01*
X36619025Y-192447379D01*
X35887203Y-190475056D01*
X35886416Y-190472875D01*
X35650571Y-189798868D01*
X35191555Y-188487076D01*
X35190825Y-188484924D01*
X34975898Y-187831769D01*
X34533259Y-186486603D01*
X34532555Y-186484394D01*
X34222957Y-185480703D01*
X33912466Y-184474117D01*
X33911806Y-184471905D01*
X33855848Y-184277672D01*
X33329406Y-182450351D01*
X33328788Y-182448125D01*
X33263433Y-182204216D01*
X32784286Y-180416017D01*
X32783715Y-180413799D01*
X32779338Y-180396151D01*
X32277323Y-178371930D01*
X32276786Y-178369675D01*
X32178677Y-177939832D01*
X31808648Y-176318630D01*
X31808162Y-176316402D01*
X31776252Y-176163469D01*
X31378457Y-174256958D01*
X31378011Y-174254712D01*
X31333146Y-174017596D01*
X30986903Y-172187653D01*
X30986496Y-172185388D01*
X30915329Y-171766529D01*
X30634095Y-170111307D01*
X30633734Y-170109054D01*
X30320176Y-168028729D01*
X30319872Y-168026575D01*
X30045258Y-165940678D01*
X30044996Y-165938534D01*
X29809440Y-163847919D01*
X29809204Y-163845625D01*
X29612785Y-161751012D01*
X29612601Y-161748827D01*
X29455384Y-159650901D01*
X29455233Y-159648602D01*
X29453284Y-159613889D01*
X29337267Y-157548036D01*
X29337167Y-157545891D01*
X29258502Y-155443514D01*
X29258438Y-155441229D01*
X29257953Y-155415322D01*
X29219101Y-153337866D01*
X29219079Y-153335547D01*
X29219079Y-151231764D01*
X29219101Y-151229445D01*
X29230191Y-150636481D01*
X29258438Y-149126047D01*
X29258503Y-149123765D01*
X29337167Y-147021415D01*
X29337266Y-147019280D01*
X29455234Y-144918687D01*
X29455385Y-144916396D01*
X29460227Y-144851780D01*
X29612601Y-142818476D01*
X29612784Y-142816308D01*
X29809206Y-140721662D01*
X29809442Y-140719379D01*
X29856773Y-140299304D01*
X30044998Y-138628764D01*
X30045256Y-138626646D01*
X30319874Y-136540721D01*
X30320173Y-136538597D01*
X30633742Y-134458203D01*
X30634092Y-134456021D01*
X30986502Y-132381887D01*
X30986906Y-132379641D01*
X31378011Y-130312599D01*
X31378463Y-130310325D01*
X31808175Y-128250847D01*
X31808643Y-128248704D01*
X32276791Y-126197613D01*
X32277323Y-126195381D01*
X32429697Y-125580982D01*
X32783728Y-124153457D01*
X32784280Y-124151319D01*
X33328798Y-122119149D01*
X33329409Y-122116952D01*
X33406712Y-121848627D01*
X33911817Y-120095368D01*
X33912469Y-120093184D01*
X34000809Y-119806794D01*
X34120999Y-119417147D01*
X36524500Y-119417147D01*
X36524500Y-186242852D01*
X36546682Y-186325640D01*
X36568108Y-186362750D01*
X36589535Y-186399862D01*
X36589537Y-186399864D01*
X81678181Y-231488508D01*
X81711666Y-231549831D01*
X81714500Y-231576189D01*
X81714500Y-238942852D01*
X81736682Y-239025640D01*
X81745776Y-239041391D01*
X81779535Y-239099862D01*
X81779536Y-239099863D01*
X81779537Y-239099864D01*
X85145194Y-242465520D01*
X85145215Y-242465543D01*
X86237526Y-243557853D01*
X87324534Y-244644861D01*
X87324535Y-244644862D01*
X87385138Y-244705465D01*
X87427508Y-244729927D01*
X87435662Y-244736716D01*
X87437339Y-244739216D01*
X87444002Y-244744329D01*
X92510138Y-249810465D01*
X92584361Y-249853318D01*
X92667147Y-249875500D01*
X92667149Y-249875500D01*
X183295851Y-249875500D01*
X183295853Y-249875500D01*
X183378639Y-249853318D01*
X183452862Y-249810465D01*
X192281508Y-240981819D01*
X192308435Y-240967115D01*
X192334254Y-240950523D01*
X192340454Y-240949631D01*
X192342831Y-240948334D01*
X192369189Y-240945500D01*
X192450500Y-240945500D01*
X192517539Y-240965185D01*
X192563294Y-241017989D01*
X192574500Y-241069500D01*
X192574500Y-241535134D01*
X192554815Y-241602173D01*
X192552075Y-241606257D01*
X192551776Y-241606682D01*
X192501027Y-241715514D01*
X192494500Y-241765098D01*
X192494500Y-242184894D01*
X192494501Y-242184900D01*
X192501028Y-242234487D01*
X192501028Y-242234488D01*
X192501029Y-242234490D01*
X192502869Y-242240803D01*
X192502729Y-242310673D01*
X192464836Y-242369375D01*
X192418220Y-242394632D01*
X192401364Y-242399499D01*
X192357147Y-242399499D01*
X192274361Y-242421682D01*
X192237250Y-242443108D01*
X192224168Y-242450660D01*
X192224168Y-242450661D01*
X192200138Y-242464535D01*
X192146604Y-242518069D01*
X192146603Y-242518068D01*
X192146601Y-242518071D01*
X191939537Y-242725135D01*
X191939533Y-242725141D01*
X191896680Y-242799363D01*
X191896679Y-242799366D01*
X191894418Y-242807807D01*
X191874500Y-242882143D01*
X191874500Y-242964319D01*
X191854815Y-243031358D01*
X191853602Y-243033210D01*
X191811132Y-243096769D01*
X191811131Y-243096770D01*
X191799500Y-243155247D01*
X191799500Y-243694752D01*
X191811131Y-243753229D01*
X191811132Y-243753230D01*
X191855447Y-243819552D01*
X191931923Y-243870652D01*
X191929700Y-243873978D01*
X191966674Y-243903775D01*
X191988737Y-243970070D01*
X191971456Y-244037769D01*
X191952498Y-244062173D01*
X191914537Y-244100134D01*
X191871683Y-244174359D01*
X191858973Y-244221789D01*
X191858973Y-244221792D01*
X191849500Y-244257147D01*
X191849500Y-244257150D01*
X191849500Y-244301734D01*
X191829815Y-244368773D01*
X191828603Y-244370624D01*
X191811132Y-244396770D01*
X191811131Y-244396773D01*
X191799500Y-244455247D01*
X191799500Y-244994752D01*
X191811131Y-245053229D01*
X191811132Y-245053230D01*
X191855447Y-245119552D01*
X191921769Y-245163867D01*
X191921770Y-245163868D01*
X191980247Y-245175499D01*
X191980250Y-245175500D01*
X191980252Y-245175500D01*
X192419750Y-245175500D01*
X192419751Y-245175499D01*
X192434568Y-245172552D01*
X192478229Y-245163868D01*
X192478231Y-245163867D01*
X192481108Y-245161945D01*
X192488335Y-245159681D01*
X192489513Y-245159194D01*
X192489556Y-245159299D01*
X192547785Y-245141066D01*
X192615165Y-245159550D01*
X192618892Y-245161945D01*
X192621768Y-245163867D01*
X192621770Y-245163868D01*
X192680247Y-245175499D01*
X192680250Y-245175500D01*
X192680252Y-245175500D01*
X193119750Y-245175500D01*
X193119751Y-245175499D01*
X193134568Y-245172552D01*
X193178229Y-245163868D01*
X193178229Y-245163867D01*
X193178231Y-245163867D01*
X193244552Y-245119552D01*
X193244553Y-245119551D01*
X193270575Y-245080608D01*
X193324187Y-245035804D01*
X193373676Y-245025500D01*
X194687849Y-245025500D01*
X194687851Y-245025500D01*
X194770637Y-245003318D01*
X194844860Y-244960465D01*
X198310465Y-241494860D01*
X198353318Y-241420637D01*
X198375500Y-241337851D01*
X198375500Y-241252145D01*
X198375500Y-233561189D01*
X198395185Y-233494150D01*
X198411819Y-233473508D01*
X202518089Y-229367238D01*
X208719500Y-229367238D01*
X208719500Y-229592761D01*
X208719501Y-229592778D01*
X208748937Y-229816369D01*
X208807313Y-230034230D01*
X208893614Y-230242582D01*
X208893622Y-230242598D01*
X209006382Y-230437902D01*
X209006393Y-230437918D01*
X209143682Y-230616837D01*
X209143688Y-230616844D01*
X209303155Y-230776311D01*
X209303161Y-230776316D01*
X209482090Y-230913613D01*
X209482097Y-230913617D01*
X209677401Y-231026377D01*
X209677417Y-231026385D01*
X209885769Y-231112686D01*
X209885771Y-231112686D01*
X209885777Y-231112689D01*
X210103627Y-231171062D01*
X210327232Y-231200500D01*
X210327239Y-231200500D01*
X210552761Y-231200500D01*
X210552768Y-231200500D01*
X210776373Y-231171062D01*
X210994223Y-231112689D01*
X211050439Y-231089403D01*
X211202582Y-231026385D01*
X211202585Y-231026383D01*
X211202591Y-231026381D01*
X211397910Y-230913613D01*
X211576839Y-230776316D01*
X211736316Y-230616839D01*
X211873613Y-230437910D01*
X211986381Y-230242591D01*
X212072689Y-230034223D01*
X212131062Y-229816373D01*
X212160500Y-229592768D01*
X212160500Y-229367232D01*
X212131062Y-229143627D01*
X212072689Y-228925777D01*
X212072686Y-228925769D01*
X211986385Y-228717417D01*
X211986377Y-228717401D01*
X211873617Y-228522097D01*
X211873613Y-228522090D01*
X211736316Y-228343161D01*
X211736311Y-228343155D01*
X211576844Y-228183688D01*
X211576837Y-228183682D01*
X211397918Y-228046393D01*
X211397916Y-228046391D01*
X211397910Y-228046387D01*
X211397905Y-228046384D01*
X211397902Y-228046382D01*
X211202598Y-227933622D01*
X211202582Y-227933614D01*
X210994230Y-227847313D01*
X210908628Y-227824376D01*
X210776373Y-227788938D01*
X210776372Y-227788937D01*
X210776369Y-227788937D01*
X210552778Y-227759501D01*
X210552773Y-227759500D01*
X210552768Y-227759500D01*
X210327232Y-227759500D01*
X210327226Y-227759500D01*
X210327221Y-227759501D01*
X210103630Y-227788937D01*
X209885769Y-227847313D01*
X209677417Y-227933614D01*
X209677401Y-227933622D01*
X209482097Y-228046382D01*
X209482081Y-228046393D01*
X209303162Y-228183682D01*
X209303155Y-228183688D01*
X209143688Y-228343155D01*
X209143682Y-228343162D01*
X209006393Y-228522081D01*
X209006382Y-228522097D01*
X208893622Y-228717401D01*
X208893614Y-228717417D01*
X208807313Y-228925769D01*
X208748937Y-229143630D01*
X208719501Y-229367221D01*
X208719500Y-229367238D01*
X202518089Y-229367238D01*
X225873508Y-206011819D01*
X225934831Y-205978334D01*
X225961189Y-205975500D01*
X234282851Y-205975500D01*
X234282853Y-205975500D01*
X234365639Y-205953318D01*
X234439862Y-205910465D01*
X234860465Y-205489862D01*
X234903318Y-205415639D01*
X234910010Y-205390660D01*
X234916951Y-205371329D01*
X234924206Y-205355409D01*
X234928557Y-205351059D01*
X234951316Y-205296113D01*
X234970500Y-205249800D01*
X234970500Y-205079500D01*
X234971597Y-205075762D01*
X234970729Y-205071964D01*
X234981365Y-205042497D01*
X234990185Y-205012461D01*
X234993127Y-205009911D01*
X234994451Y-205006245D01*
X235019331Y-204987205D01*
X235042989Y-204966706D01*
X235047738Y-204965466D01*
X235049938Y-204963784D01*
X235064729Y-204961034D01*
X235084345Y-204955917D01*
X235089420Y-204955500D01*
X235199958Y-204955500D01*
X235266461Y-204942272D01*
X235268713Y-204940766D01*
X235284845Y-204939441D01*
X235294367Y-204941407D01*
X235319192Y-204941407D01*
X235323538Y-204942271D01*
X235323539Y-204942272D01*
X235390040Y-204955499D01*
X235390041Y-204955500D01*
X235390042Y-204955500D01*
X235599959Y-204955500D01*
X235599959Y-204955499D01*
X235666461Y-204942272D01*
X235666461Y-204942271D01*
X235670808Y-204941407D01*
X235719192Y-204941407D01*
X235723538Y-204942271D01*
X235723539Y-204942272D01*
X235790040Y-204955499D01*
X235790041Y-204955500D01*
X235790042Y-204955500D01*
X235999959Y-204955500D01*
X235999959Y-204955499D01*
X236066461Y-204942272D01*
X236066461Y-204942271D01*
X236070808Y-204941407D01*
X236119192Y-204941407D01*
X236123538Y-204942271D01*
X236123539Y-204942272D01*
X236190040Y-204955499D01*
X236190041Y-204955500D01*
X236190042Y-204955500D01*
X236399959Y-204955500D01*
X236399959Y-204955499D01*
X236466461Y-204942272D01*
X236466461Y-204942271D01*
X236470808Y-204941407D01*
X236519192Y-204941407D01*
X236523538Y-204942271D01*
X236523539Y-204942272D01*
X236590040Y-204955499D01*
X236590041Y-204955500D01*
X236590042Y-204955500D01*
X236799959Y-204955500D01*
X236799959Y-204955499D01*
X236866461Y-204942272D01*
X236866461Y-204942271D01*
X236870808Y-204941407D01*
X236919192Y-204941407D01*
X236923538Y-204942271D01*
X236923539Y-204942272D01*
X236990040Y-204955499D01*
X236990041Y-204955500D01*
X236990042Y-204955500D01*
X237199959Y-204955500D01*
X237199960Y-204955499D01*
X237222326Y-204951050D01*
X237266458Y-204942273D01*
X237266459Y-204942272D01*
X237266461Y-204942272D01*
X237341879Y-204891879D01*
X237392272Y-204816461D01*
X237405500Y-204749958D01*
X237405500Y-204020042D01*
X237400119Y-203992989D01*
X237392273Y-203953541D01*
X237392271Y-203953537D01*
X237341879Y-203878120D01*
X237266462Y-203827728D01*
X237266458Y-203827726D01*
X237199962Y-203814500D01*
X237199958Y-203814500D01*
X236990042Y-203814500D01*
X236933937Y-203825659D01*
X236919190Y-203828593D01*
X236870810Y-203828593D01*
X236856062Y-203825659D01*
X236799958Y-203814500D01*
X236590042Y-203814500D01*
X236533937Y-203825659D01*
X236519190Y-203828593D01*
X236470810Y-203828593D01*
X236456062Y-203825659D01*
X236399958Y-203814500D01*
X236190042Y-203814500D01*
X236133937Y-203825659D01*
X236119190Y-203828593D01*
X236070810Y-203828593D01*
X236056062Y-203825659D01*
X235999958Y-203814500D01*
X235790042Y-203814500D01*
X235733937Y-203825659D01*
X235719190Y-203828593D01*
X235670810Y-203828593D01*
X235656062Y-203825659D01*
X235599958Y-203814500D01*
X235390042Y-203814500D01*
X235333937Y-203825659D01*
X235319190Y-203828593D01*
X235270810Y-203828593D01*
X235256062Y-203825659D01*
X235199958Y-203814500D01*
X234990042Y-203814500D01*
X234933937Y-203825659D01*
X234919190Y-203828593D01*
X234870810Y-203828593D01*
X234856062Y-203825659D01*
X234799958Y-203814500D01*
X234590042Y-203814500D01*
X234533937Y-203825659D01*
X234519190Y-203828593D01*
X234513330Y-203828692D01*
X234510228Y-203830036D01*
X234486106Y-203829152D01*
X234474940Y-203829342D01*
X234466905Y-203828024D01*
X234466461Y-203827728D01*
X234399958Y-203814500D01*
X234384402Y-203814500D01*
X234374440Y-203812867D01*
X234351682Y-203801927D01*
X234327461Y-203794815D01*
X234320731Y-203787049D01*
X234311468Y-203782596D01*
X234298236Y-203761088D01*
X234281706Y-203742011D01*
X234279083Y-203729953D01*
X234274858Y-203723086D01*
X234275084Y-203711574D01*
X234270500Y-203690500D01*
X234270500Y-203685041D01*
X234270499Y-203685040D01*
X234257272Y-203618539D01*
X234257271Y-203618538D01*
X234256407Y-203614192D01*
X234256407Y-203565808D01*
X234262108Y-203537147D01*
X234270500Y-203494958D01*
X234270500Y-203285042D01*
X234257272Y-203218539D01*
X234257271Y-203218538D01*
X234256407Y-203214192D01*
X234256407Y-203165808D01*
X234257272Y-203161461D01*
X234270500Y-203094958D01*
X234270500Y-202885042D01*
X234257272Y-202818539D01*
X234257271Y-202818538D01*
X234256407Y-202814192D01*
X234256407Y-202765808D01*
X234257272Y-202761461D01*
X234270500Y-202694958D01*
X234270500Y-202485042D01*
X234257272Y-202418539D01*
X234257271Y-202418538D01*
X234256407Y-202414192D01*
X234256407Y-202365808D01*
X234259915Y-202348171D01*
X234270500Y-202294958D01*
X234270500Y-202085042D01*
X234257272Y-202018539D01*
X234257271Y-202018538D01*
X234256407Y-202014192D01*
X234256407Y-201965808D01*
X234257272Y-201961461D01*
X234270500Y-201894958D01*
X234270500Y-201685042D01*
X234257272Y-201618539D01*
X234257271Y-201618538D01*
X234256407Y-201614192D01*
X234256407Y-201565808D01*
X234259285Y-201551341D01*
X234270500Y-201494958D01*
X234270500Y-201285042D01*
X234257272Y-201218539D01*
X234257271Y-201218538D01*
X234256407Y-201214192D01*
X234256307Y-201208333D01*
X234254962Y-201205226D01*
X234255846Y-201181104D01*
X234255657Y-201169939D01*
X234256973Y-201161907D01*
X234257272Y-201161461D01*
X234270500Y-201094958D01*
X234270500Y-201079399D01*
X234272133Y-201069439D01*
X234283073Y-201046679D01*
X234290185Y-201022461D01*
X234297949Y-201015732D01*
X234302404Y-201006467D01*
X234323913Y-200993235D01*
X234342989Y-200976706D01*
X234355047Y-200974082D01*
X234361915Y-200969858D01*
X234373425Y-200970084D01*
X234394500Y-200965500D01*
X234399959Y-200965500D01*
X234399959Y-200965499D01*
X234466461Y-200952272D01*
X234466461Y-200952271D01*
X234470808Y-200951407D01*
X234519192Y-200951407D01*
X234523538Y-200952271D01*
X234523539Y-200952272D01*
X234590040Y-200965499D01*
X234590041Y-200965500D01*
X234590042Y-200965500D01*
X234799959Y-200965500D01*
X234799959Y-200965499D01*
X234866461Y-200952272D01*
X234866461Y-200952271D01*
X234870808Y-200951407D01*
X234919192Y-200951407D01*
X234923538Y-200952271D01*
X234923539Y-200952272D01*
X234990040Y-200965499D01*
X234990041Y-200965500D01*
X234990042Y-200965500D01*
X235199959Y-200965500D01*
X235199959Y-200965499D01*
X235266461Y-200952272D01*
X235266461Y-200952271D01*
X235270808Y-200951407D01*
X235319192Y-200951407D01*
X235323538Y-200952271D01*
X235323539Y-200952272D01*
X235390040Y-200965499D01*
X235390041Y-200965500D01*
X235390042Y-200965500D01*
X235599959Y-200965500D01*
X235599959Y-200965499D01*
X235666461Y-200952272D01*
X235666461Y-200952271D01*
X235670808Y-200951407D01*
X235719192Y-200951407D01*
X235723538Y-200952271D01*
X235723539Y-200952272D01*
X235790040Y-200965499D01*
X235790041Y-200965500D01*
X235790042Y-200965500D01*
X235999959Y-200965500D01*
X235999959Y-200965499D01*
X236066461Y-200952272D01*
X236066461Y-200952271D01*
X236070808Y-200951407D01*
X236119192Y-200951407D01*
X236123538Y-200952271D01*
X236123539Y-200952272D01*
X236190040Y-200965499D01*
X236190041Y-200965500D01*
X236190042Y-200965500D01*
X236399959Y-200965500D01*
X236399959Y-200965499D01*
X236466461Y-200952272D01*
X236466461Y-200952271D01*
X236470808Y-200951407D01*
X236519192Y-200951407D01*
X236523538Y-200952271D01*
X236523539Y-200952272D01*
X236590040Y-200965499D01*
X236590041Y-200965500D01*
X236590042Y-200965500D01*
X236799959Y-200965500D01*
X236799959Y-200965499D01*
X236866461Y-200952272D01*
X236866461Y-200952271D01*
X236870808Y-200951407D01*
X236876666Y-200951307D01*
X236879774Y-200949962D01*
X236903895Y-200950846D01*
X236915061Y-200950657D01*
X236923092Y-200951973D01*
X236923539Y-200952272D01*
X236990042Y-200965500D01*
X237005600Y-200965500D01*
X237015561Y-200967133D01*
X237038320Y-200978073D01*
X237062539Y-200985185D01*
X237069267Y-200992949D01*
X237078533Y-200997404D01*
X237091764Y-201018913D01*
X237108294Y-201037989D01*
X237110917Y-201050047D01*
X237115142Y-201056915D01*
X237114915Y-201068425D01*
X237119500Y-201089500D01*
X237119500Y-201094958D01*
X237123387Y-201114500D01*
X237133593Y-201165810D01*
X237133593Y-201214190D01*
X237132728Y-201218539D01*
X237119500Y-201285042D01*
X237119500Y-201494958D01*
X237123245Y-201513786D01*
X237133593Y-201565810D01*
X237133593Y-201614190D01*
X237132728Y-201618539D01*
X237119500Y-201685042D01*
X237119500Y-201894958D01*
X237131955Y-201957579D01*
X237133593Y-201965810D01*
X237133593Y-202014190D01*
X237132728Y-202018539D01*
X237119500Y-202085042D01*
X237119500Y-202294958D01*
X237120367Y-202299316D01*
X237133593Y-202365810D01*
X237133593Y-202414190D01*
X237132728Y-202418539D01*
X237119500Y-202485042D01*
X237119500Y-202694958D01*
X237123309Y-202714108D01*
X237133593Y-202765810D01*
X237133593Y-202814190D01*
X237132728Y-202818539D01*
X237119501Y-202885040D01*
X237119500Y-202885043D01*
X237119500Y-203094962D01*
X237132726Y-203161458D01*
X237132728Y-203161462D01*
X237183120Y-203236879D01*
X237258537Y-203287271D01*
X237258541Y-203287273D01*
X237325037Y-203300499D01*
X237325041Y-203300500D01*
X237325042Y-203300500D01*
X238054959Y-203300500D01*
X238054960Y-203300499D01*
X238121461Y-203287272D01*
X238121466Y-203287268D01*
X238127069Y-203284948D01*
X238196538Y-203277475D01*
X238259019Y-203308746D01*
X238262210Y-203311825D01*
X238513181Y-203562796D01*
X238546666Y-203624119D01*
X238549500Y-203650477D01*
X238549500Y-203899894D01*
X238549501Y-203899900D01*
X238556028Y-203949487D01*
X238556029Y-203949489D01*
X238556029Y-203949490D01*
X238576313Y-203992989D01*
X238606776Y-204058316D01*
X238691684Y-204143224D01*
X238800513Y-204193972D01*
X238850099Y-204200500D01*
X239040299Y-204200499D01*
X239107339Y-204220183D01*
X239127981Y-204236818D01*
X239338181Y-204447018D01*
X239371666Y-204508341D01*
X239374500Y-204534699D01*
X239374500Y-205026324D01*
X239354815Y-205093363D01*
X239338181Y-205114005D01*
X239289502Y-205162683D01*
X239289500Y-205162686D01*
X239223608Y-205276812D01*
X239189500Y-205404108D01*
X239189500Y-205525500D01*
X239169815Y-205592539D01*
X239117011Y-205638294D01*
X239065500Y-205649500D01*
X238944108Y-205649500D01*
X238816812Y-205683608D01*
X238702686Y-205749500D01*
X238702683Y-205749502D01*
X238609502Y-205842683D01*
X238609498Y-205842689D01*
X238543606Y-205956816D01*
X238540495Y-205964328D01*
X238539161Y-205963775D01*
X238511886Y-206011009D01*
X237163799Y-207359096D01*
X237102476Y-207392581D01*
X237051928Y-207393033D01*
X237049655Y-207392581D01*
X237023569Y-207387392D01*
X236933616Y-207369500D01*
X236746384Y-207369500D01*
X236746379Y-207369500D01*
X236562756Y-207406025D01*
X236562748Y-207406027D01*
X236389771Y-207477676D01*
X236389762Y-207477681D01*
X236234092Y-207581697D01*
X236234088Y-207581700D01*
X236101700Y-207714088D01*
X236101697Y-207714092D01*
X235997681Y-207869762D01*
X235997676Y-207869771D01*
X235926027Y-208042748D01*
X235926025Y-208042756D01*
X235889500Y-208226379D01*
X235889500Y-208413620D01*
X235926025Y-208597243D01*
X235926027Y-208597251D01*
X235997676Y-208770228D01*
X235997681Y-208770237D01*
X236101697Y-208925907D01*
X236101700Y-208925911D01*
X236234088Y-209058299D01*
X236234092Y-209058302D01*
X236389762Y-209162318D01*
X236389768Y-209162321D01*
X236389769Y-209162322D01*
X236562749Y-209233973D01*
X236746379Y-209270499D01*
X236746383Y-209270500D01*
X236746384Y-209270500D01*
X236933617Y-209270500D01*
X236933618Y-209270499D01*
X237117251Y-209233973D01*
X237290231Y-209162322D01*
X237445908Y-209058302D01*
X237578302Y-208925908D01*
X237682322Y-208770231D01*
X237753973Y-208597251D01*
X237790500Y-208413616D01*
X237790500Y-208226384D01*
X237766966Y-208108070D01*
X237773193Y-208038480D01*
X237800900Y-207996201D01*
X239148990Y-206648111D01*
X239196228Y-206620842D01*
X239195674Y-206619504D01*
X239203180Y-206616393D01*
X239203186Y-206616392D01*
X239317314Y-206550500D01*
X239410500Y-206457314D01*
X239476392Y-206343186D01*
X239510500Y-206215892D01*
X239510500Y-206094500D01*
X239530185Y-206027461D01*
X239582989Y-205981706D01*
X239634500Y-205970500D01*
X239755890Y-205970500D01*
X239755892Y-205970500D01*
X239883186Y-205936392D01*
X239997314Y-205870500D01*
X240090500Y-205777314D01*
X240156392Y-205663186D01*
X240156394Y-205663176D01*
X240159506Y-205655668D01*
X240159518Y-205655673D01*
X240166209Y-205638645D01*
X240174932Y-205622170D01*
X240185490Y-205611614D01*
X240244799Y-205508887D01*
X240251286Y-205484673D01*
X240275500Y-205394309D01*
X240275500Y-204237425D01*
X240244799Y-204122848D01*
X240244799Y-204122847D01*
X240185489Y-204020120D01*
X239524880Y-203359511D01*
X239524877Y-203359509D01*
X239524873Y-203359506D01*
X239458973Y-203321458D01*
X239455910Y-203319631D01*
X239443556Y-203312016D01*
X239428316Y-203296776D01*
X239389353Y-203278607D01*
X239383225Y-203274830D01*
X239364476Y-203253999D01*
X239343445Y-203235481D01*
X239341422Y-203228383D01*
X239336484Y-203222897D01*
X239331974Y-203195236D01*
X239324293Y-203168287D01*
X239326428Y-203161221D01*
X239325241Y-203153938D01*
X239336400Y-203128232D01*
X239344509Y-203101406D01*
X239350499Y-203094190D01*
X239349938Y-203093760D01*
X239354877Y-203087321D01*
X239354885Y-203087314D01*
X239420777Y-202973186D01*
X239443294Y-202889148D01*
X239479657Y-202829491D01*
X239542504Y-202798961D01*
X239611880Y-202807255D01*
X239650749Y-202833563D01*
X239692686Y-202875500D01*
X239806814Y-202941392D01*
X239934108Y-202975500D01*
X239934110Y-202975500D01*
X240065890Y-202975500D01*
X240065892Y-202975500D01*
X240193186Y-202941392D01*
X240307314Y-202875500D01*
X240400500Y-202782314D01*
X240466392Y-202668186D01*
X240500052Y-202542561D01*
X240536415Y-202482904D01*
X240599262Y-202452374D01*
X240668638Y-202460668D01*
X240707507Y-202486976D01*
X240759596Y-202539065D01*
X240866827Y-202589068D01*
X240915683Y-202595500D01*
X240915684Y-202595500D01*
X241264317Y-202595500D01*
X241280601Y-202593356D01*
X241313173Y-202589068D01*
X241420404Y-202539065D01*
X241504065Y-202455404D01*
X241554068Y-202348173D01*
X241560500Y-202299316D01*
X241560500Y-201850684D01*
X241554068Y-201801827D01*
X241504065Y-201694596D01*
X241451818Y-201642349D01*
X241418334Y-201581025D01*
X241415500Y-201554668D01*
X241415500Y-187890247D01*
X242249500Y-187890247D01*
X242249500Y-189629752D01*
X242261131Y-189688229D01*
X242261132Y-189688230D01*
X242305447Y-189754552D01*
X242371769Y-189798867D01*
X242371770Y-189798868D01*
X242430247Y-189810499D01*
X242430250Y-189810500D01*
X242430252Y-189810500D01*
X244169750Y-189810500D01*
X244169751Y-189810499D01*
X244184568Y-189807552D01*
X244228229Y-189798868D01*
X244228229Y-189798867D01*
X244228231Y-189798867D01*
X244294552Y-189754552D01*
X244338867Y-189688231D01*
X244338867Y-189688229D01*
X244338868Y-189688229D01*
X244350499Y-189629752D01*
X244350500Y-189629750D01*
X244350500Y-187890249D01*
X244350499Y-187890247D01*
X244338868Y-187831770D01*
X244338867Y-187831769D01*
X244294552Y-187765447D01*
X244228230Y-187721132D01*
X244228229Y-187721131D01*
X244169752Y-187709500D01*
X244169748Y-187709500D01*
X242430252Y-187709500D01*
X242430247Y-187709500D01*
X242371770Y-187721131D01*
X242371769Y-187721132D01*
X242305447Y-187765447D01*
X242261132Y-187831769D01*
X242261131Y-187831770D01*
X242249500Y-187890247D01*
X241415500Y-187890247D01*
X241415500Y-186016189D01*
X241435185Y-185949150D01*
X241451819Y-185928508D01*
X242068508Y-185311819D01*
X242129831Y-185278334D01*
X242156189Y-185275500D01*
X242459505Y-185275500D01*
X242526544Y-185295185D01*
X242572299Y-185347989D01*
X242582243Y-185417147D01*
X242553218Y-185480703D01*
X242547186Y-185487181D01*
X242484025Y-185550341D01*
X242484024Y-185550342D01*
X242369058Y-185722403D01*
X242289870Y-185913579D01*
X242289868Y-185913587D01*
X242249500Y-186116530D01*
X242249500Y-186323469D01*
X242289868Y-186526412D01*
X242289870Y-186526420D01*
X242369058Y-186717596D01*
X242484024Y-186889657D01*
X242630342Y-187035975D01*
X242630345Y-187035977D01*
X242802402Y-187150941D01*
X242993580Y-187230130D01*
X243196530Y-187270499D01*
X243196534Y-187270500D01*
X243196535Y-187270500D01*
X243403466Y-187270500D01*
X243403467Y-187270499D01*
X243606420Y-187230130D01*
X243797598Y-187150941D01*
X243969655Y-187035977D01*
X244115977Y-186889655D01*
X244230941Y-186717598D01*
X244310130Y-186526420D01*
X244350500Y-186323465D01*
X244350500Y-186116535D01*
X244310130Y-185913580D01*
X244270550Y-185818028D01*
X244263082Y-185748560D01*
X244294357Y-185686080D01*
X244297431Y-185682895D01*
X244668508Y-185311819D01*
X244729831Y-185278334D01*
X244756189Y-185275500D01*
X247492851Y-185275500D01*
X247492853Y-185275500D01*
X247575639Y-185253318D01*
X247649862Y-185210465D01*
X249660465Y-183199862D01*
X249703317Y-183125639D01*
X249703318Y-183125638D01*
X249725500Y-183042853D01*
X249725500Y-155557147D01*
X249703318Y-155474362D01*
X249703318Y-155474361D01*
X249660465Y-155400138D01*
X248731819Y-154471492D01*
X248698334Y-154410169D01*
X248695500Y-154383811D01*
X248695500Y-148487149D01*
X248695500Y-148487147D01*
X248673318Y-148404362D01*
X248673318Y-148404361D01*
X248630465Y-148330138D01*
X246624319Y-146323992D01*
X246590834Y-146262669D01*
X246588000Y-146236311D01*
X246588000Y-112289647D01*
X246583941Y-112274501D01*
X246583940Y-112274495D01*
X246565819Y-112206864D01*
X246565818Y-112206862D01*
X246565818Y-112206861D01*
X246522965Y-112132638D01*
X216947565Y-82557238D01*
X221329500Y-82557238D01*
X221329500Y-82782761D01*
X221329501Y-82782778D01*
X221358937Y-83006369D01*
X221417313Y-83224230D01*
X221503614Y-83432582D01*
X221503622Y-83432598D01*
X221616382Y-83627902D01*
X221616393Y-83627918D01*
X221753682Y-83806837D01*
X221753688Y-83806844D01*
X221913155Y-83966311D01*
X221913161Y-83966316D01*
X222092090Y-84103613D01*
X222092097Y-84103617D01*
X222287401Y-84216377D01*
X222287417Y-84216385D01*
X222495769Y-84302686D01*
X222495771Y-84302686D01*
X222495777Y-84302689D01*
X222713627Y-84361062D01*
X222937232Y-84390500D01*
X222937239Y-84390500D01*
X223162761Y-84390500D01*
X223162768Y-84390500D01*
X223386373Y-84361062D01*
X223604223Y-84302689D01*
X223660439Y-84279403D01*
X223812582Y-84216385D01*
X223812585Y-84216383D01*
X223812591Y-84216381D01*
X224007910Y-84103613D01*
X224186839Y-83966316D01*
X224346316Y-83806839D01*
X224483613Y-83627910D01*
X224596381Y-83432591D01*
X224682689Y-83224223D01*
X224741062Y-83006373D01*
X224770500Y-82782768D01*
X224770500Y-82557232D01*
X224741062Y-82333627D01*
X224682689Y-82115777D01*
X224682686Y-82115769D01*
X224596385Y-81907417D01*
X224596377Y-81907401D01*
X224483617Y-81712097D01*
X224483613Y-81712090D01*
X224346316Y-81533161D01*
X224346311Y-81533155D01*
X224186844Y-81373688D01*
X224186837Y-81373682D01*
X224007918Y-81236393D01*
X224007916Y-81236391D01*
X224007910Y-81236387D01*
X224007905Y-81236384D01*
X224007902Y-81236382D01*
X223812598Y-81123622D01*
X223812582Y-81123614D01*
X223604230Y-81037313D01*
X223386369Y-80978937D01*
X223162778Y-80949501D01*
X223162773Y-80949500D01*
X223162768Y-80949500D01*
X222937232Y-80949500D01*
X222937226Y-80949500D01*
X222937221Y-80949501D01*
X222713630Y-80978937D01*
X222495769Y-81037313D01*
X222287417Y-81123614D01*
X222287401Y-81123622D01*
X222092097Y-81236382D01*
X222092081Y-81236393D01*
X221913162Y-81373682D01*
X221913155Y-81373688D01*
X221753688Y-81533155D01*
X221753682Y-81533162D01*
X221616393Y-81712081D01*
X221616382Y-81712097D01*
X221503622Y-81907401D01*
X221503614Y-81907417D01*
X221417313Y-82115769D01*
X221358937Y-82333630D01*
X221329501Y-82557221D01*
X221329500Y-82557238D01*
X216947565Y-82557238D01*
X187349862Y-52959535D01*
X187312750Y-52938108D01*
X187275640Y-52916682D01*
X187234246Y-52905591D01*
X187192853Y-52894500D01*
X177147147Y-52894500D01*
X177064362Y-52916682D01*
X177064361Y-52916682D01*
X177057093Y-52918630D01*
X176992907Y-52918630D01*
X176985640Y-52916683D01*
X176985639Y-52916682D01*
X176902853Y-52894500D01*
X176902852Y-52894500D01*
X92005465Y-52894500D01*
X92005449Y-52894499D01*
X91997853Y-52894499D01*
X91912147Y-52894499D01*
X91856956Y-52909287D01*
X91829360Y-52916682D01*
X91810805Y-52927395D01*
X91792250Y-52938108D01*
X91755138Y-52959535D01*
X91755135Y-52959537D01*
X78219537Y-66495135D01*
X78219533Y-66495141D01*
X78176682Y-66569360D01*
X78173406Y-66581588D01*
X78154500Y-66652147D01*
X78154500Y-77643811D01*
X78134815Y-77710850D01*
X78118181Y-77731492D01*
X36589537Y-119260135D01*
X36589533Y-119260141D01*
X36546681Y-119334361D01*
X36546682Y-119334362D01*
X36524500Y-119417147D01*
X34120999Y-119417147D01*
X34532564Y-118082887D01*
X34533259Y-118080708D01*
X34810752Y-117237417D01*
X35190851Y-116082308D01*
X35191544Y-116080266D01*
X35886433Y-114094386D01*
X35887183Y-114092307D01*
X36619038Y-112119896D01*
X36619852Y-112117766D01*
X36756627Y-111769269D01*
X37388443Y-110159427D01*
X37389273Y-110157368D01*
X38194399Y-108213622D01*
X38195234Y-108211656D01*
X39036581Y-106283269D01*
X39037471Y-106281280D01*
X39914704Y-104369016D01*
X39915647Y-104367011D01*
X40828482Y-102471492D01*
X40829427Y-102469574D01*
X41777561Y-100591424D01*
X41778619Y-100589378D01*
X42022086Y-100128716D01*
X42761670Y-98729355D01*
X42762639Y-98727561D01*
X43780365Y-96886124D01*
X43781492Y-96884131D01*
X44833374Y-95062217D01*
X44834536Y-95060248D01*
X45920344Y-93258253D01*
X45921442Y-93256468D01*
X47040839Y-91474958D01*
X47041949Y-91473228D01*
X48194441Y-89712992D01*
X48195629Y-89711215D01*
X49380813Y-87972869D01*
X49382064Y-87971070D01*
X50599514Y-86255234D01*
X50600798Y-86253460D01*
X51850141Y-84560662D01*
X51851425Y-84558956D01*
X53132197Y-82889820D01*
X53133530Y-82888116D01*
X54445289Y-81243223D01*
X54446730Y-81241452D01*
X54450931Y-81236382D01*
X55788932Y-79621477D01*
X55790367Y-79619779D01*
X57162663Y-78025142D01*
X57164158Y-78023435D01*
X58566091Y-76454672D01*
X58567539Y-76453083D01*
X59998548Y-74910821D01*
X60000000Y-74909286D01*
X60454721Y-74437232D01*
X69089500Y-74437232D01*
X69089500Y-74662768D01*
X69118938Y-74886373D01*
X69125281Y-74910047D01*
X69177313Y-75104230D01*
X69263614Y-75312582D01*
X69263622Y-75312598D01*
X69376382Y-75507902D01*
X69376393Y-75507918D01*
X69513682Y-75686837D01*
X69513688Y-75686844D01*
X69673155Y-75846311D01*
X69673161Y-75846316D01*
X69852090Y-75983613D01*
X69852097Y-75983617D01*
X70047401Y-76096377D01*
X70047417Y-76096385D01*
X70255769Y-76182686D01*
X70255771Y-76182686D01*
X70255777Y-76182689D01*
X70473627Y-76241062D01*
X70697232Y-76270500D01*
X70697239Y-76270500D01*
X70922761Y-76270500D01*
X70922768Y-76270500D01*
X71146373Y-76241062D01*
X71364223Y-76182689D01*
X71420439Y-76159403D01*
X71572582Y-76096385D01*
X71572585Y-76096383D01*
X71572591Y-76096381D01*
X71767910Y-75983613D01*
X71946839Y-75846316D01*
X72106316Y-75686839D01*
X72243613Y-75507910D01*
X72356381Y-75312591D01*
X72442689Y-75104223D01*
X72501062Y-74886373D01*
X72530500Y-74662768D01*
X72530500Y-74437232D01*
X72501062Y-74213627D01*
X72442689Y-73995777D01*
X72442686Y-73995769D01*
X72356385Y-73787417D01*
X72356377Y-73787401D01*
X72243617Y-73592097D01*
X72243613Y-73592090D01*
X72106316Y-73413161D01*
X72106311Y-73413155D01*
X71946844Y-73253688D01*
X71946837Y-73253682D01*
X71767918Y-73116393D01*
X71767916Y-73116391D01*
X71767910Y-73116387D01*
X71767905Y-73116384D01*
X71767902Y-73116382D01*
X71572598Y-73003622D01*
X71572582Y-73003614D01*
X71364230Y-72917313D01*
X71146369Y-72858937D01*
X70922778Y-72829501D01*
X70922773Y-72829500D01*
X70922768Y-72829500D01*
X70697232Y-72829500D01*
X70697226Y-72829500D01*
X70697221Y-72829501D01*
X70473630Y-72858937D01*
X70255769Y-72917313D01*
X70047417Y-73003614D01*
X70047401Y-73003622D01*
X69852097Y-73116382D01*
X69852081Y-73116393D01*
X69673162Y-73253682D01*
X69673155Y-73253688D01*
X69513688Y-73413155D01*
X69513682Y-73413162D01*
X69376393Y-73592081D01*
X69376382Y-73592097D01*
X69263622Y-73787401D01*
X69263614Y-73787417D01*
X69177313Y-73995769D01*
X69118937Y-74213630D01*
X69089501Y-74437221D01*
X69089500Y-74437232D01*
X60454721Y-74437232D01*
X61459615Y-73394034D01*
X61461133Y-73392488D01*
X62948832Y-71904789D01*
X62950378Y-71903271D01*
X64465630Y-70443656D01*
X64467165Y-70442204D01*
X66009427Y-69011195D01*
X66011016Y-69009747D01*
X67579779Y-67607814D01*
X67581486Y-67606319D01*
X68865318Y-66501492D01*
X69176132Y-66234014D01*
X69177821Y-66232588D01*
X70797825Y-64890362D01*
X70799567Y-64888945D01*
X72444460Y-63577186D01*
X72446164Y-63575853D01*
X74115300Y-62295081D01*
X74117006Y-62293797D01*
X75809804Y-61044454D01*
X75811578Y-61043170D01*
X77527414Y-59825720D01*
X77529213Y-59824469D01*
X79267559Y-58639285D01*
X79269336Y-58638097D01*
X81029572Y-57485605D01*
X81031302Y-57484495D01*
X82812812Y-56365098D01*
X82814597Y-56364000D01*
X84616618Y-55278176D01*
X84618561Y-55277030D01*
X86440501Y-54225133D01*
X86442468Y-54224021D01*
X88283905Y-53206295D01*
X88285699Y-53205326D01*
X90145736Y-52222267D01*
X90147782Y-52221210D01*
X92025918Y-51273083D01*
X92027836Y-51272138D01*
X93923355Y-50359303D01*
X93925360Y-50358360D01*
X95837624Y-49481127D01*
X95839613Y-49480237D01*
X97768000Y-48638890D01*
X97769966Y-48638055D01*
X99713712Y-47832929D01*
X99715771Y-47832099D01*
X101674147Y-47063493D01*
X101676240Y-47062694D01*
X103648651Y-46330839D01*
X103650730Y-46330089D01*
X105636610Y-45635200D01*
X105638652Y-45634507D01*
X107637081Y-44976905D01*
X107639231Y-44976220D01*
X109649567Y-44356113D01*
X109651712Y-44355473D01*
X111673331Y-43773055D01*
X111675493Y-43772454D01*
X113707663Y-43227936D01*
X113709801Y-43227384D01*
X115751749Y-42720973D01*
X115753957Y-42720447D01*
X117805048Y-42252299D01*
X117807191Y-42251831D01*
X119866717Y-41822109D01*
X119868894Y-41821676D01*
X121936021Y-41430555D01*
X121938231Y-41430158D01*
X124012365Y-41077748D01*
X124014547Y-41077398D01*
X126094941Y-40763829D01*
X126097065Y-40763530D01*
X128182990Y-40488912D01*
X128185108Y-40488654D01*
X130275747Y-40253095D01*
X130278006Y-40252862D01*
X132372652Y-40056440D01*
X132374820Y-40056257D01*
X134472762Y-39899039D01*
X134475031Y-39898890D01*
X136575624Y-39780922D01*
X136577759Y-39780823D01*
X138680144Y-39702158D01*
X138682391Y-39702094D01*
X140785790Y-39662757D01*
X140788109Y-39662735D01*
X142891891Y-39662735D01*
X142894210Y-39662757D01*
G37*
%TD.AperFunction*%
%TD*%
M02*
