M48
; DRILL file KiCad 10.0.2 date 2026-10-02T16:18:43
; FORMAT={-:-/ absolute / metric / decimal}
; #@! TF.CreationDate,2026-10-02T16:18:43+00:00
; #@! TF.GenerationSoftware,Kicad,Pcbnew,10.0.2
; #@! TF.FileFunction,Plated,1,2,PTH
FMAT,2
METRIC
; #@! TA.AperFunction,Plated,PTH,ViaDrill
T1C0.300
; #@! TA.AperFunction,Plated,PTH,ComponentDrill
T2C0.300
; #@! TA.AperFunction,Plated,PTH,ComponentDrill
T3C1.000
%
G90
G05
T1
X33.46Y-143.83
X39.2Y-152.42
X40.97Y-154.96
X41.08Y-150.96
X42.0Y-156.025
X43.35Y-154.65
X49.07Y-136.55
X56.25Y-84.77
X89.75Y-64.92
X90.55Y-237.94
X90.61Y-240.05
X90.72Y-58.67
X91.1Y-61.97
X91.88Y-242.03
X92.44Y-64.24
X93.025Y-63.0
X93.75Y-241.4
X93.8Y-238.575
X93.8Y-243.175
X122.79Y-257.6
X123.32Y-254.51
X154.57Y-258.23
X186.84Y-64.89
X189.92Y-66.93
X190.24Y-64.02
X190.51Y-64.77
X190.775Y-243.7
X190.9Y-240.51
X191.4Y-66.83
X191.62Y-238.53
X193.05Y-237.85
X193.475Y-242.05
X193.525Y-243.375
X193.72Y-69.12
X194.28Y-66.05
X207.69Y-64.12
X212.92Y-205.55
X214.04Y-204.4
X219.35Y-79.79
X223.38Y-211.46
X225.0Y-190.37
X231.71Y-207.93
X238.954Y-202.78
X239.01Y-206.15
X239.69Y-205.47
X240.0Y-202.475
X240.96Y-153.06
X242.62Y-150.68
X242.98Y-154.64
X243.1Y-157.49
X243.16Y-141.0
X244.527Y-152.986
X245.11Y-154.64
X246.34Y-152.04
X246.35Y-151.04
T2
X234.545Y-202.39
X235.695Y-201.24
X235.695Y-202.39
X235.695Y-203.54
X236.845Y-202.39
T3
X243.3Y-173.52
X243.3Y-176.06
X243.3Y-178.6
X243.3Y-181.14
X243.3Y-183.68
X243.3Y-186.22
X243.3Y-188.76
X245.84Y-173.52
X245.84Y-176.06
X245.84Y-178.6
X245.84Y-181.14
X245.84Y-183.68
X245.84Y-186.22
X245.84Y-188.76
M30
