%TF.GenerationSoftware,KiCad,Pcbnew,10.0.2*%
%TF.CreationDate,2026-10-02T16:18:39+00:00*%
%TF.ProjectId,microphone-rinG-KIcad,6d696372-6f70-4686-9f6e-652d72696e47,rev?*%
%TF.SameCoordinates,Original*%
%TF.FileFunction,Legend,Top*%
%TF.FilePolarity,Positive*%
%FSLAX46Y46*%
G04 Gerber Fmt 4.6, Leading zero omitted, Abs format (unit mm)*
G04 Created by KiCad (PCBNEW 10.0.2) date 2026-10-02 16:18:39*
%MOMM*%
%LPD*%
G01*
G04 APERTURE LIST*
%ADD10C,0.100000*%
%ADD11C,0.150000*%
%ADD12C,0.200000*%
%ADD13C,0.127000*%
%ADD14C,0.060000*%
%ADD15C,0.300000*%
%ADD16C,0.120000*%
G04 APERTURE END LIST*
D10*
X240235306Y-163977836D02*
X240282887Y-163930180D01*
X240282887Y-163930180D02*
X240378088Y-163882486D01*
X240378088Y-163882486D02*
X240616183Y-163882300D01*
X240616183Y-163882300D02*
X240711459Y-163929844D01*
X240711459Y-163929844D02*
X240759115Y-163977426D01*
X240759115Y-163977426D02*
X240806809Y-164072627D01*
X240806809Y-164072627D02*
X240806883Y-164167865D01*
X240806883Y-164167865D02*
X240759376Y-164310759D01*
X240759376Y-164310759D02*
X240188396Y-164882635D01*
X240188396Y-164882635D02*
X240807443Y-164882150D01*
X241711421Y-163881441D02*
X241235231Y-163881814D01*
X241235231Y-163881814D02*
X241187985Y-164358042D01*
X241187985Y-164358042D02*
X241235567Y-164310386D01*
X241235567Y-164310386D02*
X241330767Y-164262692D01*
X241330767Y-164262692D02*
X241568863Y-164262505D01*
X241568863Y-164262505D02*
X241664138Y-164310050D01*
X241664138Y-164310050D02*
X241711794Y-164357631D01*
X241711794Y-164357631D02*
X241759488Y-164452832D01*
X241759488Y-164452832D02*
X241759675Y-164690927D01*
X241759675Y-164690927D02*
X241712130Y-164786203D01*
X241712130Y-164786203D02*
X241664549Y-164833859D01*
X241664549Y-164833859D02*
X241569348Y-164881553D01*
X241569348Y-164881553D02*
X241331253Y-164881739D01*
X241331253Y-164881739D02*
X241235977Y-164834195D01*
X241235977Y-164834195D02*
X241188321Y-164786613D01*
X242235977Y-164833411D02*
X242236014Y-164881030D01*
X242236014Y-164881030D02*
X242188470Y-164976305D01*
X242188470Y-164976305D02*
X242140888Y-165023962D01*
X243139992Y-163880321D02*
X242663801Y-163880694D01*
X242663801Y-163880694D02*
X242616556Y-164356922D01*
X242616556Y-164356922D02*
X242664137Y-164309266D01*
X242664137Y-164309266D02*
X242759338Y-164261572D01*
X242759338Y-164261572D02*
X242997433Y-164261385D01*
X242997433Y-164261385D02*
X243092709Y-164308930D01*
X243092709Y-164308930D02*
X243140365Y-164356511D01*
X243140365Y-164356511D02*
X243188059Y-164451712D01*
X243188059Y-164451712D02*
X243188245Y-164689807D01*
X243188245Y-164689807D02*
X243140701Y-164785083D01*
X243140701Y-164785083D02*
X243093119Y-164832739D01*
X243093119Y-164832739D02*
X242997918Y-164880433D01*
X242997918Y-164880433D02*
X242759823Y-164880619D01*
X242759823Y-164880619D02*
X242664548Y-164833075D01*
X242664548Y-164833075D02*
X242616892Y-164785493D01*
X244140775Y-164879537D02*
X243569347Y-164879985D01*
X243855061Y-164879761D02*
X243854277Y-163879761D01*
X243854277Y-163879761D02*
X243759151Y-164022693D01*
X243759151Y-164022693D02*
X243663988Y-164118006D01*
X243663988Y-164118006D02*
X243568787Y-164165699D01*
X229430392Y-161060000D02*
X229434359Y-166120069D01*
X254940392Y-161040000D02*
X254944359Y-166100069D01*
X229433899Y-165533649D02*
X254943899Y-165513649D01*
X229433899Y-165533649D02*
X230559943Y-164946345D01*
X229433899Y-165533649D02*
X230560862Y-166119186D01*
X254943899Y-165513649D02*
X253817855Y-166100953D01*
X254943899Y-165513649D02*
X253816936Y-164928112D01*
D11*
X231424819Y-203071904D02*
X232234342Y-203071904D01*
X232234342Y-203071904D02*
X232329580Y-203024285D01*
X232329580Y-203024285D02*
X232377200Y-202976666D01*
X232377200Y-202976666D02*
X232424819Y-202881428D01*
X232424819Y-202881428D02*
X232424819Y-202690952D01*
X232424819Y-202690952D02*
X232377200Y-202595714D01*
X232377200Y-202595714D02*
X232329580Y-202548095D01*
X232329580Y-202548095D02*
X232234342Y-202500476D01*
X232234342Y-202500476D02*
X231424819Y-202500476D01*
X231424819Y-202119523D02*
X231424819Y-201452857D01*
X231424819Y-201452857D02*
X232424819Y-201881428D01*
X209678095Y-225784819D02*
X209678095Y-224784819D01*
X209678095Y-225261009D02*
X210249523Y-225261009D01*
X210249523Y-225784819D02*
X210249523Y-224784819D01*
X211154285Y-225118152D02*
X211154285Y-225784819D01*
X210916190Y-224737200D02*
X210678095Y-225451485D01*
X210678095Y-225451485D02*
X211297142Y-225451485D01*
X65718095Y-74244819D02*
X65718095Y-73244819D01*
X65718095Y-73721009D02*
X66289523Y-73721009D01*
X66289523Y-74244819D02*
X66289523Y-73244819D01*
X67289523Y-74244819D02*
X66718095Y-74244819D01*
X67003809Y-74244819D02*
X67003809Y-73244819D01*
X67003809Y-73244819D02*
X66908571Y-73387676D01*
X66908571Y-73387676D02*
X66813333Y-73482914D01*
X66813333Y-73482914D02*
X66718095Y-73530533D01*
X60578095Y-215254819D02*
X60578095Y-214254819D01*
X60578095Y-214731009D02*
X61149523Y-214731009D01*
X61149523Y-215254819D02*
X61149523Y-214254819D01*
X61530476Y-214254819D02*
X62149523Y-214254819D01*
X62149523Y-214254819D02*
X61816190Y-214635771D01*
X61816190Y-214635771D02*
X61959047Y-214635771D01*
X61959047Y-214635771D02*
X62054285Y-214683390D01*
X62054285Y-214683390D02*
X62101904Y-214731009D01*
X62101904Y-214731009D02*
X62149523Y-214826247D01*
X62149523Y-214826247D02*
X62149523Y-215064342D01*
X62149523Y-215064342D02*
X62101904Y-215159580D01*
X62101904Y-215159580D02*
X62054285Y-215207200D01*
X62054285Y-215207200D02*
X61959047Y-215254819D01*
X61959047Y-215254819D02*
X61673333Y-215254819D01*
X61673333Y-215254819D02*
X61578095Y-215207200D01*
X61578095Y-215207200D02*
X61530476Y-215159580D01*
X222288095Y-78974819D02*
X222288095Y-77974819D01*
X222288095Y-78451009D02*
X222859523Y-78451009D01*
X222859523Y-78974819D02*
X222859523Y-77974819D01*
X223288095Y-78070057D02*
X223335714Y-78022438D01*
X223335714Y-78022438D02*
X223430952Y-77974819D01*
X223430952Y-77974819D02*
X223669047Y-77974819D01*
X223669047Y-77974819D02*
X223764285Y-78022438D01*
X223764285Y-78022438D02*
X223811904Y-78070057D01*
X223811904Y-78070057D02*
X223859523Y-78165295D01*
X223859523Y-78165295D02*
X223859523Y-78260533D01*
X223859523Y-78260533D02*
X223811904Y-78403390D01*
X223811904Y-78403390D02*
X223240476Y-78974819D01*
X223240476Y-78974819D02*
X223859523Y-78974819D01*
X196434819Y-240301904D02*
X197244342Y-240301904D01*
X197244342Y-240301904D02*
X197339580Y-240254285D01*
X197339580Y-240254285D02*
X197387200Y-240206666D01*
X197387200Y-240206666D02*
X197434819Y-240111428D01*
X197434819Y-240111428D02*
X197434819Y-239920952D01*
X197434819Y-239920952D02*
X197387200Y-239825714D01*
X197387200Y-239825714D02*
X197339580Y-239778095D01*
X197339580Y-239778095D02*
X197244342Y-239730476D01*
X197244342Y-239730476D02*
X196434819Y-239730476D01*
X196434819Y-238825714D02*
X196434819Y-239016190D01*
X196434819Y-239016190D02*
X196482438Y-239111428D01*
X196482438Y-239111428D02*
X196530057Y-239159047D01*
X196530057Y-239159047D02*
X196672914Y-239254285D01*
X196672914Y-239254285D02*
X196863390Y-239301904D01*
X196863390Y-239301904D02*
X197244342Y-239301904D01*
X197244342Y-239301904D02*
X197339580Y-239254285D01*
X197339580Y-239254285D02*
X197387200Y-239206666D01*
X197387200Y-239206666D02*
X197434819Y-239111428D01*
X197434819Y-239111428D02*
X197434819Y-238920952D01*
X197434819Y-238920952D02*
X197387200Y-238825714D01*
X197387200Y-238825714D02*
X197339580Y-238778095D01*
X197339580Y-238778095D02*
X197244342Y-238730476D01*
X197244342Y-238730476D02*
X197006247Y-238730476D01*
X197006247Y-238730476D02*
X196911009Y-238778095D01*
X196911009Y-238778095D02*
X196863390Y-238825714D01*
X196863390Y-238825714D02*
X196815771Y-238920952D01*
X196815771Y-238920952D02*
X196815771Y-239111428D01*
X196815771Y-239111428D02*
X196863390Y-239206666D01*
X196863390Y-239206666D02*
X196911009Y-239254285D01*
X196911009Y-239254285D02*
X197006247Y-239301904D01*
X88434819Y-239821904D02*
X89244342Y-239821904D01*
X89244342Y-239821904D02*
X89339580Y-239774285D01*
X89339580Y-239774285D02*
X89387200Y-239726666D01*
X89387200Y-239726666D02*
X89434819Y-239631428D01*
X89434819Y-239631428D02*
X89434819Y-239440952D01*
X89434819Y-239440952D02*
X89387200Y-239345714D01*
X89387200Y-239345714D02*
X89339580Y-239298095D01*
X89339580Y-239298095D02*
X89244342Y-239250476D01*
X89244342Y-239250476D02*
X88434819Y-239250476D01*
X88434819Y-238298095D02*
X88434819Y-238774285D01*
X88434819Y-238774285D02*
X88911009Y-238821904D01*
X88911009Y-238821904D02*
X88863390Y-238774285D01*
X88863390Y-238774285D02*
X88815771Y-238679047D01*
X88815771Y-238679047D02*
X88815771Y-238440952D01*
X88815771Y-238440952D02*
X88863390Y-238345714D01*
X88863390Y-238345714D02*
X88911009Y-238298095D01*
X88911009Y-238298095D02*
X89006247Y-238250476D01*
X89006247Y-238250476D02*
X89244342Y-238250476D01*
X89244342Y-238250476D02*
X89339580Y-238298095D01*
X89339580Y-238298095D02*
X89387200Y-238345714D01*
X89387200Y-238345714D02*
X89434819Y-238440952D01*
X89434819Y-238440952D02*
X89434819Y-238679047D01*
X89434819Y-238679047D02*
X89387200Y-238774285D01*
X89387200Y-238774285D02*
X89339580Y-238821904D01*
X37644819Y-152131904D02*
X38454342Y-152131904D01*
X38454342Y-152131904D02*
X38549580Y-152084285D01*
X38549580Y-152084285D02*
X38597200Y-152036666D01*
X38597200Y-152036666D02*
X38644819Y-151941428D01*
X38644819Y-151941428D02*
X38644819Y-151750952D01*
X38644819Y-151750952D02*
X38597200Y-151655714D01*
X38597200Y-151655714D02*
X38549580Y-151608095D01*
X38549580Y-151608095D02*
X38454342Y-151560476D01*
X38454342Y-151560476D02*
X37644819Y-151560476D01*
X37978152Y-150655714D02*
X38644819Y-150655714D01*
X37597200Y-150893809D02*
X38311485Y-151131904D01*
X38311485Y-151131904D02*
X38311485Y-150512857D01*
X95784819Y-64731904D02*
X96594342Y-64731904D01*
X96594342Y-64731904D02*
X96689580Y-64684285D01*
X96689580Y-64684285D02*
X96737200Y-64636666D01*
X96737200Y-64636666D02*
X96784819Y-64541428D01*
X96784819Y-64541428D02*
X96784819Y-64350952D01*
X96784819Y-64350952D02*
X96737200Y-64255714D01*
X96737200Y-64255714D02*
X96689580Y-64208095D01*
X96689580Y-64208095D02*
X96594342Y-64160476D01*
X96594342Y-64160476D02*
X95784819Y-64160476D01*
X95784819Y-63779523D02*
X95784819Y-63160476D01*
X95784819Y-63160476D02*
X96165771Y-63493809D01*
X96165771Y-63493809D02*
X96165771Y-63350952D01*
X96165771Y-63350952D02*
X96213390Y-63255714D01*
X96213390Y-63255714D02*
X96261009Y-63208095D01*
X96261009Y-63208095D02*
X96356247Y-63160476D01*
X96356247Y-63160476D02*
X96594342Y-63160476D01*
X96594342Y-63160476D02*
X96689580Y-63208095D01*
X96689580Y-63208095D02*
X96737200Y-63255714D01*
X96737200Y-63255714D02*
X96784819Y-63350952D01*
X96784819Y-63350952D02*
X96784819Y-63636666D01*
X96784819Y-63636666D02*
X96737200Y-63731904D01*
X96737200Y-63731904D02*
X96689580Y-63779523D01*
X191128095Y-61524819D02*
X191128095Y-62334342D01*
X191128095Y-62334342D02*
X191175714Y-62429580D01*
X191175714Y-62429580D02*
X191223333Y-62477200D01*
X191223333Y-62477200D02*
X191318571Y-62524819D01*
X191318571Y-62524819D02*
X191509047Y-62524819D01*
X191509047Y-62524819D02*
X191604285Y-62477200D01*
X191604285Y-62477200D02*
X191651904Y-62429580D01*
X191651904Y-62429580D02*
X191699523Y-62334342D01*
X191699523Y-62334342D02*
X191699523Y-61524819D01*
X192128095Y-61620057D02*
X192175714Y-61572438D01*
X192175714Y-61572438D02*
X192270952Y-61524819D01*
X192270952Y-61524819D02*
X192509047Y-61524819D01*
X192509047Y-61524819D02*
X192604285Y-61572438D01*
X192604285Y-61572438D02*
X192651904Y-61620057D01*
X192651904Y-61620057D02*
X192699523Y-61715295D01*
X192699523Y-61715295D02*
X192699523Y-61810533D01*
X192699523Y-61810533D02*
X192651904Y-61953390D01*
X192651904Y-61953390D02*
X192080476Y-62524819D01*
X192080476Y-62524819D02*
X192699523Y-62524819D01*
X238664819Y-152371904D02*
X239474342Y-152371904D01*
X239474342Y-152371904D02*
X239569580Y-152324285D01*
X239569580Y-152324285D02*
X239617200Y-152276666D01*
X239617200Y-152276666D02*
X239664819Y-152181428D01*
X239664819Y-152181428D02*
X239664819Y-151990952D01*
X239664819Y-151990952D02*
X239617200Y-151895714D01*
X239617200Y-151895714D02*
X239569580Y-151848095D01*
X239569580Y-151848095D02*
X239474342Y-151800476D01*
X239474342Y-151800476D02*
X238664819Y-151800476D01*
X239664819Y-150800476D02*
X239664819Y-151371904D01*
X239664819Y-151086190D02*
X238664819Y-151086190D01*
X238664819Y-151086190D02*
X238807676Y-151181428D01*
X238807676Y-151181428D02*
X238902914Y-151276666D01*
X238902914Y-151276666D02*
X238950533Y-151371904D01*
X241378333Y-200029580D02*
X241330714Y-200077200D01*
X241330714Y-200077200D02*
X241187857Y-200124819D01*
X241187857Y-200124819D02*
X241092619Y-200124819D01*
X241092619Y-200124819D02*
X240949762Y-200077200D01*
X240949762Y-200077200D02*
X240854524Y-199981961D01*
X240854524Y-199981961D02*
X240806905Y-199886723D01*
X240806905Y-199886723D02*
X240759286Y-199696247D01*
X240759286Y-199696247D02*
X240759286Y-199553390D01*
X240759286Y-199553390D02*
X240806905Y-199362914D01*
X240806905Y-199362914D02*
X240854524Y-199267676D01*
X240854524Y-199267676D02*
X240949762Y-199172438D01*
X240949762Y-199172438D02*
X241092619Y-199124819D01*
X241092619Y-199124819D02*
X241187857Y-199124819D01*
X241187857Y-199124819D02*
X241330714Y-199172438D01*
X241330714Y-199172438D02*
X241378333Y-199220057D01*
X241949762Y-199553390D02*
X241854524Y-199505771D01*
X241854524Y-199505771D02*
X241806905Y-199458152D01*
X241806905Y-199458152D02*
X241759286Y-199362914D01*
X241759286Y-199362914D02*
X241759286Y-199315295D01*
X241759286Y-199315295D02*
X241806905Y-199220057D01*
X241806905Y-199220057D02*
X241854524Y-199172438D01*
X241854524Y-199172438D02*
X241949762Y-199124819D01*
X241949762Y-199124819D02*
X242140238Y-199124819D01*
X242140238Y-199124819D02*
X242235476Y-199172438D01*
X242235476Y-199172438D02*
X242283095Y-199220057D01*
X242283095Y-199220057D02*
X242330714Y-199315295D01*
X242330714Y-199315295D02*
X242330714Y-199362914D01*
X242330714Y-199362914D02*
X242283095Y-199458152D01*
X242283095Y-199458152D02*
X242235476Y-199505771D01*
X242235476Y-199505771D02*
X242140238Y-199553390D01*
X242140238Y-199553390D02*
X241949762Y-199553390D01*
X241949762Y-199553390D02*
X241854524Y-199601009D01*
X241854524Y-199601009D02*
X241806905Y-199648628D01*
X241806905Y-199648628D02*
X241759286Y-199743866D01*
X241759286Y-199743866D02*
X241759286Y-199934342D01*
X241759286Y-199934342D02*
X241806905Y-200029580D01*
X241806905Y-200029580D02*
X241854524Y-200077200D01*
X241854524Y-200077200D02*
X241949762Y-200124819D01*
X241949762Y-200124819D02*
X242140238Y-200124819D01*
X242140238Y-200124819D02*
X242235476Y-200077200D01*
X242235476Y-200077200D02*
X242283095Y-200029580D01*
X242283095Y-200029580D02*
X242330714Y-199934342D01*
X242330714Y-199934342D02*
X242330714Y-199743866D01*
X242330714Y-199743866D02*
X242283095Y-199648628D01*
X242283095Y-199648628D02*
X242235476Y-199601009D01*
X242235476Y-199601009D02*
X242140238Y-199553390D01*
X189686905Y-68754819D02*
X189686905Y-67754819D01*
X189686905Y-67754819D02*
X189925000Y-67754819D01*
X189925000Y-67754819D02*
X190067857Y-67802438D01*
X190067857Y-67802438D02*
X190163095Y-67897676D01*
X190163095Y-67897676D02*
X190210714Y-67992914D01*
X190210714Y-67992914D02*
X190258333Y-68183390D01*
X190258333Y-68183390D02*
X190258333Y-68326247D01*
X190258333Y-68326247D02*
X190210714Y-68516723D01*
X190210714Y-68516723D02*
X190163095Y-68611961D01*
X190163095Y-68611961D02*
X190067857Y-68707200D01*
X190067857Y-68707200D02*
X189925000Y-68754819D01*
X189925000Y-68754819D02*
X189686905Y-68754819D01*
X190639286Y-67850057D02*
X190686905Y-67802438D01*
X190686905Y-67802438D02*
X190782143Y-67754819D01*
X190782143Y-67754819D02*
X191020238Y-67754819D01*
X191020238Y-67754819D02*
X191115476Y-67802438D01*
X191115476Y-67802438D02*
X191163095Y-67850057D01*
X191163095Y-67850057D02*
X191210714Y-67945295D01*
X191210714Y-67945295D02*
X191210714Y-68040533D01*
X191210714Y-68040533D02*
X191163095Y-68183390D01*
X191163095Y-68183390D02*
X190591667Y-68754819D01*
X190591667Y-68754819D02*
X191210714Y-68754819D01*
X39813333Y-155009580D02*
X39765714Y-155057200D01*
X39765714Y-155057200D02*
X39622857Y-155104819D01*
X39622857Y-155104819D02*
X39527619Y-155104819D01*
X39527619Y-155104819D02*
X39384762Y-155057200D01*
X39384762Y-155057200D02*
X39289524Y-154961961D01*
X39289524Y-154961961D02*
X39241905Y-154866723D01*
X39241905Y-154866723D02*
X39194286Y-154676247D01*
X39194286Y-154676247D02*
X39194286Y-154533390D01*
X39194286Y-154533390D02*
X39241905Y-154342914D01*
X39241905Y-154342914D02*
X39289524Y-154247676D01*
X39289524Y-154247676D02*
X39384762Y-154152438D01*
X39384762Y-154152438D02*
X39527619Y-154104819D01*
X39527619Y-154104819D02*
X39622857Y-154104819D01*
X39622857Y-154104819D02*
X39765714Y-154152438D01*
X39765714Y-154152438D02*
X39813333Y-154200057D01*
X40670476Y-154438152D02*
X40670476Y-155104819D01*
X40432381Y-154057200D02*
X40194286Y-154771485D01*
X40194286Y-154771485D02*
X40813333Y-154771485D01*
X88724819Y-60358094D02*
X87724819Y-60358094D01*
X87724819Y-60358094D02*
X87724819Y-60119999D01*
X87724819Y-60119999D02*
X87772438Y-59977142D01*
X87772438Y-59977142D02*
X87867676Y-59881904D01*
X87867676Y-59881904D02*
X87962914Y-59834285D01*
X87962914Y-59834285D02*
X88153390Y-59786666D01*
X88153390Y-59786666D02*
X88296247Y-59786666D01*
X88296247Y-59786666D02*
X88486723Y-59834285D01*
X88486723Y-59834285D02*
X88581961Y-59881904D01*
X88581961Y-59881904D02*
X88677200Y-59977142D01*
X88677200Y-59977142D02*
X88724819Y-60119999D01*
X88724819Y-60119999D02*
X88724819Y-60358094D01*
X87724819Y-59453332D02*
X87724819Y-58834285D01*
X87724819Y-58834285D02*
X88105771Y-59167618D01*
X88105771Y-59167618D02*
X88105771Y-59024761D01*
X88105771Y-59024761D02*
X88153390Y-58929523D01*
X88153390Y-58929523D02*
X88201009Y-58881904D01*
X88201009Y-58881904D02*
X88296247Y-58834285D01*
X88296247Y-58834285D02*
X88534342Y-58834285D01*
X88534342Y-58834285D02*
X88629580Y-58881904D01*
X88629580Y-58881904D02*
X88677200Y-58929523D01*
X88677200Y-58929523D02*
X88724819Y-59024761D01*
X88724819Y-59024761D02*
X88724819Y-59310475D01*
X88724819Y-59310475D02*
X88677200Y-59405713D01*
X88677200Y-59405713D02*
X88629580Y-59453332D01*
X87573333Y-61859580D02*
X87525714Y-61907200D01*
X87525714Y-61907200D02*
X87382857Y-61954819D01*
X87382857Y-61954819D02*
X87287619Y-61954819D01*
X87287619Y-61954819D02*
X87144762Y-61907200D01*
X87144762Y-61907200D02*
X87049524Y-61811961D01*
X87049524Y-61811961D02*
X87001905Y-61716723D01*
X87001905Y-61716723D02*
X86954286Y-61526247D01*
X86954286Y-61526247D02*
X86954286Y-61383390D01*
X86954286Y-61383390D02*
X87001905Y-61192914D01*
X87001905Y-61192914D02*
X87049524Y-61097676D01*
X87049524Y-61097676D02*
X87144762Y-61002438D01*
X87144762Y-61002438D02*
X87287619Y-60954819D01*
X87287619Y-60954819D02*
X87382857Y-60954819D01*
X87382857Y-60954819D02*
X87525714Y-61002438D01*
X87525714Y-61002438D02*
X87573333Y-61050057D01*
X87906667Y-60954819D02*
X88525714Y-60954819D01*
X88525714Y-60954819D02*
X88192381Y-61335771D01*
X88192381Y-61335771D02*
X88335238Y-61335771D01*
X88335238Y-61335771D02*
X88430476Y-61383390D01*
X88430476Y-61383390D02*
X88478095Y-61431009D01*
X88478095Y-61431009D02*
X88525714Y-61526247D01*
X88525714Y-61526247D02*
X88525714Y-61764342D01*
X88525714Y-61764342D02*
X88478095Y-61859580D01*
X88478095Y-61859580D02*
X88430476Y-61907200D01*
X88430476Y-61907200D02*
X88335238Y-61954819D01*
X88335238Y-61954819D02*
X88049524Y-61954819D01*
X88049524Y-61954819D02*
X87954286Y-61907200D01*
X87954286Y-61907200D02*
X87906667Y-61859580D01*
X240669580Y-204556666D02*
X240717200Y-204604285D01*
X240717200Y-204604285D02*
X240764819Y-204747142D01*
X240764819Y-204747142D02*
X240764819Y-204842380D01*
X240764819Y-204842380D02*
X240717200Y-204985237D01*
X240717200Y-204985237D02*
X240621961Y-205080475D01*
X240621961Y-205080475D02*
X240526723Y-205128094D01*
X240526723Y-205128094D02*
X240336247Y-205175713D01*
X240336247Y-205175713D02*
X240193390Y-205175713D01*
X240193390Y-205175713D02*
X240002914Y-205128094D01*
X240002914Y-205128094D02*
X239907676Y-205080475D01*
X239907676Y-205080475D02*
X239812438Y-204985237D01*
X239812438Y-204985237D02*
X239764819Y-204842380D01*
X239764819Y-204842380D02*
X239764819Y-204747142D01*
X239764819Y-204747142D02*
X239812438Y-204604285D01*
X239812438Y-204604285D02*
X239860057Y-204556666D01*
X239764819Y-204223332D02*
X239764819Y-203556666D01*
X239764819Y-203556666D02*
X240764819Y-203985237D01*
X244236666Y-190984819D02*
X244236666Y-191699104D01*
X244236666Y-191699104D02*
X244189047Y-191841961D01*
X244189047Y-191841961D02*
X244093809Y-191937200D01*
X244093809Y-191937200D02*
X243950952Y-191984819D01*
X243950952Y-191984819D02*
X243855714Y-191984819D01*
X245236666Y-191984819D02*
X244665238Y-191984819D01*
X244950952Y-191984819D02*
X244950952Y-190984819D01*
X244950952Y-190984819D02*
X244855714Y-191127676D01*
X244855714Y-191127676D02*
X244760476Y-191222914D01*
X244760476Y-191222914D02*
X244665238Y-191270533D01*
X241753333Y-155319580D02*
X241705714Y-155367200D01*
X241705714Y-155367200D02*
X241562857Y-155414819D01*
X241562857Y-155414819D02*
X241467619Y-155414819D01*
X241467619Y-155414819D02*
X241324762Y-155367200D01*
X241324762Y-155367200D02*
X241229524Y-155271961D01*
X241229524Y-155271961D02*
X241181905Y-155176723D01*
X241181905Y-155176723D02*
X241134286Y-154986247D01*
X241134286Y-154986247D02*
X241134286Y-154843390D01*
X241134286Y-154843390D02*
X241181905Y-154652914D01*
X241181905Y-154652914D02*
X241229524Y-154557676D01*
X241229524Y-154557676D02*
X241324762Y-154462438D01*
X241324762Y-154462438D02*
X241467619Y-154414819D01*
X241467619Y-154414819D02*
X241562857Y-154414819D01*
X241562857Y-154414819D02*
X241705714Y-154462438D01*
X241705714Y-154462438D02*
X241753333Y-154510057D01*
X242705714Y-155414819D02*
X242134286Y-155414819D01*
X242420000Y-155414819D02*
X242420000Y-154414819D01*
X242420000Y-154414819D02*
X242324762Y-154557676D01*
X242324762Y-154557676D02*
X242229524Y-154652914D01*
X242229524Y-154652914D02*
X242134286Y-154700533D01*
X233388095Y-209876819D02*
X233959523Y-209876819D01*
X233673809Y-210876819D02*
X233673809Y-209876819D01*
X234292857Y-210876819D02*
X234292857Y-209876819D01*
X234292857Y-209876819D02*
X234673809Y-209876819D01*
X234673809Y-209876819D02*
X234769047Y-209924438D01*
X234769047Y-209924438D02*
X234816666Y-209972057D01*
X234816666Y-209972057D02*
X234864285Y-210067295D01*
X234864285Y-210067295D02*
X234864285Y-210210152D01*
X234864285Y-210210152D02*
X234816666Y-210305390D01*
X234816666Y-210305390D02*
X234769047Y-210353009D01*
X234769047Y-210353009D02*
X234673809Y-210400628D01*
X234673809Y-210400628D02*
X234292857Y-210400628D01*
X235245238Y-209972057D02*
X235292857Y-209924438D01*
X235292857Y-209924438D02*
X235388095Y-209876819D01*
X235388095Y-209876819D02*
X235626190Y-209876819D01*
X235626190Y-209876819D02*
X235721428Y-209924438D01*
X235721428Y-209924438D02*
X235769047Y-209972057D01*
X235769047Y-209972057D02*
X235816666Y-210067295D01*
X235816666Y-210067295D02*
X235816666Y-210162533D01*
X235816666Y-210162533D02*
X235769047Y-210305390D01*
X235769047Y-210305390D02*
X235197619Y-210876819D01*
X235197619Y-210876819D02*
X235816666Y-210876819D01*
X91654819Y-244738094D02*
X90654819Y-244738094D01*
X90654819Y-244738094D02*
X90654819Y-244499999D01*
X90654819Y-244499999D02*
X90702438Y-244357142D01*
X90702438Y-244357142D02*
X90797676Y-244261904D01*
X90797676Y-244261904D02*
X90892914Y-244214285D01*
X90892914Y-244214285D02*
X91083390Y-244166666D01*
X91083390Y-244166666D02*
X91226247Y-244166666D01*
X91226247Y-244166666D02*
X91416723Y-244214285D01*
X91416723Y-244214285D02*
X91511961Y-244261904D01*
X91511961Y-244261904D02*
X91607200Y-244357142D01*
X91607200Y-244357142D02*
X91654819Y-244499999D01*
X91654819Y-244499999D02*
X91654819Y-244738094D01*
X90654819Y-243261904D02*
X90654819Y-243738094D01*
X90654819Y-243738094D02*
X91131009Y-243785713D01*
X91131009Y-243785713D02*
X91083390Y-243738094D01*
X91083390Y-243738094D02*
X91035771Y-243642856D01*
X91035771Y-243642856D02*
X91035771Y-243404761D01*
X91035771Y-243404761D02*
X91083390Y-243309523D01*
X91083390Y-243309523D02*
X91131009Y-243261904D01*
X91131009Y-243261904D02*
X91226247Y-243214285D01*
X91226247Y-243214285D02*
X91464342Y-243214285D01*
X91464342Y-243214285D02*
X91559580Y-243261904D01*
X91559580Y-243261904D02*
X91607200Y-243309523D01*
X91607200Y-243309523D02*
X91654819Y-243404761D01*
X91654819Y-243404761D02*
X91654819Y-243642856D01*
X91654819Y-243642856D02*
X91607200Y-243738094D01*
X91607200Y-243738094D02*
X91559580Y-243785713D01*
X194718333Y-242384580D02*
X194670714Y-242432200D01*
X194670714Y-242432200D02*
X194527857Y-242479819D01*
X194527857Y-242479819D02*
X194432619Y-242479819D01*
X194432619Y-242479819D02*
X194289762Y-242432200D01*
X194289762Y-242432200D02*
X194194524Y-242336961D01*
X194194524Y-242336961D02*
X194146905Y-242241723D01*
X194146905Y-242241723D02*
X194099286Y-242051247D01*
X194099286Y-242051247D02*
X194099286Y-241908390D01*
X194099286Y-241908390D02*
X194146905Y-241717914D01*
X194146905Y-241717914D02*
X194194524Y-241622676D01*
X194194524Y-241622676D02*
X194289762Y-241527438D01*
X194289762Y-241527438D02*
X194432619Y-241479819D01*
X194432619Y-241479819D02*
X194527857Y-241479819D01*
X194527857Y-241479819D02*
X194670714Y-241527438D01*
X194670714Y-241527438D02*
X194718333Y-241575057D01*
X195575476Y-241479819D02*
X195385000Y-241479819D01*
X195385000Y-241479819D02*
X195289762Y-241527438D01*
X195289762Y-241527438D02*
X195242143Y-241575057D01*
X195242143Y-241575057D02*
X195146905Y-241717914D01*
X195146905Y-241717914D02*
X195099286Y-241908390D01*
X195099286Y-241908390D02*
X195099286Y-242289342D01*
X195099286Y-242289342D02*
X195146905Y-242384580D01*
X195146905Y-242384580D02*
X195194524Y-242432200D01*
X195194524Y-242432200D02*
X195289762Y-242479819D01*
X195289762Y-242479819D02*
X195480238Y-242479819D01*
X195480238Y-242479819D02*
X195575476Y-242432200D01*
X195575476Y-242432200D02*
X195623095Y-242384580D01*
X195623095Y-242384580D02*
X195670714Y-242289342D01*
X195670714Y-242289342D02*
X195670714Y-242051247D01*
X195670714Y-242051247D02*
X195623095Y-241956009D01*
X195623095Y-241956009D02*
X195575476Y-241908390D01*
X195575476Y-241908390D02*
X195480238Y-241860771D01*
X195480238Y-241860771D02*
X195289762Y-241860771D01*
X195289762Y-241860771D02*
X195194524Y-241908390D01*
X195194524Y-241908390D02*
X195146905Y-241956009D01*
X195146905Y-241956009D02*
X195099286Y-242051247D01*
X94533333Y-241829580D02*
X94485714Y-241877200D01*
X94485714Y-241877200D02*
X94342857Y-241924819D01*
X94342857Y-241924819D02*
X94247619Y-241924819D01*
X94247619Y-241924819D02*
X94104762Y-241877200D01*
X94104762Y-241877200D02*
X94009524Y-241781961D01*
X94009524Y-241781961D02*
X93961905Y-241686723D01*
X93961905Y-241686723D02*
X93914286Y-241496247D01*
X93914286Y-241496247D02*
X93914286Y-241353390D01*
X93914286Y-241353390D02*
X93961905Y-241162914D01*
X93961905Y-241162914D02*
X94009524Y-241067676D01*
X94009524Y-241067676D02*
X94104762Y-240972438D01*
X94104762Y-240972438D02*
X94247619Y-240924819D01*
X94247619Y-240924819D02*
X94342857Y-240924819D01*
X94342857Y-240924819D02*
X94485714Y-240972438D01*
X94485714Y-240972438D02*
X94533333Y-241020057D01*
X95438095Y-240924819D02*
X94961905Y-240924819D01*
X94961905Y-240924819D02*
X94914286Y-241401009D01*
X94914286Y-241401009D02*
X94961905Y-241353390D01*
X94961905Y-241353390D02*
X95057143Y-241305771D01*
X95057143Y-241305771D02*
X95295238Y-241305771D01*
X95295238Y-241305771D02*
X95390476Y-241353390D01*
X95390476Y-241353390D02*
X95438095Y-241401009D01*
X95438095Y-241401009D02*
X95485714Y-241496247D01*
X95485714Y-241496247D02*
X95485714Y-241734342D01*
X95485714Y-241734342D02*
X95438095Y-241829580D01*
X95438095Y-241829580D02*
X95390476Y-241877200D01*
X95390476Y-241877200D02*
X95295238Y-241924819D01*
X95295238Y-241924819D02*
X95057143Y-241924819D01*
X95057143Y-241924819D02*
X94961905Y-241877200D01*
X94961905Y-241877200D02*
X94914286Y-241829580D01*
X42551905Y-158229819D02*
X42551905Y-157229819D01*
X42551905Y-157229819D02*
X42790000Y-157229819D01*
X42790000Y-157229819D02*
X42932857Y-157277438D01*
X42932857Y-157277438D02*
X43028095Y-157372676D01*
X43028095Y-157372676D02*
X43075714Y-157467914D01*
X43075714Y-157467914D02*
X43123333Y-157658390D01*
X43123333Y-157658390D02*
X43123333Y-157801247D01*
X43123333Y-157801247D02*
X43075714Y-157991723D01*
X43075714Y-157991723D02*
X43028095Y-158086961D01*
X43028095Y-158086961D02*
X42932857Y-158182200D01*
X42932857Y-158182200D02*
X42790000Y-158229819D01*
X42790000Y-158229819D02*
X42551905Y-158229819D01*
X43980476Y-157563152D02*
X43980476Y-158229819D01*
X43742381Y-157182200D02*
X43504286Y-157896485D01*
X43504286Y-157896485D02*
X44123333Y-157896485D01*
X241538333Y-201359819D02*
X241205000Y-200883628D01*
X240966905Y-201359819D02*
X240966905Y-200359819D01*
X240966905Y-200359819D02*
X241347857Y-200359819D01*
X241347857Y-200359819D02*
X241443095Y-200407438D01*
X241443095Y-200407438D02*
X241490714Y-200455057D01*
X241490714Y-200455057D02*
X241538333Y-200550295D01*
X241538333Y-200550295D02*
X241538333Y-200693152D01*
X241538333Y-200693152D02*
X241490714Y-200788390D01*
X241490714Y-200788390D02*
X241443095Y-200836009D01*
X241443095Y-200836009D02*
X241347857Y-200883628D01*
X241347857Y-200883628D02*
X240966905Y-200883628D01*
X242490714Y-201359819D02*
X241919286Y-201359819D01*
X242205000Y-201359819D02*
X242205000Y-200359819D01*
X242205000Y-200359819D02*
X242109762Y-200502676D01*
X242109762Y-200502676D02*
X242014524Y-200597914D01*
X242014524Y-200597914D02*
X241919286Y-200645533D01*
X191064819Y-244873094D02*
X190064819Y-244873094D01*
X190064819Y-244873094D02*
X190064819Y-244634999D01*
X190064819Y-244634999D02*
X190112438Y-244492142D01*
X190112438Y-244492142D02*
X190207676Y-244396904D01*
X190207676Y-244396904D02*
X190302914Y-244349285D01*
X190302914Y-244349285D02*
X190493390Y-244301666D01*
X190493390Y-244301666D02*
X190636247Y-244301666D01*
X190636247Y-244301666D02*
X190826723Y-244349285D01*
X190826723Y-244349285D02*
X190921961Y-244396904D01*
X190921961Y-244396904D02*
X191017200Y-244492142D01*
X191017200Y-244492142D02*
X191064819Y-244634999D01*
X191064819Y-244634999D02*
X191064819Y-244873094D01*
X190064819Y-243444523D02*
X190064819Y-243634999D01*
X190064819Y-243634999D02*
X190112438Y-243730237D01*
X190112438Y-243730237D02*
X190160057Y-243777856D01*
X190160057Y-243777856D02*
X190302914Y-243873094D01*
X190302914Y-243873094D02*
X190493390Y-243920713D01*
X190493390Y-243920713D02*
X190874342Y-243920713D01*
X190874342Y-243920713D02*
X190969580Y-243873094D01*
X190969580Y-243873094D02*
X191017200Y-243825475D01*
X191017200Y-243825475D02*
X191064819Y-243730237D01*
X191064819Y-243730237D02*
X191064819Y-243539761D01*
X191064819Y-243539761D02*
X191017200Y-243444523D01*
X191017200Y-243444523D02*
X190969580Y-243396904D01*
X190969580Y-243396904D02*
X190874342Y-243349285D01*
X190874342Y-243349285D02*
X190636247Y-243349285D01*
X190636247Y-243349285D02*
X190541009Y-243396904D01*
X190541009Y-243396904D02*
X190493390Y-243444523D01*
X190493390Y-243444523D02*
X190445771Y-243539761D01*
X190445771Y-243539761D02*
X190445771Y-243730237D01*
X190445771Y-243730237D02*
X190493390Y-243825475D01*
X190493390Y-243825475D02*
X190541009Y-243873094D01*
X190541009Y-243873094D02*
X190636247Y-243920713D01*
X194133333Y-67339580D02*
X194085714Y-67387200D01*
X194085714Y-67387200D02*
X193942857Y-67434819D01*
X193942857Y-67434819D02*
X193847619Y-67434819D01*
X193847619Y-67434819D02*
X193704762Y-67387200D01*
X193704762Y-67387200D02*
X193609524Y-67291961D01*
X193609524Y-67291961D02*
X193561905Y-67196723D01*
X193561905Y-67196723D02*
X193514286Y-67006247D01*
X193514286Y-67006247D02*
X193514286Y-66863390D01*
X193514286Y-66863390D02*
X193561905Y-66672914D01*
X193561905Y-66672914D02*
X193609524Y-66577676D01*
X193609524Y-66577676D02*
X193704762Y-66482438D01*
X193704762Y-66482438D02*
X193847619Y-66434819D01*
X193847619Y-66434819D02*
X193942857Y-66434819D01*
X193942857Y-66434819D02*
X194085714Y-66482438D01*
X194085714Y-66482438D02*
X194133333Y-66530057D01*
X194514286Y-66530057D02*
X194561905Y-66482438D01*
X194561905Y-66482438D02*
X194657143Y-66434819D01*
X194657143Y-66434819D02*
X194895238Y-66434819D01*
X194895238Y-66434819D02*
X194990476Y-66482438D01*
X194990476Y-66482438D02*
X195038095Y-66530057D01*
X195038095Y-66530057D02*
X195085714Y-66625295D01*
X195085714Y-66625295D02*
X195085714Y-66720533D01*
X195085714Y-66720533D02*
X195038095Y-66863390D01*
X195038095Y-66863390D02*
X194466667Y-67434819D01*
X194466667Y-67434819D02*
X195085714Y-67434819D01*
X245954819Y-157588094D02*
X244954819Y-157588094D01*
X244954819Y-157588094D02*
X244954819Y-157349999D01*
X244954819Y-157349999D02*
X245002438Y-157207142D01*
X245002438Y-157207142D02*
X245097676Y-157111904D01*
X245097676Y-157111904D02*
X245192914Y-157064285D01*
X245192914Y-157064285D02*
X245383390Y-157016666D01*
X245383390Y-157016666D02*
X245526247Y-157016666D01*
X245526247Y-157016666D02*
X245716723Y-157064285D01*
X245716723Y-157064285D02*
X245811961Y-157111904D01*
X245811961Y-157111904D02*
X245907200Y-157207142D01*
X245907200Y-157207142D02*
X245954819Y-157349999D01*
X245954819Y-157349999D02*
X245954819Y-157588094D01*
X245954819Y-156064285D02*
X245954819Y-156635713D01*
X245954819Y-156349999D02*
X244954819Y-156349999D01*
X244954819Y-156349999D02*
X245097676Y-156445237D01*
X245097676Y-156445237D02*
X245192914Y-156540475D01*
X245192914Y-156540475D02*
X245240533Y-156635713D01*
X235748095Y-205894819D02*
X236319523Y-205894819D01*
X236033809Y-206894819D02*
X236033809Y-205894819D01*
X236652857Y-206894819D02*
X236652857Y-205894819D01*
X236652857Y-205894819D02*
X237033809Y-205894819D01*
X237033809Y-205894819D02*
X237129047Y-205942438D01*
X237129047Y-205942438D02*
X237176666Y-205990057D01*
X237176666Y-205990057D02*
X237224285Y-206085295D01*
X237224285Y-206085295D02*
X237224285Y-206228152D01*
X237224285Y-206228152D02*
X237176666Y-206323390D01*
X237176666Y-206323390D02*
X237129047Y-206371009D01*
X237129047Y-206371009D02*
X237033809Y-206418628D01*
X237033809Y-206418628D02*
X236652857Y-206418628D01*
X238176666Y-206894819D02*
X237605238Y-206894819D01*
X237890952Y-206894819D02*
X237890952Y-205894819D01*
X237890952Y-205894819D02*
X237795714Y-206037676D01*
X237795714Y-206037676D02*
X237700476Y-206132914D01*
X237700476Y-206132914D02*
X237605238Y-206180533D01*
X241473333Y-203734819D02*
X241140000Y-203258628D01*
X240901905Y-203734819D02*
X240901905Y-202734819D01*
X240901905Y-202734819D02*
X241282857Y-202734819D01*
X241282857Y-202734819D02*
X241378095Y-202782438D01*
X241378095Y-202782438D02*
X241425714Y-202830057D01*
X241425714Y-202830057D02*
X241473333Y-202925295D01*
X241473333Y-202925295D02*
X241473333Y-203068152D01*
X241473333Y-203068152D02*
X241425714Y-203163390D01*
X241425714Y-203163390D02*
X241378095Y-203211009D01*
X241378095Y-203211009D02*
X241282857Y-203258628D01*
X241282857Y-203258628D02*
X240901905Y-203258628D01*
X242330476Y-203068152D02*
X242330476Y-203734819D01*
X242092381Y-202687200D02*
X241854286Y-203401485D01*
X241854286Y-203401485D02*
X242473333Y-203401485D01*
%TO.C,U7*%
D12*
X237195000Y-199455000D02*
G75*
G02*
X236995000Y-199455000I-100000J0D01*
G01*
X236995000Y-199455000D02*
G75*
G02*
X237195000Y-199455000I100000J0D01*
G01*
D13*
X233695000Y-204390000D02*
X233695000Y-204220000D01*
X237695000Y-204390000D02*
X237695000Y-204220000D01*
X233695000Y-200390000D02*
X233695000Y-200560000D01*
X237695000Y-200390000D02*
X237695000Y-200560000D01*
X233695000Y-204390000D02*
X233865000Y-204390000D01*
X237695000Y-204390000D02*
X237525000Y-204390000D01*
X233695000Y-200390000D02*
X233865000Y-200390000D01*
X237695000Y-200390000D02*
X237525000Y-200390000D01*
%TO.C,U6*%
D11*
X193370000Y-238210000D02*
X193370000Y-238140000D01*
X193370000Y-238140000D02*
X193010000Y-238140000D01*
X191620000Y-240940000D02*
X193370000Y-240940000D01*
X191620000Y-240940000D02*
X189870000Y-240940000D01*
X189870000Y-240940000D02*
X189870000Y-239970000D01*
X189870000Y-239110000D02*
X189870000Y-238140000D01*
X189870000Y-238140000D02*
X190230000Y-238140000D01*
X193010000Y-238140000D02*
X190230000Y-238140000D01*
X193370000Y-239880000D02*
X193370000Y-239200000D01*
X193370000Y-240940000D02*
X193370000Y-240870000D01*
D14*
X193400000Y-240850000D02*
G75*
G02*
X193340000Y-240850000I-30000J0D01*
G01*
X193340000Y-240850000D02*
G75*
G02*
X193400000Y-240850000I30000J0D01*
G01*
D15*
X193770000Y-240430000D02*
G75*
G02*
X193470000Y-240430000I-150000J0D01*
G01*
X193470000Y-240430000D02*
G75*
G02*
X193770000Y-240430000I150000J0D01*
G01*
%TO.C,U5*%
D11*
X93170000Y-237710000D02*
X93170000Y-237640000D01*
X93170000Y-237640000D02*
X92810000Y-237640000D01*
X91420000Y-240440000D02*
X93170000Y-240440000D01*
X91420000Y-240440000D02*
X89670000Y-240440000D01*
X89670000Y-240440000D02*
X89670000Y-239470000D01*
X89670000Y-238610000D02*
X89670000Y-237640000D01*
X89670000Y-237640000D02*
X90030000Y-237640000D01*
X92810000Y-237640000D02*
X90030000Y-237640000D01*
X93170000Y-239380000D02*
X93170000Y-238700000D01*
X93170000Y-240440000D02*
X93170000Y-240370000D01*
D14*
X93200000Y-240350000D02*
G75*
G02*
X93140000Y-240350000I-30000J0D01*
G01*
X93140000Y-240350000D02*
G75*
G02*
X93200000Y-240350000I30000J0D01*
G01*
D15*
X93570000Y-239930000D02*
G75*
G02*
X93270000Y-239930000I-150000J0D01*
G01*
X93270000Y-239930000D02*
G75*
G02*
X93570000Y-239930000I150000J0D01*
G01*
%TO.C,U4*%
D11*
X42780000Y-150720000D02*
X42780000Y-150650000D01*
X42780000Y-150650000D02*
X42420000Y-150650000D01*
X41030000Y-153450000D02*
X42780000Y-153450000D01*
X41030000Y-153450000D02*
X39280000Y-153450000D01*
X39280000Y-153450000D02*
X39280000Y-152480000D01*
X39280000Y-151620000D02*
X39280000Y-150650000D01*
X39280000Y-150650000D02*
X39640000Y-150650000D01*
X42420000Y-150650000D02*
X39640000Y-150650000D01*
X42780000Y-152390000D02*
X42780000Y-151710000D01*
X42780000Y-153450000D02*
X42780000Y-153380000D01*
D14*
X42810000Y-153360000D02*
G75*
G02*
X42750000Y-153360000I-30000J0D01*
G01*
X42750000Y-153360000D02*
G75*
G02*
X42810000Y-153360000I30000J0D01*
G01*
D15*
X43180000Y-152940000D02*
G75*
G02*
X42880000Y-152940000I-150000J0D01*
G01*
X42880000Y-152940000D02*
G75*
G02*
X43180000Y-152940000I150000J0D01*
G01*
%TO.C,U3*%
D11*
X92720000Y-62640000D02*
X92720000Y-62570000D01*
X92720000Y-62570000D02*
X92360000Y-62570000D01*
X90970000Y-65370000D02*
X92720000Y-65370000D01*
X90970000Y-65370000D02*
X89220000Y-65370000D01*
X89220000Y-65370000D02*
X89220000Y-64400000D01*
X89220000Y-63540000D02*
X89220000Y-62570000D01*
X89220000Y-62570000D02*
X89580000Y-62570000D01*
X92360000Y-62570000D02*
X89580000Y-62570000D01*
X92720000Y-64310000D02*
X92720000Y-63630000D01*
X92720000Y-65370000D02*
X92720000Y-65300000D01*
D14*
X92750000Y-65280000D02*
G75*
G02*
X92690000Y-65280000I-30000J0D01*
G01*
X92690000Y-65280000D02*
G75*
G02*
X92750000Y-65280000I30000J0D01*
G01*
D15*
X93120000Y-64860000D02*
G75*
G02*
X92820000Y-64860000I-150000J0D01*
G01*
X92820000Y-64860000D02*
G75*
G02*
X93120000Y-64860000I150000J0D01*
G01*
%TO.C,U2*%
D11*
X193890000Y-62890000D02*
X193890000Y-62820000D01*
X193890000Y-62820000D02*
X193530000Y-62820000D01*
X192140000Y-65620000D02*
X193890000Y-65620000D01*
X192140000Y-65620000D02*
X190390000Y-65620000D01*
X190390000Y-65620000D02*
X190390000Y-64650000D01*
X190390000Y-63790000D02*
X190390000Y-62820000D01*
X190390000Y-62820000D02*
X190750000Y-62820000D01*
X193530000Y-62820000D02*
X190750000Y-62820000D01*
X193890000Y-64560000D02*
X193890000Y-63880000D01*
X193890000Y-65620000D02*
X193890000Y-65550000D01*
D14*
X193920000Y-65530000D02*
G75*
G02*
X193860000Y-65530000I-30000J0D01*
G01*
X193860000Y-65530000D02*
G75*
G02*
X193920000Y-65530000I30000J0D01*
G01*
D15*
X194290000Y-65110000D02*
G75*
G02*
X193990000Y-65110000I-150000J0D01*
G01*
X193990000Y-65110000D02*
G75*
G02*
X194290000Y-65110000I150000J0D01*
G01*
%TO.C,U1*%
D11*
X242820000Y-152940000D02*
X242820000Y-153010000D01*
X242820000Y-153010000D02*
X243180000Y-153010000D01*
X244570000Y-150210000D02*
X242820000Y-150210000D01*
X244570000Y-150210000D02*
X246320000Y-150210000D01*
X246320000Y-150210000D02*
X246320000Y-151180000D01*
X246320000Y-152040000D02*
X246320000Y-153010000D01*
X246320000Y-153010000D02*
X245960000Y-153010000D01*
X243180000Y-153010000D02*
X245960000Y-153010000D01*
X242820000Y-151270000D02*
X242820000Y-151950000D01*
X242820000Y-150210000D02*
X242820000Y-150280000D01*
D14*
X242850000Y-150300000D02*
G75*
G02*
X242790000Y-150300000I-30000J0D01*
G01*
X242790000Y-150300000D02*
G75*
G02*
X242850000Y-150300000I30000J0D01*
G01*
D15*
X242720000Y-150720000D02*
G75*
G02*
X242420000Y-150720000I-150000J0D01*
G01*
X242420000Y-150720000D02*
G75*
G02*
X242720000Y-150720000I150000J0D01*
G01*
%TO.C,C8*%
D16*
X239682836Y-199440000D02*
X239467164Y-199440000D01*
X239682836Y-200160000D02*
X239467164Y-200160000D01*
%TO.C,D2*%
D12*
X194400000Y-68700000D02*
G75*
G02*
X194200000Y-68700000I-100000J0D01*
G01*
X194200000Y-68700000D02*
G75*
G02*
X194400000Y-68700000I100000J0D01*
G01*
%TO.C,C4*%
D16*
X42177836Y-154260000D02*
X41962164Y-154260000D01*
X42177836Y-154980000D02*
X41962164Y-154980000D01*
%TO.C,D3*%
D12*
X90375000Y-58075000D02*
G75*
G02*
X90175000Y-58075000I-100000J0D01*
G01*
X90175000Y-58075000D02*
G75*
G02*
X90375000Y-58075000I100000J0D01*
G01*
%TO.C,C3*%
D16*
X89957836Y-61180000D02*
X89742164Y-61180000D01*
X89957836Y-61900000D02*
X89742164Y-61900000D01*
%TO.C,C7*%
X238700000Y-204092164D02*
X238700000Y-204307836D01*
X239420000Y-204092164D02*
X239420000Y-204307836D01*
%TO.C,J1*%
X241970000Y-187490000D02*
X241970000Y-172190000D01*
X241970000Y-190090000D02*
X241970000Y-188760000D01*
X243300000Y-190090000D02*
X241970000Y-190090000D01*
X244570000Y-187490000D02*
X241970000Y-187490000D01*
X244570000Y-190090000D02*
X244570000Y-187490000D01*
X247170000Y-172190000D02*
X241970000Y-172190000D01*
X247170000Y-190090000D02*
X244570000Y-190090000D01*
X247170000Y-190090000D02*
X247170000Y-172190000D01*
%TO.C,C1*%
X244127836Y-154270000D02*
X243912164Y-154270000D01*
X244127836Y-154990000D02*
X243912164Y-154990000D01*
%TO.C,TP2*%
X235600000Y-212070000D02*
G75*
G02*
X233700000Y-212070000I-950000J0D01*
G01*
X233700000Y-212070000D02*
G75*
G02*
X235600000Y-212070000I950000J0D01*
G01*
%TO.C,D5*%
D12*
X93325000Y-242450000D02*
G75*
G02*
X93125000Y-242450000I-100000J0D01*
G01*
X93125000Y-242450000D02*
G75*
G02*
X93325000Y-242450000I100000J0D01*
G01*
%TO.C,C6*%
D16*
X192602836Y-241615000D02*
X192387164Y-241615000D01*
X192602836Y-242335000D02*
X192387164Y-242335000D01*
%TO.C,C5*%
X92587836Y-241160000D02*
X92372164Y-241160000D01*
X92587836Y-241880000D02*
X92372164Y-241880000D01*
%TO.C,D4*%
D12*
X41550000Y-156075000D02*
G75*
G02*
X41350000Y-156075000I-100000J0D01*
G01*
X41350000Y-156075000D02*
G75*
G02*
X41550000Y-156075000I100000J0D01*
G01*
%TO.C,R1*%
D16*
X239471359Y-200495000D02*
X239778641Y-200495000D01*
X239471359Y-201255000D02*
X239778641Y-201255000D01*
%TO.C,D6*%
D12*
X193000000Y-242425000D02*
G75*
G02*
X192800000Y-242425000I-100000J0D01*
G01*
X192800000Y-242425000D02*
G75*
G02*
X193000000Y-242425000I100000J0D01*
G01*
%TO.C,C2*%
D16*
X192497836Y-66410000D02*
X192282164Y-66410000D01*
X192497836Y-67130000D02*
X192282164Y-67130000D01*
%TO.C,D1*%
D12*
X243700000Y-158150000D02*
G75*
G02*
X243500000Y-158150000I-100000J0D01*
G01*
X243500000Y-158150000D02*
G75*
G02*
X243700000Y-158150000I100000J0D01*
G01*
%TO.C,TP1*%
D16*
X237790000Y-208320000D02*
G75*
G02*
X235890000Y-208320000I-950000J0D01*
G01*
X235890000Y-208320000D02*
G75*
G02*
X237790000Y-208320000I950000J0D01*
G01*
%TO.C,R4*%
X241753641Y-201695000D02*
X241446359Y-201695000D01*
X241753641Y-202455000D02*
X241446359Y-202455000D01*
%TD*%
M02*
